<?xml version="1.0" encoding="utf-8"?>
<!-- Generator: Adobe Illustrator 23.0.1, SVG Export Plug-In . SVG Version: 6.00 Build 0)  -->
<svg version="1.1" id="Слой_1" xmlns="http://www.w3.org/2000/svg" xmlns:xlink="http://www.w3.org/1999/xlink" x="0px" y="0px"
	 viewBox="0 0 180 180" style="enable-background:new 0 0 180 180;" xml:space="preserve">
<style type="text/css">
	.st0{fill:url(#SVGID_1_);}
	.st1{fill:#FC008B;}
	.st2{fill:#ADEFF7;}
	.st3{fill:#7271B3;}
	.st4{fill:#FCC13F;}
	.st5{fill:#352E73;}
	.st6{fill:#FFC033;}
	.st7{fill:#FEE2BF;}
	.st8{fill:#F3FFFF;}
	.st9{fill:#2D2861;}
	.st10{fill:#8CD334;}
	.st11{fill:#FFFFFF;}
	.st12{fill:#F7A491;}
	.st13{fill:#F48C7F;}
	.st14{fill:#2BA14C;}
	.st15{fill:#D6007E;}
	.st16{fill:#F27A6A;}
	.st17{fill:#EFEFEF;}
</style>
<g>
	<linearGradient id="SVGID_1_" gradientUnits="userSpaceOnUse" x1="89.8862" y1="35.5346" x2="91.3368" y2="139.3898">
		<stop  offset="0" style="stop-color:#8BF9FD"/>
		<stop  offset="0.9898" style="stop-color:#FAFEE5"/>
	</linearGradient>
	<path class="st0" d="M160.51,140.13c16.62-8.45,17.71-49.43-14.44-59.02c-32.14-9.59-42.42-44.37-81.41-46.65
		c-12.1-0.71-40.39,4.47-50.82,35.14c-10.33,30.37,1.62,68.94,9.33,70.53C98.16,140.13,160.51,140.13,160.51,140.13z"/>
	<path class="st1" d="M16.23,50.32c-0.09-0.03-0.18-0.01-0.25,0.05c-0.32,0.31-1.09,0.52-1.49,0.59l-1.35-1.63
		c0.14-0.38,0.49-1.1,0.85-1.36c0.07-0.05,0.11-0.14,0.09-0.23L13.8,46.1c-0.02-0.09-0.08-0.16-0.17-0.19c-0.43-0.13-1-0.68-1.25-1
		l0.73-1.99c0.4-0.07,1.2-0.12,1.6,0.06c0.08,0.04,0.18,0.02,0.25-0.03l1.28-1.06c0.07-0.06,0.1-0.15,0.08-0.24
		c-0.1-0.43,0.09-1.21,0.24-1.59l2.09-0.36c0.26,0.31,0.71,0.97,0.75,1.42c0.01,0.09,0.07,0.17,0.15,0.2l1.56,0.58
		c0.09,0.03,0.18,0.01,0.25-0.05c0.32-0.31,1.09-0.52,1.49-0.59l1.35,1.63c-0.14,0.38-0.49,1.1-0.85,1.36
		c-0.07,0.05-0.11,0.14-0.1,0.23l0.28,1.64c0.02,0.09,0.08,0.16,0.17,0.19c0.43,0.13,1,0.68,1.25,1l-0.73,1.99
		c-0.4,0.07-1.2,0.12-1.6-0.06c-0.08-0.04-0.18-0.02-0.25,0.03l-1.28,1.06c-0.07,0.06-0.1,0.15-0.08,0.24
		c0.1,0.43-0.09,1.21-0.24,1.59l-2.09,0.36c-0.26-0.31-0.71-0.97-0.75-1.42c-0.01-0.09-0.07-0.17-0.15-0.2L16.23,50.32z
		 M20.01,47.71c0.89-0.74,1.01-2.05,0.27-2.94c-0.74-0.89-2.05-1.01-2.94-0.27c-0.89,0.74-1.01,2.05-0.27,2.94
		C17.81,48.32,19.12,48.45,20.01,47.71z M20.86,48.74c1.45-1.21,1.65-3.36,0.45-4.82c-1.21-1.45-3.36-1.65-4.82-0.45
		c-1.45,1.21-1.65,3.36-0.45,4.82C17.25,49.75,19.41,49.95,20.86,48.74z"/>
	<path class="st2" d="M15.2,101.28c-0.08-0.06-0.2-0.07-0.29-0.02c-0.45,0.24-1.37,0.23-1.83,0.17l-0.98-2.22
		c0.27-0.38,0.89-1.06,1.37-1.23c0.1-0.04,0.17-0.12,0.18-0.23l0.21-1.89c0.01-0.1-0.04-0.2-0.12-0.26
		c-0.43-0.27-0.88-1.07-1.07-1.5l1.43-1.95c0.46,0.05,1.36,0.24,1.75,0.57c0.08,0.07,0.19,0.08,0.29,0.04l1.74-0.77
		c0.1-0.04,0.16-0.13,0.16-0.24c0.02-0.51,0.48-1.3,0.76-1.67l2.41,0.27c0.19,0.43,0.47,1.3,0.38,1.8c-0.02,0.1,0.02,0.21,0.11,0.27
		l1.54,1.13c0.08,0.06,0.2,0.07,0.29,0.02c0.45-0.23,1.37-0.23,1.83-0.17l0.98,2.22c-0.27,0.38-0.89,1.06-1.37,1.23
		c-0.1,0.04-0.17,0.12-0.18,0.23l-0.21,1.89c-0.01,0.1,0.04,0.2,0.12,0.26c0.43,0.27,0.88,1.07,1.07,1.5l-1.43,1.95
		c-0.46-0.05-1.36-0.24-1.75-0.57c-0.08-0.07-0.19-0.08-0.29-0.04l-1.74,0.77c-0.1,0.04-0.16,0.13-0.16,0.24
		c-0.02,0.51-0.48,1.3-0.76,1.67l-2.41-0.27c-0.19-0.43-0.47-1.3-0.38-1.8c0.02-0.1-0.02-0.21-0.11-0.27L15.2,101.28z M20.18,99.59
		c1.21-0.53,1.76-1.94,1.23-3.15c-0.53-1.21-1.94-1.76-3.15-1.23c-1.21,0.53-1.76,1.94-1.23,3.15
		C17.56,99.58,18.97,100.13,20.18,99.59z M20.8,101c1.98-0.87,2.88-3.18,2.01-5.17c-0.87-1.98-3.18-2.88-5.17-2.01
		c-1.98,0.87-2.88,3.18-2.01,5.17C16.5,100.97,18.82,101.87,20.8,101z"/>
	<path class="st3" d="M154.67,56.37c-0.08-0.06-0.2-0.07-0.29-0.02c-0.45,0.24-1.37,0.23-1.83,0.17l-0.98-2.22
		c0.27-0.38,0.89-1.06,1.37-1.23c0.1-0.04,0.17-0.12,0.18-0.23l0.21-1.89c0.01-0.1-0.04-0.2-0.12-0.26
		c-0.43-0.27-0.88-1.07-1.07-1.5l1.43-1.95c0.46,0.05,1.36,0.24,1.75,0.57c0.08,0.07,0.19,0.08,0.29,0.04l1.74-0.77
		c0.1-0.04,0.16-0.13,0.16-0.24c0.02-0.51,0.48-1.3,0.76-1.67l2.41,0.26c0.19,0.43,0.47,1.3,0.38,1.8c-0.02,0.1,0.02,0.21,0.11,0.27
		l1.54,1.13c0.08,0.06,0.2,0.07,0.29,0.02c0.45-0.23,1.37-0.23,1.83-0.17l0.98,2.22c-0.27,0.38-0.89,1.06-1.37,1.23
		c-0.1,0.04-0.17,0.12-0.18,0.23l-0.21,1.89c-0.01,0.1,0.04,0.2,0.12,0.26c0.43,0.27,0.88,1.07,1.07,1.5l-1.43,1.95
		c-0.46-0.05-1.36-0.24-1.75-0.57c-0.08-0.07-0.19-0.08-0.29-0.04l-1.74,0.77c-0.1,0.04-0.16,0.13-0.16,0.24
		c-0.02,0.51-0.48,1.3-0.76,1.67l-2.41-0.26c-0.19-0.43-0.47-1.3-0.38-1.8c0.02-0.1-0.02-0.21-0.11-0.27L154.67,56.37z
		 M159.65,54.68c1.21-0.53,1.76-1.94,1.23-3.15c-0.53-1.21-1.94-1.76-3.15-1.23c-1.21,0.53-1.76,1.94-1.23,3.15
		S158.45,55.21,159.65,54.68z M160.27,56.08c1.98-0.87,2.88-3.18,2.01-5.17c-0.87-1.98-3.18-2.88-5.17-2.01
		c-1.98,0.87-2.88,3.18-2.01,5.17C155.98,56.06,158.29,56.96,160.27,56.08z"/>
	<path class="st1" d="M4.06,110.11c-0.03-0.1-0.11-0.18-0.22-0.2c-0.51-0.1-1.24-0.67-1.57-1.01l0.61-2.39
		c0.46-0.13,1.37-0.29,1.87-0.13c0.1,0.03,0.21,0.01,0.29-0.07l1.36-1.39c0.07-0.08,0.1-0.19,0.06-0.29
		c-0.17-0.49-0.04-1.41,0.09-1.87l2.38-0.66c0.34,0.33,0.94,1.05,1.04,1.55c0.02,0.1,0.1,0.19,0.2,0.21l1.88,0.48
		c0.1,0.03,0.21-0.01,0.28-0.09c0.34-0.39,1.2-0.74,1.66-0.86l1.76,1.73c-0.11,0.46-0.44,1.33-0.82,1.68
		c-0.08,0.07-0.11,0.18-0.08,0.28l0.52,1.87c0.03,0.1,0.11,0.18,0.22,0.2c0.51,0.1,1.24,0.67,1.57,1.01l-0.61,2.39
		c-0.46,0.13-1.37,0.29-1.87,0.13c-0.1-0.03-0.21-0.01-0.29,0.07l-1.36,1.39c-0.07,0.08-0.1,0.19-0.06,0.29
		c0.17,0.49,0.04,1.41-0.09,1.87l-2.38,0.66c-0.34-0.33-0.94-1.05-1.04-1.55c-0.02-0.1-0.1-0.19-0.2-0.21l-1.88-0.48
		c-0.1-0.03-0.21,0.01-0.28,0.09c-0.34,0.39-1.2,0.74-1.66,0.86l-1.76-1.73c0.11-0.46,0.44-1.33,0.82-1.68
		c0.08-0.07,0.11-0.18,0.08-0.28L4.06,110.11z M9.11,111.9c1.3,0.33,2.63-0.45,2.96-1.75c0.33-1.3-0.45-2.63-1.75-2.96
		c-1.3-0.33-2.63,0.45-2.96,1.75C7.03,110.24,7.81,111.56,9.11,111.9z M8.72,113.41c2.13,0.55,4.31-0.74,4.86-2.87
		c0.55-2.13-0.74-4.31-2.87-4.86c-2.13-0.55-4.31,0.74-4.86,2.87C5.3,110.68,6.59,112.86,8.72,113.41z"/>
	<path class="st4" d="M27.92,126.91c-0.2,0.02-0.37,0.15-0.44,0.33c-0.36,0.91-1.67,2.05-2.41,2.55l-4.19-1.97
		c-0.09-0.89-0.05-2.63,0.42-3.48c0.1-0.17,0.08-0.39-0.03-0.55l-2.08-2.99c-0.11-0.16-0.31-0.25-0.51-0.22
		c-0.96,0.15-2.61-0.42-3.41-0.81l-0.39-4.61c0.73-0.52,2.25-1.36,3.23-1.38c0.2,0,0.38-0.12,0.46-0.3l1.54-3.3
		c0.08-0.18,0.06-0.39-0.06-0.55c-0.61-0.76-0.94-2.47-1-3.36l3.8-2.65c0.81,0.37,2.3,1.27,2.81,2.1c0.1,0.17,0.29,0.27,0.49,0.25
		l3.63-0.31c0.2-0.02,0.37-0.15,0.44-0.33c0.36-0.91,1.67-2.05,2.41-2.55l4.19,1.97c0.09,0.89,0.05,2.63-0.42,3.48
		c-0.1,0.17-0.08,0.39,0.03,0.55l2.08,2.99c0.11,0.16,0.31,0.25,0.51,0.22c0.96-0.15,2.61,0.42,3.41,0.81l0.39,4.61
		c-0.73,0.52-2.25,1.36-3.23,1.38c-0.2,0-0.38,0.12-0.46,0.3l-1.54,3.3c-0.08,0.18-0.06,0.39,0.06,0.55c0.61,0.76,0.94,2.47,1,3.36
		l-3.8,2.65c-0.81-0.37-2.3-1.27-2.81-2.1c-0.1-0.17-0.29-0.27-0.49-0.25L27.92,126.91z M32.97,118.23c1.07-2.28,0.09-5-2.19-6.06
		c-2.28-1.07-5-0.09-6.06,2.19c-1.07,2.28-0.09,5,2.19,6.06C29.18,121.49,31.9,120.51,32.97,118.23z M35.62,119.47
		c1.75-3.74,0.14-8.2-3.6-9.95c-3.74-1.75-8.2-0.14-9.95,3.6c-1.75,3.74-0.14,8.2,3.6,9.95C29.4,124.83,33.86,123.21,35.62,119.47z"
		/>
	<path class="st5" d="M90.4,136.35l-54.22,0.02c-1.81,0-3.33-0.94-3.55-2.19L22.11,73.51c-0.17-1.01,0.98-1.89,2.44-1.85L77.22,73
		c1.16,0.03,2.12,0.64,2.27,1.45L90.4,136.35z"/>
	<path class="st3" d="M27.4,73.49l47.59,1.21c1.16,0.03,2.12,0.64,2.27,1.45l10.31,58.46l-52.32,0.02L24.96,75.34
		C24.79,74.33,25.94,73.45,27.4,73.49z"/>
	<g>
		<polygon class="st2" points="28.25,53.23 35.88,134.62 89.02,134.62 82.11,54.26 		"/>
		<polygon class="st1" points="82.11,54.26 28.25,53.23 28.85,59.64 82.57,59.64 		"/>
		<polygon class="st6" points="82.57,59.64 28.85,59.64 29.37,65.18 83.04,65.18 		"/>
		<polygon class="st7" points="51.41,69.34 54.87,99.75 83.2,99.74 80.02,69.34 		"/>
		<g>
			<path class="st8" d="M48.3,73.08H32.79c-0.16,0-0.28-0.12-0.28-0.28c0-0.15,0.13-0.28,0.28-0.28H48.3c0.16,0,0.28,0.12,0.28,0.28
				C48.58,72.96,48.45,73.08,48.3,73.08z"/>
		</g>
		<g>
			<path class="st8" d="M49.25,77.04H32.79c-0.16,0-0.28-0.12-0.28-0.28c0-0.15,0.13-0.28,0.28-0.28h16.45
				c0.16,0,0.28,0.12,0.28,0.28C49.53,76.92,49.4,77.04,49.25,77.04z"/>
		</g>
		<g>
			<path class="st8" d="M49.48,81.01H33.31c-0.16,0-0.28-0.12-0.28-0.28s0.13-0.28,0.28-0.28h16.17c0.16,0,0.28,0.12,0.28,0.28
				S49.64,81.01,49.48,81.01z"/>
		</g>
		<g>
			<path class="st8" d="M49.91,85.42H33.5c-0.16,0-0.28-0.12-0.28-0.28c0-0.15,0.13-0.28,0.28-0.28h16.41
				c0.16,0,0.28,0.12,0.28,0.28C50.19,85.3,50.06,85.42,49.91,85.42z"/>
		</g>
		<g>
			<path class="st8" d="M82.57,104.72H39.69c-0.16,0-0.28-0.12-0.28-0.28c0-0.15,0.13-0.28,0.28-0.28h42.87
				c0.16,0,0.28,0.12,0.28,0.28C82.85,104.59,82.72,104.72,82.57,104.72z"/>
		</g>
		<g>
			<path class="st8" d="M82.57,109.21h-42.5c-0.16,0-0.28-0.12-0.28-0.28c0-0.15,0.13-0.28,0.28-0.28h42.5
				c0.16,0,0.28,0.12,0.28,0.28C82.85,109.08,82.72,109.21,82.57,109.21z"/>
		</g>
		<path class="st8" d="M72.37,55.75v2.84h3.36v-2.84H72.37z M75.15,58.1h-2.22v-1.88h2.22V58.1z"/>
		<g>
			<path class="st8" d="M78.41,56.02c0,0,0.6,0.89,0.69,1.04h0.02c0.09-0.17,0.68-1.04,0.68-1.04h0.56l-0.96,1.33l0.99,1.43h-0.58
				c0,0-0.62-0.94-0.72-1.1h-0.01c-0.09,0.17-0.71,1.1-0.71,1.1h-0.57l1-1.41l-0.96-1.35H78.41z"/>
		</g>
	</g>
	<g>
		<path class="st7" d="M176.49,140.54H19.39c-0.28,0-0.51-0.21-0.51-0.46c0-0.25,0.23-0.46,0.51-0.46h157.1
			c0.28,0,0.51,0.21,0.51,0.46C177,140.33,176.77,140.54,176.49,140.54z"/>
	</g>
	<path class="st9" d="M140.78,139.7h-74.3c-2.12,0-3.84-1.5-3.84-3.34v-0.03h82.02l0,0C144.66,138.19,142.93,139.7,140.78,139.7z"/>
	<path class="st3" d="M104.11,139.7H39.05c-1.86,0-3.36-1.5-3.36-3.34v-0.03h71.82l0,0C107.5,138.19,105.98,139.7,104.11,139.7z"/>
	<g>
		<path class="st10" d="M56.81,45.12H55.7c-1.68,0-3.04-1.36-3.04-3.04v-1.11c0-1.68,1.36-3.04,3.04-3.04h1.11
			c1.68,0,3.04,1.36,3.04,3.04v1.11C59.84,43.76,58.48,45.12,56.81,45.12z"/>
		<g>
			<path class="st11" d="M58.99,40.75c0.05-0.23-0.16-0.48-0.48-0.54c-1.41-0.25-2.86-0.26-4.28-0.02c-0.32,0.05-0.54,0.3-0.48,0.54
				l0,0c0.42,1.9,0.25,1.19,0.57,2.25c0.08,0.25,0.33,0.39,0.58,0.35l0,0c0.27-0.05,0.46-0.29,0.44-0.56
				c-0.02-0.15-0.03-0.3-0.05-0.44c-0.02-0.17,0.12-0.33,0.32-0.34c0.51-0.04,1.03-0.04,1.54,0c0.19,0.01,0.34,0.17,0.32,0.34
				c-0.02,0.15-0.03,0.29-0.05,0.44c-0.03,0.27,0.17,0.5,0.44,0.55l0,0c0.25,0.04,0.5-0.11,0.58-0.35
				C58.51,42.7,58.89,41.24,58.99,40.75z"/>
			<g>
				<path class="st10" d="M54.86,40.65c0.07,0,0.13,0.02,0.19,0.05v-0.29h-0.37v0.29C54.73,40.67,54.79,40.65,54.86,40.65z"/>
				<path class="st10" d="M54.49,41.01c0-0.07,0.02-0.13,0.05-0.19h-0.29v0.37h0.29C54.51,41.15,54.49,41.08,54.49,41.01z"/>
				<path class="st10" d="M54.86,41.38c-0.07,0-0.13-0.02-0.19-0.05v0.29h0.37v-0.29C54.99,41.36,54.93,41.38,54.86,41.38z"/>
				<path class="st10" d="M55.18,40.83c0.03,0.05,0.05,0.12,0.05,0.19c0,0.07-0.02,0.13-0.05,0.19h0.29v-0.37H55.18z"/>
			</g>
			<path class="st10" d="M55.08,41.01c0,0.12-0.1,0.22-0.22,0.22c-0.12,0-0.22-0.1-0.22-0.22s0.1-0.22,0.22-0.22
				C54.98,40.79,55.08,40.89,55.08,41.01z"/>
			<path class="st10" d="M58.42,41.04c0,0.26-0.21,0.48-0.48,0.48c-0.26,0-0.48-0.21-0.48-0.48c0-0.26,0.21-0.48,0.48-0.48
				C58.2,40.56,58.42,40.78,58.42,41.04z"/>
		</g>
	</g>
	<g>
		<path class="st1" d="M12.96,79.64h-1.42c-2.14,0-3.88-1.74-3.88-3.88v-1.42c0-2.14,1.74-3.88,3.88-3.88h1.42
			c2.14,0,3.88,1.74,3.88,3.88v1.42C16.85,77.9,15.11,79.64,12.96,79.64z"/>
		<path class="st11" d="M15.51,74.81c0,1.74-1.41,3.15-3.15,3.15c-1.74,0-3.15-1.41-3.15-3.15c0-1.74,1.41-3.15,3.15-3.15
			C14.1,71.66,15.51,73.07,15.51,74.81z"/>
		<path class="st1" d="M12.22,73.16l0.28,1.89c0.02,0.14-0.07,0.27-0.21,0.29c-0.14,0.02-0.27-0.07-0.29-0.21c0-0.02,0-0.05,0-0.07
			L12.22,73.16z"/>
		<path class="st1" d="M12.24,74.88l2.22,0.19l-2.22,0.25c-0.12,0.01-0.23-0.07-0.24-0.19c-0.01-0.12,0.07-0.23,0.19-0.24
			C12.22,74.88,12.23,74.88,12.24,74.88z"/>
	</g>
	<g>
		<g>
			<path class="st12" d="M119.84,108.39c-0.49,0.72-4.67,3-4.67,3s-0.48-0.1-1.28,0.13c-0.51,0.15-1.48,0.01-1.32,0.32
				c0.17,0.31,1.07,0.1,0.98,0.33c-0.09,0.23-1.94,0.79-1.79,1.07c0.15,0.28,1.85-0.36,1.77-0.16c-0.08,0.21-1.71,0.62-1.5,1.01
				c0.21,0.39,1.86-0.66,1.97-0.45c0.11,0.21-1.13,1.03-0.96,1.34c0.17,0.32,1.46-1.09,1.5-0.97c0.03,0.07-0.4,0.95-0.22,1.03
				c0.2,0.09,0.85-1.01,1.58-1.8c0.1-0.11,0.13-0.22,0.49-0.5c1.38-0.68,4.99-2.34,5.69-3.15c0.85-0.99,3.04-6.09,3.04-6.09
				l-3.54,0.36C121.59,103.88,120.42,107.54,119.84,108.39z"/>
			<path class="st13" d="M113.99,112.35c0.1,0.11,0.22,0.19,0.35,0.25c0.02,0,0.43,0.24,0.89,0.04
				C114.91,112.66,114.55,112.68,113.99,112.35z"/>
		</g>
		<path class="st5" d="M131.38,102.73c0,0,0.71,8.75,0.71,9.51c0,0.76-3.02,0.98-3.02,0.98l-0.92-8.98L131.38,102.73z"/>
		<path class="st3" d="M126.87,100.59c0,0,1.96-1.05,3.58-0.09c1.62,0.96,2.06,6.61,2.06,6.61l-5.18,0.62L126.87,100.59z"/>
		<path class="st14" d="M123.46,101.02c-0.2,0.07-1,0.64-1.47,1.54c-0.47,0.9-1.7,4.66-1.7,4.66l2.03,0.74L123.46,101.02z"/>
		<path class="st12" d="M133.69,132.05c0,0,0.33,1.19,0.6,1.45c0.27,0.27,1.15,1.3,0.93,1.81c-0.22,0.51-5.58,1.24-5.78,1.04
			c-0.2-0.2,0.93-1.06,1.57-1.59c0.64-0.53,1.1-1.18,0.83-1.97c-0.27-0.79-0.27-0.71-0.27-0.79
			C131.57,131.92,133.69,132.05,133.69,132.05z"/>
		<path class="st1" d="M129.44,136.35c-0.23-0.2,0.51-1,1.6-1.62c0.46,0,1.07-0.03,1.58-0.16c0.81-0.2,1.43-0.9,1.61-1.13
			c0.02,0.02,1.32,1.28,1.06,1.87C135.08,135.82,129.67,136.54,129.44,136.35z"/>
		<path class="st12" d="M124.79,132.62c0,0-0.1,1.22,0.1,1.54c0.2,0.32,0.91,1.57,0.51,1.97c-0.35,0.35-5.27,0.13-5.42-0.12
			c-0.15-0.24,0.69-0.97,1.43-1.34c0.74-0.38,1.33-0.91,1.24-1.74c-0.09-0.83-0.11-0.75-0.09-0.83
			C122.58,132.03,124.79,132.62,124.79,132.62z"/>
		<path class="st1" d="M119.38,136.21c-0.26-0.16,0.88-1.19,2.08-1.56c0.45,0.1,1.05,0.2,1.58,0.19c0.83-0.02,1.59-0.57,1.82-0.75
			c0.01,0.03,1.13,1.65,0.63,2.06C125.09,136.47,119.77,136.45,119.38,136.21z"/>
		<path class="st3" d="M124.43,115.33l3.17,9.19l3.64,8.51l3.05-0.77c0,0-1.1-5.9-2.13-7.75c-0.78-1.4-1.33-9.45-1.33-9.45
			L124.43,115.33z"/>
		<path class="st5" d="M125.96,116.88l-1.1,16.15h-2.6c0,0-1.13-16.92-0.72-18.53c0.42-1.61,4.74-1.25,4.74-1.25L125.96,116.88z"/>
		<path class="st6" d="M123.46,101.02c0,0,3.35-1,3.86-0.94c0.56,0.07,1.94,0.8,1.94,0.8s-0.08,5.81,0.16,7.45
			c0.24,1.64,1.94,6.91,1.94,6.91s-2.39,1.39-6.41,0.94c-4.02-0.45-3.74-1.42-3.74-1.42s0.38-5.82,0.76-8.38
			C122.36,103.81,123.46,101.02,123.46,101.02z"/>
		<path class="st4" d="M134.55,92.86c0,0,0.18,0.82-0.68,1.1c-0.85,0.29-1.38-2.71-1.87-3.31c-0.49-0.59-1.96-0.75-2.72,0.43
			c-0.42,0.65-0.55,0.93-0.59,1.06c-0.03,0.1,0.01,0.09,0.01,0.09l0.23,0.43c0,0,0.74-0.45,1.02,0.37c0.28,0.82-0.54,2.16,0.16,3.28
			c0.71,1.11,2,0.33,2,0.33c1.07,0.72,2.31-0.38,2.71-1.42C135.23,94.18,134.55,92.86,134.55,92.86z"/>
		<path class="st12" d="M126.13,97.02l0.12,1.21l1.08,1.86c0,0-2.13,2.57-2.78,1.96c-0.15-0.14-0.52-2.86-0.52-2.86L126.13,97.02z"
			/>
		<path class="st13" d="M126.25,98.22l0.23,0.41c-0.66,0.6-1.51,1.13-2.32,1.44c-0.08-0.5-0.13-0.9-0.13-0.9l2.11-2.16L126.25,98.22
			z"/>
		<path class="st12" d="M123.94,93.06c0,0-0.56,0.51-0.77,0.8c-1.23,1.71-0.23,5.09,0.41,5.37c0.97,0.43,2.24-0.15,3.66-1.11
			c1.43-0.97,1.88-2.53,0.57-3.89C126.51,92.86,123.94,93.06,123.94,93.06z"/>
		<path class="st4" d="M128.67,92.75l-0.39-0.37c-1.52,0-2.74-0.92-4.45,0.01c-1.13,0.61-0.66,1.47-0.66,1.47
			c4.18,0,2.67,3.29,3.18,4.6C126.87,99.77,130.06,96.93,128.67,92.75z"/>
		<path class="st12" d="M125.75,96.46c0,0,0.06-1.08,0.72-0.87c0.66,0.21,0.15,1.84-0.4,1.79
			C125.52,97.32,125.75,96.46,125.75,96.46z"/>
		<path class="st10" d="M128.78,91.94c0,0-0.63,0.39-0.88,0.36c-0.25-0.03,0.39,0.79,0.73,0.88c0.34,0.09,0.22-0.24,0.29-0.35
			c0.07-0.11,0.34-0.02,0.4-0.11C129.46,92.52,129.08,91.98,128.78,91.94z"/>
		<path class="st5" d="M128.73,100.61c0,0-0.75-0.11-1.4,2.33c-0.73,2.77,0.06,5.64,1.27,6.37c1.21,0.73,1.71,0.59,1.71,0.59
			l-0.19,1.71c0,0-3.58-0.8-4.07-3.86c-0.8-5.01,1.56-7.59,1.56-7.59s0.33,0.03,0.58,0.13
			C128.34,100.33,128.73,100.61,128.73,100.61z"/>
		<path class="st12" d="M130.58,106.39c0,0,0,2.96,0,3.58c0,0.62-0.72,4.84-1.59,6.29c-0.88,1.45-2.07,3.06-2.31,3.15
			c-0.25,0.09-0.78,0.43-1.06,0.15c-0.28-0.28-0.5-0.15-0.84-0.3c-0.35-0.15,0.05-0.65,0.53-1.13c0.48-0.48,0.59-0.6,0.51-0.68
			c-0.08-0.08-0.47,0.37-0.68,0.3c-0.21-0.07,0.13-0.8,0.67-1.05c0.54-0.25,1.41-0.75,1.49-1.02c0.08-0.27,0.08-0.2,0.08-0.27
			c0-0.07,0.61-4.26,0.61-5.08c0-0.82,0.24-3.49,0.24-3.49L130.58,106.39z"/>
		<path class="st14" d="M128.94,100.73c0.31,0.04,1.17,0.35,1.47,1.37s1.09,3.9,0.95,5.31c0,0-3.37,0.44-3.37,0.3
			c0-0.14-0.74-3.75-0.37-5.33C127.94,101,128.39,100.67,128.94,100.73z"/>
		<path class="st5" d="M123.99,100.86l-2.34,8.42v0c0.1-1.1,0.22-2.15,0.33-2.91c0.38-2.56,1.49-5.36,1.49-5.36
			S123.67,100.96,123.99,100.86z"/>
	</g>
	<g>
		<path class="st9" d="M163.17,97.79c0.75,1.33,0.42,3.96-0.2,4.8c-0.62,0.85-2.1,1.11-2.1,1.11l-2.17,0.72c0,0-1.56-2.21-1.99-3.57
			c-0.17-0.53-0.19-0.87,0-1.98c0.25-1.44,0.62-2.18,2.19-2.36C160.44,96.36,162.27,96.18,163.17,97.79z"/>
		<path class="st12" d="M156.26,101.34c0.08,0.48,0.41,0.83,0.75,0.79c0.34-0.05,0.55-0.48,0.47-0.96
			c-0.08-0.48-0.41-0.84-0.75-0.79C156.4,100.42,156.19,100.85,156.26,101.34z"/>
		<path class="st12" d="M165.2,134.34c0.22,0.42,1.24,1.15,1.24,1.15c-0.88,1.05-3.7,3.27-3.7,3.27s-0.36-0.37-0.2-0.71
			c0.16-0.34,0.94-2.44,0.59-3.13c-0.09-0.18-0.77-1.52-1.36-2.26c0.79-0.27,1.56-0.65,2.29-0.99
			C164.53,132.62,165.13,134.2,165.2,134.34z"/>
		<path class="st9" d="M165.38,134.58c0,0-2.07,2.2-2.47,2.44c-0.33,0.19-0.75,2.53-0.29,2.6c0.47,0.07,3.96-3.5,4.06-3.98
			C166.79,135.16,165.38,134.58,165.38,134.58z"/>
		<path class="st12" d="M155.17,129.34c0.25,0.41,1.34,1.07,1.34,1.07c-0.78,1.1-3.4,3.49-3.4,3.49s-0.39-0.35-0.26-0.69
			c0.13-0.35,0.72-2.49,0.31-3.15c-0.11-0.17-0.9-1.47-1.56-2.17c0.77-0.31,1.49-0.74,2.2-1.13
			C154.35,127.66,155.08,129.2,155.17,129.34z"/>
		<path class="st9" d="M155.58,129.75c0,0-2.05,2.19-2.45,2.42c-0.33,0.19-0.74,2.53-0.27,2.6c0.47,0.07,4.12-3.26,4.22-3.74
			C157.18,130.55,155.58,129.75,155.58,129.75z"/>
		<path class="st15" d="M156.57,116.14c0,0-7.29,3.13-7.83,5.51c-0.29,1.28,3.41,8.07,3.41,8.07l2.89-1.21c0,0-0.6-2.5-1.36-4.14
			c-0.35-0.76-0.59-1.21-0.59-1.21c0.6-0.5,7.45-2.57,7.45-2.57l-1.23-4.06L156.57,116.14z"/>
		<path class="st1" d="M165.14,116.14c0,0,0.59,0.93-0.49,3.41c-0.71,1.63-2.94,6.38-2.88,6.48c1.58,2.67,3.66,6.64,3.66,6.64
			l-3.43,1.67c-0.05,0.09-4.35-5.78-4.52-7.56c-0.13-1.36,1.02-10.34,1.02-10.34L165.14,116.14z"/>
		<g>
			<path class="st12" d="M168.49,99.47c0.66-0.76,2.03-3.36,2.49-4.25c-0.01-0.08-0.07-0.58,0.29-1.33
				c0.25-0.53,0.29-1.59,0.59-1.38c0.3,0.21-0.09,1.15,0.18,1.08c0.27-0.07,1.22-1.99,1.5-1.8c0.28,0.19-0.74,1.94-0.5,1.88
				c0.24-0.06,1-1.76,1.39-1.49c0.39,0.27-1.07,1.92-0.86,2.06c0.21,0.14,1.1-0.92,1.41-0.7c0.31,0.22-1.28,1.39-1.14,1.35
				c0.14-0.04,1.15-0.35,1.21-0.15c0.06,0.23-2.43,1.31-2.65,1.8l0,0c-0.4,1.3-1.11,3.66-2.11,4.9c-1.22,1.51-3.91,4.85-3.91,4.85
				l-2.45-1.85C163.92,104.44,167.7,100.37,168.49,99.47z"/>
			<path class="st13" d="M172.15,94.08c0.1,0.12,0.16,0.25,0.21,0.4c0,0.03,0.18,0.48-0.12,0.96
				C172.32,95.1,172.41,94.73,172.15,94.08z"/>
		</g>
		<g>
			<path class="st12" d="M154.29,98.11c-0.4-0.93-0.9-3.83-1.07-4.81c0.04-0.08,0.24-0.53,0.13-1.36c-0.08-0.58,0.21-1.6-0.14-1.49
				c-0.35,0.11-0.27,1.13-0.5,0.98c-0.23-0.15-0.55-2.27-0.87-2.18c-0.32,0.1,0.11,2.08-0.1,1.94c-0.21-0.14-0.41-1.99-0.86-1.85
				c-0.45,0.14,0.43,2.15,0.19,2.23c-0.24,0.07-0.77-1.21-1.13-1.1c-0.36,0.11,0.8,1.72,0.67,1.64c-0.12-0.08-0.99-0.69-1.1-0.52
				c-0.13,0.19,1.91,2,1.97,2.53l0,0c-0.01,1.36-0.07,3.83,0.51,5.31c0.7,1.81,2.43,5.83,2.43,5.83l2.7-1
				C157.11,104.26,154.77,99.22,154.29,98.11z"/>
			<path class="st13" d="M152.46,91.98c-0.13,0.08-0.23,0.19-0.32,0.31c-0.01,0.02-0.32,0.4-0.17,0.95
				C151.99,92.9,152.02,92.52,152.46,91.98z"/>
		</g>
		<path class="st6" d="M165.14,102.66c0,0,2.62,2.29,2.6,2.35c-0.14,0.41-2.83,2.2-2.83,3.29c0,1.23,0.85,9.59,0.85,9.59
			s-2.36,0.78-5.24,0.34c-2.88-0.43-4.87-1.78-4.87-1.78s0.18-2.27,0.18-4.38c0-2.1-0.32-3.91-0.32-3.91l-2.2-4.94l2.74-1.51
			c0,0,1.9,3.64,2.4,3.64c1.42,0,3.04-0.25,3.04-0.25L165.14,102.66z"/>
		<path class="st12" d="M158.64,103.52c0,0,0.32,2.29-0.36,2.91c-0.72,0.65,2.62,0.47,2.86-0.61c0.13-0.58-0.33-3.16-0.33-3.16
			L158.64,103.52z"/>
		<path class="st13" d="M160.81,102.67l-2.17,0.86c0,0,0.08,0.56,0.08,1.2c0.53,0.08,1.13-0.03,1.78-0.41
			c0.19-0.11,0.36-0.22,0.51-0.35C160.92,103.28,160.81,102.67,160.81,102.67z"/>
		<path class="st12" d="M159.98,97.82c0,0,1.02,0.26,1.63,1.23c0.6,0.97,0.93,3.76-1.21,4.99c-2.15,1.22-3.71-0.67-3.67-2.46
			C156.76,99.79,157.58,97.5,159.98,97.82z"/>
		<path class="st12" d="M159.98,97.82c0,0,1.02,0.26,1.63,1.23c0.6,0.97,0.93,3.76-1.21,4.99c-2.15,1.22-3.71-0.67-3.67-2.46
			C156.76,99.79,157.58,97.5,159.98,97.82z"/>
		<path class="st12" d="M161.55,101.54c-0.17,0.46-0.05,0.92,0.27,1.03c0.32,0.11,0.72-0.17,0.89-0.63
			c0.17-0.46,0.05-0.92-0.27-1.03C162.11,100.8,161.72,101.08,161.55,101.54z"/>
	</g>
	<g>
		<polygon class="st4" points="72.65,24.49 72.5,26.63 70.49,27.39 75.26,30.79 77.31,29.99 77.31,27.83 		"/>
		
			<ellipse transform="matrix(0.1509 -0.9886 0.9886 0.1509 37.377 113.5535)" class="st14" cx="84.79" cy="35.02" rx="8.53" ry="8.53"/>
		<circle class="st10" cx="84.79" cy="35.02" r="6.77"/>
		
			<ellipse transform="matrix(0.0603 -0.9982 0.9982 0.0603 44.7207 117.5422)" class="st7" cx="84.79" cy="35.02" rx="4.35" ry="4.35"/>
		<path class="st1" d="M86.88,35.02c0,1.15-0.94,2.09-2.09,2.09s-2.09-0.94-2.09-2.09s0.94-2.09,2.09-2.09S86.88,33.87,86.88,35.02z
			"/>
		<g>
			<path class="st5" d="M84.65,35.2c-0.04,0-0.07-0.01-0.1-0.03l-11.91-8.16c-0.08-0.06-0.1-0.17-0.05-0.25
				c0.06-0.08,0.17-0.1,0.25-0.05l11.8,8.08C84.72,34.85,84.7,35.2,84.65,35.2z"/>
		</g>
		<polygon class="st4" points="84.16,34 84.21,34.69 83.54,34.91 84.7,35.3 84.76,34.75 		"/>
	</g>
	<path class="st10" d="M132.22,57.17l-0.58-1.36l-1.45-0.3c-0.16-0.03-0.22-0.24-0.09-0.35l1.12-0.97l-0.16-1.47
		c-0.02-0.17,0.16-0.28,0.31-0.2l1.27,0.76l1.35-0.61c0.15-0.07,0.32,0.07,0.28,0.23l-0.33,1.44l1,1.09
		c0.11,0.12,0.04,0.33-0.13,0.34l-1.47,0.13l-0.73,1.29C132.5,57.34,132.28,57.33,132.22,57.17z"/>
	<path class="st1" d="M161.63,84.35l-0.36-0.85l-0.9-0.19c-0.1-0.02-0.14-0.15-0.06-0.22l0.7-0.6l-0.1-0.92
		c-0.01-0.1,0.1-0.18,0.19-0.12l0.79,0.48l0.84-0.38c0.1-0.04,0.2,0.04,0.18,0.14l-0.21,0.9l0.62,0.68c0.07,0.08,0.02,0.2-0.08,0.21
		l-0.92,0.08l-0.46,0.8C161.81,84.46,161.67,84.45,161.63,84.35z"/>
	<polygon class="st10" points="155.04,73.17 155.88,73.51 156.56,72.88 157.47,73.33 157.99,72.43 159.05,72.9 159.63,72.13 
		160.72,72.41 160.61,72.82 159.79,72.61 159.19,73.42 158.17,72.98 157.64,73.89 156.63,73.39 155.97,74.01 155.19,73.69 
		154.84,74.18 154.49,73.94 	"/>
	<polygon class="st4" points="69.87,32.05 68.82,31.06 67.44,31.61 66.34,30.42 65.06,31.46 63.74,30.16 62.45,30.97 60.98,29.94 
		61.37,29.38 62.47,30.16 63.84,29.3 65.1,30.54 66.4,29.49 67.62,30.8 68.96,30.26 69.94,31.18 70.75,30.64 71.13,31.21 	"/>
	<g>
		<path class="st7" d="M144.4,68.87H93c-1.43,0-2.59-1.16-2.59-2.59v-0.95c0-1.43,1.16-2.59,2.59-2.59h51.4
			c1.43,0,2.59,1.16,2.59,2.59v0.95C147,67.7,145.83,68.87,144.4,68.87z"/>
		<g>
			<path class="st3" d="M133.72,68.05H94.02c-0.73,0-1.32-0.59-1.32-1.32v-1.89c0-0.73,0.59-1.32,1.32-1.32h39.69
				c0.73,0,1.32,0.59,1.32,1.32v1.89C135.04,67.46,134.44,68.05,133.72,68.05z M94.02,63.89c-0.53,0-0.95,0.43-0.95,0.95v1.89
				c0,0.53,0.43,0.95,0.95,0.95h39.69c0.53,0,0.95-0.43,0.95-0.95v-1.89c0-0.53-0.43-0.95-0.95-0.95H94.02z"/>
		</g>
		<g>
			<path class="st3" d="M140.67,66.4c-0.88,0-1.59-0.71-1.59-1.59c0-0.88,0.71-1.59,1.59-1.59c0.88,0,1.59,0.71,1.59,1.59
				C142.25,65.69,141.54,66.4,140.67,66.4z M140.67,63.59c-0.67,0-1.22,0.55-1.22,1.22c0,0.67,0.55,1.22,1.22,1.22
				c0.67,0,1.22-0.55,1.22-1.22C141.89,64.14,141.34,63.59,140.67,63.59z"/>
		</g>
		<g>
			<path class="st3" d="M142.75,67.98l-1.42-1.91c-0.06-0.08-0.04-0.19,0.04-0.25c0.08-0.06,0.18-0.05,0.24,0.02l0.01,0.01l1.6,1.77
				c0.11,0.12,0.1,0.31-0.02,0.41c-0.12,0.11-0.31,0.1-0.41-0.02c-0.01-0.01-0.01-0.01-0.02-0.02L142.75,67.98z"/>
		</g>
	</g>
	<path class="st4" d="M72.94,43.06l-0.71-0.62l-0.91,0.23c-0.1,0.03-0.19-0.08-0.15-0.18l0.37-0.86l-0.5-0.8
		c-0.06-0.09,0.01-0.21,0.12-0.2l0.94,0.09L72.7,40c0.07-0.08,0.2-0.05,0.23,0.05l0.21,0.92L74,41.32c0.1,0.04,0.11,0.18,0.02,0.23
		l-0.81,0.48l-0.06,0.94C73.15,43.08,73.02,43.13,72.94,43.06z"/>
	<path class="st1" d="M101.45,34.44l-0.71-0.62l-0.91,0.23c-0.1,0.03-0.19-0.08-0.15-0.18l0.37-0.86l-0.5-0.8
		c-0.06-0.09,0.01-0.21,0.12-0.2l0.94,0.09l0.6-0.72c0.07-0.08,0.2-0.05,0.23,0.05l0.21,0.92l0.87,0.35
		c0.1,0.04,0.11,0.18,0.02,0.23l-0.81,0.48l-0.06,0.94C101.65,34.46,101.53,34.51,101.45,34.44z"/>
	<g>
		<path class="st13" d="M49.51,100.52c0,0,1.51,0.38,2,2.26c0.49,1.88,0.74,6.28,1.17,6.74c0.43,0.46,3.21,2.85,3.71,2.76
			c0.5-0.08,1.63-1.49,1.97-1.49c0.35,0,0.31,0.34,0.13,0.53c-0.17,0.19-0.39,0.41-0.28,0.52c0.1,0.11,0.1,0.11,0.1,0.11
			s1.19-0.35,1.45-0.19c0.26,0.16-0.36,1.03-0.39,1.34c-0.03,0.31-0.8,0.93-0.94,1.08c-0.14,0.15-0.62,0.31-2.3,0.06
			c-1.68-0.25-3.73-1.12-5.25-3.14c-1.52-2.02-2.13-8.23-2.09-8.86C48.88,100.62,49.51,100.52,49.51,100.52z"/>
		<path class="st15" d="M51.82,102.51c-0.53-1.88-2.26-1.99-2.26-1.99s-0.86,0.1-0.95,1.71c-0.02,0.37,0.18,2.81,0.69,5.03
			c0.81-0.61,2.23-1.12,3.24-1.3C52.38,104.77,52.04,103.29,51.82,102.51z"/>
		<path class="st12" d="M55.37,129.2c0,0,1.01,4.11,1.76,4.76s3.2,1.88,2.56,2.01c-0.64,0.13-5.39,0.24-5.26-0.55
			c0.13-0.79,0.27-1.3,0.27-1.3l-1.26-2.94L55.37,129.2z"/>
		<path class="st1" d="M60.01,136.15c-1.16,0.12-4.54,0.24-5.52,0.11c0,0-0.18-0.04-0.05-0.83c0.03-0.19,0.06-0.37,0.09-0.53
			c0.89,0.23,2.84-0.26,3.61-0.37c0.84,0.4,1.78,1,2.09,1.05C60.67,135.66,60.67,136.08,60.01,136.15z"/>
		<path class="st12" d="M44.46,132.1c0,0,0.19,1.67,0.19,2.12c0,0.46-0.43,1.75-0.23,1.95c0.2,0.2,5.85,0.17,5.85-0.01
			c0-0.19-1-0.75-2.36-1.14c-1.36-0.39-1.02-2.02-1.19-2.92H44.46z"/>
		<path class="st1" d="M50.36,136.31c0-0.44-0.93-0.84-2.13-1.21c-1.28,0.43-3.06,0.08-3.72-0.05c-0.2,0.53-0.29,1.26-0.14,1.29
			C44.53,136.39,50.36,136.39,50.36,136.31z"/>
		<polygon class="st14" points="52.12,112.01 56.93,131.88 53.88,132.56 46.62,113.15 		"/>
		<path class="st10" d="M50.99,112.95l-1.57,4.62l-1.99,15.28l-3.03-0.2c0,0-1.02-15.23-0.67-19.38L50.99,112.95z"/>
		<path class="st6" d="M53.29,113.02c-0.64-2.44-1.49-5.74-1.72-7.17c-0.39-2.4-1.69-5.33-1.69-5.33s-1.44-0.23-2.5-0.17
			c-2.06,0.11-5.01,0.71-5.01,0.71l1.01,13.39C46.63,114.39,50.2,114.11,53.29,113.02z"/>
		<polygon class="st3" points="53.07,109.89 51,115.13 51.21,115.38 57.99,114.55 59.89,110.39 59.68,110.18 		"/>
		<polygon class="st9" points="53.29,110.1 51.21,115.35 58.2,114.76 59.89,110.39 		"/>
		<path class="st12" d="M42.36,101.07c0,0,1.63,0.38,2.16,2.26c0.53,1.88,0.8,6.28,1.26,6.74c0.46,0.46,3.46,2.85,4,2.76
			c0.54-0.08,1.75-1.49,2.13-1.49c0.38,0,0.33,0.34,0.14,0.53c-0.19,0.19-0.42,0.41-0.31,0.52c0.11,0.11,0.07,0.1,0.11,0.11
			c0.55,0.14,1.68-0.44,1.96-0.28c0.28,0.16-0.27,0.55-0.27,0.83c0,0.28,0.07,0.28,0.04,0.59c-0.03,0.31-0.11,0.56-0.26,0.71
			c-0.15,0.15-2,0.68-3.81,0.43c-1.81-0.25-4.02-1.12-5.66-3.14c-1.63-2.02-2.29-8.23-2.25-8.86
			C41.68,101.17,42.36,101.07,42.36,101.07z"/>
		<path class="st3" d="M59.77,107.26c0,0.22-0.18,0.39-0.39,0.39c-0.22,0-0.39-0.18-0.39-0.39c0-0.22,0.18-0.39,0.39-0.39
			C59.6,106.87,59.77,107.04,59.77,107.26z"/>
		<g>
			
				<rect x="57.39" y="108.73" transform="matrix(0.3186 -0.9479 0.9479 0.3186 -63.0709 129.963)" class="st3" width="2.93" height="0.23"/>
		</g>
		<g>
			<path class="st4" d="M61.39,107.78c0,0-0.01,0-0.01,0c-0.04-0.01-0.06-0.05-0.05-0.08c0.03-0.14,0.05-0.29,0.05-0.43
				c0-0.96-0.68-1.78-1.62-1.95c-0.04-0.01-0.06-0.04-0.06-0.08c0.01-0.04,0.04-0.06,0.08-0.06c1.01,0.18,1.74,1.06,1.74,2.09
				c0,0.16-0.02,0.31-0.05,0.46C61.45,107.75,61.42,107.78,61.39,107.78z"/>
		</g>
		<g>
			<path class="st4" d="M62.28,107.97c0,0-0.01,0-0.01,0c-0.04-0.01-0.06-0.05-0.05-0.08c0.05-0.21,0.07-0.42,0.07-0.63
				c0-1.4-1-2.6-2.37-2.85c-0.04-0.01-0.06-0.04-0.06-0.08c0.01-0.04,0.04-0.06,0.08-0.06c1.44,0.26,2.48,1.52,2.48,2.99
				c0,0.22-0.02,0.44-0.07,0.66C62.34,107.95,62.31,107.97,62.28,107.97z"/>
		</g>
		<g>
			<path class="st4" d="M63.07,108.15c0,0-0.01,0-0.01,0c-0.04-0.01-0.06-0.05-0.05-0.08c0.06-0.26,0.09-0.53,0.09-0.8
				c0-1.79-1.28-3.32-3.03-3.64c-0.04-0.01-0.06-0.04-0.06-0.08c0.01-0.04,0.04-0.06,0.08-0.06c1.82,0.33,3.15,1.92,3.15,3.78
				c0,0.28-0.03,0.56-0.09,0.83C63.13,108.13,63.1,108.15,63.07,108.15z"/>
		</g>
		<path class="st15" d="M44.62,103.06c-0.53-1.88-2.26-1.99-2.26-1.99s-0.86,0.1-0.95,1.71c-0.02,0.37,0.18,2.81,0.69,5.03
			c0.81-0.61,2.23-1.12,3.24-1.3C45.18,105.32,44.84,103.84,44.62,103.06z"/>
		<path class="st9" d="M42.72,93.91c-0.02,1.25,0.39,1.79,1.16,2.77c0.78,0.98,2.15,2.13,2.15,2.13l3.86-2.46
			c0,0,0.14-0.3-0.17-1.84C48.45,88.14,42.74,92.95,42.72,93.91z"/>
		<path class="st12" d="M43.69,96.53c0.16,0.49,0.55,0.8,0.88,0.69c0.33-0.11,0.47-0.59,0.32-1.07c-0.16-0.49-0.55-0.8-0.88-0.69
			C43.68,95.56,43.54,96.04,43.69,96.53z"/>
		<path class="st12" d="M48.99,95.64c-0.15,0.49,0.01,0.97,0.34,1.07c0.33,0.1,0.72-0.22,0.86-0.71c0.15-0.49-0.01-0.97-0.34-1.07
			C49.52,94.83,49.14,95.15,48.99,95.64z"/>
		<path class="st12" d="M45.48,98.04l-0.14,2.61c0,0,0.32,0.88,1.75,0.89c1.06,0,0.93-2.35,0.93-2.35l-0.08-1.14H45.48z"/>
		<path class="st16" d="M47.97,100.01c0.01,0,0.01,0,0.02,0c0.04-0.45,0.02-0.82,0.02-0.82l-0.08-1.14h-2.45l-0.02,0.39
			C45.77,98.96,46.67,100.01,47.97,100.01z"/>
		<path class="st12" d="M46.53,92.08c-0.83,0.12-1.43,0.71-1.87,1.42c-0.87,1.42-0.16,3.5,0.08,3.98c0.24,0.48,1.19,1.71,2.61,1.71
			c1.42,0,2.26-1.65,2.38-2.91c0.16-1.69-0.15-3.44-1.75-4.03C47.53,92.08,47.01,92.01,46.53,92.08z"/>
		<path class="st9" d="M44.25,95.45c0,0,0.4-2.26,1.68-2.76c1.28-0.51,3.38,0.54,3.8,1.83c0,0-0.4-2.65-1.1-3.34
			c-0.7-0.7-2.11-0.77-2.11-0.77l0.47,0.46c0,0-0.51-0.17-1.27-0.17c-0.76,0-0.9,0.18-0.9,0.18s0.52,0.08,0.52,0.25
			c0,0.17-1.38,0.22-1.38,0.22s-0.11,1.12-0.56,1.57C42.95,93.37,44.25,95.45,44.25,95.45z"/>
		<path class="st13" d="M59.38,111.69c0,0-1.47,1.25-1.19,1.53c0.09,0.09,0.74-0.49,0.74-0.49s-0.65,0.76-0.55,1.04
			c0.1,0.29,0.05,0.4,0.05,0.4l0.72-0.78l0.33-1.65L59.38,111.69z"/>
	</g>
	<polygon class="st4" points="10.55,83.59 11.83,84.11 12.87,83.14 14.27,83.82 15.05,82.45 16.67,83.15 17.55,81.98 19.22,82.4 
		19.06,83.04 17.81,82.72 16.89,83.96 15.33,83.28 14.53,84.68 12.99,83.92 11.98,84.87 10.78,84.39 10.25,85.15 9.72,84.77 	"/>
	<polygon class="st2" points="70.5,35.59 68.78,35.63 68.65,36.9 66.96,37 66.64,38.2 65.38,38.44 65.5,38.94 67.19,38.62 
		67.49,37.48 69.25,37.38 69.38,36.13 70.94,36.09 	"/>
	<g>
		<path class="st4" d="M110.63,46.24c-1.03,2.04-3.54,2.83-5.56,1.74c-1.9-1.02-2.68-3.39-1.75-5.34c0.99-2.07,3.48-2.91,5.52-1.88
			C110.84,41.78,111.64,44.23,110.63,46.24z"/>
		<path class="st17" d="M104.76,43.98c-0.54,1.07-0.12,2.38,0.96,2.93c1.07,0.54,2.38,0.12,2.93-0.96L104.76,43.98z"/>
	</g>
	<g>
		<g>
			<path class="st9" d="M88.19,107.2h-8.32v-0.52c0-1.58,1.28-2.86,2.86-2.86h2.61c1.58,0,2.86,1.28,2.86,2.86V107.2z"/>
			<path class="st9" d="M82.5,107.83c0,1.38-1,2.5-2.23,2.5c-1.23,0-2.23-1.12-2.23-2.5c0-1.38,1-2.5,2.23-2.5
				C81.5,105.33,82.5,106.45,82.5,107.83z"/>
			<path class="st9" d="M91.33,119.51c0,1.38-1,2.5-2.23,2.5c-1.23,0-2.23-1.12-2.23-2.5c0-1.38,1-2.5,2.23-2.5
				C90.33,117.01,91.33,118.13,91.33,119.51z"/>
			<path class="st9" d="M91.23,132.1c0,1.38-1,2.5-2.23,2.5c-1.23,0-2.23-1.12-2.23-2.5c0-1.38,1-2.5,2.23-2.5
				C90.23,129.6,91.23,130.72,91.23,132.1z"/>
			<path class="st9" d="M89.98,107.83c0,1.38-1,2.5-2.23,2.5c-1.23,0-2.23-1.12-2.23-2.5c0-1.38,1-2.5,2.23-2.5
				C88.98,105.33,89.98,106.45,89.98,107.83z"/>
			<polygon class="st9" points="85.93,109.26 82.05,109.33 81.56,103.83 86.87,103.83 			"/>
			<polygon class="st9" points="86.6,105.04 84.04,105.96 81.69,104.16 82.08,101.23 84.8,100.1 87.6,102.35 			"/>
			<path class="st6" d="M90.55,118.76c-1.29,0.06-2.58,0.04-3.87-0.07c-0.59-0.05-1.03-0.63-0.98-1.29
				c0.21-2.54,0.43-5.08,0.65-7.63c0.05-0.62,0.53-1.09,1.09-1.07c0.78,0.03,1.56,0.01,2.34-0.05c0.57-0.05,1.08,0.43,1.13,1.07
				c0.22,2.58,0.44,5.16,0.66,7.74C91.62,118.14,91.16,118.73,90.55,118.76z"/>
			<path class="st6" d="M93.74,131.14l-1.7-8.82c-0.14-0.73-0.72-1.25-1.39-1.25h-2.36c-0.67,0-1.25,0.52-1.39,1.25l-1.7,8.82h0
				v3.03c0,0.62,0.43,1.07,0.97,1.16c0.08,0.01,1.24-0.54,1.24-1.18v-1.53c0-0.82,0.59-1.48,1.32-1.48H92
				c0.49,0,0.89,0.44,0.89,0.99v3.2c0,0,0.85-0.3,0.85-0.77L93.74,131.14L93.74,131.14z"/>
			<path class="st9" d="M81.82,119.54c-0.02,1.38-1.04,2.48-2.27,2.46c-1.23-0.02-2.22-1.15-2.2-2.53c0.02-1.38,1.04-2.48,2.27-2.46
				C80.86,117.03,81.84,118.16,81.82,119.54z"/>
			<path class="st9" d="M80.98,132.08c-0.02,1.38-1.04,2.48-2.27,2.46c-1.23-0.02-2.22-1.15-2.2-2.53c0.02-1.38,1.04-2.48,2.27-2.46
				C80.01,129.57,81,130.71,80.98,132.08z"/>
			<path class="st6" d="M81.49,118.76c-1.29,0.06-2.58,0.04-3.87-0.07c-0.59-0.05-1.03-0.63-0.98-1.29
				c0.22-2.54,0.43-5.08,0.65-7.63c0.05-0.62,0.53-1.09,1.09-1.07c0.78,0.03,1.56,0.01,2.34-0.05c0.57-0.05,1.08,0.43,1.13,1.07
				c0.22,2.58,0.44,5.16,0.66,7.74C82.56,118.14,82.1,118.73,81.49,118.76z"/>
			<path class="st6" d="M83.49,131.16l-1.57-8.85c-0.13-0.73-0.7-1.26-1.37-1.27L78.19,121c-0.67-0.01-1.26,0.5-1.41,1.23l-1.83,8.8
				h0l-0.04,3.03c-0.01,0.62,0.4,1.15,0.93,1.24c0.08,0.01,0.17,0.02,0.25,0.01c0.58-0.05,1.02-0.6,1.03-1.24l0.02-1.53
				c0.01-0.81,0.61-1.47,1.34-1.46l3.27,0.05c0.49,0.01,0.88,0.46,0.87,1l-0.05,3.19c0,0,0.85-0.28,0.86-0.74L83.49,131.16
				L83.49,131.16z"/>
			<g>
				<path class="st15" d="M97,74.66c-0.06,0.13-0.12,0.26-0.18,0.38c3.74,1.47,5.85,5.49,3.44,10.67c0.12,0.06,1.09,0.46,1.21,0.52
					C104,80.8,100.92,76.21,97,74.66z"/>
				<path class="st1" d="M101.43,85.12c-0.89-0.39-2.21,0.71-2.93,2.43c-0.69,1.64-0.62,3.3,0.17,3.78c0,0,0,0,0,0
					c1.26,0.41,3.19-0.01,3.76-1.36l0.48-1.03C103.56,87.54,102.76,85.69,101.43,85.12z"/>
				<path class="st9" d="M78.02,93.88c-1.08-0.59-2.55,0.03-3.28,1.37c-0.73,1.35-0.45,2.92,0.63,3.51
					c1.08,0.59,2.55-0.03,3.28-1.37C79.38,96.04,79.1,94.47,78.02,93.88z"/>
				<path class="st15" d="M100.81,85.94c4.61-9.93-9-16.26-13.61-6.33c-0.12-0.05-0.23-0.11-0.35-0.16
					c4.85-10.44,19.16-3.79,14.31,6.65C101.04,86.05,100.93,85.99,100.81,85.94z"/>
				<polygon class="st9" points="98.42,103.77 95.51,97.81 91.77,100.54 93.86,105.87 				"/>
				<path class="st9" d="M94.46,103.09c-1.01,0.94-1.06,2.53-0.11,3.54s2.53,1.06,3.53,0.12c1.01-0.94,1.06-2.53,0.11-3.54
					C97.05,102.2,95.47,102.14,94.46,103.09z"/>
				<path class="st9" d="M78.41,97.75l4.69-5.05l-0.68-0.95c-1.04-1.46-3.15-1.4-4.61,0.15l-2.83,3L78.41,97.75z"/>
				<g>
					<g>
						<path class="st9" d="M66.65,108.31c-0.14-0.1-0.27-0.19-0.41-0.29c-0.1-0.07-0.25-0.05-0.32,0.06
							c-0.18,0.26-0.36,0.53-0.52,0.81c-0.07,0.11-0.02,0.26,0.09,0.32c0.15,0.08,0.29,0.16,0.44,0.24
							c0.11,0.06,0.25,0.02,0.31-0.09c0.14-0.25,0.3-0.49,0.46-0.72C66.78,108.53,66.76,108.39,66.65,108.31z"/>
						<path class="st9" d="M65.71,109.55c-0.07-0.03-0.13-0.07-0.2-0.1c-0.11-0.06-0.26-0.01-0.31,0.1
							c-0.17,0.35-0.33,0.71-0.46,1.08c-0.04,0.12,0.02,0.26,0.14,0.3c0.07,0.02,0.14,0.05,0.21,0.07c0.12,0.04,0.25-0.02,0.29-0.14
							c0.13-0.34,0.27-0.67,0.43-1C65.87,109.74,65.83,109.6,65.71,109.55z"/>
					</g>
					<path class="st6" d="M76.3,96.89c-0.31-0.18-0.6-0.37-0.89-0.58c-0.81-0.6-1.93-0.5-2.65,0.21c-1.39,1.38-2.79,2.76-4.18,4.14
						c-0.84,0.83-0.79,2.19,0.09,2.98c1,0.9,2.1,1.67,3.29,2.3c1.06,0.57,2.38,0.11,2.85-0.99c0.78-1.83,1.57-3.65,2.35-5.48
						C77.56,98.51,77.2,97.4,76.3,96.89z"/>
					<path class="st9" d="M69.97,104.96l-0.75-0.58c-0.76-0.58-1.84-0.43-2.42,0.32l-0.61,0.8l3.19,2.44l0.84-1.1
						C70.68,106.25,70.56,105.41,69.97,104.96z"/>
					<path class="st9" d="M67.83,107.03l-0.62-0.47c-0.1-0.08-0.25-0.06-0.32,0.04l-0.66,0.86c-0.08,0.1-0.06,0.25,0.04,0.32
						l0.62,0.47c0.1,0.08,0.25,0.06,0.32-0.04l0.66-0.86C67.95,107.25,67.94,107.1,67.83,107.03z"/>
					<g>
						<path class="st9" d="M65.57,107.44c-0.14-0.1-0.27-0.19-0.41-0.29c-0.1-0.07-0.25-0.05-0.32,0.06
							c-0.18,0.26-0.36,0.53-0.52,0.81c-0.07,0.11-0.02,0.26,0.09,0.32c0.15,0.08,0.29,0.16,0.44,0.24
							c0.11,0.06,0.25,0.02,0.31-0.09c0.14-0.25,0.3-0.49,0.46-0.72C65.69,107.66,65.67,107.52,65.57,107.44z"/>
						<path class="st9" d="M64.63,108.68c-0.07-0.03-0.13-0.07-0.2-0.1c-0.11-0.06-0.26-0.01-0.31,0.1
							c-0.17,0.35-0.33,0.71-0.46,1.08c-0.04,0.12,0.02,0.26,0.14,0.3c0.07,0.02,0.14,0.05,0.21,0.07c0.12,0.04,0.25-0.02,0.29-0.14
							c0.13-0.34,0.27-0.67,0.43-1C64.79,108.87,64.74,108.74,64.63,108.68z"/>
					</g>
					<path class="st9" d="M66.75,106.16l-0.62-0.47c-0.1-0.08-0.25-0.06-0.32,0.04l-0.66,0.86c-0.08,0.1-0.06,0.25,0.04,0.32
						l0.62,0.47c0.1,0.08,0.25,0.06,0.32-0.04l0.66-0.86C66.87,106.38,66.85,106.24,66.75,106.16z"/>
					<g>
						<path class="st9" d="M67.73,109.19c-0.14-0.1-0.27-0.19-0.41-0.29c-0.1-0.07-0.25-0.05-0.32,0.06
							c-0.18,0.26-0.36,0.53-0.52,0.81c-0.07,0.11-0.02,0.26,0.09,0.32c0.15,0.08,0.29,0.16,0.44,0.24
							c0.11,0.06,0.25,0.02,0.31-0.09c0.14-0.25,0.3-0.49,0.46-0.72C67.86,109.41,67.84,109.27,67.73,109.19z"/>
						<path class="st9" d="M66.79,110.43c-0.07-0.03-0.13-0.07-0.2-0.1c-0.11-0.06-0.26-0.01-0.31,0.1
							c-0.17,0.35-0.33,0.71-0.46,1.08c-0.04,0.12,0.02,0.26,0.14,0.3c0.07,0.02,0.14,0.05,0.21,0.07c0.12,0.04,0.25-0.02,0.29-0.14
							c0.13-0.34,0.27-0.67,0.43-1C66.95,110.62,66.91,110.49,66.79,110.43z"/>
					</g>
					<path class="st9" d="M68.91,107.91l-0.62-0.47c-0.1-0.08-0.25-0.06-0.32,0.04l-0.66,0.86c-0.08,0.1-0.06,0.25,0.04,0.32
						l0.62,0.47c0.1,0.08,0.25,0.06,0.32-0.04l0.66-0.86C69.03,108.13,69.02,107.99,68.91,107.91z"/>
					<g>
						<path class="st9" d="M69.58,108.6c0.16,0.04,0.32,0.08,0.49,0.13c0.12,0.03,0.2,0.16,0.17,0.28
							c-0.08,0.31-0.18,0.62-0.28,0.92c-0.04,0.12-0.18,0.18-0.3,0.14c-0.15-0.06-0.31-0.12-0.46-0.18
							c-0.12-0.05-0.18-0.18-0.13-0.29c0.09-0.27,0.18-0.54,0.25-0.82C69.33,108.64,69.46,108.57,69.58,108.6z"/>
						<path class="st9" d="M69.25,110.12c0.07,0.03,0.14,0.06,0.2,0.09c0.12,0.05,0.17,0.19,0.12,0.3
							c-0.16,0.36-0.33,0.71-0.53,1.05c-0.06,0.11-0.21,0.15-0.32,0.08c-0.06-0.04-0.13-0.08-0.19-0.11
							c-0.11-0.06-0.14-0.2-0.08-0.31c0.18-0.32,0.34-0.64,0.49-0.97C69,110.12,69.13,110.06,69.25,110.12z"/>
					</g>
					<path class="st9" d="M70.32,107.02c0.01-0.01,0.02-0.03,0.03-0.04l0.22,0.05c0.12,0.03,0.2,0.15,0.17,0.27l-0.24,1.08
						c-0.03,0.12-0.14,0.2-0.26,0.17l-0.68-0.15c-0.08-0.02-0.15-0.08-0.17-0.16L70.32,107.02z"/>
				</g>
				<path class="st6" d="M89.56,104.81c1.87-2.26,3.79-4.48,5.75-6.67c0.39-0.44,0.31-1.12-0.17-1.46
					c-3.8-2.71-8.08-4.67-12.61-5.78c-0.6-0.15-1.19,0.29-1.22,0.9c-0.14,2.88-0.4,5.74-0.78,8.59c-0.06,0.47,0.26,0.84,0.68,1.07
					c0.88,0.48,1.2,0.5,6.63,3.33c0.21,0.07,0.26,0.13,0.53,0.29C88.78,105.27,89.27,105.16,89.56,104.81z"/>
				<path class="st9" d="M88.52,95.03l-0.35-0.16c-0.69-0.32-0.99-1.14-0.67-1.83l1.33-2.86l2.85,1.33l-1.33,2.86
					C90.04,95.05,89.21,95.35,88.52,95.03z"/>
				<path class="st6" d="M100.77,88.08c-1.91,4.11-6.92,5.83-11.19,3.85c-4.27-1.99-6.19-6.93-4.28-11.04
					c1.91-4.11,6.92-5.83,11.19-3.85C100.76,79.02,102.68,83.97,100.77,88.08z"/>
				<path class="st9" d="M97.08,89.19c-2.41-1.79-5.15-3.05-8.08-3.72c-0.59-0.14-0.93-0.78-0.76-1.47
					c0.15-0.58,0.29-1.15,0.44-1.73c0.18-0.72,0.86-1.21,1.48-1.07c3.41,0.79,6.59,2.28,9.39,4.4c0.51,0.39,0.57,1.21,0.14,1.82
					c-0.33,0.46-0.66,0.93-1,1.39C98.28,89.39,97.57,89.56,97.08,89.19z"/>
				<path class="st2" d="M98.2,86.9c-0.22,0.47-0.8,0.67-1.3,0.44c-0.5-0.23-0.72-0.8-0.5-1.27c0.22-0.47,0.8-0.67,1.3-0.44
					C98.2,85.86,98.42,86.43,98.2,86.9z"/>
				<path class="st2" d="M92.6,84.12c-0.22,0.47-0.8,0.67-1.3,0.44c-0.5-0.23-0.72-0.8-0.5-1.27c0.22-0.47,0.8-0.67,1.3-0.44
					C92.6,83.07,92.82,83.64,92.6,84.12z"/>
				<path class="st15" d="M86.28,79.15c0.12,0.05,1,0.62,1.11,0.67c2.17-4.67,6.13-5.95,9.44-4.76c0.06-0.13,0.11-0.26,0.14-0.4
					C93.49,73.41,88.55,74.25,86.28,79.15z"/>
				<path class="st1" d="M87.46,78.52c1,0.49,1.01,2.46,0.04,4.36c-0.92,1.81-2.43,2.98-3.43,2.65c0,0,0,0,0,0
					c-1.29-0.8-2.36-2.8-1.59-4.3l0.55-1.19C83.77,78.46,85.98,77.79,87.46,78.52z"/>
				<g>
					<g>
						<path class="st9" d="M107.15,115.43c-0.1,0.13-0.2,0.27-0.3,0.4c-0.08,0.1-0.05,0.25,0.05,0.32c0.26,0.19,0.52,0.37,0.8,0.54
							c0.11,0.07,0.26,0.03,0.32-0.08c0.08-0.14,0.17-0.29,0.25-0.43c0.06-0.11,0.03-0.25-0.08-0.31c-0.24-0.15-0.48-0.31-0.71-0.48
							C107.37,115.31,107.23,115.33,107.15,115.43z"/>
						<path class="st9" d="M108.36,116.4c-0.03,0.07-0.07,0.13-0.1,0.2c-0.06,0.11-0.02,0.26,0.1,0.31c0.35,0.18,0.7,0.34,1.07,0.48
							c0.12,0.05,0.26-0.02,0.3-0.14c0.03-0.07,0.05-0.14,0.08-0.21c0.04-0.12-0.02-0.25-0.13-0.29c-0.34-0.13-0.67-0.28-0.99-0.45
							C108.56,116.24,108.42,116.28,108.36,116.4z"/>
					</g>
					<path class="st6" d="M96.47,105.19c-0.21,0.28-0.44,0.55-0.69,0.81c-0.7,0.72-0.74,1.86-0.13,2.65
						c1.19,1.56,2.38,3.12,3.57,4.67c0.72,0.94,2.07,1.07,2.96,0.29c1.01-0.88,1.92-1.88,2.7-2.97c0.7-0.98,0.41-2.34-0.62-2.95
						c-1.71-1.01-3.42-2.02-5.14-3.02C98.23,104.15,97.09,104.37,96.47,105.19z"/>
					<path class="st9" d="M103.88,112.03l-0.59,0.74c-0.59,0.74-0.47,1.83,0.27,2.42l0.79,0.63l2.51-3.14l-1.08-0.87
						C105.18,111.35,104.34,111.45,103.88,112.03z"/>
					<path class="st9" d="M105.89,114.22l-0.49,0.61c-0.08,0.1-0.06,0.25,0.04,0.33l0.84,0.67c0.1,0.08,0.24,0.06,0.32-0.04
						l0.49-0.61c0.08-0.1,0.06-0.25-0.04-0.33l-0.84-0.67C106.12,114.1,105.97,114.12,105.89,114.22z"/>
					<g>
						<path class="st9" d="M106.26,116.5c-0.1,0.13-0.2,0.27-0.3,0.4c-0.08,0.1-0.05,0.25,0.05,0.32c0.26,0.19,0.52,0.37,0.8,0.54
							c0.11,0.07,0.26,0.03,0.32-0.08c0.08-0.14,0.17-0.29,0.25-0.43c0.06-0.11,0.03-0.25-0.08-0.31c-0.24-0.15-0.48-0.31-0.71-0.48
							C106.48,116.37,106.34,116.39,106.26,116.5z"/>
						<path class="st9" d="M107.47,117.46c-0.03,0.07-0.07,0.13-0.1,0.2c-0.06,0.11-0.02,0.26,0.1,0.31
							c0.35,0.18,0.7,0.34,1.07,0.48c0.12,0.05,0.26-0.02,0.3-0.14c0.02-0.07,0.05-0.14,0.08-0.21c0.04-0.12-0.02-0.25-0.13-0.29
							c-0.34-0.13-0.67-0.28-0.99-0.45C107.67,117.31,107.53,117.35,107.47,117.46z"/>
					</g>
					<path class="st9" d="M105,115.29l-0.49,0.61c-0.08,0.1-0.06,0.25,0.04,0.33l0.84,0.67c0.1,0.08,0.24,0.06,0.32-0.04l0.49-0.61
						c0.08-0.1,0.06-0.25-0.04-0.33l-0.84-0.67C105.23,115.17,105.08,115.19,105,115.29z"/>
					<g>
						<path class="st9" d="M108.06,114.37c-0.1,0.13-0.2,0.27-0.3,0.4c-0.08,0.1-0.05,0.25,0.05,0.32c0.26,0.19,0.52,0.37,0.8,0.54
							c0.11,0.07,0.26,0.03,0.32-0.08c0.08-0.14,0.17-0.29,0.25-0.43c0.06-0.11,0.03-0.25-0.08-0.31c-0.24-0.15-0.48-0.31-0.71-0.48
							C108.28,114.25,108.13,114.26,108.06,114.37z"/>
						<path class="st9" d="M109.27,115.33c-0.03,0.07-0.07,0.13-0.1,0.2c-0.06,0.11-0.02,0.26,0.1,0.31
							c0.35,0.18,0.71,0.34,1.07,0.48c0.12,0.05,0.26-0.02,0.3-0.14c0.02-0.07,0.05-0.14,0.08-0.21c0.04-0.12-0.02-0.25-0.13-0.29
							c-0.34-0.13-0.67-0.28-0.99-0.45C109.47,115.18,109.33,115.22,109.27,115.33z"/>
					</g>
					<path class="st9" d="M106.8,113.16l-0.49,0.61c-0.08,0.1-0.06,0.25,0.04,0.33l0.84,0.67c0.1,0.08,0.24,0.06,0.32-0.04
						l0.49-0.61c0.08-0.1,0.06-0.25-0.04-0.33l-0.84-0.67C107.02,113.04,106.88,113.06,106.8,113.16z"/>
					<g>
						<path class="st9" d="M107.5,112.5c0.04-0.16,0.09-0.32,0.14-0.48c0.04-0.12,0.16-0.2,0.29-0.16c0.31,0.09,0.61,0.19,0.91,0.3
							c0.12,0.05,0.18,0.18,0.13,0.3c-0.06,0.15-0.13,0.31-0.19,0.46c-0.05,0.12-0.18,0.17-0.3,0.13c-0.27-0.1-0.54-0.19-0.81-0.27
							C107.54,112.75,107.47,112.63,107.5,112.5z"/>
						<path class="st9" d="M109.01,112.87c0.03-0.07,0.06-0.13,0.09-0.2c0.05-0.12,0.19-0.17,0.31-0.11
							c0.35,0.17,0.7,0.35,1.04,0.55c0.11,0.07,0.14,0.21,0.07,0.32c-0.04,0.06-0.08,0.12-0.12,0.19c-0.07,0.11-0.21,0.14-0.31,0.07
							c-0.31-0.19-0.63-0.36-0.96-0.51C109.01,113.12,108.96,112.99,109.01,112.87z"/>
					</g>
					<path class="st9" d="M105.94,111.73c-0.01-0.01-0.03-0.02-0.04-0.03l0.05-0.22c0.03-0.12,0.15-0.19,0.27-0.16l1.07,0.26
						c0.12,0.03,0.19,0.15,0.16,0.27l-0.17,0.68c-0.02,0.08-0.08,0.14-0.16,0.16L105.94,111.73z"/>
				</g>
			</g>
			<path class="st9" d="M83.77,135.33c0.13-0.39,0.2-0.8,0.2-1.24c0-2.18-1.77-3.95-3.94-3.95c-2.18,0-3.94,1.77-3.94,3.95
				c0,0.43,0.07,0.85,0.2,1.24H83.77z"/>
			<path class="st9" d="M93.66,135.33c0.13-0.39,0.2-0.8,0.2-1.24c0-2.18-1.77-3.95-3.94-3.95s-3.94,1.77-3.94,3.95
				c0,0.43,0.07,0.85,0.2,1.24H93.66z"/>
		</g>
		<path class="st1" d="M84.03,70.33c0,0.42-0.34,0.76-0.76,0.76c-0.42,0-0.76-0.34-0.76-0.76c0-0.42,0.34-0.76,0.76-0.76
			C83.69,69.57,84.03,69.91,84.03,70.33z"/>
		<g>
			<polygon class="st1" points="84.24,78.51 83.83,74.61 84.85,73.94 83.33,73.45 84.36,72.74 83.47,72.32 83.09,70.36 83.45,70.29 
				83.8,72.07 85.09,72.67 84.15,73.33 85.7,73.82 84.22,74.8 84.61,78.47 			"/>
		</g>
	</g>
</g>
<g>
</g>
<g>
</g>
<g>
</g>
<g>
</g>
<g>
</g>
<g>
</g>
<g>
</g>
<g>
</g>
<g>
</g>
<g>
</g>
<g>
</g>
</svg>
