<?xml version="1.0" encoding="UTF-8"?>
<svg xmlns="http://www.w3.org/2000/svg" viewBox="0 0 512 512" width="512" height="512"><g id="Filled_Outline" data-name="Filled Outline"><rect x="24" y="24" width="464" height="464" rx="96" style="fill:#ffca28"/><path d="M442.888,69.112A71.78,71.78,0,0,1,464,120V392a72.081,72.081,0,0,1-72,72H120a71.78,71.78,0,0,1-50.888-21.112L52.118,459.882A95.7,95.7,0,0,0,120,488H392a96,96,0,0,0,96-96V120a95.7,95.7,0,0,0-28.118-67.882Z" style="fill:#d8a71d"/><path d="M48,392V120a72.081,72.081,0,0,1,72-72H392a71.78,71.78,0,0,1,50.888,21.112l16.994-16.994A95.7,95.7,0,0,0,392,24H120a96,96,0,0,0-96,96V392a95.7,95.7,0,0,0,28.118,67.882l16.994-16.994A71.78,71.78,0,0,1,48,392Z" style="fill:#ffe082"/><path d="M392,16H120A104.118,104.118,0,0,0,16,120V392A104.118,104.118,0,0,0,120,496H392A104.118,104.118,0,0,0,496,392V120A104.118,104.118,0,0,0,392,16Zm88,376a88.1,88.1,0,0,1-88,88H120a88.1,88.1,0,0,1-88-88V120a88.1,88.1,0,0,1,88-88H392a88.1,88.1,0,0,1,88,88Z"/><path d="M192.06,367.733,192.012,400H400V112H192.012l.046,32.267-16,.023L176,104.011A8,8,0,0,1,184,96H408a8,8,0,0,1,8,8V408a8,8,0,0,1-8,8H184a8,8,0,0,1-8-8.012l.06-40.278Z"/><path d="M258.343,181.657l11.314-11.314,80,80a8,8,0,0,1,0,11.314l-80,80-11.314-11.314L324.687,264H96V248H324.687Z"/></g></svg>
