<svg id="Layer_1" enable-background="new 0 0 512.437 512.437" height="512" viewBox="0 0 512.437 512.437" width="512" xmlns="http://www.w3.org/2000/svg"><g><path d="m296.032 497.098h-59.892c-7.132 0-12.913-5.781-12.913-12.913v-199.65c0-7.132 5.781-12.913 12.913-12.913h59.892c7.132 0 12.913 5.781 12.913 12.913v199.65c.001 7.131-5.781 12.913-12.913 12.913z" fill="#ff6b6b"/><path d="m148.509 497.098h-59.892c-7.132 0-12.913-5.781-12.913-12.913v-138.316c0-7.132 5.781-12.913 12.913-12.913h59.892c7.132 0 12.913 5.781 12.913 12.913v138.316c0 7.131-5.782 12.913-12.913 12.913z" fill="#45f6ff"/><path d="m493.568 124.486-72.544-65.801c-4.064-3.686-10.265-3.675-14.315.026l-71.994 65.778c-2.205 2.014-3.461 4.863-3.461 7.85v38.909c0 5.872 4.76 10.633 10.633 10.633h24.675c2.449 0 4.434 1.985 4.434 4.434v300.151c0 5.872 4.76 10.633 10.633 10.633h64.453c5.872 0 10.633-4.76 10.633-10.633v-300.152c0-2.449 1.985-4.434 4.434-4.434h25.277c5.872 0 10.633-4.76 10.633-10.633v-38.886c-.002-3-1.269-5.86-3.491-7.875z" fill="#00d16c"/><g><path d="m78.297 65.204h-63.297c-8.284 0-15-6.716-15-15s6.716-15 15-15h63.297c8.284 0 15 6.716 15 15s-6.716 15-15 15z" fill="#006180"/></g><g><path d="m59.248 121.227h-44.248c-8.284 0-15-6.716-15-15s6.716-15 15-15h44.248c8.284 0 15 6.716 15 15s-6.716 15-15 15z" fill="#003140"/></g><g><path d="m59.248 177.249h-44.248c-8.284 0-15-6.716-15-15s6.716-15 15-15h44.248c8.284 0 15 6.716 15 15s-6.716 15-15 15z" fill="#003140"/></g><g><path d="m59.248 233.271h-44.248c-8.284 0-15-6.716-15-15s6.716-15 15-15h44.248c8.284 0 15 6.716 15 15s-6.716 15-15 15z" fill="#003140"/></g><g><path d="m78.297 289.294h-63.297c-8.284 0-15-6.716-15-15s6.716-15 15-15h63.297c8.284 0 15 6.716 15 15s-6.716 15-15 15z" fill="#006180"/></g><path d="m497.437 512.098h-482.437c-8.284 0-15-6.716-15-15v-481.759c0-8.284 6.716-15 15-15s15 6.716 15 15v466.759h467.437c8.284 0 15 6.716 15 15s-6.716 15-15 15z" fill="#004960"/><path d="m296.032 271.621h-29.946v225.476h29.946c7.132 0 12.913-5.781 12.913-12.913v-199.65c.001-7.131-5.781-12.913-12.913-12.913z" fill="#ff1f3d"/><path d="m497.437 482.098h-231.35v30h231.35c8.284 0 15-6.716 15-15s-6.716-15-15-15z" fill="#003140"/></g></svg>