<svg id="Layer_1" enable-background="new 0 0 512 512" height="512" viewBox="0 0 512 512" width="512" xmlns="http://www.w3.org/2000/svg"><g><path d="m275.276 138.543-156.91-96.103c-5.617-3.44-12.86-2.582-17.517 2.075l-96.675 96.675c-4.422 4.422-5.444 11.212-2.519 16.74l63.53 120.058 149.125 144.488 39.71 39.71c13.152 13.152 34.475 13.152 47.626 0 13.152-13.152 13.152-34.475 0-47.626l.007-.007c13.152 13.152 34.475 13.152 47.626 0 13.152-13.152 13.152-34.475 0-47.626l1.636 1.636c12.248 12.248 32.106 12.248 44.354 0 12.248-12.248 12.248-32.106 0-44.354l-112.5-112.5-26.807 8.601c-14.901 14.901-24.858 21.576-39.759 6.675-15.075-15.075-9.647-20.552 5.674-35.377z" fill="#9d5e4a"/><path d="m171.58 463.679.631.631c13.333 13.333 34.95 13.333 48.283 0l44.426-44.426c13.333-13.333 13.333-34.95 0-48.283l-.631-.631c-13.333-13.333-34.95-13.333-48.283 0l-44.426 44.426c-13.333 13.333-13.333 34.95 0 48.283z" fill="#ffddce"/><path d="m122.664 414.764.631.631c13.333 13.333 34.95 13.333 48.283 0l44.426-44.426c13.333-13.333 13.333-34.95 0-48.283l-.631-.631c-13.333-13.333-34.95-13.333-48.283 0l-44.426 44.426c-13.333 13.333-13.333 34.95 0 48.283z" fill="#ffddce"/><path d="m73.749 365.849.631.631c13.333 13.333 34.95 13.333 48.283 0l48.241-48.241c11.226-11.226 11.226-29.427 0-40.653l-4.446-4.446c-13.333-13.333-34.95-13.333-48.283 0l-44.426 44.426c-13.333 13.332-13.333 34.95 0 48.283z" fill="#ffcbbc"/><path d="m123.295 415.395c13.333 13.333 34.95 13.333 48.283 0l44.426-44.426c13.333-13.333 13.333-34.95 0-48.283l-.339-.339-92.709 92.709z" fill="#ffcbbc"/><path d="m348.794 415.014c.161-.155.326-.302.485-.461 13.152-13.152 13.152-34.475 0-47.626l1.636 1.636c12.248 12.248 32.106 12.248 44.354 0 12.248-12.248 12.248-32.106 0-44.354l-112.5-112.5-26.807 8.602c-14.901 14.901-24.858 21.576-39.759 6.675-15.075-15.075-9.647-20.552 5.674-35.377l53.399-53.066-156.91-96.103c-5.617-3.44-12.86-2.582-17.517 2.075l-51.499 51.499z" fill="#854737"/><path d="m393.175 39.735-78.43 47.253c-14.534 6.408-27.811 15.352-39.211 26.412l-69.616 67.541c-15.321 14.825-15.522 39.328-.447 54.403 14.901 14.901 39.061 14.901 53.962 0l18.098-18.098c2.973-2.973 7.792-2.973 10.764 0l103.616 103.616 43.239-40.89c13.859-13.106 24.757-29.022 31.965-46.682l43.122-78.472c3.068-5.583 2.057-12.524-2.475-17l-97.222-96.017c-4.635-4.578-11.785-5.429-17.365-2.066z" fill="#ffddce"/><path d="m510.238 154.817c3.068-5.583 2.057-12.524-2.475-17l-54.12-53.448-149.112 149.111 87.381 87.381 43.239-40.89c13.859-13.106 24.757-29.022 31.965-46.682z" fill="#ffcbbc"/></g></svg>