<svg id="Layer_1" enable-background="new 0 0 512.22 512.22" height="512" viewBox="0 0 512.22 512.22" width="512" xmlns="http://www.w3.org/2000/svg"><g><path d="m388.996 466.775c3.985 2.839 9.343 2.891 13.338.065 12.301-8.701 24.034-18.559 35.048-29.573 11.164-11.164 21.14-23.066 29.927-35.55 2.83-4.02 2.752-9.408-.132-13.39l-15.111-20.868c-2.556-3.53-2.887-8.187-.91-12.071 5.297-10.403 9.707-21.141 13.232-32.103 1.329-4.133 4.822-7.197 9.103-7.916l25.381-4.262c4.825-.81 8.651-4.563 9.477-9.385 2.545-14.85 3.871-30.117 3.871-45.694 0-15.788-1.362-31.258-3.976-46.299-.842-4.844-4.707-8.598-9.561-9.375l-25.28-4.045c-4.309-.689-7.837-3.753-9.183-7.904-3.579-11.037-8.055-21.847-13.433-32.313-1.984-3.861-1.68-8.498.839-12.033l14.874-20.878c2.839-3.985 2.891-9.343.065-13.338-8.701-12.301-18.559-24.034-29.573-35.048-11.164-11.164-23.066-21.14-35.55-29.927-4.02-2.83-9.408-2.752-13.39.132l-20.789 15.054c-3.527 2.554-8.18 2.887-12.062.914-10.345-5.255-21.019-9.634-31.915-13.138-4.133-1.329-7.198-4.822-7.917-9.104l-4.262-25.381c-.81-4.825-4.563-8.651-9.385-9.477-14.849-2.542-30.116-3.868-45.692-3.868-15.788 0-31.258 1.362-46.299 3.976-4.844.842-8.598 4.707-9.375 9.561l-4.045 25.28c-.689 4.309-3.754 7.837-7.905 9.183-10.972 3.558-21.718 8.003-32.126 13.339-3.86 1.979-8.492 1.673-12.025-.844l-20.798-14.817c-3.985-2.839-9.343-2.891-13.338-.065-12.299 8.702-24.032 18.56-35.046 29.574-11.164 11.164-21.14 23.066-29.927 35.55-2.83 4.02-2.752 9.408.132 13.39l14.903 20.581c2.557 3.531 2.887 8.189.908 12.073-5.309 10.419-9.726 21.174-13.257 32.154-1.329 4.133-4.822 7.197-9.103 7.916l-25.381 4.262c-4.825.81-8.651 4.563-9.477 9.385-2.545 14.849-3.871 30.116-3.871 45.692 0 15.788 1.362 31.258 3.976 46.299.842 4.844 4.707 8.598 9.561 9.375l25.28 4.045c4.31.69 7.837 3.754 9.184 7.906 3.531 10.887 7.937 21.552 13.219 31.885 1.972 3.858 1.664 8.485-.85 12.014l-14.966 21.006c-2.839 3.985-2.891 9.343-.065 13.338 8.701 12.301 18.559 24.034 29.573 35.048 11.164 11.164 23.066 21.14 35.55 29.927 4.02 2.83 9.408 2.752 13.39-.132l20.66-14.96c3.534-2.559 8.196-2.888 12.082-.904 10.478 5.351 21.297 9.8 32.342 13.351 4.133 1.329 7.196 4.822 7.915 9.103l4.262 25.381c.81 4.825 4.563 8.651 9.385 9.477 14.85 2.545 30.117 3.871 45.694 3.871 15.788 0 31.258-1.362 46.299-3.976 4.844-.842 8.598-4.707 9.375-9.561l4.045-25.28c.69-4.309 3.754-7.837 7.905-9.184 10.953-3.552 21.681-7.988 32.072-13.312 3.859-1.977 8.491-1.671 12.022.845z" fill="#fff5f5"/><path d="m498.683 200.354-25.28-4.045c-4.309-.689-7.837-3.753-9.183-7.904-3.579-11.037-8.055-21.847-13.433-32.313-1.984-3.861-1.68-8.498.839-12.033l14.874-20.878c2.839-3.985 2.891-9.343.065-13.338-8.701-12.301-18.559-24.034-29.573-35.048-11.164-11.164-23.066-21.14-35.55-29.927-4.02-2.83-9.408-2.752-13.39.132l-20.789 15.054c-3.527 2.554-8.18 2.887-12.062.914-10.344-5.255-21.019-9.634-31.915-13.137-4.133-1.329-7.198-4.822-7.917-9.104l-4.262-25.381c-.81-4.825-4.563-8.651-9.385-9.477-14.789-2.535-29.992-3.858-45.502-3.869v512.218c15.778-.002 31.238-1.364 46.269-3.975 4.844-.842 8.598-4.707 9.375-9.561l4.045-25.281c.69-4.309 3.754-7.837 7.905-9.183 10.953-3.552 21.681-7.988 32.072-13.313 3.859-1.977 8.491-1.671 12.022.845l21.087 15.023c3.985 2.839 9.343 2.891 13.338.065 12.301-8.701 24.034-18.559 35.048-29.573 11.164-11.164 21.14-23.066 29.927-35.55 2.83-4.02 2.752-9.408-.132-13.39l-15.111-20.868c-2.556-3.53-2.887-8.187-.91-12.071 5.297-10.403 9.707-21.141 13.232-32.103 1.329-4.133 4.822-7.197 9.104-7.916l25.381-4.262c4.825-.81 8.651-4.563 9.477-9.385 2.545-14.85 3.871-30.117 3.871-45.694 0-15.788-1.362-31.258-3.976-46.299-.841-4.842-4.706-8.596-9.561-9.373z" fill="#eceae7"/><g><path d="m304.828 207.391c28.787 28.787 82.482 23.232 110.798 14.777-6.316-29.819-21.044-58.212-44.203-81.372-23.155-23.155-51.543-37.883-81.357-44.2-8.613 28.349-14.118 81.915 14.762 110.795z" fill="#d0c8c3"/><path d="m210.407 210.432c28.794-28.794 20.22-85.518 11.752-113.837-29.816 6.317-58.206 21.044-81.363 44.201-23.161 23.161-37.89 51.557-44.205 81.379 28.349 8.615 84.935 17.139 113.816-11.743z" fill="#dad0cb"/><path d="m308.102 308.077c-27.612 27.612-24.601 79.435-17.934 107.526 29.776-6.329 58.126-21.05 81.256-44.179 23.17-23.17 37.9-51.578 44.211-81.411-28.108-6.789-79.835-9.635-107.533 18.064z" fill="#d0c8c3"/><path d="m203.99 308.255c-28.802-28.802-79.139-26.998-107.461-18.516 6.279 29.933 21.027 58.445 44.268 81.685 23.249 23.249 51.774 38 81.72 44.275 8.612-28.349 10.353-78.564-18.527-107.444z" fill="#dad0cb"/><path d="m415.626 222.168c-28.316 8.456-65.19-2.81-93.977-31.598-28.881-28.881-40.196-65.626-31.583-93.974-22.369-4.74-45.538-4.74-67.907-.001 8.467 28.319-2.798 65.204-31.592 93.998-28.881 28.881-65.628 40.197-93.976 31.582-4.713 22.255-4.733 45.301-.063 67.563 28.323-8.481 65.728 2.645 94.531 31.447 28.88 28.88 40.069 66.165 31.457 94.513 22.292 4.671 45.37 4.64 67.651-.096-6.667-28.091 3.632-66.604 31.244-94.216 27.698-27.698 66.115-38.162 94.223-31.375 4.728-22.348 4.726-45.495-.008-67.843z" fill="#e7dfdd"/></g><path d="m321.649 190.569c-28.881-28.881-40.196-65.626-31.583-93.974-11.149-2.362-22.498-3.546-33.846-3.554v326.134c11.383-.007 22.766-1.197 33.948-3.574-6.667-28.091 3.632-66.604 31.244-94.216 27.698-27.698 66.115-38.162 94.223-31.375 4.728-22.349 4.725-45.496-.008-67.844-28.317 8.456-65.191-2.81-93.978-31.597z" fill="#dad0cb"/><circle cx="256.11" cy="256.11" fill="#fff1f3" r="38.193"/><path d="m256.22 217.917v76.381c9.738-.028 19.467-3.754 26.896-11.184 14.915-14.915 14.915-39.098 0-54.013-7.429-7.43-17.158-11.157-26.896-11.184z" fill="#eceae7"/></g></svg>