<svg id="Layer_1" enable-background="new 0 0 512.491 512.491" height="512" viewBox="0 0 512.491 512.491" width="512" xmlns="http://www.w3.org/2000/svg"><g><path d="m332.115 259.037h-152.23c-5.667 0-10.261-4.594-10.261-10.261v-7.256c0-26.557 21.529-48.086 48.086-48.086h76.58c26.557 0 48.086 21.529 48.086 48.086v7.256c0 5.666-4.594 10.261-10.261 10.261z" fill="#004960"/><path d="m294.29 193.433h-38.29v65.603h76.115c5.667 0 10.261-4.594 10.261-10.261v-7.256c0-26.557-21.529-48.086-48.086-48.086z" fill="#003140"/><path d="m501.739 259.037h-149.102c-5.667 0-10.261-4.594-10.261-10.261v-3.641c0-26.557 21.529-48.086 48.086-48.086h73.452c26.557 0 48.086 21.529 48.086 48.086v3.641c0 5.666-4.594 10.261-10.261 10.261z" fill="#e20059"/><path d="m463.914 197.048h-36.726v61.989h74.551c5.667 0 10.261-4.594 10.261-10.261v-3.641c0-26.558-21.529-48.087-48.086-48.087z" fill="#b10f61"/><g><path d="m347.209 402.055h29.811c9.581 0 18.729-3.994 25.241-11.022l12.69-13.693-7.936 8.614 51.128-55.497c10.899-11.831 28.969-13.532 41.885-3.943 14.178 10.526 16.646 30.783 5.409 44.405l-69.75 84.557c-13.11 16.301-32.902 25.782-53.821 25.782h-283.125-75.186c-13.009.001-23.555-10.545-23.555-23.554v-77.842c0-13.071 10.642-23.642 23.713-23.555l75.079.635 10.39-20.521c29.897-26.19 85.339-33.515 121.795-17.68.839.364 1.674.74 2.506 1.127l27.582 12.823c6.106 2.839 12.757 4.309 19.491 4.309h66.653c17.965 0 32.528 14.563 32.528 32.528 0 17.964-14.563 32.527-32.528 32.527h-88.925" fill="#9d5e4a"/><path d="m346.909 336.504h-67.16c-6.784 0-13.487-1.482-19.639-4.342l-19.583-9.104c-10.111-5.667-21.894-9.95-34.348-12.15-14.372-2.657-42.202-2.368-56.224.86-18.206 3.807-33.521 11.702-43.274 22.003-.003.003-.007.006-.011.009h.002c-7.258 7.67-11.439 16.666-11.439 26.288 0 28.064 35.545 50.814 79.391 50.814 14.009 0 35.174-1.747 51.137-5.035 11.903-2.452 24.008-3.794 36.161-3.794h84.986c18.101 0 32.775-14.674 32.775-32.775.001-18.101-14.673-32.774-32.774-32.774z" fill="#854737"/><path d="m500.028 326.514c-12.916-9.589-30.986-7.888-41.885 3.943l-51.127 55.497 7.936-8.614-12.69 13.693c-6.513 7.027-15.66 11.022-25.241 11.022h-29.811c17.965 0 32.528-14.563 32.528-32.528 0-17.965-14.563-32.528-32.528-32.528h-66.653c-6.733 0-13.385-1.471-19.49-4.309l-4.574-2.127v150.695h125.375c20.919 0 40.711-9.481 53.821-25.782l69.75-84.557c11.235-13.622 8.767-33.879-5.411-44.405z" fill="#854737"/><path d="m346.909 336.36h-67.16c-6.784 0-13.487-1.482-19.639-4.342l-3.619-1.683v71.807c1.81-.059 3.62-.232 5.432-.232h85.986c18.101 0 32.775-14.674 32.775-32.775s-15.674-32.775-33.775-32.775z" fill="#734536"/></g><path d="m202.123 109.732v34.074c0 29.755 24.121 53.877 53.877 53.877 29.755 0 53.877-24.122 53.877-53.877v-14.936l-53.877-31.935z" fill="#ffcbbc"/><path d="m159.363 259.037h-149.102c-5.667 0-10.261-4.595-10.261-10.262v-3.641c0-26.557 21.529-48.086 48.086-48.086h73.452c26.557 0 48.086 21.529 48.086 48.086v3.641c0 5.667-4.594 10.262-10.261 10.262z" fill="#ace233"/><g><path d="m374.287 124.735v23.661c0 29.217 23.685 52.901 52.901 52.901 29.217 0 52.901-23.685 52.901-52.901v-23.661l-51.083-26.858z" fill="#9d5e4a"/><path d="m480.089 111.009c0-22.086-17.904-39.991-39.991-39.991h-25.822c-22.086 0-39.991 17.904-39.991 39.991v13.726h105.803v-13.726z" fill="#004960"/></g><path d="m121.538 197.048h-36.726v61.989h74.551c5.667 0 10.261-4.594 10.261-10.261v-3.641c0-26.558-21.529-48.087-48.086-48.087z" fill="#00d16c"/><path d="m256 197.683c29.755 0 53.877-24.122 53.877-53.877v-14.936l-53.877-31.935z" fill="#ffbca7"/><path d="m427.188 98.769v102.529c29.217 0 52.901-23.685 52.901-52.901v-23.661l-51.083-26.859z" fill="#854737"/><path d="m440.099 71.018h-12.911v53.717h52.901v-13.726c0-22.086-17.904-39.991-39.99-39.991z" fill="#003140"/><path d="m309.877 105.729c0-22.494-18.235-40.728-40.728-40.728h-26.298c-22.493 0-40.728 18.235-40.728 40.728v4.003l107.754 19.137z" fill="#dad0cb"/><path d="m269.149 65.001h-13.149v54.3l53.877 9.569v-23.141c0-22.494-18.235-40.728-40.728-40.728z" fill="#d0c8c3"/><path d="m124.69 72.1c0-22.434-18.077-40.647-40.46-40.866-22.754-.223-41.313 19.053-41.275 41.807.008 4.984.137 7.373 2.086 11.981l77.972-1.253c1.816-4.624 1.677-6.4 1.677-11.669z" fill="#ff6b6b"/><path d="m84.812 31.232v53.129l38.201-.614c1.816-4.625 1.677-6.401 1.677-11.67 0-22.238-17.766-40.318-39.878-40.845z" fill="#ff1f3d"/><path d="m31.91 124.735v23.661c0 29.217 23.685 52.901 52.902 52.901 29.217 0 52.902-23.685 52.902-52.901v-23.661l-52.472-17.071z" fill="#ffddce"/><path d="m84.812 107.802v93.496c29.217 0 52.902-23.685 52.902-52.901v-23.661l-52.472-17.071z" fill="#ffcbbc"/><path d="m137.714 111.009c0-22.086-17.904-39.991-39.991-39.991h-25.822c-22.086 0-39.991 17.904-39.991 39.991v13.726h105.803v-13.726z" fill="#ff9d21"/><path d="m97.723 71.152h-12.911v53.717h52.902v-13.726c0-22.087-17.905-39.991-39.991-39.991z" fill="#ff6b6b"/></g></svg>