<svg id="Layer_1" enable-background="new 0 0 512.008 512.008" height="512" viewBox="0 0 512.008 512.008" width="512" xmlns="http://www.w3.org/2000/svg"><g><g><path d="m142.353 209.595h160.037c11.876 0 21.42 9.646 21.468 21.522.008 1.925-.031 3.806-.115 5.647l70.899 9.714 2.526-.612v.958.022 52.21c0 37.157-13.837 71.08-36.637 96.903-14.489 16.411-23.221 36.987-25.38 58.616-.359 3.596-6.392 6.615-6.384 10.254l-2.007 18.461c.013 5.919-4.781 10.723-10.699 10.723h-131.43c-5.909 0-10.699-4.79-10.699-10.699l-1.345-15.674c0-3.891-4.845-9.23-5.264-13.069-2.337-21.438-11.129-41.796-25.599-58.003-23.122-25.898-37.178-60.061-37.178-97.511v-51.654c0-20.881 16.927-37.808 37.807-37.808z" fill="#ffddce"/><path d="m397.17 245.866-2.526.612-70.899-9.714c.084-1.841.123-3.723.115-5.647-.048-11.876-9.593-21.522-21.468-21.522h-51.632v284.418h65.302c5.919 0 10.713-4.805 10.699-10.723l2.008-18.461c-.008-3.639 6.025-6.658 6.384-10.254 2.159-21.628 10.891-42.205 25.38-58.616 22.8-25.823 36.637-59.746 36.637-96.903v-52.21-.022z" fill="#ffcbbc"/><path d="m141.169 83.593c-20.214 0-36.601 16.387-36.601 36.601v125.816l73.095-36.415.107-89.401c0-20.214-16.387-36.601-36.601-36.601z" fill="#ffddce"/><path d="m287.36 83.593c-20.214 0-36.601 16.387-36.601 36.601l.107 89.435 73.095 36.381v-125.816c0-20.214-16.387-36.601-36.601-36.601z" fill="#f9a58b"/><path d="m214.265 83.593c-20.214 0-36.601 16.387-36.601 36.601v125.816l73.202-36.381v-89.435c0-20.214-16.387-36.601-36.601-36.601z" fill="#ffbca7"/><path d="m360.568 312.806c20.214 0 36.601-16.387 36.601-36.601v-93.103c0-20.214-16.387-36.601-36.601-36.601-20.214 0-36.601 16.387-36.601 36.601v93.103c0 20.214 16.387 36.601 36.601 36.601z" fill="#dd9080"/><path d="m248.759 336.277c0-16.743-3.992-32.082-13.939-44.005h6.353c64.337 0 82.658-21.831 82.658-60.649 0-6.222-2.502-11.953-6.587-16.01-3.85-3.718-9.068-6.017-14.851-6.018h-160.042c-20.879.001-37.805 16.928-37.805 37.807v51.654c0 37.45 14.056 71.613 37.178 97.511 5.85 6.552 10.747 13.794 14.689 21.499h12.556c45.171 0 79.79-36.618 79.79-81.789z" fill="#ffcbbc"/><path d="m167.278 454.575c.418 3.839.656 7.709.656 11.6v35.13c0 5.909 4.79 10.699 10.699 10.699h145.506c5.918 0 10.713-4.805 10.699-10.723l-.235-35.846c-.008-3.641.19-7.263.55-10.86z" fill="#ff1f3d"/><path d="m302.392 209.595h-51.633v82.5c56.584-2.124 73.071-23.656 73.071-60.472 0-6.222-2.502-11.953-6.587-16.01-3.851-3.719-9.069-6.018-14.851-6.018z" fill="#ffbca7"/><path d="m250.758 454.575v57.429h73.381c5.918 0 10.713-4.805 10.699-10.723l-.234-35.846c-.008-3.641.19-7.263.55-10.86z" fill="#b10f61"/></g><path d="m163.627 317.679-40.142-5.833c-1.663-.242-3.101-1.286-3.845-2.793l-17.952-36.375c-2.527-5.12-7.741-8.362-13.451-8.362-5.709 0-10.924 3.242-13.451 8.361l-17.953 36.375c-.744 1.507-2.182 2.552-3.845 2.793l-40.142 5.833c-6.594.958-11.885 6.187-12.737 13.044-.589 4.739 1.263 9.46 4.682 12.793l28.79 28.062c1.204 1.173 1.753 2.863 1.469 4.52l-6.858 39.979c-.965 5.627 1.348 11.315 5.967 14.671 4.62 3.355 10.741 3.8 15.797 1.142l35.905-18.875c1.488-.782 3.265-.782 4.752 0l35.903 18.875c2.195 1.154 4.592 1.723 6.979 1.723 3.11 0 6.205-.966 8.818-2.865 4.619-3.356 6.933-9.043 5.968-14.671l-6.857-39.98c-.284-1.656.265-3.347 1.469-4.52l29.046-28.314c4.089-3.985 5.561-9.946 3.796-15.376-1.763-5.428-6.457-9.385-12.108-10.207z" fill="#ffcb00"/><path d="m409.198 74.828c1.203 1.173 1.753 2.863 1.468 4.52l-3.703 21.59c-.965 5.627 1.348 11.315 5.967 14.671 4.62 3.355 10.742 3.799 15.797 1.142l19.39-10.193c1.488-.782 3.265-.782 4.752 0l19.389 10.193c2.195 1.154 4.591 1.723 6.979 1.723 4.059 0 8.093-1.646 11.061-4.861 3.215-3.484 4.466-8.356 3.664-13.029l-3.642-21.235c-.284-1.656.265-3.347 1.469-4.52l15.433-15.044c3.42-3.334 5.269-8.055 4.677-12.794-.856-6.854-6.146-12.08-12.737-13.039l-21.678-3.15c-1.663-.242-3.101-1.286-3.845-2.794l-9.536-19.323c-2.113-4.282-6.029-7.501-10.718-8.405-6.784-1.308-13.393 2.109-16.343 8.084l-9.695 19.644c-.744 1.507-2.182 2.552-3.845 2.793l-21.247 3.087c-4.839.703-9.22 3.523-11.51 7.844-3.181 6.002-1.943 13.214 2.766 17.804z" fill="#ffcb00"/><path d="m498.73 417.935-26.822-3.897c-1.663-.242-3.101-1.286-3.845-2.794l-12.029-24.375c-2.113-4.282-6.029-7.501-10.718-8.405-6.784-1.308-13.393 2.109-16.343 8.084l-12.188 24.696c-.744 1.507-2.182 2.552-3.845 2.793l-26.822 3.897c-4.839.703-9.22 3.523-11.51 7.844-3.181 6.002-1.943 13.214 2.766 17.804l19.72 19.223c1.203 1.173 1.753 2.863 1.469 4.52l-4.656 27.143c-.965 5.627 1.349 11.315 5.968 14.671 4.618 3.355 10.739 3.799 15.797 1.142l24.376-12.815c1.488-.782 3.265-.782 4.752 0l24.375 12.815c2.195 1.154 4.592 1.723 6.979 1.723 3.11 0 6.205-.966 8.818-2.865 4.619-3.356 6.933-9.043 5.968-14.671l-4.656-27.143c-.284-1.656.265-3.347 1.469-4.52l19.72-19.223c4.71-4.59 5.947-11.802 2.766-17.804-2.288-4.32-6.669-7.14-11.509-7.843z" fill="#ffe705"/><g><g><path d="m61.422 131.578c-1.86 0-3.751-.348-5.582-1.083l-46.423-18.634c-7.688-3.085-11.42-11.82-8.334-19.508s11.822-11.42 19.508-8.333l46.423 18.633c7.688 3.085 11.419 11.82 8.334 19.508-2.351 5.856-7.979 9.417-13.926 9.417z" fill="#ffe705"/></g><g><path d="m107.852 66.469c-3.988 0-7.967-1.58-10.918-4.711l-34.37-36.465c-5.683-6.029-5.401-15.522.627-21.204 6.028-5.683 15.521-5.4 21.203.627l34.37 36.465c5.683 6.029 5.402 15.522-.627 21.204-2.896 2.73-6.595 4.084-10.285 4.084z" fill="#ffcb00"/></g></g><path d="m163.627 317.679-40.142-5.833c-1.663-.242-3.101-1.286-3.845-2.793l-17.951-36.375c-2.527-5.12-7.741-8.362-13.451-8.362-.001 0-.001 0-.002 0v148.112c.817 0 1.634.195 2.378.586l35.903 18.875c2.195 1.154 4.592 1.723 6.979 1.723 3.11 0 6.205-.966 8.818-2.865 4.619-3.356 6.933-9.043 5.968-14.671l-6.857-39.98c-.284-1.656.265-3.347 1.469-4.52l29.046-28.314c4.089-3.985 5.561-9.946 3.796-15.376-1.764-5.428-6.458-9.385-12.109-10.207z" fill="#ff9d21"/></g></svg>