<svg id="Layer_1" enable-background="new 0 0 511.73 511.73" height="512" viewBox="0 0 511.73 511.73" width="512" xmlns="http://www.w3.org/2000/svg"><path d="" style="fill:none;stroke:#000;stroke-width:30;stroke-linecap:round;stroke-linejoin:round;stroke-miterlimit:10"/><path d="" style="fill:none;stroke:#000;stroke-width:30;stroke-linecap:round;stroke-linejoin:round;stroke-miterlimit:10"/><g><path d="m237.013 438.371v-73.408l118.536-22.064 118.536 22.064v73.408c0 33.953-53.07 61.477-118.536 61.477s-118.536-27.524-118.536-61.477" fill="#ff6b6b"/><path d="m474.086 438.371v-73.408l-118.536-22.064v156.949c65.465 0 118.536-27.524 118.536-61.477z" fill="#ff9d21"/><path d="m237.013 368.61v-78.474l118.536-16.998 118.536 22.064v73.408c0 33.953-53.07 61.477-118.536 61.477s-118.536-27.525-118.536-61.477" fill="#ff9d21"/><path d="m474.086 368.61v-73.408l-118.536-22.064v156.949c65.465-.001 118.536-27.525 118.536-61.477z" fill="#ffcb00"/><path d="m237.013 290.135v-73.408l118.536-22.064 118.536 22.064v73.408c0 33.953-53.07 61.477-118.536 61.477s-118.536-27.524-118.536-61.477" fill="#ff6b6b"/><path d="m474.086 290.135v-73.408l-118.536-22.064v156.949c65.465 0 118.536-27.524 118.536-61.477z" fill="#ff1f3d"/><ellipse cx="355.55" cy="216.728" fill="#ffcb00" rx="118.536" ry="61.477"/><path d="m474.086 216.728c0-33.953-53.071-61.477-118.536-61.477v122.954c65.465-.001 118.536-27.525 118.536-61.477z" fill="#ff9d21"/><path d="m0 292.569v-73.408l118.536-22.064 118.536 22.064v73.408c0 33.953-53.07 61.477-118.536 61.477s-118.536-27.524-118.536-61.477" fill="#ffcb00"/><path d="m0 440.805v-73.408l118.536-22.064 118.536 22.064v73.408c0 33.953-53.07 61.477-118.536 61.477s-118.536-27.525-118.536-61.477" fill="#ffcb00"/><path d="m0 371.043v-73.408l118.536-22.064 118.536 22.064v73.408c0 33.953-53.07 61.477-118.536 61.477s-118.536-27.524-118.536-61.477" fill="#ffe705"/><path d="m237.073 440.805v-73.408l-118.536-22.064v156.949c65.465-.001 118.536-27.525 118.536-61.477z" fill="#ff9d21"/><path d="m237.073 371.043v-78.532l-118.536 45.108v94.901c65.465 0 118.536-27.524 118.536-61.477z" fill="#ffcb00"/><path d="m0 292.569v-73.408l118.536-22.064 111.651 83.098 6.885 12.374c0 33.953-53.07 61.477-118.536 61.477s-118.536-27.524-118.536-61.477" fill="#ffcb00"/><path d="m237.073 292.569v-73.408l-118.536-22.064v156.949c65.465 0 118.536-27.524 118.536-61.477z" fill="#ff9d21"/><circle cx="392.325" cy="380.1" fill="#ffe705" r="119.405"/><path d="" style="fill:none;stroke:#000;stroke-width:30;stroke-linecap:round;stroke-linejoin:round;stroke-miterlimit:10"/><path d="m0 222.807v-73.408l118.536-22.064 118.536 22.064v73.408c0 33.953-53.07 61.477-118.536 61.477s-118.536-27.524-118.536-61.477" fill="#ffe705"/><path d="m237.073 222.807v-73.407l-118.536-22.064v156.949c65.465-.001 118.536-27.525 118.536-61.478z" fill="#ffcb00"/><path d="m0 144.333v-73.408l118.536-22.064 118.536 22.064v73.408c0 33.953-53.07 61.477-118.536 61.477s-118.536-27.524-118.536-61.477" fill="#ffcb00"/><path d="m237.073 144.333v-73.408l-118.537-22.064v156.949c65.466 0 118.537-27.524 118.537-61.477z" fill="#ff9d21"/><ellipse cx="118.536" cy="70.925" fill="#ffe705" rx="118.536" ry="61.477"/><g fill="#ffcb00"><path d="m237.073 70.925c0-33.953-53.071-61.477-118.536-61.477v122.953c65.465.001 118.536-27.523 118.536-61.476z"/><path d="m392.325 260.696v238.809c65.945 0 119.405-53.459 119.405-119.405s-53.459-119.404-119.405-119.404z"/><circle cx="392.325" cy="380.1" r="64.505"/></g><path d="m456.83 380.1c0-35.625-28.88-64.505-64.505-64.505v129.01c35.625 0 64.505-28.88 64.505-64.505z" fill="#ff9d21"/></g></svg>