<svg id="Layer_1" enable-background="new 0 0 510.875 510.875" height="512" viewBox="0 0 510.875 510.875" width="512" xmlns="http://www.w3.org/2000/svg"><g><path d="m12.929 174.84c-8.379 25.292-12.928 52.33-12.928 80.434 0 109.58 68.964 203.039 165.851 239.382l144.931-82.867-55.181-156.515-99.97-116.989z" fill="#ffcb00"/><path d="m502.69 320.863-171.874-54.119-99.806 54.119-24.001 64.017 53.511 53.927 215.43-53.927c11.662-19.784 20.721-41.282 26.74-64.017z" fill="#e20059"/><path d="m255.526 307.57v126.205l4.994 5.033 215.43-53.927c11.662-19.784 20.721-41.282 26.74-64.017l-171.874-54.119z" fill="#b10f61"/><path d="m242.209.017c-107.191 5.534-196.91 77.112-229.28 174.823l242.673 80.434v-242.6c0-7.281-6.121-13.032-13.393-12.657z" fill="#5ecbf1"/><path d="m165.852 494.656c27.926 10.475 58.165 16.219 89.75 16.219 62 0 118.843-22.077 163.101-58.796l-175.756-57.82-61.131 57.82z" fill="#e20059"/><path d="m510.857 268.694c.377-7.283-5.359-13.421-12.652-13.421h-242.603l-24.591 65.589h271.679c4.442-16.777 7.238-34.224 8.167-52.168z" fill="#ff6b6b"/><g><path d="m325.982 220.595c-8.284 0-15-6.716-15-15v-55.408c0-8.284 6.716-15 15-15s15 6.716 15 15v55.408c0 8.284-6.716 15-15 15z" fill="#004960"/></g><g><path d="m386.491 220.595c-8.284 0-15-6.716-15-15v-89.447c0-8.284 6.716-15 15-15s15 6.716 15 15v89.447c0 8.284-6.716 15-15 15z" fill="#004960"/></g><g><path d="m446.999 220.595c-8.284 0-15-6.716-15-15v-135.748c0-8.284 6.716-15 15-15s15 6.716 15 15v135.748c0 8.284-6.716 15-15 15z" fill="#003140"/></g><path d="m255.527 510.874c.025 0 .05.001.075.001 62 0 118.843-22.077 163.101-58.796l-163.176-53.682z" fill="#b10f61"/><path d="m498.205 255.274h-242.603l-.075.201v65.388h247.163c4.442-16.778 7.238-34.225 8.166-52.169.377-7.283-5.359-13.42-12.651-13.42z" fill="#ff1f3d"/><path d="m475.95 384.88h-268.94l-25.194 67.199h236.888c22.741-18.869 42.159-41.605 57.246-67.199z" fill="#ff9d21"/><path d="m255.526 452.079h163.176c22.742-18.869 42.16-41.605 57.247-67.199h-220.423z" fill="#ff6b6b"/></g></svg>