<svg id="Layer_1" enable-background="new 0 0 512.026 512.026" height="512" viewBox="0 0 512.026 512.026" width="512" xmlns="http://www.w3.org/2000/svg"><g><path d="m393.986 512.026h64.887c9.173 0 16.609-7.436 16.609-16.609v-422.945c0-8.727-7.075-15.803-15.803-15.803h-65.694l-105.53 222.396z" fill="#004960"/><path d="m36.543 73.279v422.138c0 9.173 7.436 16.609 16.609 16.609h340.834c9.173 0 16.609-7.436 16.609-16.609v-422.138c0-9.173-7.436-16.609-16.609-16.609h-340.833c-9.173-.001-16.61 7.436-16.61 16.609z" fill="#fff5f5"/><path d="m223.57 512.026h170.417c9.173 0 16.609-7.436 16.609-16.609v-422.138c0-9.173-7.436-16.609-16.609-16.609h-170.417z" fill="#eceae7"/><path d="m265.988 31.665c-5.4-18.303-22.322-31.665-42.374-31.665s-36.974 13.362-42.374 31.665h-26.837c-7.018 0-12.708 5.689-12.708 12.708v38.43c0 3.074 2.492 5.565 5.565 5.565h151.615c3.073 0 5.565-2.492 5.565-5.565v-38.43c0-7.018-5.689-12.708-12.707-12.708z" fill="#ffe705"/><g><path d="m255.084 218.354c-.878 0-1.767-.077-2.661-.237l-62.612-11.211c-8.155-1.461-13.582-9.255-12.122-17.409 1.46-8.155 9.259-13.582 17.409-12.122l62.612 11.211c8.155 1.461 13.582 9.255 12.122 17.409-1.3 7.26-7.622 12.359-14.748 12.359z" fill="#004960"/></g><g><path d="m227.801 304.573c-3.024 0-6.078-.912-8.724-2.808-6.734-4.825-8.282-14.195-3.457-20.93l40.079-55.937c4.826-6.733 14.197-8.28 20.93-3.457 6.734 4.825 8.282 14.195 3.457 20.93l-40.079 55.937c-2.929 4.088-7.533 6.265-12.206 6.265z" fill="#004960"/></g><g><path d="m262.391 405.789c-4.762 0-9.444-2.262-12.355-6.477l-37.786-54.711c-4.708-6.816-2.999-16.159 3.818-20.867s16.159-2.997 20.867 3.818l37.786 54.711c4.708 6.816 2.999 16.159-3.818 20.867-2.602 1.797-5.572 2.659-8.512 2.659z" fill="#004960"/></g><path d="m201.41 193.686c3.413-19.551-9.749-38.31-29.34-41.818-9.533-1.705-19.144.402-27.059 5.939-7.882 5.514-13.134 13.771-14.788 23.247-3.413 19.551 9.749 38.31 29.34 41.818 2.158.386 4.318.577 6.463.577 7.333 0 14.472-2.232 20.595-6.516 7.884-5.514 13.136-13.77 14.789-23.247z" fill="#ff9d21"/><path d="m291.734 31.665h-25.746c-5.4-18.303-22.322-31.665-42.374-31.665-.015 0-.03.001-.045.001v88.367h75.307c3.073 0 5.565-2.492 5.565-5.565v-38.43c0-7.019-5.689-12.708-12.707-12.708z" fill="#ffcb00"/><g fill="#003140"><path d="m257.71 188.585-34.141-6.113v30.478l28.853 5.166c.894.16 1.783.237 2.661.237 7.125 0 13.448-5.099 14.748-12.359 1.461-8.154-3.966-15.948-12.121-17.409z"/><path d="m276.629 221.442c-6.733-4.823-16.104-3.276-20.93 3.457l-32.129 44.842v34.213c1.387.409 2.812.618 4.231.618 4.673 0 9.277-2.177 12.206-6.265l40.079-55.937c4.824-6.733 3.277-16.103-3.457-20.928z"/><path d="m236.934 327.552c-3.117-4.512-8.264-6.77-13.365-6.426v39.865l26.466 38.321c2.911 4.215 7.593 6.477 12.355 6.477 2.939 0 5.91-.861 8.511-2.658 6.816-4.708 8.526-14.051 3.818-20.867z"/></g><path d="m248.297 318.414c3.413-19.551-9.749-38.31-29.34-41.818-9.533-1.705-19.144.402-27.059 5.939-7.882 5.514-13.134 13.771-14.788 23.247-3.413 19.551 9.749 38.31 29.34 41.818 2.158.386 4.318.577 6.463.577 7.333 0 14.472-2.232 20.595-6.516 7.883-5.514 13.135-13.77 14.789-23.247z" fill="#00d16c"/><path d="m315.213 418.105c3.413-19.551-9.749-38.31-29.34-41.818-9.533-1.705-19.144.402-27.059 5.939-7.882 5.514-13.134 13.771-14.788 23.247-3.413 19.551 9.749 38.31 29.34 41.818 2.158.386 4.318.577 6.463.577 7.333 0 14.472-2.232 20.595-6.516 7.883-5.514 13.135-13.77 14.789-23.247z" fill="#5ecbf1"/><path d="m316.489 216.447c3.413-19.551-9.749-38.31-29.34-41.818-9.533-1.705-19.144.402-27.059 5.939-7.882 5.514-13.134 13.771-14.788 23.247-3.413 19.551 9.749 38.31 29.34 41.818 2.158.386 4.318.577 6.463.577 7.333 0 14.472-2.232 20.595-6.516 7.883-5.514 13.135-13.77 14.789-23.247z" fill="#ff1f3d"/><path d="m223.57 277.697v68.804c3.501-1.094 6.85-2.729 9.939-4.89 7.882-5.514 13.134-13.771 14.788-23.247 3.137-17.972-7.735-35.265-24.727-40.667z" fill="#00ad95"/></g></svg>