<svg id="Layer_1" enable-background="new 0 0 511.981 511.981" height="512" viewBox="0 0 511.981 511.981" width="512" xmlns="http://www.w3.org/2000/svg"><g><path d="m15 439.996h481.982v-345.421h-118.365-245.246-118.371z" fill="#ff6b6b"/><path d="m256.007 94.575h240.975v345.421h-240.975z" fill="#ff1f3d"/><path d="m496.981 454.996h-481.981c-8.284 0-15-6.716-15-15v-345.421c0-8.284 6.716-15 15-15h481.981c8.284 0 15 6.716 15 15v345.421c0 8.284-6.715 15-15 15zm-466.981-30h451.981v-315.421h-451.981z" fill="#004960"/><path d="m496.981 79.575h-240.975v30h225.975v315.421h-225.975v30h240.975c8.284 0 15-6.716 15-15v-345.421c0-8.284-6.715-15-15-15z" fill="#003140"/><path d="m129.254 29.417v237.869h48.411l16.991-21.436 14.015 21.436h47.319l58.374-70.762 14.641-90.875 53.721-76.232c0-6.459-5.236-11.696-11.696-11.696h-230.08c-6.46 0-11.696 5.236-11.696 11.696z" fill="#ace233"/><path d="m177.665 79.565v187.72l31.006-49.983v-122.234h94.638v172.217h31.007v-187.72c0-8.562-6.941-15.503-15.503-15.503h-125.645c-8.562 0-15.503 6.941-15.503 15.503z" fill="#00d16c"/><path d="m.169 434.205v26.577c0 18.49 14.989 33.479 33.479 33.479h444.686c18.49 0 33.479-14.989 33.479-33.479v-26.577c0-5.718-4.635-10.354-10.354-10.354h-155.771l-90.329 39.245-89.065-39.245h-155.771c-5.719 0-10.354 4.636-10.354 10.354z" fill="#006180"/><path d="m371.032 17.721h-115.026v249.564h126.721v-237.868c.001-6.46-5.236-11.696-11.695-11.696z" fill="#00d16c"/><path d="m318.813 64.062h-62.807v31.007h47.304v117.723l31.006 53.699v-186.926c0-8.562-6.941-15.503-15.503-15.503z" fill="#00ad95"/><path d="m501.459 423.851h-155.771l-89.681 38.964v31.445h222.327c18.49 0 33.479-14.989 33.479-33.479v-26.577c0-5.717-4.636-10.353-10.354-10.353z" fill="#004960"/><path d="m324.69 494.103h-137.399c-11.597 0-20.997-9.401-20.997-20.997v-49.453h179.394v49.453c0 11.596-9.401 20.997-20.998 20.997z" fill="#004960"/><path d="m256.006 494.103h68.684c11.597 0 20.997-9.401 20.997-20.997v-49.453h-89.681z" fill="#003140"/><path d="m177.622 267.285 31.007.001v-.001c0-26.115 21.246-47.362 47.362-47.362s47.903 3.03 47.903 29.145l9.088 8.684h7.472l13.905 9.533-13.502-15.188c0-43.212-54.881-63.181-64.867-63.181-43.212 0-78.368 35.156-78.368 78.369z" fill="#fff5f5"/><path d="m256.007 188.916v31.007c26.108.009 47.346 21.251 47.346 47.361v.001h31.006v-.001c0-43.207-35.147-78.359-78.352-78.368z" fill="#e7dfdd"/><circle cx="255.991" cy="142.265" fill="#fff5f5" r="15.503"/><path d="m256.006 126.761v31.005c8.555-.009 15.488-6.945 15.488-15.502s-6.933-15.494-15.488-15.503z" fill="#e7dfdd"/></g></svg>