<svg id="Layer_1" enable-background="new 0 0 512 512" height="512" viewBox="0 0 512 512" width="512" xmlns="http://www.w3.org/2000/svg"><g><path d="m480.623 98.284h-209.735v315.116h209.735c17.329 0 31.377-14.048 31.377-31.377v-50.348l-57.512-37.31 57.512-36.092v-128.612c0-17.329-14.048-31.377-31.377-31.377z" fill="#00ad95"/><path d="m270.888 258.273h241.112v73.402h-241.112z" fill="#fff5f5"/><g><path d="m280.127 35.571c0-8.911-7.249-16.16-16.16-16.16h-224.879c-8.911 0-16.16 7.249-16.16 16.16v371.974h257.2v-371.974z" fill="#fff5f5"/><path d="m263.967 19.411h-112.082v388.135h128.242v-371.975c0-8.911-7.249-16.16-16.16-16.16z" fill="#eceae7"/><path d="m257.783.083h-212.512c-24.962 0-45.271 20.309-45.271 45.272v351.517l30 31.558v-383.075c0-8.421 6.851-15.271 15.271-15.271h212.512c8.421 0 15.271 6.851 15.271 15.271v378.965l30-27.448v-351.517c.001-24.963-20.308-45.272-45.271-45.272z" fill="#004960"/><g><path d="m176.714 88.011h-50.373c-8.284 0-15-6.716-15-15s6.716-15 15-15h50.373c8.284 0 15 6.716 15 15s-6.716 15-15 15z" fill="#004960"/></g><path d="m176.714 58.011h-24.848v30h24.848c8.284 0 15-6.716 15-15s-6.716-15-15-15z" fill="#003140"/><path d="m257.783.083h-105.917v30h105.917c8.421 0 15.271 6.851 15.271 15.271v378.966l30-27.448v-351.517c.001-24.963-20.308-45.272-45.271-45.272z" fill="#003140"/><path d="m0 396.872v69.773c0 24.963 20.309 45.271 45.271 45.271h212.512c24.963 0 45.271-20.309 45.271-45.271v-69.773z" fill="#006180"/><path d="m151.866 511.917h105.917c24.963 0 45.271-20.309 45.271-45.271v-69.773h-151.188z" fill="#004960"/><path d="m198.939 227.374c0-9.095-7.373-16.468-16.468-16.468h-46.149c6.781-18.942 24.904-32.535 46.149-32.535 9.095 0 16.468-7.373 16.468-16.468s-7.373-16.468-16.468-16.468c-39.543 0-72.633 28.155-80.277 65.472h-8.361c-9.095 0-16.468 7.373-16.468 16.468s7.373 16.468 16.468 16.468h8.361c7.644 37.317 40.734 65.473 80.277 65.473 9.095 0 16.468-7.373 16.468-16.468s-7.373-16.468-16.468-16.468c-21.245 0-39.368-13.593-46.149-32.536h46.149c9.095-.002 16.468-7.375 16.468-16.47z" fill="#00d16c"/><circle cx="152.335" cy="449.321" fill="#dad0cb" r="18.963"/><g fill="#00ad95"><path d="m199.051 227.301c0-9.095-7.373-16.468-16.468-16.468h-30.585v32.937h30.585c9.095-.001 16.468-7.374 16.468-16.469z"/><path d="m151.997 189.056c8.388-6.725 19.022-10.758 30.585-10.758 9.095 0 16.468-7.373 16.468-16.468s-7.373-16.468-16.468-16.468c-10.809 0-21.129 2.116-30.585 5.936z"/><path d="m199.051 292.774c0-9.095-7.373-16.468-16.468-16.468-11.564 0-22.197-4.034-30.585-10.759v37.76c9.457 3.819 19.777 5.936 30.585 5.936 9.095-.001 16.468-7.374 16.468-16.469z"/></g><path d="m152.335 430.358c-.158 0-.312.02-.469.024v37.879c.158.004.311.024.469.024 10.473 0 18.963-8.49 18.963-18.963s-8.49-18.964-18.963-18.964z" fill="#d0c8c3"/></g></g></svg>