<svg id="Layer_1" enable-background="new 0 0 512.07 512.07" height="512" viewBox="0 0 512.07 512.07" width="512" xmlns="http://www.w3.org/2000/svg"><g><path d="m145.701 161.613h-76.846c-7.074 0-12.809 5.735-12.809 12.809v65.264l46.679 65.648 55.785-65.648v-65.264c0-7.074-5.735-12.809-12.809-12.809z" fill="#fff5f5"/><path d="m353.56 174.422v65.264l53.188 56.803 49.275-56.803v-65.264c0-7.074-5.735-12.809-12.809-12.809h-76.846c-7.073 0-12.808 5.735-12.808 12.809z" fill="#eceae7"/><path d="m353.56 312.081c0 53.862-43.664 97.525-97.525 97.525-53.862 0-97.525-43.663-97.525-97.525v-72.395h-102.464v72.395c0 110.451 89.538 199.989 199.989 199.989 110.451 0 199.989-89.538 199.989-199.989v-72.395h-102.464z" fill="#e20059"/><g><path d="m301.338 109.6c-3.839 0-7.678-1.465-10.606-4.394-19.142-19.139-50.283-19.139-69.423 0-5.857 5.857-15.355 5.857-21.213 0s-5.858-15.355 0-21.213c30.839-30.839 81.015-30.836 111.849 0 5.858 5.857 5.858 15.355 0 21.213-2.929 2.929-6.768 4.394-10.607 4.394z" fill="#ffe705"/></g><g><path d="m167.691 66.588c-3.839 0-7.678-1.465-10.606-4.394-5.858-5.857-5.858-15.355 0-21.213 26.426-26.426 61.562-40.981 98.936-40.981 37.373 0 72.509 14.555 98.936 40.981 5.858 5.857 5.858 15.355 0 21.213-5.857 5.857-15.355 5.857-21.213 0-20.761-20.76-48.364-32.194-77.723-32.194-29.36 0-56.962 11.434-77.723 32.194-2.929 2.929-6.768 4.394-10.607 4.394z" fill="#ffe705"/></g><g><circle cx="256.02" cy="138.844" fill="#ffe705" r="15"/></g><path d="m353.56 312.081c0 53.862-43.664 97.525-97.525 97.525-.066 0-.131-.002-.196-.003v102.464c.065 0 .13.002.196.002 110.451 0 199.989-89.538 199.989-199.989v-72.395h-102.464z" fill="#b10f61"/><g fill="#ffcb00"><path d="m255.839 123.845v29.983c3.899.047 7.813-1.41 10.788-4.385 5.858-5.858 5.858-15.355 0-21.213-2.975-2.975-6.889-4.432-10.788-4.385z"/><path d="m255.839 60.87v29.987c12.631-.046 25.276 4.734 34.893 14.35 2.929 2.929 6.768 4.394 10.606 4.394s7.678-1.465 10.607-4.394c5.858-5.857 5.858-15.355 0-21.213-15.464-15.465-35.792-23.171-56.106-23.124z"/><path d="m256.021 0c-.061 0-.121.002-.182.002v30c.061 0 .121-.002.182-.002 29.359 0 56.962 11.434 77.723 32.194 5.857 5.857 15.355 5.857 21.213 0s5.858-15.355 0-21.213c-26.428-26.426-61.563-40.981-98.936-40.981z"/></g></g></svg>