<svg id="Layer_1" enable-background="new 0 0 512.102 512.102" height="512" viewBox="0 0 512.102 512.102" width="512" xmlns="http://www.w3.org/2000/svg"><g><g><path d="m444.903 15.242-377.704-.884c-37.075 0-67.131 77.741-67.131 114.835v174.088 175.304c0 18.511 14.999 33.518 33.501 33.518h166.219 279.056c18.329 0 33.188-14.866 33.188-34.737v-348.173c.002-37.093-30.054-113.951-67.129-113.951z" fill="#fff5f5"/><path d="m444.903 15.242-188.507-.441v497.301h222.449c18.329 0 33.188-14.866 33.188-34.737v-348.172c.001-37.093-30.055-113.951-67.13-113.951z" fill="#eceae7"/><path d="m475.09 0h-438.078c-20.403 0-36.944 16.548-36.944 36.962v92.231h511.965v-92.231c.001-20.414-16.54-36.962-36.943-36.962z" fill="#004960"/><path d="m475.09 0h-218.694v129.193h255.638v-92.231c0-20.414-16.541-36.962-36.944-36.962z" fill="#003140"/><ellipse cx="64.149" cy="63.783" fill="#e20059" rx="16.044" ry="16.042"/><ellipse cx="129.385" cy="63.783" fill="#ffcb00" rx="16.044" ry="16.042"/><ellipse cx="197.577" cy="63.783" fill="#ace233" rx="16.044" ry="16.042"/></g><path d="m67.264 286.681v78.086l56.536 29.125 63.716-29.125v-78.086l-59.915-55.28z" fill="#45f6ff"/><g><path d="m404.674 237.341c-.878 0-1.768-.077-2.661-.237l-58.911-10.549c-8.155-1.461-13.582-9.255-12.122-17.409 1.462-8.155 9.256-13.581 17.409-12.122l58.911 10.549c8.155 1.461 13.582 9.255 12.122 17.409-1.301 7.26-7.622 12.359-14.748 12.359z" fill="#003140"/></g><g><path d="m379.001 318.463c-3.024 0-6.077-.912-8.724-2.808-6.734-4.825-8.282-14.195-3.457-20.93l37.709-52.63c4.825-6.733 14.195-8.28 20.93-3.457 6.734 4.825 8.282 14.195 3.457 20.93l-37.709 52.63c-2.928 4.088-7.533 6.265-12.206 6.265z" fill="#003140"/></g><g><path d="m411.549 413.695c-4.763 0-9.445-2.262-12.356-6.477l-35.553-51.477c-4.707-6.816-2.998-16.159 3.818-20.867 6.817-4.708 16.159-2.998 20.867 3.818l35.553 51.477c4.707 6.816 2.998 16.159-3.818 20.867-2.602 1.798-5.571 2.659-8.511 2.659z" fill="#003140"/></g><path d="m82.974 442.853h88.832c8.676 0 15.71-7.034 15.71-15.71v-62.376h-120.252v62.376c0 8.676 7.033 15.71 15.71 15.71z" fill="#5ecbf1"/><path d="m171.806 208.596h-88.832c-8.676 0-15.71 7.034-15.71 15.71v62.376h120.252v-62.376c0-8.677-7.034-15.71-15.71-15.71z" fill="#5ecbf1"/><ellipse cx="320.682" cy="207.302" fill="#00d16c" rx="34.315" ry="34.528" transform="matrix(.539 -.842 .842 .539 -26.742 365.754)"/><ellipse cx="427.609" cy="418.471" fill="#ffcb00" rx="34.044" ry="34.255" transform="matrix(.539 -.842 .842 .539 -155.324 553.219)"/><ellipse cx="364.801" cy="324.449" fill="#ff9d21" rx="32.938" ry="33.142" transform="matrix(.539 -.842 .842 .539 -105.101 456.886)"/><path d="m423.487 262.532c-2.331-.417-4.566-1.06-6.686-1.902-14.84-5.893-24.047-21.531-21.209-37.791 3.243-18.583 20.991-30.94 39.641-27.601s31.139 21.111 27.895 39.694c-3.244 18.582-20.992 30.94-39.641 27.6z" fill="#e20059"/></g></svg>