<svg id="Layer_1" enable-background="new 0 0 512.073 512.073" height="512" viewBox="0 0 512.073 512.073" width="512" xmlns="http://www.w3.org/2000/svg"><g><path d="m72.834 105.554 47.223 153.945 214.993-40.183-79.014-190.822c-71.784 0-136.665 29.516-183.202 77.06z" fill="#ffcb00"/><path d="m12.644 284.856h73.29l68.609-94.987 1.964-.642-83.673-83.673c-42.341 43.256-69.499 101.434-72.817 165.919-.373 7.264 5.354 13.383 12.627 13.383z" fill="#ace233"/><path d="m512.055 271.474c-3.312-64.367-30.375-122.449-72.582-165.681l-189.38 89.531 175.858 89.531h73.477c7.273.001 13.001-6.117 12.627-13.381z" fill="#e20059"/><path d="m256.036 28.494v128.181l91.281 33.195 3.659 4.42 88.496-88.496c-46.553-47.684-111.531-77.3-183.436-77.3z" fill="#ff9d21"/><path d="m256.036 117.424c-36.904 0-72.341 12.613-100.207 32.592l-36.426 36.227c-20.148 27.936-33.33 64.07-33.33 101.144 0 51.757 22.051 97.236 58.543 128.41l114.572 35.267 108.208-35.272c37.178-31.177 58.604-76.088 58.604-128.405 0-93.868-76.096-169.963-169.964-169.963z" fill="#fff5f5"/><path d="m256.867 117.424v332.916l2.32.714 108.208-35.271c37.179-31.179 58.605-76.089 58.605-128.406 0-93.59-75.648-169.504-169.133-169.953z" fill="#eceae7"/><path d="m159.717 152.512c-10.701-8.338-25.939-7.396-35.532 2.197-9.545 9.545-10.531 24.687-2.306 35.39l94.904 123.492 68.675-63.105z" fill="#004960"/><path d="m256.867 276.759 28.591-26.271-28.591-22.277z" fill="#003140"/><path d="m121.834 483.579h268.405c6.984 0 12.646-5.662 12.646-12.646v-42.485c0-6.984-5.662-12.646-12.646-12.646h-268.405c-6.984 0-12.646 5.662-12.646 12.646v42.485c0 6.984 5.662 12.646 12.646 12.646z" fill="#004960"/><path d="m390.239 415.803h-133.372v67.776h133.371c6.984 0 12.646-5.662 12.646-12.646v-42.485c0-6.983-5.661-12.645-12.645-12.645z" fill="#003140"/><circle cx="256.052" cy="287.403" fill="#45f6ff" r="47.194"/><path d="m256.867 240.209v94.348c25.687-.437 46.379-21.382 46.379-47.174s-20.692-46.738-46.379-47.174z" fill="#5ecbf1"/></g></svg>