<svg id="Layer_1" enable-background="new 0 0 511.981 511.981" height="512" viewBox="0 0 511.981 511.981" width="512" xmlns="http://www.w3.org/2000/svg"><g><g><path d="m15 444.842h481.982v-345.421h-118.365-245.246-118.371z" fill="#e20059"/><path d="m256.007 99.421h240.975v345.421h-240.975z" fill="#b10f61"/><path d="m496.981 459.842h-481.981c-8.284 0-15-6.716-15-15v-345.421c0-8.284 6.716-15 15-15h481.981c8.284 0 15 6.716 15 15v345.421c0 8.285-6.715 15-15 15zm-466.981-30h451.981v-315.421h-451.981z" fill="#004960"/><path d="m496.981 84.421h-240.975v30h225.975v315.421h-225.975v30h240.975c8.284 0 15-6.716 15-15v-345.421c0-8.284-6.715-15-15-15z" fill="#003140"/><path d="m.169 439.051v26.577c0 18.49 14.989 33.479 33.479 33.479h444.686c18.49 0 33.479-14.989 33.479-33.479v-26.577c0-5.718-4.635-10.354-10.354-10.354h-155.771l-90.329 39.245-89.065-39.245h-155.771c-5.719.001-10.354 4.636-10.354 10.354z" fill="#006180"/><path d="m501.459 428.698h-155.771l-89.681 38.964v31.445h222.327c18.49 0 33.479-14.989 33.479-33.479v-26.577c0-5.718-4.636-10.353-10.354-10.353z" fill="#004960"/><path d="m324.69 498.95h-137.399c-11.597 0-20.997-9.401-20.997-20.997v-49.453h179.394v49.453c0 11.596-9.401 20.997-20.998 20.997z" fill="#004960"/><path d="m256.006 498.95h68.684c11.597 0 20.997-9.401 20.997-20.997v-49.453h-89.681z" fill="#003140"/></g><g><circle cx="256" cy="174.208" fill="#ffe705" r="161.334"/><path d="m417.334 174.208c0-89.102-72.232-161.334-161.334-161.334v322.668c89.102.001 161.334-72.231 161.334-161.334z" fill="#ffcb00"/><path d="m298.036 174.606c0-9.013-7.307-16.319-16.319-16.319h-37.718c6.328-14.568 20.849-24.785 37.718-24.785 9.013 0 16.319-7.307 16.319-16.319s-7.307-16.319-16.319-16.319c-35.054 0-64.452 24.592-71.901 57.424h-5.841c-9.013 0-16.319 7.307-16.319 16.319 0 9.013 7.307 16.319 16.319 16.319h5.841c7.449 32.832 36.848 57.424 71.901 57.424 9.013 0 16.319-7.307 16.319-16.319 0-9.013-7.307-16.319-16.319-16.319-16.869 0-31.39-10.217-37.718-24.785h37.718c9.013-.002 16.319-7.308 16.319-16.321z" fill="#ff9d21"/><path d="m256 12.874c-5.509 0-10.953.278-16.319.817v24.285c0 9.013 7.307 16.319 16.319 16.319 9.013 0 16.319-7.307 16.319-16.319v-24.284c-5.366-.54-10.81-.818-16.319-.818z" fill="#ffcb00"/><path d="m256 335.543c5.509 0 10.953-.278 16.319-.817v-24.286c0-9.013-7.307-16.319-16.319-16.319-9.013 0-16.319 7.307-16.319 16.319v24.285c5.366.54 10.81.818 16.319.818z" fill="#ffcb00"/><g><path d="m94.666 174.208c0 5.509.278 10.953.817 16.319h24.285c9.013 0 16.319-7.307 16.319-16.319s-7.307-16.319-16.319-16.319h-24.285c-.539 5.367-.817 10.81-.817 16.319z" fill="#ffcb00"/><path d="m417.334 174.208c0-5.509-.278-10.953-.817-16.319h-24.285c-9.013 0-16.319 7.307-16.319 16.319s7.307 16.319 16.319 16.319h24.285c.539-5.366.817-10.81.817-16.319z" fill="#ff9d21"/></g><g fill="#ff6b6b"><path d="m298.036 232.029c0-9.013-7.307-16.319-16.319-16.319-9.732 0-18.67-3.415-25.717-9.089v37.087c8.011 2.993 16.673 4.641 25.717 4.641 9.013 0 16.319-7.307 16.319-16.32z"/><path d="m298.036 174.606c0-9.013-7.307-16.319-16.319-16.319h-25.717v32.639h25.717c9.013-.001 16.319-7.307 16.319-16.32z"/><path d="m281.717 100.862c-9.044 0-17.706 1.648-25.717 4.641v37.087c7.047-5.675 15.985-9.09 25.717-9.09 9.013 0 16.319-7.307 16.319-16.319s-7.306-16.319-16.319-16.319z"/></g><g fill="#ff9d21"><path d="m256 12.874v41.422c9.013 0 16.319-7.307 16.319-16.319v-24.285c-5.366-.539-10.81-.818-16.319-.818z"/><path d="m256 294.121v41.422c5.509 0 10.953-.278 16.319-.817v-24.286c0-9.013-7.306-16.319-16.319-16.319z"/></g></g></g></svg>