<svg id="Layer_1" enable-background="new 0 0 512.023 512.023" height="512" viewBox="0 0 512.023 512.023" width="512" xmlns="http://www.w3.org/2000/svg"><g><path d="m413.599 145.848-45.141-36.945-9.425-57.566-58.329.715-44.222-37.04-44.223 37.04-58.328-.715-9.425 57.566-45.141 36.945 29.783 50.157-10.833 57.318 55.055 19.278h166.223l55.055-19.278-10.832-57.318z" fill="#ffe705"/><path d="m368.458 108.903-9.425-57.566-58.329.715-44.222-37.04-.015.012v257.577h83.126l55.055-19.278-10.832-57.318 29.783-50.157z" fill="#ffcb00"/><path d="m339.594 287.604c-6.196.001-11.993-3.867-14.157-10.047-2.737-7.818 1.381-16.377 9.2-19.114l42.877-15.014-8.437-44.64c-.678-3.589-.023-7.303 1.842-10.443l23.194-39.062-35.155-28.773c-2.827-2.313-4.713-5.579-5.303-9.184l-7.34-44.833-45.427.557c-3.559.071-7.066-1.197-9.815-3.5l-34.591-28.973-34.591 28.973c-2.748 2.303-6.253 3.557-9.815 3.5l-45.428-.557-7.34 44.833c-.59 3.604-2.476 6.87-5.303 9.184l-35.155 28.773 23.194 39.062c1.865 3.141 2.52 6.854 1.842 10.443l-8.437 44.64 42.877 15.014c7.819 2.737 11.938 11.296 9.2 19.114s-11.296 11.938-19.114 9.2l-55.055-19.277c-7.002-2.451-11.159-9.653-9.782-16.942l9.779-51.749-26.888-45.282c-3.788-6.378-2.344-14.567 3.397-19.266l40.754-33.355 8.509-51.973c1.188-7.259 7.463-12.576 14.8-12.576.062 0 .124 0 .187.001l52.773.646 39.964-33.471c5.574-4.668 13.689-4.668 19.264 0l39.963 33.472 52.772-.646c.062-.001.124-.001.187-.001 7.338 0 13.611 5.316 14.8 12.576l8.509 51.973 40.754 33.355c5.741 4.698 7.186 12.888 3.397 19.266l-26.888 45.282 9.779 51.749c1.378 7.289-2.78 14.491-9.782 16.942l-55.055 19.277c-1.639.574-3.313.846-4.956.846z" fill="#ffcb00"/><g><path d="m260.77 215.512c-8.284 0-15-6.716-15-15v-64.127h-5.857c-8.284 0-15-6.716-15-15s6.716-15 15-15h20.857c8.284 0 15 6.716 15 15v79.127c0 8.284-6.716 15-15 15z" fill="#ff9d21"/></g><path d="m170.675 512.012h-159.667c-6.079 0-11.008-4.929-11.008-11.009v-77.327c0-7.248 5.876-13.124 13.123-13.124h144.428c7.248 0 13.124 5.876 13.124 13.124z" fill="#5ecbf1"/><path d="m341.353 512.012h-170.675v-251.18c0-7.248 5.876-13.123 13.123-13.123h144.428c7.248 0 13.124 5.876 13.124 13.123z" fill="#e20059"/><path d="m501.015 512.012h-159.666v-135.801c0-7.248 5.876-13.124 13.124-13.124h144.427c7.248 0 13.123 5.876 13.123 13.124v124.793c0 6.079-4.928 11.008-11.008 11.008z" fill="#00d16c"/><path d="m423.098 134.241-40.754-33.355-8.509-51.973c-1.188-7.26-7.462-12.576-14.8-12.576-.062 0-.125 0-.187.001l-52.772.646-39.962-33.472c-2.791-2.337-6.219-3.504-9.647-3.5v34.578l.015-.012 34.591 28.973c2.749 2.303 6.257 3.571 9.815 3.5l45.427-.557 7.34 44.833c.59 3.604 2.476 6.87 5.303 9.184l35.155 28.773-23.194 39.062c-1.865 3.141-2.52 6.854-1.842 10.443l8.437 44.64-42.877 15.014c-7.819 2.737-11.938 11.296-9.2 19.114 2.164 6.18 7.961 10.048 14.157 10.047 1.644 0 3.317-.272 4.957-.847l55.055-19.277c7.002-2.451 11.16-9.653 9.782-16.942l-9.779-51.749 26.888-45.282c3.787-6.379 2.343-14.568-3.399-19.266z" fill="#ff9d21"/><path d="m260.77 106.385h-4.303v108.493c1.364.408 2.806.634 4.303.634 8.284 0 15-6.716 15-15v-79.127c0-8.284-6.716-15-15-15z" fill="#ff6b6b"/><path d="m328.229 247.709h-71.762v264.303h84.885v-251.18c.001-7.248-5.875-13.123-13.123-13.123z" fill="#b10f61"/></g></svg>