<svg id="Layer_1" enable-background="new 0 0 512.467 512.467" height="512" viewBox="0 0 512.467 512.467" width="512" xmlns="http://www.w3.org/2000/svg"><g><g><path d="m51.908 96.881h-36.684c-8.284 0-15-6.716-15-15s6.716-15 15-15h36.684c8.284 0 15 6.716 15 15s-6.716 15-15 15z" fill="#dad0cb"/></g><g><path d="m497.328 96.881h-36.25c-8.284 0-15-6.716-15-15s6.716-15 15-15h36.25c8.284 0 15 6.716 15 15s-6.716 15-15 15z" fill="#d0c8c3"/></g><g><path d="m266.739 87.697c-.145-.329-3.621-8.071-9.969-8.071-6.313 0-9.743 7.7-9.886 8.028l.079-.19-27.845-11.166c3.973-9.906 16.374-26.672 37.652-26.672 21.25 0 33.695 16.737 37.698 26.627l-27.808 11.256z" fill="#dad0cb"/></g><path d="m148.97 178.852h-12.991c-46.431 0-84.071-37.64-84.071-84.071v-46.255c0-18.387 14.906-33.293 33.293-33.293h114.548c18.387 0 33.293 14.906 33.293 33.293v46.255c-.001 46.431-37.641 84.071-84.072 84.071z" fill="#fff"/><path d="m377.627 178.852h-12.991c-46.431 0-84.071-37.64-84.071-84.071v-46.255c0-18.387 14.906-33.293 33.293-33.293h114.548c18.387 0 33.293 14.906 33.293 33.293v46.255c-.001 46.431-37.641 84.071-84.072 84.071z" fill="#fff5f5"/><g><path d="m231.953 117.743c-2.557 0-5.147-.654-7.518-2.031l-22.354-12.979c-7.164-4.159-9.6-13.339-5.44-20.503s13.338-9.602 20.504-5.44l22.354 12.979c7.165 4.159 9.601 13.339 5.441 20.503-2.784 4.794-7.816 7.471-12.987 7.471z" fill="#ffe705"/></g><g><path d="m281.679 117.92c-5.171 0-10.202-2.677-12.986-7.471-4.16-7.164-1.725-16.344 5.439-20.504l22.354-12.979c7.166-4.158 16.344-1.724 20.504 5.439 4.16 7.164 1.725 16.344-5.439 20.504l-22.354 12.979c-2.37 1.377-4.961 2.032-7.518 2.032z" fill="#ffcb00"/></g><g><path d="m156.252 392.652c-10.589 0-19.173 8.584-19.173 19.173v81.235c0 10.589 8.584 19.173 19.173 19.173h100.789l47.346-59.791-47.346-59.791h-100.789z" fill="#ffe705"/><path d="m357.829 392.652h-100.788v119.582h100.789c10.589 0 19.173-8.584 19.173-19.173v-81.235c-.001-10.59-8.585-19.174-19.174-19.174z" fill="#e20059"/></g><path d="m497.467 259.615h-29.725v30h29.725c8.284 0 15-6.716 15-15s-6.716-15-15-15z" fill="#003140"/><g><g><path d="m73.945 274.291c0 8.284-6.716 15-15 15h-43.945c-8.284 0-15-6.716-15-15s6.716-15 15-15h43.945c8.284 0 15 6.715 15 15z" fill="#003140"/></g></g><path d="m132.889 244.34-11.031 28.828 11.031 31.721h228.021l65.971-30.708-65.971-29.841z" fill="#004960"/><path d="m48.206 244.34c-4.894 0-8.862 3.968-8.862 8.862v42.825c0 4.894 3.968 8.862 8.862 8.862h52.868l22.24-30.651-22.24-29.898z" fill="#45f6ff"/><path d="m101.074 244.34h31.816v60.548h-31.816z" fill="#fff5f5"/><path d="m257.041 49.626v30.014c6.173.219 9.556 7.727 9.699 8.051l-.078-.188 27.808-11.256c-3.987-9.848-16.346-26.478-37.429-26.621z" fill="#d0c8c3"/><path d="m257.041 244.34v60.549h103.869l65.971-30.708-65.971-29.841z" fill="#003140"/><path d="m470.126 258.342-1.264-.846c-12.806-8.576-27.871-13.155-43.283-13.155h-32.854l-16.377 28.769 16.377 31.779h26.135c17.157 0 36.242-4.623 50.995-13.382 11.983-7.745 12.126-25.226.271-33.165z" fill="#5ecbf1"/><path d="m360.91 244.34h31.816v60.548h-31.816z" fill="#eceae7"/><path d="m148.97 193.853h-12.991c-54.628 0-99.071-44.443-99.071-99.071v-46.256c0-26.629 21.664-48.293 48.292-48.293h114.548c26.629 0 48.293 21.664 48.293 48.293v46.255c0 54.628-44.443 99.072-99.071 99.072zm-63.77-163.62c-10.086 0-18.292 8.206-18.292 18.293v46.255c0 38.086 30.985 69.071 69.071 69.071h12.991c38.086 0 69.071-30.985 69.071-69.071v-46.255c0-10.087-8.206-18.293-18.293-18.293z" fill="#e7dfdd"/><path d="m377.627 193.853h-12.991c-54.628 0-99.071-44.443-99.071-99.071v-46.256c0-26.629 21.664-48.293 48.292-48.293h114.548c26.628 0 48.292 21.664 48.292 48.293v46.255c.001 54.628-44.442 99.072-99.07 99.072zm-63.769-163.62c-10.086 0-18.292 8.206-18.292 18.293v46.255c0 38.086 30.985 69.071 69.071 69.071h12.991c38.086 0 69.071-30.985 69.071-69.071v-46.255c0-10.087-8.206-18.293-18.292-18.293z" fill="#dad0cb"/></g></svg>