<svg id="Layer_1" enable-background="new 0 0 512 512" height="512" viewBox="0 0 512 512" width="512" xmlns="http://www.w3.org/2000/svg"><g><path d="m.127 153.454v339.629c0 10.448 8.469 18.917 18.917 18.917h473.912c10.469 0 18.947-8.503 18.916-18.971l-.216-74.438v-265.137l-255.726-64.208z" fill="#fff5f5"/><path d="m511.657 153.454-255.657-64.191v422.737h236.956c10.469 0 18.947-8.503 18.917-18.971l-.216-74.438z" fill="#eceae7"/><path d="m142.265 0h-81.177c-5.692 0-10.307 4.615-10.307 10.307v78.939h101.791v-78.939c0-5.692-4.615-10.307-10.307-10.307z" fill="#ffe705"/><path d="m456.685 0h-81.177c-5.692 0-10.307 4.615-10.307 10.307v78.939h101.791v-78.939c0-5.692-4.614-10.307-10.307-10.307z" fill="#ffcb00"/><g><path d="m255.928 257.973c-8.284 0-15-6.716-15-15v-45.14c0-8.284 6.716-15 15-15s15 6.716 15 15v45.14c0 8.284-6.716 15-15 15z" fill="#dad0cb"/></g><path d="m497.132 64.41h-482.479c-8.022 0-14.525 6.503-14.525 14.525v74.519h511.53v-74.519c-.001-8.022-6.504-14.525-14.526-14.525z" fill="#e20059"/><circle cx="255.928" cy="340.43" fill="#fff" r="97.457"/><path d="m497.132 64.41h-241.132v89.045h255.657v-74.52c0-8.022-6.503-14.525-14.525-14.525z" fill="#b10f61"/><path d="m256 182.833v75.132c8.251-.04 14.928-6.737 14.928-14.996v-45.14c0-8.259-6.678-14.956-14.928-14.996z" fill="#d0c8c3"/><path d="m256 242.973v194.912c53.791-.039 97.385-43.656 97.385-97.456s-43.594-97.417-97.385-97.456z" fill="#fff5f5"/><path d="m419.106 512h73.85c10.469 0 18.947-8.503 18.917-18.971l-.215-74.275-71.246 25.966z" fill="#dad0cb"/><path d="m418.248 512 93.409-93.409h-77.921c-8.554 0-15.488 6.934-15.488 15.488z" fill="#e7dfdd"/><path d="m255.927 452.887c-62.009 0-112.457-50.448-112.457-112.457s50.448-112.457 112.457-112.457 112.457 50.448 112.457 112.457-50.448 112.457-112.457 112.457zm0-194.914c-45.467 0-82.457 36.99-82.457 82.457s36.99 82.457 82.457 82.457 82.457-36.99 82.457-82.457-36.99-82.457-82.457-82.457z" fill="#006180"/><path d="m256 227.973v30.001c45.433.04 82.384 37.013 82.384 82.455s-36.951 82.416-82.384 82.455v30.001c61.975-.04 112.384-50.472 112.384-112.456 0-61.985-50.409-112.417-112.384-112.456z" fill="#004960"/><g><path d="m281.475 361.178h-25.717c-8.284 0-15-6.716-15-15v-41.633c0-8.284 6.716-15 15-15s15 6.716 15 15v26.633h10.717c8.284 0 15 6.716 15 15s-6.716 15-15 15z" fill="#e20059"/></g><path d="m281.475 331.165h-10.717v-26.633c0-8.203-6.587-14.857-14.758-14.988v71.621h25.475c8.284 0 15-6.716 15-15s-6.716-15-15-15z" fill="#b10f61"/><g><path d="m280.572 212.833h-49.289c-8.284 0-15-6.716-15-15s6.716-15 15-15h49.289c8.284 0 15 6.716 15 15s-6.716 15-15 15z" fill="#004960"/></g><path d="m280.572 182.833h-24.572v30h24.572c8.284 0 15-6.716 15-15s-6.716-15-15-15z" fill="#003140"/></g></svg>