<svg id="Layer_1" enable-background="new 0 0 512 512" height="512" viewBox="0 0 512 512" width="512" xmlns="http://www.w3.org/2000/svg"><g><path d="m296.777 73.154c-26.526-56.367-73.907-73.154-111.048-73.154-54.16 0-99.058 39.635-107.283 91.481-1.1 6.932-6.145 12.634-12.949 14.362-37.646 9.559-65.497 43.67-65.497 84.291 0 15.154 5.402 33.068 12.217 45.474l284.56 8.203z" fill="#e7dfdd"/><path d="m256.381 22.654v219.992l40.396 1.165v-170.657c-10.736-22.814-24.889-39.142-40.396-50.5z" fill="#dad0cb"/><path d="m441.037 184.634c-6.573-1.592-11.642-6.92-12.615-13.612-8.158-56.113-56.461-99.212-114.836-99.212-40.294 0-75.786 20.537-96.593 51.713-4.172 6.251-12.081 9.017-19.158 6.487-7.045-2.518-14.634-3.89-22.544-3.89-29.163 0-53.962 18.637-63.163 44.648-2.372 6.705-8.621 11.253-15.733 11.253-51.312 0-92.908 41.596-92.908 92.908 0 51.312 41.596 92.908 92.908 92.908h322.697c51.312 0 92.908-41.596 92.908-92.908 0-43.752-30.243-80.434-70.963-90.295z" fill="#fff5f5"/><path d="m441.037 184.634c-6.573-1.592-11.642-6.92-12.615-13.613-8.158-56.113-56.461-99.212-114.836-99.212-20.804 0-40.321 5.486-57.205 15.073v280.954h162.71c51.312 0 92.908-41.596 92.908-92.908.001-43.751-30.242-80.433-70.962-90.294z" fill="#eceae7"/><path d="m319.861 253.623c-8.284 0-15 6.716-15 15v20.631h-97.722v-20.631c0-8.284-6.716-15-15-15s-15 6.716-15 15v228.377c0 8.284 6.716 15 15 15s15-6.716 15-15v-15.747h97.722v15.747c0 8.284 6.716 15 15 15s15-6.716 15-15v-228.377c0-8.284-6.716-15-15-15zm-112.722 120.425h97.722v23.464h-97.722zm97.722-54.794v24.794h-97.722v-24.794zm-97.722 131.999v-23.741h97.722v23.741z" fill="#9d5e4a"/><path d="m319.861 253.623c-8.284 0-15 6.716-15 15v20.631h-48.48v30h48.48v24.794h-48.48v30h48.48v23.464h-48.48v30h48.48v23.741h-48.48v30h48.48v15.747c0 8.284 6.716 15 15 15s15-6.716 15-15v-228.377c0-8.284-6.716-15-15-15z" fill="#854737"/></g></svg>