<svg id="Layer_1" enable-background="new 0 0 512.437 512.437" height="512" viewBox="0 0 512.437 512.437" width="512" xmlns="http://www.w3.org/2000/svg"><g><circle cx="219.797" cy="199.624" fill="#ffe705" r="152.313"/><path d="m372.11 199.624c0-84.12-68.193-152.313-152.313-152.313v304.626c84.12 0 152.313-68.192 152.313-152.313z" fill="#ffcb00"/><path d="m259.483 199.999c0-8.509-6.898-15.407-15.407-15.407h-35.609c5.974-13.753 19.683-23.399 35.609-23.399 8.509 0 15.407-6.898 15.407-15.407s-6.898-15.407-15.407-15.407c-33.094 0-60.848 23.217-67.881 54.213h-5.514c-8.509 0-15.407 6.898-15.407 15.407s6.898 15.407 15.407 15.407h5.514c7.033 30.996 34.787 54.213 67.881 54.213 8.509 0 15.407-6.898 15.407-15.407s-6.898-15.407-15.407-15.407c-15.926 0-29.635-9.646-35.609-23.399h35.609c8.509 0 15.407-6.898 15.407-15.407z" fill="#ff9d21"/><path d="m508.188 111.706-30.211-33.834c-5.267-6.125-15.351-6.673-21.243-1.141l-32.088 28.652c-6.18 5.518-6.716 15-1.198 21.18s15.001 6.715 21.179 1.198l5.198-4.641-3.887 70.585c-6.938 126.007-111.229 224.713-237.428 224.713h-193.51c-8.284 0-15 6.716-15 15s6.716 15 15 15h193.51c142.12 0 259.569-111.159 267.383-253.063l3.879-70.431 6.04 6.765c2.963 3.318 7.069 5.01 11.193 5.009 3.556 0 7.125-1.257 9.985-3.811 6.18-5.52 6.716-15.002 1.198-21.181z" fill="#ace233"/><g><path d="m497.437 512.098h-482.437c-8.284 0-15-6.716-15-15v-481.759c0-8.284 6.716-15 15-15s15 6.716 15 15v466.759h467.437c8.284 0 15 6.716 15 15s-6.716 15-15 15z" fill="#004960"/></g><path d="m219.797 47.311c-5.201 0-10.34.263-15.407.772v22.927c0 8.509 6.898 15.407 15.407 15.407s15.407-6.898 15.407-15.407v-22.927c-5.067-.509-10.206-.772-15.407-.772z" fill="#ffcb00"/><path d="m219.797 351.938c5.201 0 10.34-.263 15.407-.772v-22.927c0-8.509-6.898-15.407-15.407-15.407s-15.407 6.898-15.407 15.407v22.927c5.067.509 10.206.772 15.407.772z" fill="#ffcb00"/><g><path d="m67.484 199.624c0 5.201.263 10.34.772 15.407h22.927c8.509 0 15.407-6.898 15.407-15.407s-6.898-15.407-15.407-15.407h-22.928c-.509 5.067-.771 10.206-.771 15.407z" fill="#ffcb00"/><path d="m372.11 199.624c0-5.201-.263-10.34-.772-15.407h-22.927c-8.509 0-15.407 6.898-15.407 15.407s6.898 15.407 15.407 15.407h22.927c.51-5.067.772-10.206.772-15.407z" fill="#ff9d21"/></g><g fill="#ff6b6b"><path d="m259.483 254.212c0-8.509-6.898-15.407-15.407-15.407-9.188 0-17.626-3.224-24.279-8.581v35.013c7.563 2.826 15.741 4.382 24.279 4.382 8.509 0 15.407-6.898 15.407-15.407z"/><path d="m259.483 199.999c0-8.509-6.898-15.407-15.407-15.407h-24.279v30.814h24.279c8.509 0 15.407-6.898 15.407-15.407z"/><path d="m244.076 130.379c-8.538 0-16.716 1.556-24.279 4.382v35.013c6.653-5.358 15.091-8.581 24.279-8.581 8.509 0 15.407-6.898 15.407-15.407s-6.898-15.407-15.407-15.407z"/></g><path d="m477.978 77.872c-5.267-6.125-15.351-6.673-21.243-1.141l-32.088 28.652c-6.18 5.518-6.716 15-1.198 21.18s15.001 6.715 21.179 1.198l5.198-4.641-3.887 70.585c-6.73 122.23-105.065 218.765-226.141 224.443v30.018c137.002-5.703 248.49-114.683 256.096-252.812l3.879-70.431 6.04 6.765c2.963 3.318 7.069 5.01 11.193 5.009 3.556 0 7.125-1.257 9.985-3.811 6.18-5.518 6.716-15 1.198-21.18z" fill="#00d16c"/><path d="m497.437 482.098h-277.64v30h277.64c8.284 0 15-6.716 15-15s-6.716-15-15-15z" fill="#003140"/><g fill="#ff9d21"><path d="m219.797 47.311v39.106c8.509 0 15.407-6.898 15.407-15.407v-22.927c-5.067-.509-10.206-.772-15.407-.772z"/><path d="m219.797 312.832v39.106c5.201 0 10.34-.263 15.407-.772v-22.927c0-8.509-6.898-15.407-15.407-15.407z"/></g></g></svg>