<svg id="Layer_1" enable-background="new 0 0 512 512" height="512" viewBox="0 0 512 512" width="512" xmlns="http://www.w3.org/2000/svg"><g><path d="m87.651 303.467h-70.625c-9.403 0-17.026-7.623-17.026-17.026v-86.783c0-9.403 7.623-17.026 17.026-17.026h70.625z" fill="#ff1f3d"/><path d="m0 243.014v43.427c0 9.403 7.623 17.026 17.026 17.026h70.625v-60.453z" fill="#b10f61"/><g><path d="m191.865 409.331h-37.05c-8.524 0-15.435-6.91-15.435-15.435s6.91-15.435 15.435-15.435h37.05c8.524 0 15.435 6.91 15.435 15.435s-6.911 15.435-15.435 15.435z" fill="#5ecbf1"/></g><path d="m122.854 507.537h-19.207c-3.577 0-6.477-2.9-6.477-6.477v-202.95h69.634v165.477c-.001 24.273-19.677 43.95-43.95 43.95z" fill="#003140"/><path d="m205.158 161.127h-73.084l-41.159 85.202 41.159 78.642h73.335c1.087 0 2.161.158 3.198.452l61.666-82.409-61.666-82.409c-1.113.342-2.274.522-3.449.522z" fill="#eceae7"/><path d="m90.914 246.329 41.159 78.642h73.335c1.087 0 2.161.158 3.198.452l61.666-82.409h-177.756z" fill="#dad0cb"/><path d="" style="fill:none;stroke:#000;stroke-width:30;stroke-linecap:round;stroke-linejoin:round;stroke-miterlimit:10"/><path d="m70.737 161.127c-6.484 0-11.74 5.256-11.74 11.74v140.364c0 6.484 5.256 11.74 11.74 11.74h61.337v-163.844z" fill="#ff6b6b"/><path d="m211.507 159.263c-.905.582-1.882 1.029-2.9 1.342v164.818c.96.272 1.888.66 2.756 1.17l159.081 93.611v-363.117z" fill="#fff5f5"/><g><path d="m370.443 471.769c-8.524 0-15.435-6.91-15.435-15.435v-436.436c0-8.524 6.91-15.435 15.435-15.435 8.524 0 15.435 6.91 15.435 15.435v436.436c-.001 8.525-6.911 15.435-15.435 15.435z" fill="#e7dfdd"/></g><g><path d="m431.364 179.665c-5.666 0-11.088-3.226-13.624-8.706-3.479-7.519-.203-16.434 7.316-19.912l45.4-21.002c7.519-3.48 16.434-.202 19.912 7.316 3.479 7.519.203 16.434-7.316 19.912l-45.4 21.002c-2.039.944-4.181 1.39-6.288 1.39z" fill="#ace233"/></g><g><path d="m497 258.098h-50.109c-8.284 0-15-6.716-15-15s6.716-15 15-15h50.109c8.284 0 15 6.716 15 15s-6.716 15-15 15z" fill="#ace233"/></g><g><path d="m476.034 357.372c-2.108 0-4.249-.446-6.288-1.39l-45.4-21.002c-7.519-3.478-10.794-12.393-7.316-19.912s12.393-10.794 19.912-7.316l45.4 21.002c7.519 3.478 10.794 12.393 7.316 19.912-2.535 5.481-7.959 8.706-13.624 8.706z" fill="#00d16c"/></g><path d="m58.997 243.014v70.217c0 6.484 5.256 11.74 11.74 11.74h61.337v-81.957z" fill="#ff1f3d"/><path d="m208.606 243.014v82.409c.96.272 1.888.66 2.756 1.17l159.081 93.611v-177.19z" fill="#eceae7"/><path d="m355.008 243.014v213.321c0 8.524 6.91 15.435 15.435 15.435 8.524 0 15.435-6.91 15.435-15.435v-213.321z" fill="#dad0cb"/><path d="m446.891 258.098h50.109c8.284 0 15-6.716 15-15h-80.109c0 8.284 6.715 15 15 15z" fill="#00d16c"/></g></svg>