<svg id="Layer_1" enable-background="new 0 0 512.196 512.196" height="512" viewBox="0 0 512.196 512.196" width="512" xmlns="http://www.w3.org/2000/svg"><g><path d="m15 88.798h482.196v343.179h-482.196z" fill="#45f6ff"/><path d="m255.971 88.798h241.226v343.179h-241.226z" fill="#5ecbf1"/><path d="m149.054 302.93v-75.374c0-3.299 1.389-6.446 3.827-8.669l37.076-33.812 58.674 81.021-18.343 44.711z" fill="#ff1f3d"/><path d="m364.054 302.079v-73.257c0-3.195-1.303-6.251-3.607-8.464l-36.607-35.142-66.038 35.023 3.439 87.129z" fill="#b10f61"/><path d="m199.141 105.051c-6.434 23.127-9.349 46.321-9.349 68.631 0 28.416 5.51 62.262 13.436 91.426h109.722c8.415-32.737 11.166-68.492 11.166-91.426 0-25.214-3.879-48.217-9.768-68.631l-55.309-21.736z" fill="#fff5f5"/><path d="m410.497 317.962c-24.884-4.25-48.478-14.591-68.596-30.278l-28.951-22.576h-109.722l-30.797 23.347c-18.504 14.028-39.838 23.587-62.344 28.138l-9.236-.042-75.634 88.511 99.159 16.701 132.148 10.214 198.73-15.433 8.35-84.546z" fill="#ffe705"/><path d="m211.883 430.204v-4.011c0-13-10.538-23.538-23.538-23.538h-.108c0-44.646-36.192-80.838-80.838-80.838-2.591-10.89-12.376-18.991-24.058-18.991-.276 0-.549.012-.823.021-8.749-29.08-35.577-50.268-67.507-50.268v179.4z" fill="#ff9d21"/><path d="m259.039 83.314-3.068 1.113v180.68h56.98c8.415-32.737 11.166-68.492 11.166-91.426 0-25.214-3.879-48.217-9.768-68.631z" fill="#eceae7"/><path d="m341.901 287.684-28.951-22.576h-56.98v166.826l.553.043 198.73-15.433 8.35-84.546-53.107-14.036c-24.883-4.25-48.477-14.591-68.595-30.278z" fill="#ffcb00"/><path d="m313.974 103.798c-3.161-10.75-6.874-20.768-10.868-30-13.322-30.797-29.739-52.833-39.029-63.919-3.76-4.488-10.662-4.541-14.439-.067-17.131 20.291-30.108 41.907-39.531 63.986-4.239 9.932-7.751 19.958-10.601 30-.119.418-.25.835-.366 1.253h115.207c-.12-.422-.249-.834-.373-1.253z" fill="#ff1f3d"/><path d="m264.078 9.874c-2.09-2.495-5.152-3.614-8.107-3.352v98.524h58.377c-.122-.421-.25-.833-.374-1.253-3.161-10.75-6.874-20.768-10.868-30-13.322-30.797-29.739-52.833-39.028-63.919z" fill="#b10f61"/><g><path d="m256.664 280.824c-8.68 0-15.717-7.037-15.717-15.717v-73.149c0-8.68 7.037-15.717 15.717-15.717s15.717 7.037 15.717 15.717v73.149c0 8.68-7.036 15.717-15.717 15.717z" fill="#ffcb00"/></g><path d="m256.664 176.242c-.234 0-.462.025-.694.035v104.512c.232.01.459.035.694.035 8.68 0 15.717-7.037 15.717-15.717v-73.149c0-8.68-7.036-15.716-15.717-15.716z" fill="#ff9d21"/><path d="m287.763 430.204v-4.011c0-13 10.538-23.538 23.538-23.538h.108c0-44.646 36.192-80.838 80.838-80.838 2.591-10.89 12.376-18.991 24.058-18.991.276 0 .549.012.823.021 8.749-29.08 35.577-50.268 67.507-50.268v179.4z" fill="#ff6b6b"/><path d="m139.441 431.977h233.314v58.735h-233.314z" fill="#006180"/><path d="m255.971 431.977h116.785v58.735h-116.785z" fill="#004960"/><g><path d="m424.691 505.712h-337.186c-8.284 0-15-6.716-15-15s6.716-15 15-15h337.187c8.284 0 15 6.716 15 15s-6.716 15-15.001 15z" fill="#004960"/></g><path d="m424.691 475.712h-168.72v30h168.721c8.284 0 15-6.716 15-15s-6.716-15-15.001-15z" fill="#003140"/><path d="" style="fill:none;stroke:#000;stroke-width:30;stroke-linecap:round;stroke-linejoin:round;stroke-miterlimit:10"/><path d="" style="fill:none;stroke:#000;stroke-width:30;stroke-linecap:round;stroke-linejoin:round;stroke-miterlimit:10"/><path d="m497.196 73.798h-194.089c3.994 9.232 7.706 19.25 10.868 30h168.222v313.179h-452.197v-313.179h169.507c2.85-10.042 6.362-20.068 10.601-30h-195.108c-8.284 0-15 6.716-15 15v343.179c0 8.284 6.716 15 15 15h482.196c8.284 0 15-6.716 15-15v-343.179c0-8.284-6.716-15-15-15z" fill="#004960"/><path d="m199.141 105.05c.116-.418.247-.835.366-1.253h-169.507v313.179h452.196v-313.178h-168.222c.123.419.252.831.374 1.253h-115.207z" fill="none"/><path d="m497.196 73.798h-194.089c3.994 9.232 7.706 19.25 10.868 30h168.222v313.179h-226.226v30h241.225c8.284 0 15-6.716 15-15v-343.179c0-8.284-6.716-15-15-15z" fill="#003140"/><g><circle cx="256" cy="379.625" fill="#004960" r="15"/></g><path d="m256 364.625c-.01 0-.019.001-.029.001v29.997c.01 0 .019.001.029.001 8.284 0 15-6.716 15-15 0-8.283-6.716-14.999-15-14.999z" fill="#003140"/></g></svg>