<svg id="Layer_1" enable-background="new 0 0 512.052 512.052" height="512" viewBox="0 0 512.052 512.052" width="512" xmlns="http://www.w3.org/2000/svg"><g><path d="m11.53 444.659c-15.374 15.407-15.374 40.387 0 55.795 15.374 15.407 40.3 15.407 55.674 0l69.82-69.972-3.115-54.977-52.586-.791z" fill="#854737"/><path d="m67.207 500.454 69.821-69.972-2.968-52.382-122.492 122.388c15.377 15.373 40.276 15.362 55.639-.034z" fill="#734536"/><path d="m145.097 310.841-63.772 63.873 55.7 55.768 63.521-63.621z" fill="#ffe705"/><path d="m137.025 430.482 63.521-63.621-27.467-27.75-63.723 63.669z" fill="#ffcb00"/><ellipse cx="310.336" cy="202.195" fill="#45f6ff" rx="201.716" ry="202.153"/><path d="m310.336.042v404.305c51.624 0 103.247-19.736 142.635-59.209 78.775-78.946 78.775-206.942 0-285.887-39.388-39.472-91.012-59.209-142.635-59.209z" fill="#5ecbf1"/><g><ellipse cx="310.336" cy="202.195" fill="#fff5f5" rx="140.121" ry="140.425" transform="matrix(.707 -.707 .707 .707 -52.078 278.662)"/></g><path d="m310.702 342.468c77.471.084 140.205-62.651 140.121-140.121-.084-77.453-62.925-140.311-140.371-140.424l-.12 280.54c.124 0 .246.005.37.005z" fill="#eceae7"/><g><path d="m310.298 148.627c-.005 0-.011 0-.018 0-8.778-.009-15.886-7.133-15.876-15.911l.076-69.692c.009-8.772 7.123-15.877 15.894-15.877h.018c8.778.009 15.886 7.133 15.876 15.911l-.076 69.692c-.009 8.772-7.123 15.877-15.894 15.877z" fill="#ff1f3d"/></g><g><g><g><path d="m380.959 218.116c-8.771 0-15.885-7.104-15.894-15.877-.009-8.778 7.098-15.902 15.876-15.911l69.498-.075h.018c8.771 0 15.885 7.104 15.894 15.877.009 8.778-7.098 15.902-15.876 15.911l-69.498.075c-.006 0-.013 0-.018 0z" fill="#b10f61"/></g></g><g><g><path d="m170.221 218.345c-8.77 0-15.884-7.105-15.893-15.877-.009-8.778 7.098-15.901 15.876-15.911l69.285-.076h.018c8.77 0 15.884 7.105 15.893 15.877.009 8.778-7.098 15.901-15.877 15.911l-69.284.076c-.006 0-.012 0-.018 0z" fill="#ff1f3d"/></g></g></g><g><g><path d="m310.298 357.451c-.005 0-.011 0-.018 0-8.778-.009-15.886-7.133-15.876-15.911l.076-69.693c.009-8.772 7.123-15.877 15.894-15.877h.018c8.778.009 15.886 7.133 15.876 15.911l-.076 69.693c-.009 8.772-7.123 15.877-15.894 15.877z" fill="#ff1f3d"/></g></g><ellipse cx="310.336" cy="202.299" fill="#ff1f3d" rx="15.85" ry="15.884"/><g fill="#b10f61"><path d="m310.385 218.178c4.04-.012 8.076-1.561 11.158-4.65 6.19-6.203 6.19-16.261 0-22.464-3.079-3.086-7.109-4.634-11.145-4.649z"/><path d="m310.391 47.147h-.018c-.014 0-.027.002-.041.002v101.476c8.755-.019 15.85-7.115 15.86-15.875l.076-69.692c.009-8.778-7.099-15.902-15.877-15.911z"/><path d="m310.391 255.97h-.018c-.014 0-.027.002-.041.002v101.477c8.755-.019 15.85-7.115 15.86-15.875l.076-69.693c.009-8.778-7.099-15.902-15.877-15.911z"/></g><g><path d="m420.87 312.729c-29.472 29.472-68.679 45.678-110.399 45.633-86.092-.093-156.209-70.21-156.302-156.302-.045-41.72 16.16-80.927 45.633-110.4s68.679-45.678 110.4-45.633c86.092.093 156.209 70.209 156.302 156.302.043 41.721-16.162 80.928-45.634 110.4zm-198.591-198.59c-23.459 23.459-36.358 54.672-36.322 87.888.074 68.602 55.946 124.474 124.548 124.548 33.216.036 64.429-12.864 87.887-36.322 23.459-23.459 36.358-54.671 36.322-87.887-.074-68.602-55.946-124.474-124.548-124.548-33.216-.037-64.428 12.862-87.887 36.321z" fill="#ff6b6b"/></g><path d="m310.336 46.028v31.789c68.525.166 124.305 56 124.379 124.546.036 33.216-12.864 64.429-36.322 87.887-23.459 23.459-54.671 36.359-87.887 36.323-.056 0-.113-.002-.169-.002v31.789c.045 0 .09.002.135.002 41.72.045 80.927-16.161 110.399-45.633s45.678-68.679 45.633-110.399c-.094-86.049-70.138-156.136-156.168-156.302z" fill="#ff1f3d"/></g></svg>