<svg id="Layer_1" enable-background="new 0 0 512 512" height="512" viewBox="0 0 512 512" width="512" xmlns="http://www.w3.org/2000/svg"><g><path d="m239.432 74.122-57.863-8.408c-2.929-.426-5.462-2.265-6.772-4.92l-25.877-52.433c-2.941-5.959-9.525-9.374-16.291-8.094-4.724.894-8.665 4.149-10.792 8.46l-25.697 52.067c-1.31 2.654-3.842 4.494-6.772 4.92l-57.863 8.408c-6.576.956-11.858 6.161-12.731 12.991-.61 4.769 1.268 9.524 4.711 12.88l41.578 40.528c2.12 2.066 3.087 5.043 2.587 7.961l-9.816 57.228c-.813 4.739.464 9.69 3.762 13.189 4.722 5.011 12.053 6.116 17.934 3.024l51.754-27.209c2.62-1.377 5.75-1.377 8.37 0l51.754 27.209c2.194 1.154 4.591 1.723 6.979 1.723 4.037 0 8.048-1.628 11.013-4.809 3.257-3.493 4.513-8.408 3.706-13.116l-9.818-57.24c-.5-2.917.467-5.894 2.587-7.961l41.577-40.528c3.443-3.356 5.321-8.11 4.711-12.88-.874-6.829-6.155-12.034-12.731-12.99z" fill="#ffcb00"/><path d="m239.432 74.112-57.863-8.408c-2.929-.426-5.462-2.266-6.772-4.92l-25.877-52.432c-2.527-5.119-7.742-8.351-13.451-8.352v193.672c1.438 0 2.875.344 4.185 1.033l51.754 27.209c2.194 1.154 4.591 1.723 6.979 1.723 4.037 0 8.048-1.628 11.013-4.809 3.257-3.493 4.513-8.409 3.706-13.116l-9.818-57.24c-.5-2.917.467-5.894 2.587-7.961l41.577-40.528c3.443-3.356 5.321-8.11 4.711-12.88-.874-6.83-6.155-12.035-12.731-12.991z" fill="#ff9d21"/><path d="m491.575 49.542c-2.29-4.321-6.67-7.141-11.51-7.844l-28.064-4.078c-1.558-.226-2.905-1.205-3.602-2.617l-12.585-25.501c-2.113-4.282-6.03-7.501-10.719-8.404-6.784-1.307-13.392 2.11-16.341 8.084l-12.743 25.821c-.697 1.412-2.044 2.391-3.602 2.617l-28.064 4.078c-4.839.703-9.22 3.523-11.51 7.844-3.181 6.002-1.943 13.214 2.766 17.804l20.619 20.099c1.128 1.099 1.642 2.683 1.376 4.234l-4.809 28.042c-.802 4.675.456 9.548 3.68 13.028 2.969 3.205 6.995 4.846 11.048 4.846 2.388 0 4.784-.569 6.979-1.723l25.487-13.399c1.394-.733 3.059-.733 4.452 0l25.172 13.234c4.227 2.222 9.288 2.523 13.612.498 6.256-2.93 9.593-9.578 8.467-16.145l-4.868-28.38c-.266-1.552.248-3.135 1.376-4.234l20.619-20.099c4.708-4.591 5.945-11.802 2.764-17.805z" fill="#ffe705"/><g><path d="m396.877 227.124c-19.401 0-35.128 15.727-35.128 35.128v-28.74c0-19.401-15.727-35.128-35.128-35.128-19.401 0-35.128 15.727-35.128 35.128v-16.472c0-19.401-15.727-35.128-35.128-35.128-19.401 0-35.128 15.727-35.128 35.128v-107.056c0-18.406-14.921-33.327-33.327-33.327-18.406 0-33.327 14.921-33.327 33.327v206.523c0 1.373-1.798 1.888-2.525.723l-25.756-41.284c-15.568-24.953-48.431-32.537-73.359-16.928-8.239 5.159-11.034 15.84-6.38 24.374 18.514 33.948 63.18 116.56 84.205 161.614.42.901.843 1.79 1.267 2.667 19.097 39.512 59.436 64.327 103.321 64.327h78.313c64.369 0 116.719-51.86 117.324-116.226l1.012-107.578v-25.945c0-19.4-15.727-35.127-35.128-35.127z" fill="#ffcbbc"/><path d="m396.877 227.124c-19.401 0-35.128 15.727-35.128 35.128v-28.741c0-19.401-15.727-35.128-35.128-35.128-19.401 0-35.128 15.728-35.128 35.128v-16.472c0-14.555-8.852-27.042-21.466-32.372v327.333h43.643c64.369 0 116.719-51.86 117.324-116.226l1.012-107.578v-25.944c-.001-19.401-15.728-35.128-35.129-35.128z" fill="#ffbca7"/></g><path d="m480.066 41.688-28.064-4.078c-1.558-.226-2.905-1.205-3.602-2.617l-12.586-25.501c-2.113-4.282-6.03-7.501-10.719-8.404-.971-.187-1.936-.267-2.89-.267v121.092c.765 0 1.529.183 2.226.549l25.172 13.234c4.227 2.222 9.288 2.523 13.612.497 6.256-2.93 9.593-9.578 8.467-16.145l-4.868-28.38c-.266-1.552.248-3.135 1.376-4.234l20.619-20.099c4.709-4.59 5.947-11.802 2.766-17.804-2.289-4.32-6.67-7.14-11.509-7.843z" fill="#ffcb00"/></g></svg>