<svg id="Layer_1" enable-background="new 0 0 511.504 511.504" height="512" viewBox="0 0 511.504 511.504" width="512" xmlns="http://www.w3.org/2000/svg"><g><g><path d="m157.71 472.4-103.706-84.037c-8.403 0-15.215 6.812-15.215 15.215v100.425c0 4.142 3.358 7.5 7.5 7.5h52.4c.944 0 1.879-.178 2.756-.525l47.701-18.839c7.817-3.085 11.65-11.923 8.564-19.739z" fill="#45f6ff"/><path d="m408.582 388.363-103.705 84.037c-3.087 7.816.747 16.653 8.562 19.74l47.702 18.839c.877.346 1.811.524 2.754.524h52.401c4.142 0 7.5-3.358 7.5-7.5v-100.425c.001-8.403-6.811-15.215-15.214-15.215z" fill="#5ecbf1"/></g><g><g><circle cx="230.496" cy="281.266" fill="#e20059" r="229.744"/></g><path d="m230.496 51.521c-.107 0-.213.004-.32.004v459.48c.107 0 .213.004.32.004 126.884 0 229.744-102.86 229.744-229.744s-102.86-229.744-229.744-229.744z" fill="#b10f61"/><g><path d="m230.496 470.807c-104.514 0-189.542-85.028-189.542-189.542s85.029-189.541 189.542-189.541 189.542 85.028 189.542 189.542-85.028 189.541-189.542 189.541zm0-348.653c-87.734 0-159.111 71.377-159.111 159.111s71.377 159.112 159.111 159.112 159.112-71.377 159.112-159.112-71.377-159.111-159.112-159.111z" fill="#fff5f5"/></g><g><path d="m230.496 403.488c-67.394 0-122.222-54.829-122.222-122.222s54.829-122.222 122.222-122.222 122.222 54.829 122.222 122.222-54.828 122.222-122.222 122.222zm0-214.015c-50.614 0-91.792 41.178-91.792 91.792s41.178 91.792 91.792 91.792 91.792-41.178 91.792-91.792-41.177-91.792-91.792-91.792z" fill="#fff5f5"/></g><g><path d="m230.496 332.547c-13.698 0-26.576-5.335-36.262-15.02-19.994-19.995-19.994-52.528 0-72.522 9.685-9.686 22.563-15.02 36.261-15.02s26.575 5.335 36.261 15.02c19.994 19.995 19.994 52.528.001 72.522h-.001c-9.684 9.685-22.562 15.02-36.26 15.02zm0-72.133c-5.569 0-10.806 2.169-14.744 6.107-8.13 8.13-8.13 21.358 0 29.488 3.938 3.938 9.175 6.107 14.744 6.107s10.806-2.169 14.744-6.107c8.13-8.13 8.13-21.358 0-29.488-3.938-3.938-9.174-6.107-14.744-6.107z" fill="#fff5f5"/></g><g fill="#eceae7"><path d="m230.496 91.724c-.107 0-.213.004-.32.004v30.43c.107 0 .213-.004.32-.004 87.734 0 159.112 71.377 159.112 159.111s-71.377 159.112-159.112 159.112c-.107 0-.213-.004-.32-.004v30.43c.107 0 .213.004.32.004 104.514 0 189.542-85.028 189.542-189.542s-85.028-189.541-189.542-189.541z"/><path d="m230.496 159.043c-.107 0-.213.004-.32.004v30.43c.107 0 .213-.004.32-.004 50.614 0 91.792 41.178 91.792 91.792s-41.178 91.792-91.792 91.792c-.107 0-.213-.004-.32-.004v30.43c.107 0 .213.004.32.004 67.394 0 122.222-54.829 122.222-122.222s-54.828-122.222-122.222-122.222z"/><path d="m230.496 229.984c-.107 0-.213.007-.32.008v30.438c.107-.002.212-.016.32-.016 5.569 0 10.806 2.169 14.744 6.107 8.13 8.13 8.13 21.358 0 29.488-3.938 3.938-9.175 6.107-14.744 6.107-.107 0-.213-.014-.32-.016v30.438c.107.001.213.008.32.008 13.698 0 26.575-5.335 36.261-15.02h.001c19.994-19.995 19.994-52.528-.001-72.522-9.685-9.685-22.563-15.02-36.261-15.02z"/></g></g><g><path d="m232.954 292.846c-3.91 0-7.82-1.488-10.809-4.466-5.991-5.97-6.008-15.666-.038-21.656l154.908-155.449c5.971-5.991 15.665-6.007 21.656-.037s6.008 15.666.038 21.656l-154.908 155.448c-2.992 3.002-6.92 4.504-10.847 4.504z" fill="#bc8173"/></g><g><path d="m443.668 83.753c-3.919 0-7.838-1.495-10.828-4.485-5.981-5.98-5.981-15.676 0-21.656l36.182-36.182c5.98-5.981 15.676-5.981 21.656 0 5.981 5.98 5.981 15.676 0 21.656l-36.182 36.182c-2.989 2.99-6.909 4.485-10.828 4.485z" fill="#bc8173"/></g><path d="m510.135 77.928c-1.463-4.533-5.328-7.875-10.025-8.666l-47.075-7.931c-1.265-.213-2.263-1.193-2.5-2.454l-9.032-48.163c-.679-3.62-2.752-6.897-5.896-8.816-5.171-3.156-11.61-2.256-15.705 1.818l-50.872 50.619c-2.725 2.71-4.082 6.504-3.696 10.327l6.303 62.458c.627 6.217 5.664 11.065 11.9 11.455l66.069 4.13c.267.017.532.025.798.025 3.398 0 6.669-1.357 9.073-3.788l47.585-48.123c3.351-3.388 4.536-8.358 3.073-12.891z" fill="#854737"/><path d="m222.152 288.38c2.989 2.978 6.899 4.466 10.809 4.466 3.927 0 7.855-1.502 10.847-4.504l154.908-155.449c5.861-5.881 5.937-15.325.269-21.317l-176.85 176.785c.006.006.011.013.017.019z" fill="#9d5e4a"/><path d="m432.84 79.268c2.99 2.99 6.909 4.485 10.828 4.485s7.838-1.495 10.828-4.485l36.182-36.182c5.981-5.98 5.981-15.676 0-21.656-.256-.257-.528-.487-.798-.721l-57.772 57.75c.238.273.472.549.732.809z" fill="#9d5e4a"/><path d="m510.135 77.928c-1.463-4.533-5.328-7.875-10.025-8.666l-47.075-7.932c-.958-.161-1.762-.764-2.198-1.594l-75.337 75.309c2.115 2.03 4.927 3.335 8.039 3.529l66.069 4.13c.267.017.532.025.798.025 3.398 0 6.669-1.357 9.073-3.789l47.585-48.123c3.35-3.386 4.534-8.356 3.071-12.889z" fill="#734536"/></g></svg>