<svg id="Layer_1" enable-background="new 0 0 512 512" height="512" viewBox="0 0 512 512" width="512" xmlns="http://www.w3.org/2000/svg"><g><path d="m332.275 399.57v66.477c0 25.379 20.574 45.953 45.953 45.953h22.799c4.488 0 8.125-3.638 8.125-8.125v-104.313z" fill="#ff6b6b"/><path d="m243.838 339.854c0 50.821 41.199 92.02 92.02 92.02h65.023c35.7 0 64.641-28.941 64.641-64.641v-44.13z" fill="#e20059"/><path d="m457.983 161.856c2.447-8.192 3.762-16.872 3.756-25.86-.031-48.939-39.799-89.292-88.732-90.007-9.919-.145-19.475 1.318-28.429 4.139-3.813 1.202-7.905-.552-9.86-4.039-15.42-27.501-44.847-46.089-78.618-46.089-33.46 0-62.656 18.246-78.188 45.33-1.944 3.39-5.912 5.016-9.675 3.964-8.031-2.244-16.514-3.404-25.282-3.309-49.059.529-89.023 40.895-89.084 89.955-.011 8.904 1.273 17.505 3.671 25.629 1.125 3.813-.517 7.865-3.977 9.825-27.014 15.305-45.341 44.16-45.733 77.332-.593 50.136 41.101 91.162 91.24 91.162h313.618c50.68 0 91.703-41.201 91.483-91.881 0-32.289-16.992-60.606-42.52-76.506-3.263-2.032-4.77-5.963-3.67-9.645z" fill="#ffcbbc"/><path d="m461.653 171.501c-3.262-2.032-4.77-5.963-3.669-9.645 2.447-8.192 3.761-16.872 3.756-25.86-.031-48.939-39.799-89.292-88.732-90.007-9.919-.145-19.475 1.318-28.429 4.139-3.813 1.202-7.905-.552-9.86-4.039-15.421-27.501-44.848-46.089-78.619-46.089-.033 0-.066.002-.1.002v339.886h156.69c50.68 0 91.703-41.201 91.483-91.881 0-32.289-16.993-60.605-42.52-76.506z" fill="#ffbca7"/><path d="m331.388 163.019c-8.898 0-16.111 7.213-16.111 16.111s7.213 16.111 16.111 16.111c14.433 0 26.174 11.742 26.174 26.174s-11.741 26.174-26.174 26.174h-75.201c-7.766-49.756-50.911-87.949-102.812-87.949-8.898 0-16.111 7.213-16.111 16.111s7.213 16.111 16.111 16.111c39.612 0 71.839 32.226 71.839 71.839 0 39.612-41.809 76.189-81.421 76.189l78.215.001c17.819-16.32 30.647-37.454 34.179-60.079h75.201c32.2 0 58.396-26.196 58.396-58.396-.001-32.201-26.197-58.397-58.396-58.397z" fill="#f9a58b"/><path d="m331.405 163.019c-8.898 0-16.111 7.213-16.111 16.111s7.213 16.111 16.111 16.111c14.433 0 26.174 11.742 26.174 26.174s-11.741 26.174-26.174 26.174h-75.201c-.054-.349-.128-.691-.186-1.039v34.282c.058-.341.133-.68.186-1.022h75.201c32.2 0 58.396-26.196 58.396-58.396 0-32.199-26.196-58.395-58.396-58.395z" fill="#dd9080"/></g></svg>