<svg id="Layer_1" enable-background="new 0 0 512 512" height="512" viewBox="0 0 512 512" width="512" xmlns="http://www.w3.org/2000/svg"><g><g><path d="m0 372.689v127.295c0 6.636 5.38 12.016 12.016 12.016h487.968c6.636 0 12.016-5.38 12.016-12.016v-236.382c0-6.636-5.38-12.016-12.016-12.016h-341.748c-3.199 0-6.267 1.276-8.522 3.545z" fill="#00ad95"/><path d="m499.984 251.586h-244.381v260.414h244.382c6.636 0 12.016-5.38 12.016-12.016v-236.382c-.001-6.636-5.381-12.016-12.017-12.016z" fill="#00846e"/><path d="m448.463 462.263h-385.719c-8.797 0-15.928-7.131-15.928-15.928v-63.681c0-8.797 7.131-15.928 15.928-15.928s15.928 7.131 15.928 15.928v47.754h353.863v-97.23h-306.8c-8.797 0-15.928-7.131-15.928-15.928s7.131-15.928 15.928-15.928h322.727c8.797 0 15.928 7.131 15.928 15.928v129.085c0 8.797-7.131 15.928-15.927 15.928z" fill="#00846e"/><path d="m448.463 301.323h-192.86v31.855h176.932v97.23h-176.932v31.855h192.86c8.797 0 15.928-7.131 15.928-15.928v-129.085c-.001-8.796-7.132-15.927-15.928-15.927z" fill="#015e4f"/><path d="m255.603 462.307c-44.396 0-80.515-36.118-80.515-80.514s36.118-80.514 80.515-80.514c44.395 0 80.514 36.118 80.514 80.514s-36.118 80.514-80.514 80.514zm0-129.173c-26.831 0-48.659 21.828-48.659 48.659s21.828 48.659 48.659 48.659c26.83 0 48.658-21.828 48.658-48.659s-21.827-48.659-48.658-48.659z" fill="#fff"/><path d="m255.603 301.279-.001 31.855h.001c26.83 0 48.658 21.828 48.658 48.659s-21.828 48.659-48.658 48.659h-.001v31.855h.001c44.395 0 80.514-36.118 80.514-80.514s-36.118-80.514-80.514-80.514z" fill="#eceae7"/></g><g><path d="m0 246.128v128.405c0 6.636 5.38 12.016 12.016 12.016h243.587c6.636 0 256.397-5.38 256.397-12.016v-236.382c0-6.636-5.38-12.016-12.016-12.016h-341.748c-3.199 0-6.267 1.276-8.522 3.545z" fill="#00d16c"/><path d="m499.984 126.136h-244.381v260.414h244.382c6.636 0 12.016-5.38 12.016-12.016v-236.383c-.001-6.636-5.381-12.015-12.017-12.015z" fill="#00ad95"/><path d="m448.463 336.813h-385.719c-8.797 0-15.928-7.131-15.928-15.928v-63.681c0-8.797 7.131-15.928 15.928-15.928s15.928 7.131 15.928 15.928v47.754h353.863v-97.23h-306.8c-8.797 0-15.928-7.131-15.928-15.928s7.131-15.928 15.928-15.928h322.727c8.797 0 15.928 7.131 15.928 15.928v129.085c0 8.797-7.131 15.928-15.927 15.928z" fill="#00ad95"/><path d="m448.463 175.872h-192.86v31.855h176.932v97.23h-176.932v31.855h192.86c8.797 0 15.928-7.131 15.928-15.928v-129.084c-.001-8.797-7.132-15.928-15.928-15.928z" fill="#00846e"/><path d="m255.603 336.857c-44.396 0-80.515-36.118-80.515-80.514s36.118-80.514 80.515-80.514c44.395 0 80.514 36.118 80.514 80.514s-36.118 80.514-80.514 80.514zm0-129.173c-26.831 0-48.659 21.828-48.659 48.659s21.828 48.659 48.659 48.659c26.83 0 48.658-21.828 48.658-48.659s-21.827-48.659-48.658-48.659z" fill="#fff"/><path d="m255.603 175.828-.001 31.855h.001c26.83 0 48.658 21.828 48.658 48.659s-21.828 48.659-48.658 48.659h-.001v31.855h.001c44.395 0 80.514-36.118 80.514-80.514s-36.118-80.514-80.514-80.514z" fill="#eceae7"/></g><path d="m0 159.117v89.281c0 6.636 5.38 12.016 12.016 12.016h487.968c6.636 0 12.016-5.38 12.016-12.016v-236.382c0-6.636-5.38-12.016-12.016-12.016h-341.748c-3.199 0-6.267 1.276-8.522 3.545l-146.22 147.101c-2.238 2.252-3.494 5.297-3.494 8.471z" fill="#ace233"/><path d="m499.984 0h-244.381v260.414h244.382c6.636 0 12.016-5.38 12.016-12.016v-236.382c-.001-6.636-5.381-12.016-12.017-12.016z" fill="#00d16c"/><path d="m448.463 210.677h-385.719c-8.797 0-15.928-7.131-15.928-15.928v-63.681c0-8.797 7.131-15.928 15.928-15.928s15.928 7.131 15.928 15.928v47.754h353.863v-97.23h-306.8c-8.797 0-15.928-7.131-15.928-15.928s7.131-15.928 15.928-15.928h322.727c8.797 0 15.928 7.131 15.928 15.928v129.085c0 8.797-7.131 15.928-15.927 15.928z" fill="#00d16c"/><circle cx="384.046" cy="130.207" fill="#eceae7" r="15.928"/><path d="m13.367 140.711h115.931c6.636 0 12.016-5.38 12.016-12.016v-116.759z" fill="#00ad95"/><path d="m448.463 49.737h-192.86v31.855h176.932v97.23h-176.932v31.855h192.86c8.797 0 15.928-7.131 15.928-15.928v-129.085c-.001-8.796-7.132-15.927-15.928-15.927z" fill="#00ad95"/><path d="m255.603 210.721c-44.396 0-80.515-36.118-80.515-80.514s36.118-80.514 80.515-80.514c44.395 0 80.514 36.118 80.514 80.514s-36.118 80.514-80.514 80.514zm0-129.173c-26.831 0-48.659 21.828-48.659 48.659s21.828 48.659 48.659 48.659c26.83 0 48.658-21.828 48.658-48.659s-21.827-48.659-48.658-48.659z" fill="#fff"/><path d="m255.603 49.692-.001 31.855h.001c26.83 0 48.658 21.828 48.658 48.659s-21.828 48.659-48.658 48.659h-.001v31.855h.001c44.395 0 80.514-36.118 80.514-80.514s-36.118-80.514-80.514-80.514z" fill="#eceae7"/></g></svg>