<svg id="Layer_1" enable-background="new 0 0 512.018 512.018" height="512" viewBox="0 0 512.018 512.018" width="512" xmlns="http://www.w3.org/2000/svg"><g><path d="m360.251 39.688v42.802c0 22.097-17.913 40.009-40.009 40.009h-128.465c-22.097 0-40.009-17.913-40.009-40.009v-31.35c0-17.446 15.606-30.62 32.847-27.948 20.468 3.172 49.024 3.41 81.38-8.327 17.815-6.462 32.965-10.844 45.567-13.801 24.879-5.837 48.689 13.069 48.689 38.624z" fill="#fff5f5"/><path d="m311.561 1.065c-12.602 2.957-27.752 7.339-45.567 13.801-3.382 1.227-6.719 2.315-10.013 3.291v104.343h64.26c22.097 0 40.009-17.913 40.009-40.009v-42.803c.001-25.555-23.809-44.461-48.689-38.623z" fill="#eceae7"/><path d="m362.019 230.337v-.059c0-32.841-26.623-59.465-59.465-59.465h-92.995c-32.841 0-59.465 26.623-59.465 59.465 0 15.906-8.333 30.562-21.827 38.983-40.674 25.384-66.368 62.682-66.368 104.267 0 76.487 86.906 138.491 194.11 138.491s194.11-62.005 194.11-138.491c0-41.558-25.661-78.835-66.291-104.218-13.483-8.425-21.809-23.074-21.809-38.973z" fill="#fff5f5"/><g><path d="m227.736 81.069c-8.757 0-15.857 7.099-15.857 15.857v32.729h31.714v-32.729c0-8.757-7.1-15.857-15.857-15.857z" fill="#e7dfdd"/><path d="m287.454 60.084c-8.757 0-15.857 7.099-15.857 15.857v53.317h31.714v-53.318c0-8.757-7.099-15.856-15.857-15.856z" fill="#dad0cb"/></g><path d="m312.288 170.888h-112.557c-13.366 0-24.201-10.835-24.201-24.201 0-13.366 10.835-24.201 24.201-24.201h112.557c13.366 0 24.201 10.835 24.201 24.201 0 13.365-10.835 24.201-24.201 24.201z" fill="#9d5e4a"/><path d="m312.288 122.485h-56.307v48.403h56.307c13.366 0 24.201-10.835 24.201-24.201 0-13.367-10.835-24.202-24.201-24.202z" fill="#854737"/><path d="m383.828 269.309c-13.484-8.424-21.81-23.073-21.81-38.972v-.059c0-32.841-26.623-59.465-59.465-59.465h-46.573v341.205h.028c107.204 0 194.11-62.005 194.11-138.491.001-41.558-25.66-78.835-66.29-104.218z" fill="#eceae7"/><path d="m298.007 344.129c0-8.757-7.099-15.857-15.857-15.857h-36.648c6.148-14.155 20.258-24.082 36.648-24.082 8.757 0 15.857-7.099 15.857-15.857s-7.099-15.857-15.857-15.857c-34.06 0-62.624 23.895-69.863 55.796h-5.675c-8.757 0-15.857 7.099-15.857 15.857 0 8.757 7.099 15.857 15.857 15.857h5.675c7.238 31.901 35.803 55.796 69.863 55.796 8.757 0 15.857-7.099 15.857-15.857s-7.099-15.857-15.857-15.857c-16.39 0-30.5-9.927-36.648-24.082h36.648c8.757 0 15.857-7.1 15.857-15.857z" fill="#00d16c"/><g fill="#00ad95"><path d="m298.007 344.129c0-8.757-7.099-15.857-15.857-15.857h-26.169v31.714h26.169c8.757 0 15.857-7.1 15.857-15.857z"/><path d="m282.15 272.476c-9.234 0-18.058 1.769-26.169 4.965v36.554c7.013-6.102 16.164-9.805 26.169-9.805 8.757 0 15.857-7.099 15.857-15.857s-7.1-15.857-15.857-15.857z"/><path d="m298.007 399.924c0-8.757-7.099-15.857-15.857-15.857-10.005 0-19.156-3.704-26.169-9.805v36.554c8.111 3.196 16.935 4.965 26.169 4.965 8.757 0 15.857-7.099 15.857-15.857z"/></g></g></svg>