<svg id="Layer_1" enable-background="new 0 0 512 512" height="512" viewBox="0 0 512 512" width="512" xmlns="http://www.w3.org/2000/svg"><g><g><path d="m458.147 293.764h-32.403c-8.517 0-15.421-6.904-15.421-15.421s6.904-15.421 15.421-15.421h27.264c2.705-21.637 21.213-38.433 43.571-38.433 8.517 0 15.421 6.904 15.421 15.421s-6.904 15.421-15.421 15.421c-7.206 0-13.069 5.863-13.069 13.069 0 13.986-11.378 25.364-25.363 25.364z" fill="#dd9080"/></g><path d="m330.807 163.729c-13.685-3.725-29.165-6.016-44.03-6.016h-112.782c-14.992-24.748-42.063-39.798-71.184-39.282l-29.078.515c-9.089.161-15.261 9.297-12.018 17.79l19.376 50.733c1.872 4.901.615 10.414-3.127 14.091-15.428 15.16-28.013 37.935-34.336 50.223h-1.283c-23.387-.001-42.345 18.957-42.345 42.343v42.654c0 23.386 18.958 42.344 42.344 42.344 9.566 35.615 32.704 58.76 50.206 71.806 1.442 1.075 2.283 2.763 2.283 4.561v47.65c0 4.807 3.897 8.705 8.705 8.705h46.469c4.807 0 8.705-3.897 8.705-8.705v-13.461c0-3.152 2.555-5.707 5.707-5.707h122.358c8.802 0 17.44-.7 25.863-2.043 3.448-.55 6.558 2.151 6.558 5.642v15.57c0 4.807 3.897 8.705 8.705 8.705h45.402c4.807 0 8.705-3.897 8.705-8.705v-35.831c0-8.387 3.604-16.418 10.01-21.832 35.403-29.923 57.889-74.651 57.889-124.635 0-45.906-20.857-89.158-51.375-118.801" fill="#ffcbbc"/><path d="m398.532 202.042-67.725-38.313c-13.685-3.725-29.165-6.016-44.03-6.016h-51.972v326.26h51.972c8.802 0 17.44-.7 25.863-2.043 3.448-.55 6.558 2.151 6.558 5.642v15.57c0 4.807 3.897 8.705 8.705 8.705h45.402c4.807 0 8.705-3.897 8.705-8.705v-35.831c0-8.387 3.604-16.418 10.01-21.832 35.403-29.923 57.889-74.651 57.889-124.635-.002-45.907-20.858-89.159-51.377-118.802z" fill="#ffbca7"/><circle cx="97.672" cy="262.143" fill="#003140" r="15.421"/><g><path d="m274.894 237.039h-79.399c-8.517 0-15.421-6.904-15.421-15.421s6.904-15.421 15.421-15.421h79.399c8.517 0 15.421 6.904 15.421 15.421s-6.905 15.421-15.421 15.421z" fill="#854737"/></g><g><circle cx="396.934" cy="115.22" fill="#ffe705" r="115.066"/><path d="m396.934.154v230.132c63.549 0 115.066-51.517 115.066-115.066s-51.517-115.066-115.066-115.066z" fill="#ffcb00"/><circle cx="396.934" cy="115.22" fill="#ffcb00" r="62.161"/><path d="m459.095 115.22c0-34.331-27.83-62.161-62.161-62.161v124.322c34.331 0 62.161-27.831 62.161-62.161z" fill="#ff9d21"/></g><path d="m274.894 206.197h-40.089v30.842h40.089c8.517 0 15.421-6.904 15.421-15.421s-6.905-15.421-15.421-15.421z" fill="#734536"/></g></svg>