<svg id="Layer_1" enable-background="new 0 0 512 512" height="512" viewBox="0 0 512 512" width="512" xmlns="http://www.w3.org/2000/svg"><g><path d="m1.383 249.867c-1.901 4.451-1.841 9.489.173 13.89 16.202 35.414 93.847 183.89 256.83 183.89 159.935 0 235.926-147.77 252.117-183.896 2.02-4.507 1.994-9.654-.061-14.145-16.202-35.418-93.833-183.888-256.812-183.888-175.205.001-246.779 170.517-252.247 184.149z" fill="#fff5f5"/><path d="m256.732 65.719v381.861c.554.003 1.098.023 1.654.023 159.935 0 235.926-147.77 252.117-183.896 2.02-4.507 1.994-9.654-.061-14.145-16.099-35.191-92.858-181.966-253.71-183.843z" fill="#eceae7"/><g><path d="m143.237 272.567h-77.21c-8.775 0-15.888-7.114-15.888-15.888 0-8.775 7.114-15.888 15.888-15.888h77.21c8.775 0 15.888 7.114 15.888 15.888.001 8.774-7.113 15.888-15.888 15.888z" fill="#e20059"/></g><g><path d="m447.442 272.567h-77.215c-8.775 0-15.888-7.114-15.888-15.888 0-8.775 7.114-15.888 15.888-15.888h77.215c8.775 0 15.888 7.114 15.888 15.888.001 8.774-7.113 15.888-15.888 15.888z" fill="#b10f61"/></g><g><path d="m256.723 159.08c-8.775 0-15.888-7.114-15.888-15.888v-115.286c0-8.775 7.114-15.888 15.888-15.888 8.775 0 15.888 7.114 15.888 15.888v115.286c0 8.774-7.113 15.888-15.888 15.888z" fill="#e20059"/></g><g><path d="m256.723 499.982c-8.775 0-15.888-7.114-15.888-15.888v-113.929c0-8.775 7.114-15.888 15.888-15.888 8.775 0 15.888 7.114 15.888 15.888v113.929c0 8.775-7.113 15.888-15.888 15.888z" fill="#e20059"/></g><path d="m256.732 12.018v147.062c8.771-.005 15.879-7.116 15.879-15.888v-115.287c0-8.771-7.108-15.883-15.879-15.887z" fill="#b10f61"/><path d="m256.732 354.277v145.705c8.771-.005 15.879-7.116 15.879-15.888v-113.93c0-8.771-7.108-15.883-15.879-15.887z" fill="#b10f61"/><ellipse cx="256.732" cy="256.678" fill="#45f6ff" rx="120.861" ry="120.852"/><path d="m377.593 256.678c0-66.745-54.111-120.852-120.861-120.852v241.704c66.749 0 120.861-54.107 120.861-120.852z" fill="#5ecbf1"/><ellipse cx="256.732" cy="256.679" fill="#004960" rx="45.556" ry="45.553"/><path d="m302.288 256.679c0-25.158-20.396-45.553-45.556-45.553v91.105c25.16 0 45.556-20.394 45.556-45.552z" fill="#003140"/></g></svg>