<svg id="Layer_1" enable-background="new 0 0 512.002 512.002" height="512" viewBox="0 0 512.002 512.002" width="512" xmlns="http://www.w3.org/2000/svg"><g><path d="m418.956.107h-325.912c-8.587 0-15.548 6.961-15.548 15.548v480.692c0 8.587 6.961 15.548 15.548 15.548h325.912c8.587 0 15.549-6.961 15.549-15.548v-480.692c0-8.587-6.962-15.548-15.549-15.548z" fill="#ff9d21"/><path d="m418.956.107h-166.567v511.788h166.567c8.587 0 15.549-6.961 15.549-15.548v-480.692c0-8.587-6.962-15.548-15.549-15.548z" fill="#ff6b6b"/><path d="m156.92 91.946h190.95v101.973h-190.95z" fill="#fff5f5"/><g><path d="m15.002 377.833c-.03 0-.059 0-.089 0-8.284-.048-14.961-6.802-14.913-15.087l.142-24.521c.146-25.152 20.728-45.614 45.879-45.614h150.182c8.284 0 15 6.716 15 15s-6.716 15-15 15h-150.182c-8.705 0-15.828 7.083-15.879 15.788l-.142 24.52c-.048 8.255-6.755 14.913-14.998 14.914z" fill="#003140"/></g><path d="m207.532 348.014-69.44 27.605 69.44 30.376h174.257l48.39-29.406-48.39-28.575z" fill="#004960"/><path d="m8.486 348.014c-4.687 0-8.486 3.799-8.486 8.486v41.009c0 4.687 3.799 8.486 8.486 8.486h168.58l6.362-29.351-6.362-28.63z" fill="#006180"/><path d="m252.389 91.946h95.48v101.973h-95.48z" fill="#eceae7"/><path d="m252.39 348.014v57.981h114.616l63.173-29.406-63.173-28.575z" fill="#003140"/><path d="m508.238 370.321-13.111-8.781c-14.398-8.844-33.114-13.526-50.011-13.526h-47.644l-15.683 27.549 15.683 30.432h48.386c16.429 0 34.705-4.427 48.832-12.814l13.432-8.682c5.123-3.311 5.184-10.784.116-14.178z" fill="#004960"/><path d="m352.399 73.387h-192.798c-8.284 0-15 6.716-15 15v111.111c0 8.284 6.716 15 15 15h192.798c8.284 0 15-6.716 15-15v-111.111c0-8.285-6.716-15-15-15zm-15 30v25.556h-162.798v-25.556zm-162.798 81.111v-25.556h162.798v25.556z" fill="#e7dfdd"/><path d="m352.399 73.387h-100.009v30h85.009v25.556h-85.009v30h85.009v25.556h-85.009v30h100.009c8.284 0 15-6.716 15-15v-111.112c0-8.285-6.716-15-15-15z" fill="#dad0cb"/><path d="m177.066 348.014h30.466v57.981h-30.466z" fill="#fff5f5"/><path d="m367.006 348.014h30.466v57.981h-30.466z" fill="#eceae7"/></g></svg>