<svg id="Layer_1" enable-background="new 0 0 512.352 512.352" height="512" viewBox="0 0 512.352 512.352" width="512" xmlns="http://www.w3.org/2000/svg"><g><g><g><g><path d="m469.125 73.945c-8.284 0-15-6.716-15-15v-43.945c0-8.284 6.716-15 15-15s15 6.716 15 15v43.945c0 8.284-6.716 15-15 15z" fill="#003140"/></g></g><path d="m499.075 132.889-28.828-11.031-31.721 11.031v228.021l30.708 65.971 29.841-65.971z" fill="#e20059"/><path d="m499.075 48.206c0-4.894-3.968-8.862-8.862-8.862h-42.825c-4.894 0-8.862 3.968-8.862 8.862v52.868l30.651 22.24 29.898-22.24z" fill="#b10f61"/><path d="m475.78 508.397 9.169-13.691c9.236-15.035 14.125-34.581 14.125-52.226v-49.754l-28.769-16.377-31.779 16.377v50.529c0 17.157 4.623 36.242 13.382 50.995l9.066 14.027c3.458 5.349 11.262 5.412 14.806.12z" fill="#b10f61"/><g fill="#fff5f5"><path d="m452.893 86.707h31.816v60.548h-31.816z" transform="matrix(0 1 -1 0 585.782 -351.819)"/><path d="m452.893 346.543h31.816v60.548h-31.816z" transform="matrix(0 1 -1 0 845.618 -91.983)"/></g></g><path d="m384.323 512.352h-359.52c-6.365 0-11.526-5.16-11.526-11.526v-488.945c0-6.365 5.16-11.526 11.526-11.526h359.52c6.366 0 11.526 5.16 11.526 11.526v488.946c0 6.365-5.16 11.525-11.526 11.525z" fill="#004960"/><path d="m384.323.355h-178.845v511.997h178.845c6.365 0 11.526-5.16 11.526-11.526v-488.945c0-6.366-5.16-11.526-11.526-11.526z" fill="#003140"/><path d="m205.478 186.665-.044.153v-.153h-128.501v250.154c0 6.428 5.211 11.639 11.639 11.639h233.77c6.428 0 11.639-5.211 11.639-11.639v-250.154z" fill="#fff5f5"/><path d="m205.478 186.665v261.793h116.863c6.428 0 11.639-5.211 11.639-11.639v-250.154z" fill="#e7dfdd"/><path d="m140.344 318.415h65.09v65.875h-65.09z" fill="#eceae7"/><path d="m333.98 186.665v-109.131c0-7.36-5.967-13.327-13.327-13.327h-230.393c-7.36 0-13.327 5.967-13.327 13.327v109.132h257.047z" fill="#ace233"/><g fill="#eceae7"><path d="m140.344 186.665h65.09v65.875h-65.09z"/><path d="m76.933 384.29v52.53c0 6.428 5.211 11.639 11.639 11.639h51.773v-64.169z"/><path d="m76.933 252.54h63.411v65.875h-63.411z"/></g><path d="m268.89 252.54h65.09v65.875h-65.09z" fill="#dad0cb"/><path d="m205.478 186.665h63.411v65.875h-63.411z" fill="#dad0cb"/><path d="m205.478 318.415h63.411v65.875h-63.411z" fill="#dad0cb"/><path d="m268.89 448.458h53.451c6.428 0 11.639-5.211 11.639-11.639v-118.404h-65.09z" fill="#ff9d21"/><path d="m320.653 64.207h-115.175v122.459h128.502v-109.132c0-7.361-5.967-13.327-13.327-13.327z" fill="#00d16c"/></g></svg>