<svg id="Layer_1" enable-background="new 0 0 512.174 512.174" height="512" viewBox="0 0 512.174 512.174" width="512" xmlns="http://www.w3.org/2000/svg"><g><g><path d="m136.162 512.174c-.64 0-1.287-.041-1.938-.125-8.216-1.06-14.018-8.58-12.958-16.796l19.57-151.719c1.06-8.217 8.585-14.018 16.796-12.958 8.216 1.06 14.018 8.58 12.958 16.796l-19.57 151.719c-.976 7.565-7.428 13.083-14.858 13.083z" fill="#854737"/></g><g><path d="m375.726 512.174c-7.436 0-13.89-5.525-14.859-13.097l-19.43-151.71c-1.052-8.217 4.756-15.731 12.973-16.784 8.213-1.04 15.731 4.756 16.784 12.974l19.43 151.71c1.052 8.217-4.756 15.731-12.973 16.784-.646.082-1.289.123-1.925.123z" fill="#734536"/></g><path d="m34.195 107.243v239.602c0 7.149 5.795 12.944 12.944 12.944h417.835c7.149 0 12.944-5.795 12.944-12.944v-239.602z" fill="#fff5f5"/><g><path d="m411.962 451.947h-311.715c-8.284 0-15-6.716-15-15s6.716-15 15-15h311.715c8.284 0 15 6.716 15 15s-6.716 15-15 15z" fill="#9d5e4a"/></g><path d="m255.815 359.789h209.159c7.149 0 12.944-5.795 12.944-12.944v-239.602h-222.103z" fill="#eceae7"/><path d="m411.962 421.947h-156.147v30h156.147c8.284 0 15-6.716 15-15s-6.716-15-15-15z" fill="#854737"/><g><path d="m343.401 300.001c-8.284 0-15-6.716-15-15v-75.796c0-8.284 6.716-15 15-15s15 6.716 15 15v75.796c0 8.284-6.716 15-15 15z" fill="#00d16c"/></g><g><path d="m286.498 300.001c-8.284 0-15-6.716-15-15v-45.362c0-8.284 6.716-15 15-15s15 6.716 15 15v45.362c0 8.284-6.715 15-15 15z" fill="#e20059"/></g><g><g><path d="m89.282 66.289c-8.284 0-15-6.716-15-15v-36.289c0-8.284 6.716-15 15-15s15 6.716 15 15v36.289c0 8.284-6.716 15-15 15z" fill="#ffe705"/></g><g><path d="m422.928 66.289c-8.284 0-15-6.716-15-15v-36.289c0-8.284 6.716-15 15-15s15 6.716 15 15v36.289c0 8.284-6.716 15-15 15z" fill="#ffcb00"/></g></g><g><path d="m400.303 300.001h-170.706c-8.284 0-15-6.716-15-15v-106.865c0-8.284 6.716-15 15-15s15 6.716 15 15v91.865h140.707v-91.865c0-8.284 6.716-15 15-15s15 6.716 15 15v106.865c-.001 8.284-6.717 15-15.001 15z" fill="#004960"/></g><g><path d="m161.703 300.001h-60.995c-8.284 0-15-6.716-15-15s6.716-15 15-15h60.995c8.284 0 15 6.716 15 15s-6.715 15-15 15z" fill="#dad0cb"/></g><g><path d="m161.703 242.759h-60.995c-8.284 0-15-6.716-15-15s6.716-15 15-15h60.995c8.284 0 15 6.716 15 15s-6.715 15-15 15z" fill="#dad0cb"/></g><path d="m500.003 121.238h-487.831c-6.665 0-12.067-5.403-12.067-12.067v-52.975c0-6.665 5.403-12.067 12.067-12.067h487.831c6.665 0 12.067 5.403 12.067 12.067v52.975c0 6.665-5.403 12.067-12.067 12.067z" fill="#006180"/><path d="m500.003 44.128h-244.188v77.11h244.188c6.665 0 12.067-5.403 12.067-12.068v-52.974c0-6.665-5.403-12.068-12.067-12.068z" fill="#004960"/><path d="m400.303 163.136c-8.284 0-15 6.716-15 15v91.865h-129.488v30h144.488c8.284 0 15-6.716 15-15v-106.865c0-8.284-6.716-15-15-15z" fill="#003140"/></g></svg>