<svg id="Layer_1" enable-background="new 0 0 512 512" height="512" viewBox="0 0 512 512" width="512" xmlns="http://www.w3.org/2000/svg"><g><g><path d="m255.174 236.887c-.001 0-.002 0-.004 0-8.284-.002-14.998-6.72-14.996-15.004l.013-51.613c.002-8.282 6.718-14.996 15-14.996h.004c8.284.002 14.998 6.72 14.996 15.004l-.013 51.613c-.002 8.282-6.718 14.996-15 14.996z" fill="#e7dfdd"/></g><path d="m255.191 155.273h-.004c-.077 0-.151.01-.228.011v81.591c.071.001.14.011.211.011h.004c8.282 0 14.998-6.714 15-14.996l.013-51.613c.002-8.284-6.712-15.002-14.996-15.004z" fill="#dad0cb"/><path d="m171.904 18.195h170.744v145.979h-170.744z" fill="#45f6ff"/><path d="m254.959 18.195h87.689v145.979h-87.689z" fill="#5ecbf1"/><g><path d="m496.835 269.998h-59.144c-8.284 0-15-6.716-15-15s6.716-15 15-15h59.144c8.284 0 15 6.716 15 15s-6.715 15-15 15z" fill="#dad0cb"/></g><g><path d="m404.65 356.52c-8.284 0-15-6.716-15-15v-53.551c0-8.284 6.716-15 15-15s15 6.716 15 15v53.551c0 8.284-6.715 15-15 15z" fill="#dad0cb"/></g><g><path d="m104.511 356.688c-8.284 0-15-6.716-15-15v-53.72c0-8.284 6.716-15 15-15s15 6.716 15 15v53.72c0 8.285-6.716 15-15 15z" fill="#e7dfdd"/></g><g><path d="m371.61 269.998h-83.389c-8.284 0-15-6.716-15-15s6.716-15 15-15h83.389c8.284 0 15 6.716 15 15s-6.715 15-15 15z" fill="#dad0cb"/></g><g><path d="m222.139 269.998h-84.525c-8.284 0-15-6.716-15-15s6.716-15 15-15h84.525c8.284 0 15 6.716 15 15s-6.716 15-15 15z" fill="#e7dfdd"/></g><g><path d="m71.47 269.928h-56.16c-8.284 0-15-6.716-15-15s6.716-15 15-15h56.16c8.284 0 15 6.716 15 15s-6.716 15-15 15z" fill="#e7dfdd"/></g><path d="m20.712 349.255h166.834v139.462h-166.834z" fill="#45f6ff"/><path d="m321.794 346.649h166.834v143.373h-166.834z" fill="#5ecbf1"/><g><path d="m496.874 512h-185.294c-8.284 0-15-6.716-15-15v-155.274c0-8.284 6.716-15 15-15h185.294c8.284 0 15 6.716 15 15v155.274c0 8.284-6.716 15-15 15zm-170.294-30h155.294v-125.274h-155.294z" fill="#003140"/></g><g><path d="m196.42 512h-181.294c-8.284 0-15-6.716-15-15v-155.274c0-8.284 6.716-15 15-15h181.294c8.284 0 15 6.716 15 15v155.274c0 8.284-6.715 15-15 15zm-166.294-30h151.294v-125.274h-151.294z" fill="#006180"/></g><g><path d="m348.52 185.273h-185.293c-8.284 0-15-6.716-15-15v-155.273c0-8.284 6.716-15 15-15h185.293c8.284 0 15 6.716 15 15v155.273c0 8.285-6.716 15-15 15zm-170.293-30h155.293v-125.273h-155.293z" fill="#006180"/></g><circle cx="104.511" cy="254.928" fill="#e20059" r="39.598"/><circle cx="255.18" cy="254.928" fill="#e20059" r="39.598"/><circle cx="404.65" cy="254.928" fill="#b10f61" r="39.598"/><path d="m348.52 0h-93.561v30h78.561v125.273h-78.561v30h93.561c8.284 0 15-6.716 15-15v-155.273c0-8.284-6.716-15-15-15z" fill="#003140"/><path d="m255.18 215.33c-.074 0-.147.005-.221.006v79.185c.074 0 .147.006.221.006 21.834 0 39.598-17.763 39.598-39.598 0-21.836-17.763-39.599-39.598-39.599z" fill="#b10f61"/></g></svg>