<svg id="Layer_1" enable-background="new 0 0 512 512" height="512" viewBox="0 0 512 512" width="512" xmlns="http://www.w3.org/2000/svg"><g><path d="m352.308 458.885-78.461-54.337v-195.494c0-9.24-7.491-16.731-16.731-16.731s-16.731 7.491-16.731 16.731v195.137l-84.379 54.386c-7.767 5.006-10.005 15.361-5 23.127 3.2 4.964 8.582 7.669 14.078 7.669 3.104 0 6.246-.864 9.048-2.67l83.006-53.023 76.119 52.715c2.906 2.012 6.224 2.977 9.51 2.977 5.304 0 10.521-2.516 13.769-7.206 5.261-7.597 3.368-18.02-4.228-23.281z" fill="#004960"/><path d="m257.138 225.887v207.793l76.119 52.716c2.906 2.012 6.224 2.977 9.51 2.977 5.304 0 10.521-2.516 13.769-7.206 5.261-7.596 3.368-18.02-4.229-23.281l-77.461-54.337v-178.662z" fill="#003140"/><g><path d="m495.927 512h-165.252c-5.6 0-10.14-4.54-10.14-10.14v-5.933c0-29.767 24.131-53.898 53.898-53.898h83.67c29.767 0 53.898 24.131 53.898 53.898-.001 8.877-7.197 16.073-16.074 16.073z" fill="#00d16c"/><path d="m457.722 442.03h-41.455v69.97h84.15c6.397 0 11.582-5.186 11.582-11.583v-4.11c.001-29.976-24.3-54.277-54.277-54.277z" fill="#00ad95"/><g><path d="m356.554 346.795v40.318c0 32.979 26.734 59.713 59.713 59.713 32.979 0 59.713-26.734 59.713-59.713v-26.708l-57.661-30.317z" fill="#ffddce"/><path d="m475.98 344.911c0-24.93-20.21-45.14-45.14-45.14h-29.147c-24.93 0-45.14 20.21-45.14 45.14v1.884l119.426 27.023v-28.907z" fill="#ff6b6b"/></g><path d="m416.267 331.096v115.731c32.979 0 59.713-26.735 59.713-59.713v-26.708l-57.661-30.317z" fill="#ffcbbc"/><path d="m430.841 299.771h-14.573v60.634l59.713 13.412v-28.906c-.001-24.93-20.211-45.14-45.14-45.14z" fill="#e20059"/></g><path d="m175.135 512h-165.052c-5.569 0-10.083-4.514-10.083-10.083v-5.933c0-29.735 24.105-53.84 53.84-53.84h83.47c29.735 0 53.84 24.105 53.84 53.84 0 8.846-7.17 16.016-16.015 16.016z" fill="#e20059"/><path d="m136.962 442.145h-41.387v69.855h84.012c6.386 0 11.564-5.177 11.564-11.563v-4.103c-.001-29.928-24.262-54.189-54.189-54.189z" fill="#b10f61"/><path d="m140.514 301.34c0-25.282-20.371-45.805-45.594-46.052-25.641-.251-46.556 21.471-46.513 47.113.009 5.617.154 8.308 2.35 13.501l87.867-1.412c2.047-5.211 1.89-7.212 1.89-13.15z" fill="#004960"/><path d="m95.575 255.286v59.872l43.049-.692c2.047-5.212 1.89-7.213 1.89-13.151 0-25.061-20.02-45.435-44.939-46.029z" fill="#003140"/><path d="m35.96 360.655v26.664c0 32.924 26.691 59.615 59.615 59.615 32.924 0 59.615-26.691 59.615-59.615v-26.664l-59.13-19.238z" fill="#9d5e4a"/><path d="m95.575 341.572v105.361c32.924 0 59.615-26.691 59.615-59.615v-26.664l-59.131-19.237z" fill="#854737"/><g><path d="m343.033 242.277h-178.646c-8.291 0-15.011-6.721-15.011-15.011v-7.033c0-33.065 26.804-59.869 59.869-59.869h95.963c33.065 0 59.869 26.804 59.869 59.869 0 12.175-9.869 22.044-22.044 22.044z" fill="#45f6ff"/><path d="m305.036 160.364h-47.81v81.914h95.039c7.076 0 12.812-5.736 12.812-12.812v-9.06c0-33.161-26.881-60.042-60.041-60.042z" fill="#5ecbf1"/><path d="m189.954 55.853v42.545c0 37.153 30.119 67.272 67.272 67.272 37.153 0 67.272-30.119 67.272-67.272v-18.65l-67.272-39.874z" fill="#ffcbbc"/><path d="m257.226 165.67c37.153 0 67.272-30.119 67.272-67.272v-18.65l-67.272-39.874z" fill="#ffbca7"/><path d="m324.498 50.854c0-28.086-22.768-50.854-50.854-50.854h-32.836c-28.086 0-50.854 22.768-50.854 50.854v4.999l5.326 2.187c40.91 16.799 85.065 24.217 129.218 21.709z" fill="#ffe705"/><path d="m273.644 0h-16.331v75.886c22.108 3.82 44.646 5.142 67.185 3.862v-28.894c0-28.086-22.768-50.854-50.854-50.854z" fill="#ffcb00"/></g><path d="m155.19 345.186c0-24.889-20.177-45.066-45.066-45.066h-29.098c-24.889 0-45.066 20.177-45.066 45.066v15.468h119.23z" fill="#006180"/><path d="m110.124 300.272h-14.549v60.534h59.615v-15.468c0-24.89-20.176-45.066-45.066-45.066z" fill="#004960"/></g></svg>