<svg id="Layer_1" enable-background="new 0 0 512.196 512.196" height="512" viewBox="0 0 512.196 512.196" width="512" xmlns="http://www.w3.org/2000/svg"><g><path d="m13.738 15.644h484.628v370.168h-484.628z" fill="#ffe705"/><path d="m256.044 15.644h242.322v370.168h-242.322z" fill="#ffcb00"/><path d="m173.041 496.298 16.31-103.876h132.903l14.638 103.865z" fill="#006180"/><path d="m256.044 496.298 80.848-.005-14.638-103.865h-66.21z" fill="#004960"/><g><path d="m374.747 512.004h-237.298c-8.284 0-15-6.716-15-15s6.716-15 15-15h237.298c8.284 0 15 6.716 15 15s-6.716 15-15 15z" fill="#004960"/></g><path d="m374.747 482.004h-118.703v30h118.703c8.284 0 15-6.716 15-15s-6.716-15-15-15z" fill="#003140"/><path d="m470.08 392.428h-192.176c-5.359 0-9.704-4.344-9.704-9.704v-5.71c0-35.344 28.652-63.996 63.996-63.996h89.302c35.344 0 63.996 28.652 63.996 63.996-.001 8.513-6.902 15.414-15.414 15.414z" fill="#e20059"/><path d="m423.893 313.019h-47.047v79.409h95.502c7.26 0 13.145-5.885 13.145-13.145v-4.664c0-34.021-27.579-61.6-61.6-61.6z" fill="#b10f61"/><path d="m427.932 152.957c0-28.739-23.157-52.07-51.83-52.35-29.148-.285-52.924 24.407-52.875 53.557.011 6.385.175 9.445 2.672 15.348l99.884-1.605c2.327-5.926 2.149-8.2 2.149-14.95z" fill="#004960"/><path d="m376.847 100.604v68.06l48.937-.786c2.327-5.925 2.148-8.199 2.148-14.949 0-28.49-22.759-51.65-51.085-52.325z" fill="#003140"/><path d="m309.078 220.384v30.311c0 37.427 30.341 67.768 67.768 67.768 37.427 0 67.768-30.341 67.768-67.768v-30.311l-67.218-21.868z" fill="#9d5e4a"/><path d="m376.846 198.692v119.771c37.427 0 67.769-30.341 67.769-67.768v-30.311l-67.218-21.868z" fill="#854737"/><path d="m444.615 202.8c0-28.293-22.936-51.229-51.229-51.229h-33.078c-28.293 0-51.229 22.936-51.229 51.229v17.584c44.2 13.301 91.337 13.301 135.536 0z" fill="#006180"/><path d="m393.385 151.656h-16.539v78.617c22.834 0 45.668-3.325 67.768-9.976v-17.412c.001-28.292-22.935-51.229-51.229-51.229z" fill="#004960"/><g><path d="m229.989 392.428h-191.003c-5.6 0-10.14-4.54-10.14-10.14v-5.933c0-34.964 28.344-63.308 63.308-63.308h90.6c34.964 0 63.308 28.344 63.308 63.308 0 8.877-7.196 16.073-16.073 16.073z" fill="#00d16c"/><path d="m184.484 313.047h-47.03v79.381h95.468c7.257 0 13.14-5.883 13.14-13.14v-4.663c0-34.008-27.57-61.578-61.578-61.578z" fill="#00ad95"/><g><path d="m69.71 205.004v45.741c0 37.414 30.33 67.744 67.744 67.744 37.414 0 67.744-30.33 67.744-67.744v-30.3l-65.416-34.394z" fill="#ffddce"/><path d="m205.198 202.867c0-28.283-22.928-51.211-51.211-51.211h-33.067c-28.283 0-51.211 22.928-51.211 51.211v2.137l135.488 30.657v-32.794z" fill="#ff6b6b"/></g><path d="m137.454 187.193v131.296c37.414 0 67.744-30.33 67.744-67.744v-30.3l-65.416-34.394z" fill="#ffcbbc"/><path d="m153.987 151.656h-16.533v68.789l67.744 15.216v-32.794c0-28.282-22.928-51.211-51.211-51.211z" fill="#e20059"/></g><path d="m471.613 407.422h-431.03c-22.413 0-40.583-18.169-40.583-40.583v-326.063c0-22.414 18.17-40.584 40.583-40.584h431.03c22.413 0 40.583 18.17 40.583 40.583v326.065c0 22.413-18.169 40.582-40.583 40.582zm-431.03-377.23c-5.845 0-10.583 4.739-10.583 10.584v326.063c0 5.845 4.738 10.583 10.583 10.583h431.029c5.845 0 10.583-4.738 10.583-10.583v-326.063c0-5.845-4.738-10.583-10.583-10.583h-431.029z" fill="#004960"/><path d="m470.919.192h-214.875v30h214.875c6.228 0 11.277 5.049 11.277 11.277v319.954c0 8.836-7.163 15.999-15.999 15.999h-210.153v30h214.875c22.797 0 41.277-18.48 41.277-41.277v-324.675c0-22.797-18.48-41.278-41.277-41.278z" fill="#003140"/></g></svg>