<svg id="Layer_1" enable-background="new 0 0 512 512" height="512" viewBox="0 0 512 512" width="512" xmlns="http://www.w3.org/2000/svg"><g><path d="m287.345 420.143.061-181.662h-62.706l-.247 181.662h-20.22c-5.181 0-9.381 4.2-9.381 9.381v26.252c0 2.647 1.118 5.17 3.078 6.948l51.643 46.843c3.585 3.252 9.057 3.242 12.63-.023l51.247-46.823c1.945-1.777 3.053-4.291 3.053-6.926v-26.272c0-5.181-4.2-9.381-9.381-9.381h-19.777z" fill="#ff6b6b"/><path d="m262.203 509.554 51.247-46.823c1.945-1.777 3.053-4.291 3.053-6.926v-26.272c0-5.181-4.2-9.381-9.381-9.381h-19.778l.061-181.662h-31.853v273.504c2.375.082 4.775-.726 6.651-2.44z" fill="#e20059"/><path d="m167.023 211.199v41.307c0 19.662-15.939 35.602-35.602 35.602h-47.11v-17.83c0-5.208-4.222-9.429-9.429-9.429h-23.034c-2.66 0-5.197 1.124-6.984 3.094l-42.419 46.766c-3.269 3.604-3.259 9.103.023 12.695l42.398 46.405c1.786 1.955 4.313 3.069 6.961 3.069h23.055c5.208 0 9.429-4.222 9.429-9.429v-17.423h40.002c55.673 0 101.389-45.132 101.389-100.805z" fill="#00d16c"/><path d="m460.152 258.862h-23.035c-5.208 0-9.429 4.222-9.429 9.429v17.83h-47.11c-19.662 0-35.602-15.939-35.602-35.602v-49.138l-58.68 41.852c0 55.673 45.716 100.805 101.389 100.805h40.002v17.423c0 5.208 4.222 9.429 9.429 9.429h23.056c2.648 0 5.175-1.114 6.961-3.069l42.398-46.405c3.282-3.592 3.292-9.091.023-12.695l-42.419-46.766c-1.786-1.969-4.323-3.093-6.983-3.093z" fill="#004960"/><path d="m369.311 166.218c-3.004-1.513-4.786-4.742-4.368-8.08.563-4.501.854-9.087.854-13.741 0-6.896-.64-13.641-1.858-20.184-.625-3.357.861-6.753 3.808-8.478l20.949-12.257c3.831-2.241 5.119-7.164 2.878-10.994l-23.797-40.673c-2.241-3.831-7.164-5.119-10.994-2.878l-20.871 12.211c-2.915 1.706-6.611 1.447-9.193-.73-9.9-8.345-21.296-14.971-33.729-19.419-3.21-1.148-5.391-4.14-5.391-7.549v-25.41c-.001-4.438-3.599-8.036-8.037-8.036h-47.123c-4.438 0-8.036 3.598-8.036 8.036v25.374c0 3.43-2.192 6.441-5.421 7.597-14.583 5.222-27.74 13.438-38.727 23.912-2.469 2.354-6.124 2.957-9.171 1.422l-21.455-10.81c-3.964-1.997-8.796-.403-10.793 3.561l-21.204 42.083c-1.997 3.964-.403 8.796 3.561 10.793l21.473 10.819c3.001 1.512 4.78 4.736 4.369 8.071-.547 4.437-.83 8.955-.83 13.54 0 6.954.651 13.756 1.89 20.35.633 3.373-.857 6.788-3.82 8.521l-20.59 12.047c-3.831 2.241-5.119 7.164-2.878 10.994l23.797 40.673c2.241 3.831 7.164 5.119 10.994 2.878l20.659-12.087c2.904-1.699 6.586-1.444 9.162.72 9.874 8.296 21.23 14.884 33.614 19.312 3.197 1.143 5.369 4.122 5.369 7.518v22.776c0 4.438 3.598 8.036 8.036 8.036h47.123c4.438 0 8.036-3.598 8.036-8.036v-22.715c0-3.431 2.193-6.442 5.423-7.598 14.523-5.2 27.632-13.37 38.593-23.782 2.465-2.342 6.108-2.94 9.145-1.41l21.615 10.891c3.964 1.997 8.796.403 10.793-3.561l21.204-42.083c1.997-3.964.403-8.796-3.561-10.793zm-113.311 10.632c-17.923 0-32.453-14.529-32.453-32.453 0-17.923 14.529-32.453 32.453-32.453 17.923 0 32.453 14.53 32.453 32.453 0 17.924-14.53 32.453-32.453 32.453z" fill="#eceae7"/><path d="m390.808 177.05-21.497-10.831c-3.004-1.513-4.786-4.742-4.368-8.08.563-4.501.854-9.087.854-13.741 0-6.896-.64-13.641-1.858-20.184-.625-3.357.861-6.753 3.808-8.478l20.949-12.257c3.831-2.241 5.119-7.164 2.878-10.994l-23.797-40.673c-2.241-3.831-7.164-5.119-10.994-2.878l-20.871 12.211c-2.915 1.706-6.611 1.447-9.193-.73-9.9-8.345-21.296-14.971-33.729-19.419-3.21-1.149-5.391-4.14-5.391-7.549v-25.411c-.001-4.438-3.599-8.036-8.037-8.036h-23.729v111.949c.056 0 .112-.004.168-.004 17.923 0 32.453 14.529 32.453 32.453s-14.531 32.452-32.454 32.452c-.056 0-.112-.004-.168-.004v109.291h23.729c4.438 0 8.036-3.598 8.036-8.036v-22.715c0-3.431 2.193-6.442 5.423-7.598 14.523-5.2 27.632-13.37 38.593-23.782 2.465-2.342 6.108-2.939 9.145-1.409l21.615 10.891c3.964 1.997 8.796.403 10.793-3.561l21.204-42.083c1.996-3.965.401-8.797-3.562-10.794z" fill="#e7dfdd"/></g></svg>