<svg id="Layer_1" enable-background="new 0 0 512 512" height="512" viewBox="0 0 512 512" width="512" xmlns="http://www.w3.org/2000/svg"><g><circle cx="395.592" cy="225.875" fill="#00d16c" r="15"/><circle cx="407.994" cy="54.257" fill="#ff6b6b" r="15"/><path d="m466.776 98.312c-24.937 0-45.224 20.287-45.224 45.224s20.288 45.225 45.224 45.225 45.224-20.288 45.224-45.225-20.288-45.224-45.224-45.224z" fill="#5ecbf1"/><g><path d="m285.695 128.129c-11.127 0-22.253-4.235-30.724-12.706-5.858-5.857-5.858-15.354 0-21.213 5.858-5.857 15.355-5.859 21.213 0 5.244 5.245 13.779 5.245 19.023 0 5.245-5.245 5.245-13.778 0-19.023l-5.253-5.253c-15.954-15.955-15.954-41.912-.001-57.864 15.952-15.953 41.909-15.953 57.862 0 5.858 5.857 5.858 15.354 0 21.213-5.857 5.857-15.355 5.859-21.213 0-4.256-4.256-11.18-4.256-15.436 0s-4.256 11.181 0 15.437l5.253 5.253c16.942 16.942 16.942 44.509.001 61.45-8.47 8.471-19.598 12.706-30.725 12.706z" fill="#ace233"/></g><g><path d="m332.488 193.341c-3.839 0-7.678-1.465-10.606-4.394-5.858-5.857-5.858-15.355 0-21.213l37.172-37.172c5.857-5.857 15.355-5.857 21.213 0s5.858 15.355 0 21.213l-37.172 37.172c-2.929 2.929-6.768 4.394-10.607 4.394z" fill="#00ad95"/></g><g><path d="m496.958 299.142h-59.88c-8.284 0-15-6.716-15-15s6.716-15 15-15h59.88c8.284 0 15 6.716 15 15s-6.716 15-15 15z" fill="#004960"/></g><g><path d="m67.471 459.445c-3.839 0-7.678-1.465-10.606-4.394-5.858-5.857-5.858-15.355 0-21.213l38.394-38.394c5.857-5.857 15.355-5.857 21.213 0s5.858 15.355 0 21.213l-38.394 38.394c-2.929 2.929-6.768 4.394-10.607 4.394z" fill="#eceae7"/></g><path d="m73.976 437.94c-8.185-8.185-19.067-12.693-30.642-12.693s-22.457 4.508-30.641 12.692c-8.185 8.185-12.693 19.067-12.693 30.643 0 11.575 4.508 22.457 12.693 30.642 8.448 8.448 19.545 12.671 30.642 12.671s22.193-4.224 30.641-12.671c8.185-8.185 12.693-19.067 12.693-30.642-.001-11.576-4.509-22.458-12.693-30.642z" fill="#e20059"/><path d="m332.491 193.341c3.839 0 7.678-1.465 10.606-4.394l37.172-37.172c5.823-5.823 5.852-15.239.098-21.104l-58.374 58.374c2.916 2.859 6.705 4.296 10.498 4.296z" fill="#00846e"/><path d="m56.865 455.052c2.929 2.929 6.768 4.394 10.606 4.394s7.678-1.465 10.606-4.394l38.394-38.394c5.858-5.857 5.858-15.355 0-21.213-.149-.149-.309-.277-.462-.418l-59.562 59.562c.141.153.269.314.418.463z" fill="#e7dfdd"/><path d="m12.693 499.223c8.448 8.448 19.545 12.671 30.642 12.671s22.193-4.224 30.641-12.671c8.185-8.185 12.693-19.067 12.693-30.642 0-11.576-4.508-22.458-12.692-30.642-.147-.147-.302-.284-.451-.429l-61.262 61.262c.144.15.281.304.429.451z" fill="#b10f61"/><path d="m88.052 386.658 39.017 39.017c3.36 3.36 8.433 4.327 12.793 2.438l73.48-31.83-17.725-84.89-78.307-11.142-31.706 73.639c-1.876 4.355-.906 9.415 2.448 12.768z" fill="#ff9d21"/><path d="m161.122 198.494 44.204 98.894 109.586 54.896 67.321-29.162-192.072-192.073z" fill="#ff9d21"/><path d="m382.233 323.122-97.16-97.159-74.203 74.203 104.042 52.118z" fill="#ff6b6b"/><path d="m127.068 425.675c3.36 3.36 8.432 4.327 12.793 2.438l73.481-31.83-17.03-81.559-90.098 90.098z" fill="#ff6b6b"/><path d="m117.309 300.25 96.033 96.033 101.57-43.999-153.79-153.79z" fill="#ffe705"/><path d="m213.342 396.283 101.57-43.999-78.08-78.08-72.784 72.785z" fill="#ffcb00"/><path d="m409.469 328.087-222.778-222.779c-5.858-5.858-15.356-5.858-21.213 0-5.858 5.857-5.858 15.355 0 21.213l30.139 30.139 159.708 159.709 32.931 32.932c2.929 2.93 6.767 4.394 10.606 4.394 3.838 0 7.678-1.465 10.606-4.394 5.859-5.859 5.859-15.357.001-21.214z" fill="#e20059"/><path d="m388.256 349.3c2.929 2.93 6.767 4.394 10.606 4.394 3.838 0 7.678-1.465 10.606-4.394 5.858-5.857 5.858-15.355 0-21.213l-113.26-113.26-21.213 21.213 80.328 80.329z" fill="#b10f61"/></g></svg>