<svg id="Layer_1" enable-background="new 0 0 512 512" height="512" viewBox="0 0 512 512" width="512" xmlns="http://www.w3.org/2000/svg"><g><path d="m286.204 2.001h-60.408c-7.544 0-13.659 6.716-13.659 15v62.266c0 8.284 6.116 15 13.659 15h60.408c7.544 0 13.659-6.716 13.659-15v-62.266c0-8.284-6.115-15-13.659-15z" fill="#006180"/><path d="m286.204 2.001h-30.204v92.266h30.204c7.544 0 13.659-6.716 13.659-15v-62.266c0-8.284-6.115-15-13.659-15z" fill="#004960"/><circle cx="256" cy="285.855" fill="#fff5f5" r="211.145"/><path d="m256 74.71v422.29c116.612 0 211.145-94.533 211.145-211.146 0-116.611-94.533-211.144-211.145-211.144z" fill="#eceae7"/><g><path d="m332.709 30h-153.418c-8.284 0-15-6.716-15-15s6.716-15 15-15h153.418c8.284 0 15 6.716 15 15s-6.715 15-15 15z" fill="#004960"/></g><g><path d="m117.442 141.512c-4.029 0-8.047-1.613-11.003-4.802l-39.067-42.137c-5.632-6.074-5.274-15.565.801-21.198 6.074-5.63 15.565-5.274 21.198.802l39.068 42.137c5.632 6.074 5.274 15.565-.801 21.198-2.888 2.676-6.546 4-10.196 4z" fill="#003140"/></g><g><path d="m281.821 301.167h-26.098c-8.284 0-15-6.716-15-15v-63.183c0-8.284 6.716-15 15-15s15 6.716 15 15v48.183h11.098c8.284 0 15 6.716 15 15s-6.716 15-15 15z" fill="#e20059"/></g><g><path d="m256 183.057c-8.284 0-15-6.716-15-15v-33.841c0-8.284 6.716-15 15-15s15 6.716 15 15v33.841c0 8.284-6.716 15-15 15z" fill="#006180"/></g><g><path d="m138.083 300.855h-33.722c-8.284 0-15-6.716-15-15s6.716-15 15-15h33.722c8.284 0 15 6.716 15 15s-6.716 15-15 15z" fill="#006180"/></g><g><path d="m256 452.494c-8.284 0-15-6.716-15-15v-31.243c0-8.284 6.716-15 15-15s15 6.716 15 15v31.243c0 8.284-6.716 15-15 15z" fill="#006180"/></g><g><path d="m407.639 300.855h-35.382c-8.284 0-15-6.716-15-15s6.716-15 15-15h35.382c8.284 0 15 6.716 15 15s-6.716 15-15 15z" fill="#004960"/></g><path d="m446.588 74.717c-14.124-12.677-35.85-11.503-48.526 2.621l-23.459 26.133 49.731 47.665 24.876-27.894c12.675-14.123 11.502-35.849-2.622-48.525z" fill="#e20059"/><path d="m256 512c-60.406 0-117.196-23.523-159.909-66.236s-66.237-99.503-66.237-159.908c0-60.406 23.523-117.196 66.237-159.909 42.713-42.714 99.503-66.237 159.909-66.237s117.196 23.523 159.909 66.236 66.237 99.503 66.237 159.909c0 60.405-23.523 117.195-66.237 159.908-42.713 42.714-99.503 66.237-159.909 66.237zm0-422.29c-108.155 0-196.146 87.99-196.146 196.146 0 108.154 87.991 196.144 196.146 196.144s196.146-87.99 196.146-196.145-87.991-196.145-196.146-196.145z" fill="#004960"/><g><path d="m57.843 119.521c-3.888 0-7.772-1.502-10.71-4.497-5.801-5.914-5.708-15.411.206-21.212l41.036-40.246c5.915-5.801 15.412-5.708 21.212.206 5.801 5.914 5.708 15.411-.206 21.212l-41.036 40.246c-2.919 2.863-6.713 4.291-10.502 4.291z" fill="#004960"/></g><g><path d="m114.141 354.544c-6.056 0-11.759-3.693-14.031-9.692-7.132-18.838-10.749-38.687-10.749-58.996 0-20.38 3.641-40.293 10.821-59.188 2.943-7.743 11.606-11.639 19.35-8.692 7.744 2.942 11.636 11.606 8.693 19.351-5.882 15.478-8.864 31.805-8.864 48.529 0 16.667 2.962 32.941 8.806 48.373 2.933 7.747-.969 16.406-8.717 19.34-1.748.661-3.544.975-5.309.975z" fill="#006180"/></g><g><path d="m256 452.494c-22.317 0-43.989-4.344-64.413-12.909-7.639-3.204-11.235-11.995-8.031-19.635 3.204-7.639 11.994-11.236 19.634-8.031 16.73 7.018 34.498 10.575 52.81 10.575 19.176 0 37.715-3.89 55.102-11.562 7.577-3.341 16.434.088 19.779 7.668 3.344 7.58-.089 16.435-7.668 19.779-21.227 9.366-43.84 14.115-67.213 14.115z" fill="#006180"/></g><g><path d="m397.4 355.738c-1.807 0-3.642-.328-5.427-1.021-7.723-2.999-11.551-11.69-8.552-19.413 6.116-15.749 9.218-32.386 9.218-49.448 0-16.427-2.88-32.482-8.56-47.721-2.894-7.763 1.054-16.401 8.816-19.295s16.401 1.054 19.294 8.816c6.934 18.603 10.45 38.184 10.45 58.199 0 20.792-3.786 41.083-11.253 60.31-2.305 5.938-7.978 9.573-13.986 9.573z" fill="#004960"/></g><g><path d="m311.56 159.724c-1.83 0-3.689-.337-5.495-1.048-15.931-6.277-32.776-9.46-50.065-9.46-16.77 0-33.138 2.998-48.65 8.911-7.743 2.948-16.409-.934-19.359-8.674-2.951-7.741.933-16.408 8.673-19.359 18.937-7.218 38.9-10.878 59.335-10.878 21.07 0 41.614 3.886 61.062 11.548 7.708 3.037 11.494 11.747 8.458 19.455-2.325 5.901-7.978 9.505-13.959 9.505z" fill="#006180"/></g><path d="m332.709 0h-76.709v30h76.709c8.284 0 15-6.716 15-15s-6.715-15-15-15z" fill="#003140"/><path d="m452.146 285.855c0 108.155-87.991 196.145-196.146 196.145v30c60.406 0 117.196-23.523 159.909-66.236s66.237-99.503 66.237-159.908c0-60.406-23.523-117.196-66.237-159.909-42.713-42.714-99.503-66.237-159.909-66.237v30c108.155 0 196.146 87.99 196.146 196.145z" fill="#003140"/><path d="m271 168.057v-33.841c0-8.284-6.716-15-15-15v63.841c8.284 0 15-6.716 15-15z" fill="#004960"/><path d="m281.821 271.153h-11.098v-48.183c0-8.191-6.568-14.837-14.724-14.986v93.169h25.821c8.284 0 15-6.716 15-15s-6.715-15-14.999-15z" fill="#b10f61"/><g fill="#004960"><path d="m271 437.494v-31.243c0-8.284-6.716-15-15-15v61.243c8.284 0 15-6.716 15-15z"/><path d="m306.065 158.676c1.805.711 3.665 1.048 5.495 1.048 5.981 0 11.634-3.604 13.96-9.505 3.037-7.708-.75-16.418-8.458-19.455-19.448-7.662-39.993-11.548-61.062-11.548v30c17.29 0 34.134 3.182 50.065 9.46z"/><path d="m323.212 438.38c7.58-3.345 11.013-12.199 7.668-19.779s-12.202-11.009-19.779-7.668c-17.387 7.672-35.926 11.562-55.102 11.562v30c23.374-.001 45.987-4.75 67.213-14.115z"/></g></g></svg>