<svg id="Layer_1" enable-background="new 0 0 512.339 512.339" height="512" viewBox="0 0 512.339 512.339" width="512" xmlns="http://www.w3.org/2000/svg"><g><circle cx="236.659" cy="223.419" fill="#45f6ff" r="206.797"/><path d="m443.455 223.419c0-114.211-92.586-206.796-206.797-206.796v413.593c114.211 0 206.797-92.587 206.797-206.797z" fill="#5ecbf1"/><path d="m437.491 123.561c-20.539-46.049-57.428-82.487-103.872-102.603-31.919-13.825-64.741-20.748-96.907-20.934-.417-.026-.836-.028-1.256-.019-.067.001-.133-.003-.2-.001-.082.003-.164.003-.246.008-43.22.07-85.201 12.347-122.133 36.599-63.209 41.507-100.994 111.315-101.155 186.816 0 .05-.008.099-.008.15 0 .027.004.052.004.079 0 .085-.004.17-.004.256 0 115.817 91.698 213.859 208.76 223.201.411.034.818.049 1.223.049 7.824 0 14.46-6.019 15.092-13.953.146-1.834-.057-3.611-.526-5.285 1.631-5.81-.308-12.281-5.401-16.159-31.486-23.973-83.266-77.575-88.225-173.03h77.937l-.019 91.563c-.002 8.371 6.783 15.159 15.155 15.161h.003c8.369 0 15.156-6.784 15.158-15.155l.019-91.569h83.497c.901 13.319 1.264 26.098 1.264 37.947 0 8.371 6.786 15.158 15.158 15.158s15.158-6.786 15.158-15.158c0-12.993-.388-25.648-1.158-37.947h63.897c-1.143 15.006-4.022 29.833-8.664 44.321l-.204.692c-.049.183-5.034 18.46-15.515 39.885-3.679 7.52-.565 16.598 6.954 20.277 7.521 3.676 16.597.563 20.276-6.955 11.095-22.679 16.618-41.923 17.459-44.965 17.343-54.404 13.361-112.64-11.521-168.429zm-307.975-61.61c16.306-10.707 33.78-18.693 51.973-23.964-3.856 3.958-7.774 8.26-11.689 12.951-24.784 29.691-54.031 80.568-57.517 157.481h-69.616c4.722-59.412 36.42-113.354 86.849-146.468zm53.575 347.592c-76.952-22.585-134.142-90.58-140.47-170.809h69.666c3.808 82.012 38.544 137.017 70.804 170.809zm-40.464-201.124c2.618-54.085 19.226-100.082 49.485-136.895 9.983-12.146 20.039-21.418 28.504-28.171l-.035 165.065h-77.954zm108.27 0 .035-167.221c9.632 7.213 20.993 17.79 31.836 32.341 28.763 38.599 42.568 88.253 48.648 134.88zm96.424-71.104c-10.073-32.659-24.202-60.991-41.995-84.207-4.09-5.336-8.194-10.152-12.244-14.515 9.546 2.721 19.06 6.099 28.489 10.183 39.46 17.09 70.796 48.035 88.234 87.133 10.673 23.93 16.964 48.313 18.854 72.509h-66.626c-3.096-25.551-7.998-49.331-14.712-71.103z" fill="#006180"/><g fill="#003140"><path d="m333.619 20.935c-31.919-13.825-64.741-20.748-96.907-20.934-.018-.001-.036 0-.053-.001v345.387c7.927-.49 14.211-7.056 14.213-15.107l.019-91.569h83.497c.901 13.319 2.331 57.89-4.776 94.041-1.615 8.214 7.532 15.186 15.904 15.186 8.371 0 12.244-4.788 12.473-13.156 0 0 10.84-22.566 6.821-96.071h63.897c-1.143 15.006-4.022 29.833-8.664 44.321l-.204.692c-.049.183-5.034 18.46-15.515 39.885-3.679 7.52-.565 16.598 6.954 20.277 7.521 3.676 16.597.563 20.276-6.955 11.095-22.679 16.618-41.923 17.459-44.965 17.343-54.404 13.362-112.64-11.521-168.429-20.54-46.049-57.43-82.487-103.873-102.602zm-82.722 187.46.035-167.221c9.632 7.213 20.993 17.79 31.836 32.341 28.763 38.599 42.568 88.253 48.649 134.88zm111.134 0c-3.094-25.551-7.996-49.332-14.711-71.104-10.073-32.659-24.202-60.991-41.995-84.207-4.09-5.336-8.194-10.152-12.244-14.515 9.546 2.721 19.06 6.099 28.489 10.183 39.46 17.09 70.796 48.035 88.234 87.133 10.673 23.93 16.964 48.313 18.854 72.509h-66.627z"/><path d="m236.659 421.591v4.415c.215-1.47.213-2.957 0-4.415z"/><path d="m236.659 429.813v4.395c.05-.339.103-.676.131-1.022.092-1.152.032-2.277-.131-3.373z"/></g><g><path d="m398.454 345.546c-8.371 0-15.158-6.786-15.158-15.158v-38.467h-64.319v38.321c0 8.371-6.786 15.158-15.158 15.158s-15.158-6.786-15.158-15.158v-53.479c0-8.371 6.786-15.158 15.158-15.158h94.634c8.371 0 15.158 6.786 15.158 15.158v53.625c0 8.372-6.786 15.158-15.157 15.158z" fill="#ffe705"/></g><path d="m353.663 371.351c-115.149 0-140.206-21.516-145.547-42.906-.897 1.848-1.414 3.915-1.414 6.107v163.761c0 7.747 6.28 14.027 14.027 14.027h265.87c7.747 0 14.027-6.28 14.027-14.027v-163.761c0-2.192-.517-4.259-1.414-6.107-5.343 21.389-30.4 42.906-145.549 42.906z" fill="#9d5e4a"/><g><path d="m287.478 439.943c-8.371 0-15.158-6.786-15.158-15.158v-30.933c0-8.371 6.786-15.158 15.158-15.158s15.158 6.786 15.158 15.158v30.933c-.001 8.371-6.787 15.158-15.158 15.158z" fill="#ffe705"/></g><path d="m398.454 261.606h-44.791v30.315h29.633v38.467c0 8.371 6.786 15.157 15.158 15.157s15.158-6.786 15.158-15.157v-53.625c-.001-8.37-6.787-15.157-15.158-15.157z" fill="#ffcb00"/><path d="m486.598 512.339c7.747 0 14.027-6.28 14.027-14.027v-163.76c0-2.192-.517-4.259-1.414-6.107-5.341 21.39-30.398 42.906-145.547 42.906v140.988z" fill="#854737"/><g><path d="m422.599 439.943c-7.959 0-14.411-6.452-14.411-14.411v-30.031c0-7.959 6.452-14.411 14.411-14.411s14.411 6.452 14.411 14.411v30.031c0 7.959-6.452 14.411-14.411 14.411z" fill="#ffcb00"/></g><path d="m353.663 407.181c115.149 0 140.206-57.346 145.547-78.736-2.272-4.683-7.058-7.92-12.612-7.92h-265.87c-5.555 0-10.34 3.237-12.612 7.92 5.341 21.389 30.398 78.736 145.547 78.736z" fill="#854737"/><path d="m486.598 320.525h-132.935v86.656c115.149 0 140.206-57.346 145.547-78.736-2.272-4.683-7.058-7.92-12.612-7.92z" fill="#734536"/></g></svg>