<svg id="Layer_1" enable-background="new 0 0 512 512" height="512" viewBox="0 0 512 512" width="512" xmlns="http://www.w3.org/2000/svg"><g><path d="m250.759 1.052-169.31 81.643c-3.665 1.767-5.994 5.476-5.994 9.545v31.216c0 5.852 4.744 10.596 10.596 10.596h68.854c3.921 0 7.1 3.179 7.1 7.1v123.889c0 5.852 4.744 10.596 10.596 10.596h165.486c5.852 0 10.596-4.744 10.596-10.596v-123.889c0-3.921 3.179-7.1 7.1-7.1h70.164c5.852 0 10.596-4.744 10.596-10.596v-31.195c0-4.079-2.342-7.796-6.021-9.558l-170.585-81.664c-2.903-1.39-6.279-1.385-9.178.013z" fill="#00d16c"/><path d="m430.524 82.668-170.587-81.664c-1.251-.599-2.591-.923-3.942-1.004v275.603h82.092c5.852 0 10.596-4.744 10.596-10.596v-123.89c0-3.921 3.179-7.1 7.1-7.1h70.164c5.852 0 10.596-4.744 10.596-10.596v-31.195c.002-4.08-2.34-7.797-6.019-9.558z" fill="#00ad95"/><g><circle cx="256" cy="347.753" fill="#ffe705" r="164.247"/><path d="m420.247 347.753c0-90.711-73.536-164.247-164.247-164.247v328.494c90.711 0 164.247-73.536 164.247-164.247z" fill="#ffcb00"/><path d="m298.795 348.158c0-9.176-7.439-16.614-16.614-16.614h-38.399c6.442-14.831 21.225-25.233 38.399-25.233 9.176 0 16.614-7.439 16.614-16.614 0-9.176-7.439-16.614-16.614-16.614-35.687 0-65.615 25.036-73.199 58.461h-5.946c-9.176 0-16.614 7.438-16.614 16.614s7.438 16.614 16.614 16.614h5.946c7.584 33.425 37.513 58.46 73.199 58.46 9.176 0 16.614-7.438 16.614-16.614s-7.439-16.614-16.614-16.614c-17.173 0-31.957-10.401-38.399-25.232h38.399c9.176 0 16.614-7.439 16.614-16.614z" fill="#ff9d21"/><path d="m256 183.506c-5.608 0-11.15.283-16.614.832v24.724c0 9.176 7.438 16.614 16.614 16.614s16.614-7.438 16.614-16.614v-24.724c-5.464-.549-11.006-.832-16.614-.832z" fill="#ffcb00"/><path d="m256 512c5.608 0 11.15-.283 16.614-.832v-24.724c0-9.176-7.438-16.614-16.614-16.614s-16.614 7.438-16.614 16.614v24.724c5.464.549 11.006.832 16.614.832z" fill="#ffcb00"/><g><path d="m91.753 347.753c0 5.608.283 11.15.832 16.614h24.724c9.176 0 16.614-7.439 16.614-16.614 0-9.176-7.438-16.614-16.614-16.614h-24.724c-.549 5.464-.832 11.006-.832 16.614z" fill="#ffcb00"/><path d="m420.247 347.753c0-5.608-.283-11.15-.832-16.614h-24.724c-9.176 0-16.614 7.438-16.614 16.614s7.439 16.614 16.614 16.614h24.724c.549-5.464.832-11.006.832-16.614z" fill="#ff9d21"/></g><g fill="#ff6b6b"><path d="m298.795 406.618c0-9.176-7.439-16.614-16.614-16.614-9.908 0-19.007-3.476-26.181-9.253v37.756c8.156 3.047 16.974 4.725 26.181 4.725 9.176 0 16.614-7.438 16.614-16.614z"/><path d="m298.795 348.158c0-9.176-7.439-16.614-16.614-16.614h-26.181v33.228h26.181c9.176 0 16.614-7.439 16.614-16.614z"/><path d="m282.181 273.083c-9.207 0-18.026 1.678-26.181 4.725v37.757c7.174-5.777 16.274-9.254 26.181-9.254 9.175 0 16.614-7.439 16.614-16.614 0-9.176-7.438-16.614-16.614-16.614z"/></g><g fill="#ff9d21"><path d="m256 183.506v42.17c9.176 0 16.614-7.439 16.614-16.614v-24.724c-5.463-.548-11.006-.832-16.614-.832z"/><path d="m256 469.83v42.17c5.608 0 11.15-.283 16.614-.832v-24.724c0-9.175-7.438-16.614-16.614-16.614z"/></g></g></g></svg>