<?xml version="1.0" encoding="utf-8"?>
<!-- Generator: Adobe Illustrator 23.0.1, SVG Export Plug-In . SVG Version: 6.00 Build 0)  -->
<svg version="1.1" id="Слой_1" xmlns="http://www.w3.org/2000/svg" xmlns:xlink="http://www.w3.org/1999/xlink" x="0px" y="0px"
	 viewBox="0 0 500 500" style="enable-background:new 0 0 500 500;" xml:space="preserve">
<style type="text/css">
	.st0{fill:#ECECEC;}
	.st1{fill:#1A2E35;}
	.st2{fill:#FFC800;}
	.st3{opacity:0.1;}
	.st4{fill:#2B454E;}
	.st5{opacity:0.2;}
	.st6{fill:#FFFFFF;}
	.st7{opacity:0.4;fill:#FFFFFF;}
	.st8{fill:#DCDCDC;}
	.st9{fill:#375A64;}
	.st10{fill:none;}
</style>
<g>
	<g>
		<path class="st0" d="M91.64,282.14l-14.83,0.28l-7.51,0.11c-2.51,0.05-5.03,0.04-7.55,0.05l-0.44,0l0-0.45l-0.05-12.63l0-0.5
			l0.5,0l14.95,0.06c4.98,0.01,9.97,0.11,14.95,0.16l0.28,0l0,0.27c-0.02,2.14-0.09,4.27-0.13,6.38L91.64,282.14z M91.64,282.14
			l-0.14-6.38c-0.05-2.1-0.11-4.19-0.13-6.26l0.27,0.27c-4.98,0.05-9.97,0.16-14.95,0.16l-14.95,0.06l0.5-0.5l-0.05,12.63
			l-0.45-0.45c2.47,0.02,4.93,0.01,7.4,0.05l7.43,0.11L91.64,282.14z"/>
	</g>
	<g>
		<path class="st0" d="M74.96,298.07l-14.83,0.28l-7.52,0.11c-2.51,0.05-5.03,0.04-7.55,0.05l-0.44,0l0-0.45l-0.05-12.63l0-0.5
			l0.5,0L60.01,285c4.98,0.01,9.97,0.11,14.95,0.16l0.28,0l0,0.27c-0.02,2.14-0.09,4.27-0.13,6.38L74.96,298.07z M74.96,298.07
			l-0.14-6.38c-0.05-2.1-0.11-4.19-0.13-6.26l0.27,0.27c-4.98,0.05-9.97,0.16-14.95,0.16l-14.95,0.06l0.5-0.5l-0.05,12.63
			l-0.45-0.45c2.47,0.02,4.93,0.01,7.4,0.05l7.43,0.11L74.96,298.07z"/>
	</g>
	<g>
		<path class="st0" d="M74.96,24.71l-14.83,0.28l-7.52,0.11c-2.51,0.05-5.03,0.04-7.55,0.05l-0.44,0l0-0.45l-0.05-12.63l0-0.5l0.5,0
			l14.95,0.06c4.98,0,9.97,0.11,14.95,0.16l0.28,0l0,0.27c-0.02,2.14-0.09,4.27-0.13,6.38L74.96,24.71z M74.96,24.71l-0.14-6.38
			c-0.05-2.1-0.11-4.19-0.13-6.26l0.27,0.27c-4.98,0.05-9.97,0.16-14.95,0.16l-14.95,0.06l0.5-0.5l-0.05,12.63l-0.45-0.45
			c2.47,0.02,4.93,0.01,7.4,0.05l7.43,0.11L74.96,24.71z"/>
	</g>
	<g>
		<path class="st0" d="M452.94,24.71l-14.83,0.28l-7.52,0.11c-2.51,0.05-5.03,0.04-7.55,0.05l-0.44,0l0-0.45l-0.05-12.63l0-0.5
			l0.5,0l14.95,0.06c4.98,0,9.97,0.11,14.95,0.16l0.28,0l0,0.27c-0.02,2.14-0.09,4.27-0.13,6.38L452.94,24.71z M452.94,24.71
			l-0.14-6.38c-0.05-2.1-0.11-4.19-0.13-6.26l0.27,0.27c-4.98,0.05-9.97,0.16-14.95,0.16l-14.95,0.06l0.5-0.5l-0.05,12.63
			l-0.45-0.45c2.47,0.02,4.93,0.01,7.4,0.05l7.43,0.11L452.94,24.71z"/>
	</g>
	<g>
		<path class="st0" d="M436.26,40.64l-14.83,0.28l-7.51,0.11c-2.51,0.05-5.03,0.04-7.55,0.05l-0.44,0l0-0.45l-0.05-12.63l0-0.5
			l0.5,0l14.95,0.06c4.98,0,9.97,0.11,14.95,0.16l0.28,0l0,0.27c-0.02,2.14-0.09,4.27-0.13,6.38L436.26,40.64z M436.26,40.64
			l-0.14-6.38c-0.05-2.1-0.11-4.19-0.13-6.26l0.27,0.27c-4.98,0.05-9.97,0.16-14.95,0.16l-14.95,0.06l0.5-0.5l-0.05,12.63
			l-0.45-0.45c2.47,0.02,4.93,0.01,7.4,0.05l7.43,0.11L436.26,40.64z"/>
	</g>
	<g>
		<path class="st0" d="M359.69,188.44l-14.83,0.28l-7.51,0.11c-2.51,0.05-5.03,0.04-7.55,0.05l-0.44,0l0-0.45l-0.05-12.63l0-0.5
			l0.5,0l14.95,0.06c4.98,0.01,9.97,0.11,14.95,0.16l0.28,0l0,0.27c-0.02,2.14-0.09,4.27-0.13,6.38L359.69,188.44z M359.69,188.44
			l-0.14-6.38c-0.05-2.1-0.11-4.19-0.13-6.26l0.27,0.27c-4.98,0.05-9.97,0.16-14.95,0.16l-14.95,0.06l0.5-0.5l-0.05,12.63
			l-0.45-0.45c2.47,0.02,4.93,0.01,7.4,0.05l7.43,0.11L359.69,188.44z"/>
	</g>
	<g>
		<path class="st0" d="M343.01,204.37l-14.83,0.28l-7.51,0.11c-2.51,0.05-5.03,0.04-7.55,0.05l-0.44,0l0-0.45l-0.05-12.63l0-0.5
			l0.5,0l14.95,0.06c4.98,0.01,9.97,0.11,14.95,0.16l0.28,0l0,0.27c-0.02,2.14-0.09,4.27-0.13,6.38L343.01,204.37z M343.01,204.37
			l-0.14-6.38c-0.05-2.1-0.11-4.19-0.13-6.26l0.27,0.27c-4.98,0.05-9.97,0.16-14.95,0.16l-14.95,0.06l0.5-0.5l-0.05,12.63
			l-0.45-0.45c2.47,0.02,4.93,0.01,7.4,0.05l7.43,0.11L343.01,204.37z"/>
	</g>
	<g>
		<path class="st0" d="M326.4,188.44l-14.83,0.28l-7.52,0.11c-2.51,0.05-5.03,0.04-7.55,0.05l-0.44,0l0-0.45l-0.05-12.63l0-0.5
			l0.5,0l14.95,0.06c4.98,0.01,9.97,0.11,14.95,0.16l0.28,0l0,0.27c-0.02,2.14-0.09,4.27-0.13,6.38L326.4,188.44z M326.4,188.44
			l-0.14-6.38c-0.05-2.1-0.11-4.19-0.13-6.26l0.27,0.27c-4.98,0.05-9.97,0.16-14.95,0.16l-14.95,0.06l0.5-0.5l-0.05,12.63
			l-0.45-0.45c2.47,0.02,4.93,0.01,7.4,0.05l7.43,0.11L326.4,188.44z"/>
	</g>
	<g>
		<path class="st0" d="M452.94,298.07l-14.83,0.28l-7.52,0.11c-2.51,0.05-5.03,0.04-7.55,0.05l-0.44,0l0-0.45l-0.05-12.63l0-0.5
			l0.5,0l14.95,0.06c4.98,0.01,9.97,0.11,14.95,0.16l0.28,0l0,0.27c-0.02,2.14-0.09,4.27-0.13,6.38L452.94,298.07z M452.94,298.07
			l-0.14-6.38c-0.05-2.1-0.11-4.19-0.13-6.26l0.27,0.27c-4.98,0.05-9.97,0.16-14.95,0.16l-14.95,0.06l0.5-0.5l-0.05,12.63
			l-0.45-0.45c2.47,0.02,4.93,0.01,7.4,0.05l7.43,0.11L452.94,298.07z"/>
	</g>
	<g>
		<path class="st0" d="M198.93,62.28l-14.83,0.28l-7.51,0.11c-2.51,0.05-5.03,0.04-7.55,0.05l-0.44,0l0-0.45l-0.05-12.63l0-0.5
			l0.5,0l14.95,0.06c4.98,0.01,9.97,0.11,14.95,0.16l0.28,0l0,0.27c-0.02,2.14-0.09,4.27-0.13,6.38L198.93,62.28z M198.93,62.28
			l-0.14-6.38c-0.05-2.1-0.11-4.19-0.13-6.26l0.27,0.27c-4.98,0.05-9.97,0.16-14.95,0.16l-14.95,0.06l0.5-0.5l-0.05,12.63
			l-0.45-0.45c2.47,0.02,4.93,0.01,7.4,0.05l7.43,0.11L198.93,62.28z"/>
	</g>
</g>
<g>
	<path class="st0" d="M422.23,145.97l5.89-9.49l-2.91-1.8c-0.85-0.53-1.32-1.5-1.23-2.5c0.05-0.55,0.07-1.11,0.05-1.67
		c-0.02-1,0.5-1.94,1.39-2.41l3.01-1.62l-5.28-9.85l-3.01,1.62c-0.88,0.47-1.95,0.39-2.77-0.18c-0.46-0.32-0.93-0.61-1.42-0.88
		c-0.88-0.48-1.43-1.4-1.4-2.41l0.11-3.42l-11.16-0.35l-0.1,3.43c-0.03,1.01-0.65,1.88-1.56,2.31c-0.25,0.12-0.49,0.24-0.73,0.37
		c-0.24,0.13-0.48,0.27-0.71,0.41c-0.86,0.52-1.92,0.55-2.77,0.02l-2.93-1.81l-5.89,9.49l2.91,1.81c0.85,0.53,1.32,1.5,1.23,2.5
		c-0.05,0.55-0.07,1.11-0.05,1.66c0.02,1-0.5,1.93-1.39,2.41l-3.01,1.62l5.28,9.85l3.01-1.62c0.88-0.47,1.95-0.39,2.77,0.18
		c0.46,0.32,0.93,0.61,1.42,0.87c0.88,0.48,1.43,1.4,1.4,2.41l-0.11,3.43l11.16,0.35l0.11-3.43c0.03-1,0.65-1.87,1.55-2.3
		c0.25-0.12,0.49-0.24,0.74-0.37c0.24-0.13,0.48-0.27,0.71-0.41c0.86-0.52,1.93-0.55,2.79-0.02L422.23,145.97z M412.77,138.92
		c-4.45,2.39-9.99,0.72-12.38-3.74c-2.39-4.45-0.72-10,3.73-12.39c4.45-2.39,10-0.71,12.39,3.74
		C418.91,130.99,417.23,136.54,412.77,138.92z"/>
	<path class="st0" d="M100.53,253.51l5.89-9.49l-2.91-1.8c-0.85-0.53-1.32-1.5-1.23-2.5c0.05-0.55,0.07-1.11,0.05-1.67
		c-0.02-1,0.5-1.94,1.39-2.41l3.01-1.62l-5.28-9.85l-3.01,1.62c-0.88,0.47-1.95,0.39-2.77-0.18c-0.46-0.32-0.93-0.61-1.42-0.88
		c-0.88-0.48-1.43-1.4-1.4-2.41l0.11-3.42l-11.16-0.35l-0.1,3.43c-0.03,1.01-0.65,1.88-1.56,2.31c-0.25,0.12-0.49,0.24-0.73,0.37
		c-0.24,0.13-0.48,0.27-0.71,0.41c-0.86,0.52-1.92,0.55-2.77,0.02l-2.93-1.81l-5.89,9.49l2.91,1.81c0.85,0.53,1.32,1.5,1.23,2.5
		c-0.05,0.55-0.07,1.11-0.05,1.66c0.02,1-0.5,1.93-1.39,2.41l-3.01,1.62l5.28,9.85l3.01-1.62c0.88-0.47,1.95-0.39,2.77,0.18
		c0.46,0.32,0.93,0.61,1.42,0.87c0.88,0.48,1.43,1.4,1.4,2.41l-0.11,3.43l11.16,0.35l0.11-3.43c0.03-1,0.65-1.87,1.55-2.3
		c0.25-0.12,0.49-0.24,0.74-0.37c0.24-0.13,0.48-0.27,0.71-0.41c0.86-0.52,1.93-0.55,2.79-0.02L100.53,253.51z M91.08,246.46
		c-4.45,2.39-9.99,0.72-12.38-3.74c-2.39-4.45-0.72-10,3.73-12.39c4.45-2.39,10-0.71,12.39,3.74
		C97.21,238.53,95.53,244.07,91.08,246.46z"/>
	<path class="st0" d="M214.87,71.74l-3.91-6.78l-2.07,1.2c-0.61,0.35-1.36,0.32-1.95-0.07c-0.33-0.21-0.66-0.41-1.01-0.59
		c-0.63-0.32-1.03-0.95-1.03-1.65v-2.4h-7.83v2.4c0,0.7-0.4,1.33-1.03,1.65c-0.35,0.18-0.69,0.37-1.01,0.59
		c-0.59,0.38-1.34,0.42-1.95,0.07l-2.07-1.2l-3.91,6.78l2.08,1.2c0.61,0.35,0.95,1.02,0.91,1.73c-0.01,0.19-0.01,0.38-0.01,0.58
		c0,0.19,0,0.38,0.01,0.58c0.04,0.7-0.3,1.37-0.91,1.72l-2.09,1.21l3.91,6.78l2.08-1.2c0.61-0.35,1.36-0.32,1.95,0.07
		c0.32,0.21,0.66,0.41,1.01,0.58c0.63,0.32,1.03,0.95,1.03,1.65v2.4h7.83v-2.4c0-0.7,0.4-1.33,1.03-1.65
		c0.35-0.18,0.68-0.37,1.01-0.58c0.59-0.39,1.34-0.42,1.95-0.07l2.08,1.2l3.91-6.78l-2.08-1.2c-0.61-0.35-0.94-1.02-0.91-1.72
		c0.01-0.19,0.01-0.39,0.01-0.58c0-0.19,0-0.38-0.01-0.58c-0.04-0.7,0.3-1.37,0.91-1.73L214.87,71.74z M207.39,75.24
		c0,3.54-2.87,6.41-6.41,6.41c-3.54,0-6.41-2.87-6.41-6.41s2.87-6.41,6.41-6.41C204.52,68.83,207.39,71.7,207.39,75.24z"/>
</g>
<g>
	<g>
		<path class="st1" d="M87.84,268.84c-13.07,12.79-15.26,32.59-12.51,49.92c0.07,0.39,0.68,0.29,0.68-0.08
			c0-3.95-0.12-7.86-0.11-11.76c0.07-0.18,0.13-0.35,0.2-0.52c3.41-2.48,6.55-5.28,8.49-9.12c2.18-4.29,3.04-9.13,4.71-13.62
			c0.15-0.43-0.3-0.3-0.6-0.08c-7.95,5.86-10.48,12.17-12.76,20.6c0.11-4.38,0.44-8.75,1.38-13.13c1.72-8,5.12-15.93,10.86-21.87
			C88.4,268.96,88.06,268.61,87.84,268.84z"/>
		<g>
			<path class="st2" d="M90.29,270.33c2.25,0.08,3.66,3.67,5.41,4.72c0.93,0.56,1.83,0.52,2.48-0.39c1.74-2.42-0.65-5.41-2.89-7.09
				c1.6,0.66,2.93,1.82,4.66,2.14c1.05,0.19,1.86-0.2,2.1-1.26c0.76-3.3-3.38-4.77-6.23-4.84c1.38-0.96,5.33-3.56,3.23-4.84
				c-2.13-1.29-6.76,2.44-8.27,3.67c-2.22,1.8-4.87,4.5-4.97,7.32C85.68,273.05,88.56,271.02,90.29,270.33z"/>
			<path class="st3" d="M90.29,270.33c2.25,0.08,3.66,3.67,5.41,4.72c0.93,0.56,1.83,0.52,2.48-0.39c1.74-2.42-0.65-5.41-2.89-7.09
				c1.6,0.66,2.93,1.82,4.66,2.14c1.05,0.19,1.86-0.2,2.1-1.26c0.76-3.3-3.38-4.77-6.23-4.84c1.38-0.96,5.33-3.56,3.23-4.84
				c-2.13-1.29-6.76,2.44-8.27,3.67c-2.22,1.8-4.87,4.5-4.97,7.32C85.68,273.05,88.56,271.02,90.29,270.33z"/>
			<path class="st2" d="M89.64,270.89c2.87-1.31,8.4,0.57,8.87-0.51c0.95-2.21-3.46-3.73-5.84-4.03c2.19-0.59,6.4-1.54,6.27-3.66
				c-0.16-2.58-6.45-0.36-9.63,2.08c-4.01,3.07-3.98,6.04-3.32,6.64C86.89,272.22,89.17,271.1,89.64,270.89z"/>
		</g>
	</g>
	<g>
		<path class="st1" d="M58.07,267.57c13.55,12.29,16.49,31.98,14.4,49.41c-0.06,0.4-0.67,0.31-0.68-0.06
			c-0.15-3.94-0.18-7.86-0.34-11.75c-0.08-0.18-0.14-0.34-0.22-0.52c-3.5-2.35-6.74-5.03-8.83-8.79c-2.34-4.21-3.39-9.01-5.22-13.43
			c-0.17-0.42,0.29-0.31,0.6-0.11c8.17,5.56,10.94,11.76,13.54,20.1c-0.27-4.37-0.77-8.73-1.88-13.07
			c-2.02-7.93-5.72-15.72-11.69-21.44C57.52,267.71,57.84,267.36,58.07,267.57z"/>
		<g>
			<path class="st2" d="M55.68,269.16c-2.24,0.16-3.52,3.81-5.23,4.92c-0.9,0.59-1.81,0.59-2.49-0.3c-1.83-2.36,0.44-5.43,2.61-7.19
				c-1.58,0.72-2.86,1.93-4.57,2.32c-1.04,0.23-1.87-0.13-2.15-1.18c-0.89-3.27,3.2-4.9,6.04-5.08c-1.41-0.9-5.46-3.36-3.41-4.72
				c2.08-1.37,6.85,2.18,8.41,3.35c2.29,1.72,5.04,4.31,5.25,7.12C60.38,271.7,57.43,269.78,55.68,269.16z"/>
			<path class="st3" d="M55.68,269.16c-2.24,0.16-3.52,3.81-5.23,4.92c-0.9,0.59-1.81,0.59-2.49-0.3c-1.83-2.36,0.44-5.43,2.61-7.19
				c-1.58,0.72-2.86,1.93-4.57,2.32c-1.04,0.23-1.87-0.13-2.15-1.18c-0.89-3.27,3.2-4.9,6.04-5.08c-1.41-0.9-5.46-3.36-3.41-4.72
				c2.08-1.37,6.85,2.18,8.41,3.35c2.29,1.72,5.04,4.31,5.25,7.12C60.38,271.7,57.43,269.78,55.68,269.16z"/>
			<path class="st2" d="M56.35,269.69c-2.92-1.2-8.37,0.89-8.88-0.18c-1.04-2.18,3.32-3.86,5.69-4.25c-2.21-0.51-6.45-1.3-6.4-3.42
				c0.06-2.59,6.43-0.61,9.7,1.71c4.12,2.92,4.21,5.89,3.57,6.51C59.15,270.91,56.83,269.88,56.35,269.69z"/>
		</g>
	</g>
	<g>
		<path class="st1" d="M71.93,300.03c1,6.48,2.24,13.17,4.21,19.43c0.19,0.57,1.03,0.42,0.95-0.19c-0.89-5.99-2.51-11.86-3.4-17.85
			c-0.9-6.06-1.39-12.2-1.04-18.33c0.57-10.09,3.31-20.82,9.89-28.72c0.14-0.19-0.16-0.45-0.31-0.28
			c-13.18,15.37-11.08,34.21-11.07,35.9c-1.87-6.36-3.79-13.66-10.85-20.13c-0.3-0.28-0.54-0.15-0.49,0.33
			c1.26,11.8,4.54,17.96,11.38,24.27C71.39,296.33,71.63,298.19,71.93,300.03z"/>
		<g>
			<path class="st2" d="M82.65,256.14c2.37-1.05,5.64,1.97,7.99,2.17c1.24,0.11,2.16-0.38,2.38-1.65c0.58-3.39-3.39-5.29-6.56-5.9
				c1.99-0.12,3.96,0.41,5.91-0.12c1.18-0.33,1.83-1.14,1.55-2.37c-0.87-3.81-5.91-3.25-8.9-1.89c0.95-1.69,3.74-6.38,0.91-6.65
				c-2.85-0.26-5.79,5.93-6.74,7.97c-1.4,2.99-2.79,7.12-1.48,10.1C79.23,261.27,81.2,257.72,82.65,256.14z"/>
			<path class="st3" d="M82.65,256.14c2.37-1.05,5.64,1.97,7.99,2.17c1.24,0.11,2.16-0.38,2.38-1.65c0.58-3.39-3.39-5.29-6.56-5.9
				c1.99-0.12,3.96,0.41,5.91-0.12c1.18-0.33,1.83-1.14,1.55-2.37c-0.87-3.81-5.91-3.25-8.9-1.89c0.95-1.69,3.74-6.38,0.91-6.65
				c-2.85-0.26-5.79,5.93-6.74,7.97c-1.4,2.99-2.79,7.12-1.48,10.1C79.23,261.27,81.2,257.72,82.65,256.14z"/>
			<path class="st2" d="M82.25,257.04c2.32-2.8,9-3.63,8.94-5c-0.13-2.78-5.47-2.13-8.09-1.24c1.98-1.72,5.86-4.82,4.66-6.95
				c-1.46-2.6-6.87,2.87-8.95,7c-2.61,5.21-1.09,8.27-0.11,8.56C80.07,259.81,81.87,257.5,82.25,257.04z"/>
		</g>
	</g>
	<path class="st2" d="M63.25,303.58l-5.81,44.42h35.37c-0.73-3.94-7.31-44.47-7.31-44.47L63.25,303.58z"/>
</g>
<polygon class="st1" points="42.37,348.14 94.03,347.9 145.69,347.81 249,347.64 352.31,347.81 403.97,347.9 455.63,348.14 
	403.97,348.39 352.31,348.48 249,348.64 145.69,348.47 94.03,348.39 "/>
<g>
	<g>
		<path class="st1" d="M156.57,192.67l-6.21-24.43l-49.04,12.46l-6.48-25.5l39.19-89.31l19.44-4.94l18.9,74.36l15.69-3.99
			l6.53,25.68l-15.69,3.99l6.21,24.43L156.57,192.67z M122.97,147.87l24.25-6.16l-8.02-31.56L122.97,147.87z"/>
		<path class="st1" d="M297.02,111.12c0,8.1-1.23,15.55-3.68,22.35c-2.46,6.81-5.83,12.7-10.12,17.66
			c-4.29,4.97-9.35,8.83-15.18,11.59c-5.83,2.76-12.18,4.14-19.04,4.14c-6.87,0-13.25-1.38-19.13-4.14
			c-5.89-2.76-10.98-6.62-15.27-11.59c-4.29-4.97-7.64-10.86-10.03-17.66c-2.39-6.81-3.59-14.26-3.59-22.35
			c0-8.1,1.2-15.55,3.59-22.35c2.39-6.81,5.73-12.7,10.03-17.66c4.29-4.97,9.38-8.86,15.27-11.68c5.89-2.82,12.26-4.23,19.13-4.23
			c6.87,0,13.22,1.41,19.04,4.23c5.82,2.82,10.88,6.72,15.18,11.68c4.29,4.97,7.67,10.86,10.12,17.66
			C295.79,95.57,297.02,103.02,297.02,111.12z M267.4,111.12c0-8.58-1.72-15.55-5.15-20.88c-3.44-5.34-7.85-8-13.25-8
			c-5.64,0-10.15,2.67-13.52,8c-3.38,5.34-5.06,12.3-5.06,20.88c0,8.59,1.68,15.52,5.06,20.79c3.37,5.28,7.88,7.91,13.52,7.91
			c5.4,0,9.81-2.64,13.25-7.91C265.68,126.64,267.4,119.71,267.4,111.12z"/>
		<path class="st1" d="M349.84,187.96l4.03-24.88l-49.95-8.09l4.21-25.97l71.51-66.33l19.8,3.21l-12.27,75.74l15.98,2.59
			l-4.24,26.15l-15.98-2.59l-4.03,24.88L349.84,187.96z M336.86,133.49l24.7,4l5.21-32.15L336.86,133.49z"/>
	</g>
</g>
<g>
	<g>
		<rect x="234.09" y="278.85" class="st4" width="35.51" height="2.91"/>
		<rect x="234.09" y="282.63" class="st4" width="35.51" height="2.91"/>
		<rect x="234.09" y="286.42" class="st4" width="35.51" height="2.91"/>
		<rect x="234.09" y="290.21" class="st4" width="35.51" height="2.91"/>
		<rect x="234.09" y="294" class="st4" width="35.51" height="2.91"/>
	</g>
	<g>
		<rect x="217.46" y="369.59" class="st4" width="67.52" height="2.91"/>
		<rect x="217.46" y="373.38" class="st4" width="67.52" height="2.91"/>
		<rect x="217.46" y="377.17" class="st4" width="67.52" height="2.91"/>
		<rect x="217.46" y="380.96" class="st4" width="67.52" height="2.91"/>
		<rect x="217.46" y="384.75" class="st4" width="67.52" height="2.91"/>
	</g>
	<g>
		<g>
			<path class="st2" d="M187.83,254.8c0.03-0.39-14.78-5.35-14.78-5.35l0.87-50.89l19.64-4.21L187.83,254.8z"/>
			<path class="st5" d="M187.83,254.8c0.03-0.39-14.78-5.35-14.78-5.35l0.87-50.89l19.64-4.21L187.83,254.8z"/>
		</g>
		<g>
			<path class="st2" d="M323.49,274.77c0.1-0.38,15.72,0.06,15.72,0.06l16.69-48.08l-16.99-10.71L323.49,274.77z"/>
			<path class="st5" d="M323.49,274.77c0.1-0.38,15.72,0.06,15.72,0.06l16.69-48.08l-16.99-10.71L323.49,274.77z"/>
		</g>
		<path class="st2" d="M184.98,273.54c0,0,5.49-82.3,10.31-109.37c0,0,99.42,7.52,153.09,28.03c0,0-27.67,96.13-29.1,100.9
			C319.28,293.1,249.27,279.3,184.98,273.54z"/>
		<g>
			<path class="st3" d="M273.72,175.15c-1.62,9.91-3.25,19.82-4.94,29.71l-5.12,29.68l-0.28-0.42l33.31,7.91l16.64,4.03l16.62,4.11
				l-16.71-3.74l-16.69-3.82l-33.34-7.79l-0.34-0.08l0.06-0.34l5.31-29.65C270.02,194.89,271.86,185.02,273.72,175.15z"/>
			<path class="st3" d="M270.07,180.8c0.02,0.91-0.71,1.84-1.75,1.93c-0.5,0.05-1.05-0.11-1.46-0.47c-0.41-0.36-0.66-0.91-0.66-1.46
				c0-0.56,0.25-1.11,0.66-1.46c0.41-0.36,0.96-0.52,1.46-0.47C269.36,178.96,270.09,179.9,270.07,180.8z M270.07,180.8
				c0-0.46-0.21-0.91-0.55-1.2c-0.34-0.29-0.79-0.41-1.2-0.36c-0.84,0.1-1.38,0.85-1.37,1.56c-0.01,0.71,0.53,1.46,1.37,1.56
				c0.41,0.05,0.86-0.07,1.2-0.36C269.86,181.71,270.06,181.26,270.07,180.8z"/>
			<path class="st3" d="M268.32,193.05c0.02,0.91-0.71,1.84-1.75,1.93c-0.5,0.05-1.05-0.11-1.46-0.47
				c-0.41-0.36-0.66-0.91-0.66-1.46c0-0.56,0.25-1.11,0.66-1.46c0.41-0.36,0.96-0.52,1.46-0.47
				C267.62,191.21,268.34,192.14,268.32,193.05z M268.32,193.05c0-0.46-0.21-0.91-0.55-1.2c-0.34-0.29-0.79-0.41-1.2-0.36
				c-0.84,0.1-1.38,0.85-1.37,1.56c-0.01,0.71,0.53,1.46,1.37,1.56c0.41,0.05,0.86-0.07,1.2-0.36
				C268.11,193.96,268.32,193.51,268.32,193.05z"/>
			<path class="st3" d="M266.17,205.99c0.02,0.91-0.71,1.84-1.75,1.93c-0.5,0.05-1.05-0.11-1.46-0.47
				c-0.41-0.36-0.66-0.91-0.66-1.46c0-0.55,0.25-1.11,0.66-1.46c0.41-0.36,0.96-0.52,1.46-0.47
				C265.47,204.14,266.19,205.08,266.17,205.99z M266.17,205.99c0-0.46-0.21-0.91-0.55-1.2c-0.34-0.29-0.79-0.41-1.2-0.36
				c-0.84,0.1-1.38,0.85-1.37,1.56c-0.01,0.71,0.53,1.46,1.37,1.56c0.41,0.05,0.86-0.07,1.2-0.36
				C265.96,206.9,266.17,206.45,266.17,205.99z"/>
			<path class="st3" d="M264.02,218.93c0.02,0.91-0.71,1.84-1.75,1.93c-0.5,0.05-1.05-0.11-1.46-0.47
				c-0.41-0.36-0.66-0.91-0.66-1.46c0-0.56,0.25-1.11,0.66-1.46c0.41-0.36,0.96-0.52,1.46-0.47
				C263.32,217.08,264.04,218.02,264.02,218.93z M264.02,218.93c0-0.46-0.21-0.91-0.55-1.2c-0.34-0.29-0.79-0.41-1.2-0.36
				c-0.84,0.1-1.38,0.85-1.37,1.56c-0.01,0.71,0.53,1.46,1.37,1.56c0.41,0.05,0.86-0.07,1.2-0.36
				C263.81,219.83,264.02,219.38,264.02,218.93z"/>
			<path class="st3" d="M271.35,239.56c0.02,0.91-0.71,1.84-1.75,1.93c-0.5,0.05-1.05-0.11-1.46-0.47
				c-0.41-0.36-0.66-0.91-0.66-1.46c0-0.56,0.25-1.11,0.66-1.46c0.41-0.36,0.96-0.52,1.46-0.47
				C270.64,237.72,271.37,238.65,271.35,239.56z M271.35,239.56c0-0.46-0.21-0.91-0.55-1.2c-0.34-0.29-0.79-0.41-1.2-0.36
				c-0.84,0.1-1.38,0.85-1.37,1.56c-0.01,0.71,0.53,1.46,1.37,1.56c0.41,0.05,0.86-0.07,1.2-0.36
				C271.14,240.47,271.34,240.02,271.35,239.56z"/>
			<path class="st3" d="M283.56,242.54c0.02,0.91-0.71,1.84-1.75,1.93c-0.5,0.05-1.05-0.11-1.46-0.47
				c-0.41-0.36-0.66-0.91-0.66-1.46c0-0.56,0.25-1.11,0.66-1.46c0.41-0.36,0.96-0.52,1.46-0.47
				C282.86,240.7,283.58,241.63,283.56,242.54z M283.56,242.54c0-0.46-0.21-0.91-0.55-1.2c-0.34-0.29-0.79-0.41-1.2-0.36
				c-0.84,0.1-1.38,0.85-1.37,1.56c-0.01,0.71,0.53,1.46,1.37,1.56c0.41,0.05,0.86-0.07,1.2-0.36
				C283.35,243.45,283.56,243,283.56,242.54z"/>
			<path class="st3" d="M295.77,245.52c0.02,0.91-0.71,1.84-1.75,1.93c-0.5,0.05-1.05-0.11-1.46-0.47
				c-0.41-0.36-0.66-0.91-0.66-1.46c0-0.56,0.25-1.11,0.66-1.46c0.41-0.36,0.96-0.52,1.46-0.47
				C295.07,243.68,295.79,244.61,295.77,245.52z M295.77,245.52c0-0.46-0.21-0.91-0.55-1.2c-0.34-0.29-0.79-0.41-1.2-0.36
				c-0.84,0.1-1.38,0.85-1.37,1.56c-0.01,0.71,0.53,1.46,1.37,1.56c0.41,0.05,0.86-0.07,1.2-0.36
				C295.57,246.43,295.77,245.98,295.77,245.52z"/>
			<path class="st3" d="M307.99,248.5c0.02,0.91-0.71,1.84-1.75,1.93c-0.5,0.05-1.05-0.11-1.46-0.47c-0.41-0.36-0.66-0.91-0.66-1.46
				c0-0.56,0.25-1.11,0.66-1.46c0.41-0.36,0.96-0.52,1.46-0.47C307.28,246.66,308.01,247.59,307.99,248.5z M307.99,248.5
				c0-0.46-0.21-0.91-0.55-1.2c-0.34-0.29-0.79-0.41-1.2-0.36c-0.84,0.1-1.38,0.85-1.37,1.56c-0.01,0.71,0.53,1.46,1.37,1.56
				c0.41,0.05,0.86-0.07,1.2-0.36C307.78,249.41,307.98,248.96,307.99,248.5z"/>
			<path class="st3" d="M320.2,251.61c-0.05,0.91-0.85,1.78-1.89,1.79c-0.51,0.01-1.04-0.19-1.42-0.58
				c-0.38-0.39-0.58-0.95-0.54-1.51c0.05-0.55,0.33-1.08,0.77-1.41c0.44-0.33,1-0.44,1.5-0.36
				C319.63,249.72,320.28,250.71,320.2,251.61z M320.2,251.61c0.03-0.46-0.14-0.92-0.45-1.24c-0.32-0.31-0.76-0.47-1.17-0.45
				c-0.84,0.03-1.44,0.74-1.49,1.45c-0.07,0.7,0.42,1.5,1.25,1.66c0.4,0.08,0.86-0.01,1.22-0.27
				C319.92,252.5,320.16,252.07,320.2,251.61z"/>
			<path class="st3" d="M261.87,231.86c0.02,0.91-0.71,1.84-1.75,1.93c-0.5,0.05-1.05-0.11-1.46-0.47
				c-0.41-0.36-0.66-0.91-0.66-1.46c0-0.56,0.25-1.11,0.66-1.46c0.41-0.36,0.96-0.52,1.46-0.47
				C261.17,230.02,261.89,230.96,261.87,231.86z M261.87,231.86c0-0.46-0.21-0.91-0.55-1.2c-0.34-0.29-0.79-0.41-1.2-0.36
				c-0.84,0.1-1.38,0.85-1.37,1.56c-0.01,0.71,0.53,1.46,1.37,1.56c0.41,0.05,0.86-0.07,1.2-0.36
				C261.66,232.77,261.87,232.32,261.87,231.86z"/>
		</g>
		<g>
			<g>
				
					<ellipse transform="matrix(0.7436 -0.6686 0.6686 0.7436 -98.2953 208.2859)" class="st5" cx="222.43" cy="232.31" rx="28.23" ry="28.23"/>
				
					<ellipse transform="matrix(0.354 -0.9352 0.9352 0.354 -73.5762 358.0958)" class="st1" cx="222.43" cy="232.31" rx="22.64" ry="22.64"/>
				<g>
					
						<rect x="215.31" y="223.54" transform="matrix(0.9871 0.1599 -0.1599 0.9871 38.9827 -31.9496)" class="st2" width="5.36" height="5.36"/>
					
						<rect x="210.87" y="217.39" transform="matrix(0.9871 0.1599 -0.1599 0.9871 37.942 -31.3194)" class="st2" width="5.36" height="5.36"/>
					
						<rect x="232.04" y="220.82" transform="matrix(0.9871 0.1599 -0.1599 0.9871 38.763 -34.6611)" class="st2" width="5.36" height="5.36"/>
					
						<rect x="207.46" y="238.44" transform="matrix(0.9871 0.1599 -0.1599 0.9871 41.2649 -30.503)" class="st2" width="5.36" height="5.36"/>
					
						<rect x="228.63" y="241.87" transform="matrix(0.9871 0.1599 -0.1599 0.9871 42.0859 -33.8447)" class="st2" width="5.36" height="5.36"/>
					
						<rect x="213.61" y="234" transform="matrix(0.9871 0.1599 -0.1599 0.9871 40.6347 -31.5437)" class="st2" width="5.36" height="5.36"/>
					
						<rect x="219.75" y="229.63" transform="matrix(0.9871 0.1599 -0.1599 0.9871 40.0139 -32.5821)" class="st2" width="5.36" height="5.36"/>
					
						<rect x="225.89" y="225.25" transform="matrix(0.9871 0.1599 -0.1599 0.9871 39.3932 -33.6204)" class="st2" width="5.36" height="5.36"/>
					
						<rect x="224.2" y="235.72" transform="matrix(0.9871 0.1599 -0.1599 0.9871 41.0502 -33.2179)" class="st2" width="5.36" height="5.36"/>
				</g>
			</g>
			<g>
				<g>
					
						<ellipse transform="matrix(0.6338 -0.7735 0.7735 0.6338 -79.6458 320.0442)" class="st2" cx="298.19" cy="244.14" rx="28.23" ry="28.23"/>
					
						<ellipse transform="matrix(0.6338 -0.7735 0.7735 0.6338 -79.6458 320.0442)" class="st5" cx="298.19" cy="244.14" rx="28.23" ry="28.23"/>
					<path class="st5" d="M325.66,250.67c-0.13,0.56-0.28,1.09-0.44,1.63l-55.03-11.74c0.13-0.98,0.31-1.96,0.54-2.96
						c3.6-15.17,18.82-24.54,34-20.94C319.89,220.28,329.26,235.5,325.66,250.67z"/>
				</g>
				
					<ellipse transform="matrix(0.9227 -0.3855 0.3855 0.9227 -71.07 133.8295)" class="st1" cx="298.19" cy="244.14" rx="22.64" ry="22.64"/>
				<g>
					
						<rect x="295.51" y="230.8" transform="matrix(0.9729 0.2312 -0.2312 0.9729 64.5305 -62.3319)" class="st2" width="5.36" height="26.69"/>
				</g>
				<g>
					<path class="st2" d="M327.3,250.14l-57.8-13.74c3.79-15.96,19.81-25.82,35.77-22.03C321.22,218.17,331.09,234.18,327.3,250.14z
						"/>
					<path class="st5" d="M327.3,250.14l-57.8-13.74c3.79-15.96,19.81-25.82,35.77-22.03C321.22,218.17,331.09,234.18,327.3,250.14z
						"/>
				</g>
			</g>
			<path class="st3" d="M249.07,260.92c0.15-2.26,0.98-4.55,2.61-6.36c0.81-0.91,1.88-1.63,3.07-2.06c1.19-0.44,2.48-0.52,3.7-0.41
				c1.24,0.15,2.51,0.58,3.55,1.37c1.02,0.8,1.79,1.84,2.25,2.97c0.94,2.24,1.05,4.63,0.59,6.85c-0.38-2.22-0.95-4.37-1.99-6.14
				c-1.03-1.78-2.67-2.89-4.61-3.06c-1.99-0.25-3.92,0.29-5.48,1.6C251.19,256.99,250,258.88,249.07,260.92z"/>
		</g>
		<g>
			<path class="st6" d="M192.72,203.34c0.23-3.02,0.57-6.02,0.86-9.03c0.32-3,0.65-6.01,1.02-9c0.35-3,0.74-5.99,1.12-8.99
				c0.38-3,0.81-5.98,1.21-8.98l0.11-0.8l0.81,0.05c6.51,0.41,13.01,0.94,19.5,1.6c3.25,0.33,6.49,0.71,9.72,1.13
				c3.23,0.46,6.47,0.89,9.68,1.48l-19.52-1.21l-19.5-1.26l0.92-0.75c-0.44,2.99-0.85,5.98-1.32,8.96
				c-0.46,2.98-0.92,5.97-1.41,8.95c-0.48,2.98-1,5.96-1.52,8.93C193.83,197.4,193.33,200.38,192.72,203.34z"/>
			<path class="st6" d="M197.41,226.16c0.66-3.63,2.3-7.08,4.52-10.09c0.55-0.76,1.18-1.46,1.78-2.18c0.65-0.67,1.33-1.33,2-1.99
				c0.73-0.59,1.47-1.18,2.22-1.75c0.8-0.51,1.58-1.03,2.39-1.52c0.85-0.41,1.7-0.83,2.56-1.22l2.68-0.93l2.78-0.57
				c0.93-0.14,1.88-0.16,2.81-0.24c3.76-0.1,7.47,0.71,10.87,2.08c-3.62-0.68-7.23-1.05-10.78-0.71c-3.55,0.33-6.99,1.39-10.07,3.13
				c-3.11,1.69-5.85,4.03-8.18,6.75C200.68,219.65,198.77,222.74,197.41,226.16z"/>
			<path class="st6" d="M275.29,233.78c1.15-3.5,3.26-6.7,5.87-9.37c0.65-0.67,1.37-1.28,2.06-1.91c0.74-0.58,1.5-1.13,2.26-1.69
				c0.81-0.49,1.62-0.97,2.44-1.43c0.86-0.39,1.71-0.8,2.58-1.17c0.9-0.29,1.8-0.59,2.71-0.86l2.78-0.55l2.83-0.18
				c0.94-0.01,1.88,0.1,2.82,0.16c3.74,0.42,7.3,1.73,10.48,3.56c-3.49-1.17-7.01-2.04-10.58-2.2c-3.56-0.16-7.12,0.41-10.41,1.71
				c-3.31,1.25-6.36,3.19-9.03,5.55C279.43,227.79,277.1,230.59,275.29,233.78z"/>
		</g>
	</g>
	<g>
		<g>
			<g>
				<path class="st2" d="M188.14,324.25c-7.23,0-23.06-1.63-33.25-14.73c-13.03-16.76-8.32-48.91-8.12-50.28l5.66,0.86
					c-0.05,0.31-4.54,31.09,6.98,45.9c11.26,14.48,31.69,12.4,31.9,12.38l0.64,5.69C191.72,324.1,190.32,324.25,188.14,324.25z"/>
				<path class="st7" d="M188.14,324.25c-7.23,0-23.06-1.63-33.25-14.73c-13.03-16.76-8.32-48.91-8.12-50.28l5.66,0.86
					c-0.05,0.31-4.54,31.09,6.98,45.9c11.26,14.48,31.69,12.4,31.9,12.38l0.64,5.69C191.72,324.1,190.32,324.25,188.14,324.25z"/>
			</g>
			<path class="st2" d="M154.1,264c-1.03,0-2.09-0.09-3.16-0.26c-9.55-1.55-13.77-7.26-15.64-11.78c-1.87-4.53-2.3-10.01-1.28-16.29
				l12.11,1.96c-0.63,3.89-0.45,7.31,0.52,9.65c0.69,1.66,2.02,3.66,6.26,4.35c1.94,0.31,4.03,0.15,6.23-3.16
				c1.69-2.55,2.71-6.03,3.07-8.23l12.11,1.96c-0.28,1.73-1.47,7.79-4.95,13.05C165.56,260.97,160.22,264,154.1,264z"/>
			<g>
				<path class="st2" d="M200.1,340.63c-0.02-0.26-10.26-1.9-10.26-1.9l-4.97-33.41l12.4-4.9L200.1,340.63z"/>
				<path class="st5" d="M200.1,340.63c-0.02-0.26-10.26-1.9-10.26-1.9l-4.97-33.41l12.4-4.9L200.1,340.63z"/>
			</g>
		</g>
		<g>
			<path class="st2" d="M301.3,340.69c0.03-0.26,10.3-1.67,10.3-1.67l5.71-33.29l-12.29-5.17L301.3,340.69z"/>
			<path class="st5" d="M301.3,340.69c0.03-0.26,10.3-1.67,10.3-1.67l5.71-33.29l-12.29-5.17L301.3,340.69z"/>
		</g>
		<path class="st2" d="M195.84,292.95c0,0,82.79-3.54,110.75,1.12c0,0-8.21,80.11-8.66,81.66c0,0-82.35-0.22-95.22,0
			C202.71,375.74,195.74,322.47,195.84,292.95z"/>
		<g>
			<path class="st5" d="M220.99,314.91c0,0,45.19-1.78,60.46,0.57c0,0-4.48,40.39-4.73,41.18c0,0-44.96-0.11-51.98,0
				C224.74,356.65,221.65,329,220.99,314.91z"/>
			<path class="st5" d="M227.16,356.63c-1.03,0-1.86,0.01-2.43,0.02c0,0-3.08-27.65-3.75-41.75c0,0,1.03-0.04,2.82-0.1
				L227.16,356.63z"/>
			<g>
				<g>
					<g>
						<g>
							<path class="st2" d="M240.49,324.87c-2.53-0.8-5.23,0.61-6.03,3.14c-0.8,2.54,0.61,5.23,3.14,6.03
								c2.53,0.8,5.23-0.61,6.03-3.14C244.43,328.37,243.03,325.67,240.49,324.87z M243.07,330.73c-0.7,2.23-3.07,3.46-5.29,2.76
								c-2.22-0.7-3.46-3.07-2.76-5.3c0.7-2.22,3.07-3.46,5.3-2.76C242.54,326.13,243.77,328.5,243.07,330.73z M240.49,324.87
								c-2.53-0.8-5.23,0.61-6.03,3.14c-0.8,2.54,0.61,5.23,3.14,6.03c2.53,0.8,5.23-0.61,6.03-3.14
								C244.43,328.37,243.03,325.67,240.49,324.87z M243.07,330.73c-0.7,2.23-3.07,3.46-5.29,2.76c-2.22-0.7-3.46-3.07-2.76-5.3
								c0.7-2.22,3.07-3.46,5.3-2.76C242.54,326.13,243.77,328.5,243.07,330.73z M240.49,324.87c-2.53-0.8-5.23,0.61-6.03,3.14
								c-0.8,2.54,0.61,5.23,3.14,6.03c2.53,0.8,5.23-0.61,6.03-3.14C244.43,328.37,243.03,325.67,240.49,324.87z M243.07,330.73
								c-0.7,2.23-3.07,3.46-5.29,2.76c-2.22-0.7-3.46-3.07-2.76-5.3c0.7-2.22,3.07-3.46,5.3-2.76
								C242.54,326.13,243.77,328.5,243.07,330.73z M242.1,319.79c-5.34-1.68-11.03,1.29-12.71,6.62
								c-1.68,5.34,1.28,11.03,6.62,12.71c5.33,1.68,11.02-1.28,12.71-6.62C250.39,327.17,247.43,321.48,242.1,319.79z
								 M244.35,331.13c-0.92,2.92-4.04,4.55-6.97,3.63c-2.92-0.92-4.55-4.04-3.63-6.97c0.92-2.92,4.05-4.55,6.97-3.63
								C243.64,325.08,245.27,328.21,244.35,331.13z M243.63,330.9c0.8-2.53-0.61-5.23-3.14-6.03c-2.53-0.8-5.23,0.61-6.03,3.14
								c-0.8,2.54,0.61,5.23,3.14,6.03C240.14,334.84,242.83,333.44,243.63,330.9z M243.07,330.73c-0.7,2.23-3.07,3.46-5.29,2.76
								c-2.22-0.7-3.46-3.07-2.76-5.3c0.7-2.22,3.07-3.46,5.3-2.76C242.54,326.13,243.77,328.5,243.07,330.73z M240.49,324.87
								c-2.53-0.8-5.23,0.61-6.03,3.14c-0.8,2.54,0.61,5.23,3.14,6.03c2.53,0.8,5.23-0.61,6.03-3.14
								C244.43,328.37,243.03,325.67,240.49,324.87z M243.07,330.73c-0.7,2.23-3.07,3.46-5.29,2.76c-2.22-0.7-3.46-3.07-2.76-5.3
								c0.7-2.22,3.07-3.46,5.3-2.76C242.54,326.13,243.77,328.5,243.07,330.73z M240.49,324.87c-2.53-0.8-5.23,0.61-6.03,3.14
								c-0.8,2.54,0.61,5.23,3.14,6.03c2.53,0.8,5.23-0.61,6.03-3.14C244.43,328.37,243.03,325.67,240.49,324.87z M243.07,330.73
								c-0.7,2.23-3.07,3.46-5.29,2.76c-2.22-0.7-3.46-3.07-2.76-5.3c0.7-2.22,3.07-3.46,5.3-2.76
								C242.54,326.13,243.77,328.5,243.07,330.73z"/>
							<g>
								<polygon class="st2" points="237.99,339.31 234.27,338.13 233.65,340.83 236.95,341.87 								"/>
								<polygon class="st2" points="231.31,335.83 229.51,332.37 227.16,333.83 228.77,336.91 								"/>
								<polygon class="st2" points="229.05,328.64 230.22,324.93 227.53,324.3 226.48,327.61 								"/>
								<polygon class="st2" points="232.53,321.96 235.99,320.17 234.52,317.82 231.45,319.42 								"/>
								<polygon class="st2" points="239.71,319.7 243.43,320.87 244.05,318.18 240.75,317.14 								"/>
								<polygon class="st2" points="246.39,323.18 248.19,326.64 250.54,325.17 248.94,322.1 								"/>
								<polygon class="st2" points="248.65,330.37 247.48,334.08 250.17,334.71 251.22,331.4 								"/>
								<polygon class="st2" points="245.17,337.04 241.72,338.84 243.18,341.19 246.25,339.59 								"/>
							</g>
						</g>
					</g>
				</g>
			</g>
			<g>
				<g>
					<g>
						<g>
							<path class="st8" d="M256.84,339.01c-1.5-0.98-3.5-0.55-4.48,0.95c-0.98,1.5-0.55,3.5,0.95,4.48c1.5,0.98,3.5,0.55,4.48-0.95
								C258.75,341.99,258.33,339.99,256.84,339.01z M257.45,343.27c-0.86,1.32-2.62,1.69-3.93,0.83c-1.32-0.86-1.69-2.62-0.83-3.93
								c0.86-1.32,2.62-1.69,3.93-0.83C257.93,340.2,258.31,341.96,257.45,343.27z M256.84,339.01c-1.5-0.98-3.5-0.55-4.48,0.95
								c-0.98,1.5-0.55,3.5,0.95,4.48c1.5,0.98,3.5,0.55,4.48-0.95C258.75,341.99,258.33,339.99,256.84,339.01z M257.45,343.27
								c-0.86,1.32-2.62,1.69-3.93,0.83c-1.32-0.86-1.69-2.62-0.83-3.93c0.86-1.32,2.62-1.69,3.93-0.83
								C257.93,340.2,258.31,341.96,257.45,343.27z M256.84,339.01c-1.5-0.98-3.5-0.55-4.48,0.95c-0.98,1.5-0.55,3.5,0.95,4.48
								c1.5,0.98,3.5,0.55,4.48-0.95C258.75,341.99,258.33,339.99,256.84,339.01z M257.45,343.27c-0.86,1.32-2.62,1.69-3.93,0.83
								c-1.32-0.86-1.69-2.62-0.83-3.93c0.86-1.32,2.62-1.69,3.93-0.83C257.93,340.2,258.31,341.96,257.45,343.27z M258.79,336.01
								c-3.16-2.06-7.38-1.16-9.44,1.99c-2.05,3.16-1.16,7.38,1.99,9.44c3.15,2.05,7.38,1.16,9.44-2
								C262.84,342.29,261.95,338.06,258.79,336.01z M258.2,343.76c-1.13,1.73-3.45,2.22-5.17,1.1c-1.73-1.13-2.22-3.45-1.09-5.17
								c1.13-1.73,3.45-2.22,5.17-1.09C258.84,339.72,259.33,342.04,258.2,343.76z M257.78,343.49c0.97-1.5,0.55-3.5-0.94-4.48
								c-1.5-0.98-3.5-0.55-4.48,0.95c-0.98,1.5-0.55,3.5,0.95,4.48C254.8,345.41,256.8,344.99,257.78,343.49z M257.45,343.27
								c-0.86,1.32-2.62,1.69-3.93,0.83c-1.32-0.86-1.69-2.62-0.83-3.93c0.86-1.32,2.62-1.69,3.93-0.83
								C257.93,340.2,258.31,341.96,257.45,343.27z M256.84,339.01c-1.5-0.98-3.5-0.55-4.48,0.95c-0.98,1.5-0.55,3.5,0.95,4.48
								c1.5,0.98,3.5,0.55,4.48-0.95C258.75,341.99,258.33,339.99,256.84,339.01z M257.45,343.27c-0.86,1.32-2.62,1.69-3.93,0.83
								c-1.32-0.86-1.69-2.62-0.83-3.93c0.86-1.32,2.62-1.69,3.93-0.83C257.93,340.2,258.31,341.96,257.45,343.27z M256.84,339.01
								c-1.5-0.98-3.5-0.55-4.48,0.95c-0.98,1.5-0.55,3.5,0.95,4.48c1.5,0.98,3.5,0.55,4.48-0.95
								C258.75,341.99,258.33,339.99,256.84,339.01z M257.45,343.27c-0.86,1.32-2.62,1.69-3.93,0.83c-1.32-0.86-1.69-2.62-0.83-3.93
								c0.86-1.32,2.62-1.69,3.93-0.83C257.93,340.2,258.31,341.96,257.45,343.27z"/>
							<g>
								<polygon class="st8" points="252.6,347.92 250.4,346.49 249.51,348.12 251.47,349.39 								"/>
								<polygon class="st8" points="248.9,344.45 248.36,341.89 246.57,342.41 247.05,344.7 								"/>
								<polygon class="st8" points="248.73,339.39 250.16,337.19 248.53,336.3 247.26,338.25 								"/>
								<polygon class="st8" points="252.2,335.69 254.76,335.14 254.24,333.36 251.95,333.84 								"/>
								<polygon class="st8" points="257.26,335.52 259.46,336.95 260.35,335.32 258.4,334.04 								"/>
								<polygon class="st8" points="260.96,338.98 261.51,341.55 263.29,341.02 262.81,338.74 								"/>
								<polygon class="st8" points="261.13,344.05 259.7,346.25 261.33,347.14 262.61,345.18 								"/>
								<polygon class="st8" points="257.67,347.75 255.1,348.29 255.63,350.08 257.91,349.6 								"/>
							</g>
						</g>
					</g>
				</g>
			</g>
		</g>
		<g>
			<polygon class="st2" points="304.59,366.41 307.78,367.01 316.88,305.38 313.25,304.71 			"/>
			<g>
				<path class="st2" d="M276.72,356.65l4.73-41.18l31.8-10.76c0,0-8.66,62.37-8.66,61.7L276.72,356.65z"/>
				<path class="st7" d="M276.72,356.65l4.73-41.18l31.8-10.76c0,0-8.66,62.37-8.66,61.7L276.72,356.65z"/>
			</g>
		</g>
		<path class="st6" d="M199.64,317.14c-0.52-3.41-0.8-6.85-1.01-10.29c-0.1-1.72-0.14-3.45-0.18-5.17
			c-0.03-1.72-0.06-3.45-0.01-5.17l0.01-0.45l0.44-0.02c6.32-0.34,12.63-0.75,18.95-1.03c6.32-0.31,12.64-0.6,18.96-0.79
			c-6.3,0.57-12.61,1.06-18.92,1.51c-6.31,0.49-12.62,0.85-18.93,1.28l0.45-0.48l-0.03,5.15l0.06,5.15
			c0.01,1.72,0.04,3.44,0.09,5.16L199.64,317.14z"/>
		<path class="st6" d="M285.88,316.08c1.97-0.94,3.97-1.81,6-2.61c2.02-0.82,4.06-1.6,6.12-2.31c2.06-0.7,4.13-1.39,6.24-1.98
			c2.1-0.59,4.22-1.14,6.39-1.49l0.53-0.09l-0.1,0.51c-0.5,2.67-1.02,5.33-1.64,7.98c0.23-2.71,0.56-5.4,0.91-8.09l0.44,0.42
			c-2.1,0.5-4.18,1.09-6.26,1.7c-2.08,0.62-4.15,1.27-6.21,1.95L285.88,316.08z"/>
		<g>
			<polygon class="st3" points="213.4,293.12 213.94,303.42 214.4,313.72 215.19,334.33 215.81,354.95 216.06,365.25 216.23,375.57 
				215.69,365.27 215.24,354.97 214.44,334.36 213.82,313.74 213.57,303.43 			"/>
			<path class="st3" d="M210.45,299.33c0.2,0.89-0.33,1.94-1.33,2.24c-0.48,0.15-1.05,0.1-1.53-0.17c-0.47-0.27-0.82-0.76-0.93-1.3
				c-0.11-0.54,0.02-1.13,0.35-1.56c0.33-0.43,0.84-0.7,1.34-0.75C209.4,297.66,210.29,298.44,210.45,299.33z M210.45,299.33
				c-0.09-0.45-0.38-0.85-0.77-1.07c-0.39-0.22-0.86-0.24-1.24-0.12c-0.8,0.26-1.19,1.11-1.04,1.8c0.13,0.7,0.81,1.33,1.65,1.26
				c0.41-0.03,0.83-0.24,1.1-0.59C210.43,300.26,210.54,299.78,210.45,299.33z"/>
			<path class="st3" d="M211.16,311.68c0.2,0.89-0.33,1.94-1.33,2.24c-0.48,0.15-1.05,0.1-1.53-0.17c-0.47-0.27-0.82-0.76-0.93-1.3
				c-0.11-0.54,0.02-1.13,0.35-1.56c0.33-0.43,0.84-0.7,1.34-0.75C210.11,310.01,211,310.79,211.16,311.68z M211.16,311.68
				c-0.09-0.45-0.38-0.85-0.77-1.07c-0.39-0.22-0.86-0.24-1.24-0.12c-0.8,0.26-1.19,1.11-1.04,1.8c0.13,0.7,0.81,1.33,1.65,1.26
				c0.41-0.03,0.83-0.24,1.1-0.59C211.14,312.61,211.25,312.13,211.16,311.68z"/>
			<path class="st3" d="M211.61,324.79c0.2,0.89-0.33,1.94-1.33,2.24c-0.48,0.15-1.05,0.1-1.53-0.17c-0.47-0.27-0.82-0.76-0.93-1.3
				c-0.11-0.54,0.02-1.13,0.36-1.56c0.33-0.43,0.84-0.7,1.34-0.75C210.56,323.12,211.45,323.89,211.61,324.79z M211.61,324.79
				c-0.09-0.45-0.38-0.85-0.77-1.07c-0.39-0.22-0.86-0.24-1.24-0.12c-0.8,0.26-1.19,1.11-1.04,1.8c0.13,0.7,0.81,1.33,1.65,1.26
				c0.41-0.03,0.83-0.24,1.1-0.59C211.59,325.72,211.7,325.24,211.61,324.79z"/>
			<path class="st3" d="M212.06,337.9c0.2,0.89-0.33,1.94-1.33,2.24c-0.48,0.15-1.05,0.1-1.53-0.17c-0.47-0.27-0.82-0.76-0.93-1.3
				c-0.11-0.54,0.02-1.13,0.36-1.56c0.33-0.43,0.84-0.7,1.34-0.75C211.01,336.23,211.9,337,212.06,337.9z M212.06,337.9
				c-0.09-0.45-0.38-0.85-0.77-1.07c-0.39-0.22-0.86-0.24-1.24-0.12c-0.8,0.26-1.19,1.11-1.04,1.8c0.13,0.7,0.81,1.33,1.65,1.26
				c0.41-0.03,0.83-0.24,1.1-0.59C212.04,338.83,212.15,338.35,212.06,337.9z"/>
			<path class="st3" d="M212.51,351c0.2,0.89-0.33,1.94-1.33,2.24c-0.48,0.15-1.05,0.1-1.53-0.17c-0.47-0.27-0.82-0.76-0.93-1.3
				c-0.11-0.54,0.02-1.13,0.35-1.56c0.33-0.43,0.84-0.7,1.34-0.75C211.46,349.34,212.35,350.11,212.51,351z M212.51,351
				c-0.09-0.45-0.38-0.85-0.77-1.07c-0.39-0.22-0.86-0.24-1.24-0.12c-0.8,0.26-1.19,1.11-1.04,1.8c0.13,0.7,0.81,1.33,1.65,1.26
				c0.41-0.03,0.83-0.24,1.1-0.59C212.49,351.94,212.6,351.45,212.51,351z"/>
			<path class="st3" d="M212.96,364.11c0.2,0.89-0.33,1.94-1.33,2.24c-0.48,0.15-1.05,0.1-1.53-0.17c-0.47-0.27-0.82-0.76-0.93-1.3
				c-0.11-0.54,0.02-1.13,0.35-1.56c0.33-0.43,0.84-0.7,1.34-0.75C211.91,362.45,212.8,363.22,212.96,364.11z M212.96,364.11
				c-0.09-0.45-0.38-0.85-0.77-1.07c-0.39-0.22-0.86-0.24-1.24-0.12c-0.8,0.26-1.19,1.11-1.04,1.8c0.13,0.7,0.81,1.33,1.65,1.26
				c0.41-0.04,0.83-0.24,1.1-0.59C212.94,365.04,213.05,364.56,212.96,364.11z"/>
		</g>
	</g>
	<g>
		
			<rect x="169.93" y="391.13" transform="matrix(0.957 -0.29 0.29 0.957 -105.9179 73.3265)" class="st2" width="48.98" height="5.72"/>
		
			<rect x="169.93" y="391.13" transform="matrix(0.957 -0.29 0.29 0.957 -105.9179 73.3265)" class="st7" width="48.98" height="5.72"/>
		
			<rect x="190.27" y="389.75" transform="matrix(0.953 -0.3031 0.3031 0.953 -110.3332 77.0709)" class="st2" width="5.72" height="8.5"/>
		<g>
			<polygon class="st2" points="171.43,411.86 159.33,359.48 122.82,368.14 140.8,419.19 			"/>
			<g>
				<polygon class="st2" points="179.53,409.2 171.43,411.86 159.33,359.48 170.98,362.26 				"/>
				<polygon class="st5" points="179.53,409.2 171.43,411.86 159.33,359.48 170.98,362.26 				"/>
			</g>
		</g>
		<circle class="st2" cx="217.86" cy="386.89" r="6.21"/>
	</g>
	<g>
		
			<rect x="301.54" y="369.41" transform="matrix(0.292 -0.9564 0.9564 0.292 -161.224 570.005)" class="st2" width="5.72" height="48.98"/>
		
			<rect x="301.54" y="369.41" transform="matrix(0.292 -0.9564 0.9564 0.292 -161.224 570.005)" class="st7" width="5.72" height="48.98"/>
		
			<rect x="301.44" y="391.04" transform="matrix(0.3052 -0.9523 0.9523 0.3052 -162.7225 564.7775)" class="st2" width="8.5" height="5.72"/>
		<g>
			<polygon class="st2" points="327.36,411.82 339.56,359.46 376.06,368.2 357.97,419.21 			"/>
			<g>
				<polygon class="st2" points="319.26,409.14 327.36,411.82 339.56,359.46 327.91,362.21 				"/>
				<polygon class="st5" points="319.26,409.14 327.36,411.82 339.56,359.46 327.91,362.21 				"/>
			</g>
		</g>
		<path class="st2" d="M274.76,386.74c-0.01,3.43,2.77,6.22,6.2,6.23c3.43,0.01,6.22-2.77,6.23-6.2c0.01-3.43-2.77-6.22-6.2-6.23
			C277.56,380.53,274.77,383.3,274.76,386.74z"/>
	</g>
	<g>
		<g>
			<path class="st2" d="M321.66,322.13c0.15-0.14,15.2-14.1,32.91-9.33c18.11,4.89,33.07,32.17,33.21,32.44l5.03-2.72
				c-0.65-1.21-16.25-29.72-36.76-35.25c-20.86-5.62-37.64,10.03-38.35,10.7L321.66,322.13z"/>
			<path class="st7" d="M321.66,322.13c0.15-0.14,15.2-14.1,32.91-9.33c18.11,4.89,33.07,32.17,33.21,32.44l5.03-2.72
				c-0.65-1.21-16.25-29.72-36.76-35.25c-20.86-5.62-37.64,10.03-38.35,10.7L321.66,322.13z"/>
		</g>
		<path class="st2" d="M381.12,372.71l10.85-5.73c-1.04-1.97-2.32-5.36-2.51-8.42c-0.24-3.96,1.33-5.36,3.07-6.27
			c3.8-2.01,6.07-1.21,7.62-0.3c2.17,1.28,4.38,3.91,6.22,7.39l10.85-5.73c-2.97-5.62-6.61-9.74-10.83-12.23
			c-4.21-2.48-11.02-4.5-19.58,0.02c-6.67,3.52-10.07,9.86-9.58,17.86C377.6,365.61,380.3,371.16,381.12,372.71z"/>
	</g>
	<g>
		<path class="st1" d="M323.95,303.02c2.35-1.62,4.76-3.15,7.17-4.67c2.41-1.53,4.86-2.98,7.31-4.44c2.46-1.44,4.92-2.87,7.42-4.24
			l3.75-2.05c1.27-0.65,2.52-1.33,3.81-1.96c-1.17,0.82-2.37,1.59-3.56,2.38l-3.61,2.29c-2.41,1.52-4.86,2.98-7.31,4.44
			c-2.46,1.44-4.92,2.87-7.43,4.24C329.01,300.39,326.51,301.75,323.95,303.02z"/>
		<path class="st1" d="M317.72,326.42c3.37,1.92,6.56,4.08,9.7,6.31c3.13,2.25,6.22,4.56,9.12,7.12c-3.37-1.92-6.56-4.08-9.7-6.31
			C323.72,331.29,320.63,328.98,317.72,326.42z"/>
		<path class="st1" d="M323.25,323.54c2.6,0.79,5.16,1.68,7.71,2.59c2.56,0.9,5.08,1.87,7.61,2.84c2.52,0.99,5.04,1.99,7.53,3.05
			l3.73,1.6c1.23,0.57,2.48,1.1,3.7,1.7c-1.3-0.39-2.58-0.83-3.87-1.24l-3.83-1.34c-2.56-0.9-5.08-1.87-7.61-2.84
			c-2.52-0.99-5.04-1.99-7.53-3.05C328.19,325.79,325.7,324.72,323.25,323.54z"/>
		<path class="st1" d="M330.63,305.22c2.49-0.65,5-1.19,7.51-1.71c2.51-0.53,5.03-0.99,7.56-1.45c2.53-0.43,5.06-0.86,7.6-1.22
			l3.81-0.53c1.28-0.14,2.55-0.31,3.83-0.42c-1.24,0.33-2.5,0.6-3.75,0.91l-3.76,0.8c-2.51,0.53-5.03,0.99-7.56,1.45
			c-2.53,0.43-5.06,0.86-7.6,1.22C335.73,304.63,333.19,304.98,330.63,305.22z"/>
	</g>
</g>
<g>
	<path class="st1" d="M270.62,320.79c0.42-2.02,1.1-4,1.98-5.87c0.88-1.88,1.95-3.68,3.3-5.28c1.35-1.58,3.02-2.98,5.02-3.75
		c2.01-0.75,4.3-0.74,6.31,0.06c2.03,0.79,3.64,2.5,4.5,4.47c0.45,0.98,0.73,2.03,0.85,3.11c0.1,1.08,0.06,2.19-0.37,3.27
		c-0.22,0.53-0.56,1.06-1.1,1.42c-0.26,0.18-0.59,0.29-0.9,0.34c-0.31,0.04-0.63,0.03-1-0.09c-0.67-0.28-1-0.82-1.29-1.31
		c-0.26-0.5-0.46-1.02-0.59-1.54c-0.56-2.09-0.62-4.21-0.52-6.31c0.3-4.18,1.4-8.36,3.65-11.96c1.14-1.78,2.56-3.41,4.34-4.61
		c1.75-1.2,3.8-2.03,5.89-2.27c1.03-0.25,2.09-0.23,3.14-0.28c0.53-0.06,1.05,0.07,1.57,0.1c0.52,0.07,1.05,0.06,1.56,0.21
		c2.08,0.37,4.03,1.21,5.85,2.22c1.81,1.05,3.43,2.39,4.9,3.84c1.46,1.47,2.79,3.08,3.86,4.85c-2.36-3.37-5.41-6.3-9-8.27
		c-1.81-0.94-3.72-1.71-5.73-2.02c-0.49-0.14-1.01-0.11-1.51-0.17c-0.51-0.01-1.01-0.13-1.51-0.06c-1.01,0.07-2.03,0.07-3.01,0.33
		c-2.02,0.28-3.89,1.09-5.53,2.22c-1.65,1.13-2.99,2.69-4.06,4.39c-2.12,3.44-3.16,7.5-3.42,11.54c-0.11,2.02-0.06,4.08,0.44,5.99
		c0.24,0.92,0.67,1.95,1.3,2.24c0.08,0.01,0.13,0.05,0.23,0.05c0.1-0.01,0.2,0.01,0.3-0.01c0.19-0.03,0.37-0.08,0.53-0.2
		c0.33-0.21,0.59-0.57,0.76-0.99c0.35-0.85,0.42-1.86,0.33-2.83c-0.1-0.98-0.35-1.95-0.75-2.85c-0.79-1.8-2.19-3.35-4.01-4.11
		c-1.81-0.77-3.93-0.83-5.8-0.18c-1.89,0.68-3.52,1.98-4.87,3.48C273.55,313,271.71,316.82,270.62,320.79z"/>
	<path class="st1" d="M178.22,346.7c0.97-1.82,2.38-3.39,4.04-4.64c1.65-1.24,3.56-2.21,5.6-2.68c2.03-0.49,4.22-0.5,6.25,0.12
		c2.04,0.61,3.87,1.8,5.34,3.32c1.48,1.52,2.58,3.37,3.34,5.33c0.74,1.97,1.19,4.07,1.03,6.23c-0.11,1.06-0.32,2.2-1.16,3.12
		c-0.42,0.45-1.06,0.75-1.68,0.76c-0.6-0.01-1.17-0.1-1.72-0.39c-0.55-0.28-0.99-0.78-1.24-1.32c-0.25-0.55-0.35-1.12-0.38-1.68
		c-0.04-1.12,0.2-2.18,0.53-3.2c0.67-2.03,1.77-3.85,3.06-5.51c1.3-1.65,2.82-3.13,4.53-4.35c3.39-2.46,7.7-3.83,11.91-3.28
		c2.08,0.28,4.14,0.88,5.96,1.94c1.84,1.02,3.43,2.45,4.72,4.07c1.3,1.63,2.31,3.47,3.08,5.38c0.78,1.91,1.35,3.91,1.63,5.95
		c-0.84-4.01-2.49-7.9-5.11-11c-1.3-1.55-2.87-2.88-4.65-3.82c-1.76-0.97-3.74-1.5-5.73-1.72c-4-0.44-8.06,0.84-11.29,3.23
		c-3.22,2.37-5.86,5.68-7.19,9.42c-0.31,0.93-0.53,1.91-0.5,2.85c0.02,0.93,0.35,1.83,1.1,2.21c0.35,0.2,0.83,0.28,1.25,0.29
		c0.41-0.01,0.77-0.17,1.05-0.47c0.58-0.61,0.83-1.61,0.92-2.56c0.16-1.95-0.25-3.97-0.95-5.84c-0.71-1.87-1.76-3.62-3.12-5.08
		c-1.36-1.46-3.07-2.6-4.96-3.22c-1.89-0.63-3.96-0.68-5.93-0.26C184.04,340.75,180.39,343.21,178.22,346.7z"/>
	<path class="st1" d="M131.95,105.21c-0.11-4.11-0.99-8.26-2.9-11.87c-0.96-1.79-2.23-3.44-3.9-4.55c-1.67-1.08-3.74-1.53-5.68-1.21
		c-1.95,0.31-3.68,1.48-4.88,3.04c-0.61,0.78-1.08,1.66-1.41,2.58c-0.32,0.92-0.5,1.92-0.36,2.83c0.07,0.45,0.23,0.87,0.5,1.14
		c0.13,0.15,0.29,0.24,0.47,0.32c0.08,0.05,0.19,0.05,0.28,0.08c0.1,0.02,0.16-0.01,0.24,0c0.68-0.13,1.35-1.03,1.8-1.86
		c0.95-1.74,1.49-3.73,1.86-5.72c0.71-3.98,0.67-8.17-0.57-12.02c-0.63-1.91-1.56-3.73-2.9-5.23c-1.33-1.49-2.95-2.72-4.84-3.48
		c-0.89-0.49-1.88-0.73-2.84-1.04c-0.48-0.19-0.99-0.19-1.49-0.3c-0.5-0.07-1-0.21-1.5-0.2c-2.03-0.18-4.07,0.12-6.04,0.6
		c-3.95,1.05-7.61,3.17-10.71,5.88c1.46-1.47,3.13-2.71,4.9-3.79c1.78-1.06,3.67-1.98,5.68-2.56c2.01-0.54,4.11-0.89,6.21-0.75
		c0.53-0.03,1.04,0.11,1.57,0.17c0.52,0.1,1.05,0.1,1.55,0.28c1.01,0.3,2.05,0.53,2.99,1.02c1.97,0.73,3.77,2.03,5.18,3.61
		c1.44,1.58,2.43,3.51,3.11,5.51c1.33,4.03,1.4,8.36,0.69,12.49c-0.4,2.06-0.97,4.11-2.01,6c-0.26,0.47-0.57,0.93-0.94,1.36
		c-0.39,0.4-0.85,0.84-1.57,0.96c-0.38,0.04-0.7-0.03-0.99-0.15c-0.3-0.12-0.58-0.3-0.8-0.54c-0.45-0.47-0.65-1.07-0.74-1.64
		c-0.16-1.14,0.07-2.24,0.42-3.26c0.37-1.02,0.89-1.97,1.56-2.82c1.31-1.7,3.28-2.98,5.44-3.26c2.14-0.3,4.38,0.24,6.14,1.45
		c1.76,1.23,3.05,2.98,3.98,4.84c0.93,1.88,1.54,3.88,1.95,5.92C131.84,101.07,132.03,103.14,131.95,105.21z"/>
	<path class="st1" d="M352.77,157.37c-4.03-0.85-8.26-0.97-12.22,0.05c-1.96,0.52-3.87,1.37-5.33,2.73
		c-1.44,1.37-2.36,3.28-2.5,5.24c-0.16,1.96,0.58,3.92,1.82,5.45c0.61,0.77,1.36,1.44,2.18,1.97c0.82,0.52,1.75,0.93,2.66,1.01
		c0.45,0.04,0.9-0.03,1.23-0.22c0.17-0.09,0.3-0.23,0.42-0.38c0.06-0.07,0.09-0.17,0.14-0.26c0.04-0.09,0.03-0.16,0.06-0.23
		c0.03-0.69-0.69-1.55-1.39-2.19c-1.47-1.33-3.28-2.32-5.12-3.14c-3.71-1.62-7.79-2.56-11.82-2.25c-2,0.17-3.99,0.65-5.76,1.6
		c-1.76,0.94-3.34,2.23-4.51,3.9c-0.69,0.75-1.15,1.66-1.68,2.52c-0.29,0.42-0.42,0.92-0.64,1.37c-0.18,0.47-0.44,0.92-0.54,1.42
		c-0.64,1.93-0.84,3.98-0.83,6.02c0.1,4.09,1.3,8.14,3.22,11.79c-1.08-1.76-1.9-3.68-2.54-5.65c-0.62-1.98-1.07-4.03-1.17-6.12
		c-0.06-2.08,0.09-4.2,0.72-6.22c0.1-0.52,0.35-0.99,0.53-1.48c0.22-0.48,0.34-1,0.63-1.44c0.53-0.91,0.99-1.87,1.69-2.67
		c1.17-1.75,2.85-3.19,4.72-4.19c1.88-1.03,3.98-1.54,6.09-1.74c4.23-0.35,8.45,0.59,12.3,2.24c1.91,0.87,3.77,1.9,5.37,3.36
		c0.4,0.36,0.77,0.77,1.1,1.23c0.3,0.48,0.62,1.02,0.57,1.75c-0.06,0.38-0.19,0.67-0.37,0.93c-0.19,0.26-0.43,0.5-0.72,0.65
		c-0.57,0.32-1.2,0.38-1.76,0.33c-1.15-0.11-2.16-0.59-3.07-1.17c-0.9-0.6-1.71-1.33-2.38-2.18c-1.35-1.67-2.13-3.88-1.9-6.05
		c0.21-2.16,1.26-4.2,2.84-5.64c1.61-1.43,3.61-2.27,5.64-2.74c2.04-0.47,4.14-0.59,6.21-0.51
		C348.71,156.52,350.78,156.82,352.77,157.37z"/>
	<path class="st1" d="M290.86,92.67c-0.68-2.37-0.78-4.9-0.39-7.35c0.38-2.45,1.21-4.85,2.57-6.96c1.33-2.11,3.2-3.93,5.45-5.1
		c2.24-1.17,4.8-1.68,7.32-1.6c2.53,0.07,5.01,0.72,7.29,1.76c2.27,1.06,4.41,2.49,6.07,4.45c0.79,0.99,1.55,2.14,1.6,3.59
		c0.02,0.71-0.27,1.48-0.78,2c-0.51,0.49-1.06,0.88-1.76,1.08c-0.69,0.21-1.45,0.16-2.11-0.09c-0.66-0.25-1.21-0.66-1.7-1.11
		c-0.96-0.91-1.64-2.02-2.2-3.16c-1.11-2.29-1.7-4.76-1.98-7.25c-0.28-2.49-0.2-5.02,0.23-7.49c0.84-4.93,3.38-9.69,7.42-12.73
		c2.01-1.5,4.26-2.71,6.7-3.33c2.42-0.66,4.97-0.78,7.43-0.48c2.47,0.31,4.87,1.02,7.14,2c2.27,0.98,4.44,2.2,6.39,3.7
		c-4.06-2.75-8.73-4.72-13.59-5.2c-2.42-0.25-4.88-0.08-7.2,0.6c-2.34,0.64-4.48,1.85-6.38,3.33c-1.88,1.51-3.48,3.36-4.65,5.46
		c-1.18,2.1-1.95,4.42-2.36,6.8c-0.78,4.75-0.28,9.8,1.73,14.15c0.52,1.07,1.15,2.1,1.98,2.89c0.81,0.79,1.88,1.31,2.88,0.99
		c0.49-0.13,0.98-0.47,1.35-0.82c0.35-0.36,0.54-0.83,0.53-1.35c-0.01-1.05-0.65-2.12-1.38-3.02c-1.51-1.82-3.56-3.22-5.73-4.23
		c-2.18-1.01-4.56-1.63-6.96-1.74c-2.4-0.11-4.83,0.35-6.97,1.42c-2.15,1.05-3.98,2.75-5.31,4.77
		C290.82,82.69,289.77,87.86,290.86,92.67z"/>
	<g>
		<g>
			<g>
				<g>
					<path class="st9" d="M174.87,346.92c-2.24-0.71-4.63,0.54-5.33,2.78c-0.71,2.24,0.54,4.63,2.78,5.33
						c2.24,0.71,4.62-0.54,5.33-2.78C178.36,350.02,177.11,347.63,174.87,346.92z M177.16,352.1c-0.62,1.97-2.72,3.06-4.68,2.44
						c-1.97-0.62-3.06-2.72-2.44-4.68c0.62-1.97,2.72-3.06,4.68-2.44C176.68,348.04,177.78,350.13,177.16,352.1z M174.87,346.92
						c-2.24-0.71-4.63,0.54-5.33,2.78c-0.71,2.24,0.54,4.63,2.78,5.33c2.24,0.71,4.62-0.54,5.33-2.78
						C178.36,350.02,177.11,347.63,174.87,346.92z M177.16,352.1c-0.62,1.97-2.72,3.06-4.68,2.44c-1.97-0.62-3.06-2.72-2.44-4.68
						c0.62-1.97,2.72-3.06,4.68-2.44C176.68,348.04,177.78,350.13,177.16,352.1z M174.87,346.92c-2.24-0.71-4.63,0.54-5.33,2.78
						c-0.71,2.24,0.54,4.63,2.78,5.33c2.24,0.71,4.62-0.54,5.33-2.78C178.36,350.02,177.11,347.63,174.87,346.92z M177.16,352.1
						c-0.62,1.97-2.72,3.06-4.68,2.44c-1.97-0.62-3.06-2.72-2.44-4.68c0.62-1.97,2.72-3.06,4.68-2.44
						C176.68,348.04,177.78,350.13,177.16,352.1z M176.29,342.43c-4.72-1.49-9.76,1.14-11.24,5.85c-1.49,4.72,1.13,9.75,5.86,11.24
						c4.72,1.49,9.75-1.14,11.24-5.86C183.63,348.95,181.01,343.92,176.29,342.43z M178.28,352.45c-0.81,2.59-3.58,4.03-6.16,3.21
						c-2.58-0.81-4.02-3.58-3.21-6.16c0.81-2.59,3.58-4.02,6.16-3.21C177.65,347.11,179.1,349.87,178.28,352.45z M177.65,352.26
						c0.71-2.24-0.54-4.63-2.77-5.33c-2.24-0.71-4.63,0.54-5.33,2.78c-0.71,2.24,0.54,4.63,2.78,5.33
						C174.56,355.74,176.94,354.5,177.65,352.26z M177.16,352.1c-0.62,1.97-2.72,3.06-4.68,2.44c-1.97-0.62-3.06-2.72-2.44-4.68
						c0.62-1.97,2.72-3.06,4.68-2.44C176.68,348.04,177.78,350.13,177.16,352.1z M174.87,346.92c-2.24-0.71-4.63,0.54-5.33,2.78
						c-0.71,2.24,0.54,4.63,2.78,5.33c2.24,0.71,4.62-0.54,5.33-2.78C178.36,350.02,177.11,347.63,174.87,346.92z M177.16,352.1
						c-0.62,1.97-2.72,3.06-4.68,2.44c-1.97-0.62-3.06-2.72-2.44-4.68c0.62-1.97,2.72-3.06,4.68-2.44
						C176.68,348.04,177.78,350.13,177.16,352.1z M174.87,346.92c-2.24-0.71-4.63,0.54-5.33,2.78c-0.71,2.24,0.54,4.63,2.78,5.33
						c2.24,0.71,4.62-0.54,5.33-2.78C178.36,350.02,177.11,347.63,174.87,346.92z M177.16,352.1c-0.62,1.97-2.72,3.06-4.68,2.44
						c-1.97-0.62-3.06-2.72-2.44-4.68c0.62-1.97,2.72-3.06,4.68-2.44C176.68,348.04,177.78,350.13,177.16,352.1z"/>
					<g>
						<polygon class="st9" points="172.66,359.69 169.37,358.65 168.82,361.04 171.74,361.96 						"/>
						<polygon class="st9" points="166.75,356.61 165.16,353.55 163.08,354.85 164.5,357.57 						"/>
						<polygon class="st9" points="164.75,350.26 165.79,346.97 163.4,346.42 162.48,349.34 						"/>
						<polygon class="st9" points="167.83,344.35 170.89,342.76 169.59,340.68 166.87,342.1 						"/>
						<polygon class="st9" points="174.18,342.35 177.47,343.38 178.02,341 175.1,340.08 						"/>
						<polygon class="st9" points="180.09,345.43 181.68,348.48 183.76,347.19 182.34,344.47 						"/>
						<polygon class="st9" points="182.09,351.78 181.05,355.07 183.44,355.62 184.36,352.7 						"/>
						<polygon class="st9" points="179.01,357.69 175.95,359.28 177.25,361.36 179.97,359.94 						"/>
					</g>
				</g>
			</g>
		</g>
	</g>
	<g>
		<g>
			<path class="st1" d="M340.67,318.35c4.51-6.07,3.24-14.65-2.84-19.16c-6.08-4.51-14.66-3.24-19.16,2.83
				c-4.51,6.08-3.24,14.66,2.84,19.17C327.58,325.7,336.16,324.43,340.67,318.35z M334.81,314c-2.11,2.84-6.11,3.43-8.95,1.33
				c-2.84-2.11-3.43-6.11-1.32-8.95c2.11-2.84,6.11-3.43,8.95-1.32C336.32,307.16,336.92,311.16,334.81,314z"/>
			<polygon class="st1" points="323.96,322.3 319.73,319.16 317.74,322.33 321.51,325.12 			"/>
			<polygon class="st1" points="316.97,314.9 316.2,309.69 312.55,310.52 313.24,315.16 			"/>
			<polygon class="st1" points="317.26,304.72 320.4,300.49 317.23,298.5 314.44,302.27 			"/>
			<polygon class="st1" points="324.66,297.73 329.87,296.96 329.03,293.31 324.4,294 			"/>
			<polygon class="st1" points="334.84,298.02 339.07,301.15 341.05,297.99 337.29,295.19 			"/>
			<polygon class="st1" points="341.83,305.42 342.6,310.63 346.25,309.79 345.56,305.16 			"/>
			<polygon class="st1" points="341.54,315.59 338.4,319.82 341.57,321.81 344.36,318.05 			"/>
			<polygon class="st1" points="334.14,322.59 328.93,323.36 329.76,327 334.4,326.32 			"/>
		</g>
		<path class="st1" d="M324.77,310.84l2.91,3.67l4.63-0.69l1.72-4.35l-2.91-3.67l-4.63,0.68L324.77,310.84z M330.28,308.97
			c0.66,0.49,0.8,1.42,0.31,2.08c-0.49,0.66-1.42,0.8-2.08,0.31c-0.66-0.49-0.8-1.42-0.31-2.08
			C328.7,308.61,329.63,308.48,330.28,308.97z"/>
	</g>
	<g>
		<g>
			<g>
				<g>
					<path class="st1" d="M350.94,51.6c-1.96-0.62-4.05,0.47-4.67,2.43c-0.62,1.96,0.47,4.05,2.43,4.67
						c1.96,0.62,4.05-0.47,4.66-2.43C353.99,54.31,352.9,52.22,350.94,51.6z M352.94,56.13c-0.54,1.72-2.38,2.68-4.1,2.14
						c-1.72-0.54-2.68-2.38-2.13-4.1c0.54-1.72,2.38-2.68,4.1-2.13C352.53,52.58,353.48,54.41,352.94,56.13z M350.94,51.6
						c-1.96-0.62-4.05,0.47-4.67,2.43c-0.62,1.96,0.47,4.05,2.43,4.67c1.96,0.62,4.05-0.47,4.66-2.43
						C353.99,54.31,352.9,52.22,350.94,51.6z M352.94,56.13c-0.54,1.72-2.38,2.68-4.1,2.14c-1.72-0.54-2.68-2.38-2.13-4.1
						c0.54-1.72,2.38-2.68,4.1-2.13C352.53,52.58,353.48,54.41,352.94,56.13z M350.94,51.6c-1.96-0.62-4.05,0.47-4.67,2.43
						c-0.62,1.96,0.47,4.05,2.43,4.67c1.96,0.62,4.05-0.47,4.66-2.43C353.99,54.31,352.9,52.22,350.94,51.6z M352.94,56.13
						c-0.54,1.72-2.38,2.68-4.1,2.14c-1.72-0.54-2.68-2.38-2.13-4.1c0.54-1.72,2.38-2.68,4.1-2.13
						C352.53,52.58,353.48,54.41,352.94,56.13z M352.18,47.67c-4.13-1.3-8.54,0.99-9.84,5.12c-1.3,4.13,0.99,8.54,5.12,9.84
						c4.13,1.3,8.53-0.99,9.84-5.12C358.61,53.38,356.31,48.97,352.18,47.67z M353.92,56.44c-0.71,2.26-3.13,3.52-5.39,2.81
						c-2.26-0.71-3.52-3.13-2.81-5.39c0.71-2.26,3.13-3.52,5.39-2.81C353.38,51.76,354.64,54.18,353.92,56.44z M353.37,56.27
						c0.62-1.96-0.47-4.05-2.43-4.67c-1.96-0.62-4.05,0.47-4.67,2.43c-0.62,1.96,0.47,4.05,2.43,4.67
						C350.67,59.32,352.75,58.23,353.37,56.27z M352.94,56.13c-0.54,1.72-2.38,2.68-4.1,2.14c-1.72-0.54-2.68-2.38-2.13-4.1
						c0.54-1.72,2.38-2.68,4.1-2.13C352.53,52.58,353.48,54.41,352.94,56.13z M350.94,51.6c-1.96-0.62-4.05,0.47-4.67,2.43
						c-0.62,1.96,0.47,4.05,2.43,4.67c1.96,0.62,4.05-0.47,4.66-2.43C353.99,54.31,352.9,52.22,350.94,51.6z M352.94,56.13
						c-0.54,1.72-2.38,2.68-4.1,2.14c-1.72-0.54-2.68-2.38-2.13-4.1c0.54-1.72,2.38-2.68,4.1-2.13
						C352.53,52.58,353.48,54.41,352.94,56.13z M350.94,51.6c-1.96-0.62-4.05,0.47-4.67,2.43c-0.62,1.96,0.47,4.05,2.43,4.67
						c1.96,0.62,4.05-0.47,4.66-2.43C353.99,54.31,352.9,52.22,350.94,51.6z M352.94,56.13c-0.54,1.72-2.38,2.68-4.1,2.14
						c-1.72-0.54-2.68-2.38-2.13-4.1c0.54-1.72,2.38-2.68,4.1-2.13C352.53,52.58,353.48,54.41,352.94,56.13z"/>
					<g>
						<polygon class="st1" points="349,62.77 346.13,61.87 345.64,63.95 348.2,64.76 						"/>
						<polygon class="st1" points="343.83,60.08 342.44,57.4 340.63,58.54 341.86,60.92 						"/>
						<polygon class="st1" points="342.08,54.52 342.99,51.64 340.9,51.16 340.1,53.72 						"/>
						<polygon class="st1" points="344.78,49.35 347.45,47.96 346.32,46.14 343.94,47.38 						"/>
						<polygon class="st1" points="350.34,47.6 353.21,48.51 353.7,46.42 351.14,45.61 						"/>
						<polygon class="st1" points="355.51,50.29 356.9,52.97 358.72,51.83 357.48,49.46 						"/>
						<polygon class="st1" points="357.26,55.85 356.35,58.73 358.44,59.21 359.24,56.65 						"/>
						<polygon class="st1" points="354.56,61.02 351.89,62.41 353.02,64.23 355.4,62.99 						"/>
					</g>
				</g>
			</g>
		</g>
	</g>
	<g>
		<g>
			<g>
				<g>
					<path class="st1" d="M312.73,194.47c-1.96-0.62-4.05,0.47-4.67,2.43c-0.62,1.96,0.47,4.05,2.43,4.67
						c1.96,0.62,4.05-0.47,4.66-2.43C315.77,197.17,314.69,195.08,312.73,194.47z M314.72,199c-0.54,1.72-2.38,2.68-4.1,2.14
						s-2.68-2.38-2.13-4.1c0.54-1.72,2.38-2.68,4.1-2.13C314.31,195.44,315.27,197.27,314.72,199z M312.73,194.47
						c-1.96-0.62-4.05,0.47-4.67,2.43c-0.62,1.96,0.47,4.05,2.43,4.67c1.96,0.62,4.05-0.47,4.66-2.43
						C315.77,197.17,314.69,195.08,312.73,194.47z M314.72,199c-0.54,1.72-2.38,2.68-4.1,2.14s-2.68-2.38-2.13-4.1
						c0.54-1.72,2.38-2.68,4.1-2.13C314.31,195.44,315.27,197.27,314.72,199z M312.73,194.47c-1.96-0.62-4.05,0.47-4.67,2.43
						c-0.62,1.96,0.47,4.05,2.43,4.67c1.96,0.62,4.05-0.47,4.66-2.43C315.77,197.17,314.69,195.08,312.73,194.47z M314.72,199
						c-0.54,1.72-2.38,2.68-4.1,2.14s-2.68-2.38-2.13-4.1c0.54-1.72,2.38-2.68,4.1-2.13C314.31,195.44,315.27,197.27,314.72,199z
						 M313.97,190.53c-4.13-1.3-8.54,0.99-9.84,5.12c-1.3,4.13,0.99,8.54,5.12,9.84c4.13,1.3,8.53-0.99,9.84-5.12
						C320.39,196.24,318.1,191.84,313.97,190.53z M315.71,199.31c-0.71,2.26-3.13,3.52-5.39,2.81c-2.26-0.71-3.52-3.13-2.81-5.39
						c0.71-2.26,3.13-3.52,5.39-2.81C315.16,194.63,316.42,197.05,315.71,199.31z M315.16,199.13c0.62-1.96-0.47-4.05-2.43-4.67
						c-1.96-0.62-4.05,0.47-4.67,2.43c-0.62,1.96,0.47,4.05,2.43,4.67C312.45,202.18,314.54,201.09,315.16,199.13z M314.72,199
						c-0.54,1.72-2.38,2.68-4.1,2.14s-2.68-2.38-2.13-4.1c0.54-1.72,2.38-2.68,4.1-2.13C314.31,195.44,315.27,197.27,314.72,199z
						 M312.73,194.47c-1.96-0.62-4.05,0.47-4.67,2.43c-0.62,1.96,0.47,4.05,2.43,4.67c1.96,0.62,4.05-0.47,4.66-2.43
						C315.77,197.17,314.69,195.08,312.73,194.47z M314.72,199c-0.54,1.72-2.38,2.68-4.1,2.14s-2.68-2.38-2.13-4.1
						c0.54-1.72,2.38-2.68,4.1-2.13C314.31,195.44,315.27,197.27,314.72,199z M312.73,194.47c-1.96-0.62-4.05,0.47-4.67,2.43
						c-0.62,1.96,0.47,4.05,2.43,4.67c1.96,0.62,4.05-0.47,4.66-2.43C315.77,197.17,314.69,195.08,312.73,194.47z M314.72,199
						c-0.54,1.72-2.38,2.68-4.1,2.14s-2.68-2.38-2.13-4.1c0.54-1.72,2.38-2.68,4.1-2.13C314.31,195.44,315.27,197.27,314.72,199z"/>
					<g>
						<polygon class="st1" points="310.79,205.64 307.91,204.73 307.43,206.82 309.99,207.62 						"/>
						<polygon class="st1" points="305.62,202.94 304.23,200.27 302.41,201.4 303.65,203.78 						"/>
						<polygon class="st1" points="303.87,197.38 304.77,194.51 302.69,194.02 301.88,196.58 						"/>
						<polygon class="st1" points="306.56,192.21 309.24,190.82 308.1,189.01 305.72,190.24 						"/>
						<polygon class="st1" points="312.12,190.46 315,191.37 315.48,189.28 312.92,188.48 						"/>
						<polygon class="st1" points="317.29,193.16 318.68,195.83 320.5,194.7 319.26,192.32 						"/>
						<polygon class="st1" points="319.04,198.72 318.13,201.59 320.22,202.08 321.03,199.52 						"/>
						<polygon class="st1" points="316.35,203.89 313.67,205.28 314.81,207.1 317.19,205.86 						"/>
					</g>
				</g>
			</g>
		</g>
	</g>
	<g>
		<g>
			<path class="st1" d="M94.02,81.99c1.54-6.33-2.34-12.71-8.67-14.25c-6.33-1.54-12.71,2.34-14.25,8.67
				c-1.54,6.33,2.34,12.71,8.67,14.25C86.1,92.2,92.48,88.32,94.02,81.99z M87.91,80.5c-0.72,2.96-3.7,4.77-6.65,4.05
				c-2.96-0.72-4.77-3.7-4.05-6.66c0.72-2.96,3.7-4.77,6.66-4.05C86.82,74.57,88.63,77.55,87.91,80.5z"/>
			<polygon class="st1" points="82.09,90.72 77.68,89.65 77.16,92.83 81.08,93.78 			"/>
			<polygon class="st1" points="74.06,87.19 71.71,83.32 69.09,85.2 71.19,88.65 			"/>
			<polygon class="st1" points="70.88,79.02 71.96,74.62 68.78,74.1 67.82,78.02 			"/>
			<polygon class="st1" points="74.41,71 78.29,68.64 76.4,66.03 72.96,68.12 			"/>
			<polygon class="st1" points="82.58,67.82 86.99,68.89 87.5,65.71 83.58,64.76 			"/>
			<polygon class="st1" points="90.61,71.35 92.96,75.22 95.58,73.34 93.48,69.89 			"/>
			<polygon class="st1" points="93.79,79.52 92.71,83.92 95.89,84.44 96.85,80.52 			"/>
			<polygon class="st1" points="90.26,87.54 86.38,89.9 88.27,92.51 91.71,90.42 			"/>
		</g>
		<path class="st1" d="M78.89,81.37l3.54,1.94l3.45-2.1l-0.09-4.03l-3.53-1.94l-3.45,2.09L78.89,81.37z M82.64,78.03
			c0.69,0.17,1.11,0.86,0.94,1.54c-0.17,0.68-0.86,1.11-1.54,0.94c-0.68-0.17-1.11-0.86-0.94-1.54
			C81.26,78.28,81.95,77.86,82.64,78.03z"/>
	</g>
</g>
<g>
	<g>
		<path class="st6" d="M360.59,203.94c-2.69-4.1-4.2-8.7-4.2-13.57c0-17.2,18.88-31.14,42.16-31.14c23.28,0,42.14,13.94,42.14,31.14
			c0,17.2-18.87,31.14-42.14,31.14c-11.29,0-21.52-3.27-29.08-8.62l-14.52,3.69L360.59,203.94z"/>
		<path class="st1" d="M360.59,203.94c-2.54-3.78-4.13-8.25-4.3-12.83c-0.13-4.58,1-9.21,3.35-13.17c2.3-3.99,5.57-7.35,9.27-10.06
			c3.7-2.72,7.87-4.78,12.23-6.22c4.35-1.45,8.89-2.33,13.47-2.69c4.58-0.34,9.2-0.05,13.73,0.7c1.12,0.23,2.27,0.38,3.38,0.68
			l3.33,0.9l3.25,1.15c1.08,0.39,2.11,0.92,3.17,1.37c4.15,1.97,8.05,4.56,11.32,7.83c3.27,3.25,5.9,7.23,7.29,11.68
			c1.39,4.43,1.49,9.3,0.14,13.76c-1.31,4.47-3.89,8.49-7.11,11.79c-3.23,3.31-7.09,5.94-11.22,7.96
			c-4.13,2.04-8.58,3.38-13.09,4.19c-4.52,0.78-9.13,1.11-13.71,0.79c-4.58-0.29-9.12-1.13-13.48-2.56
			c-4.35-1.43-8.54-3.43-12.26-6.11l0.19,0.03l-14.55,3.58l-0.22,0.05l0.09-0.2L360.59,203.94z M360.59,203.94l-5.54,12.69
			l-0.13-0.15l14.49-3.81l0.1-0.03l0.09,0.06c7.48,5.16,16.5,7.85,25.52,8.33c4.52,0.28,9.07-0.09,13.52-0.89
			c4.44-0.83,8.81-2.14,12.86-4.16c4.05-1.99,7.81-4.58,10.95-7.81c3.13-3.22,5.6-7.11,6.84-11.41c1.29-4.29,1.16-8.94-0.16-13.2
			c-1.32-4.27-3.85-8.12-7.01-11.3c-3.17-3.19-6.97-5.73-11.03-7.68c-1.04-0.45-2.04-0.97-3.1-1.35l-3.19-1.14l-3.27-0.89
			c-1.09-0.29-2.22-0.45-3.32-0.68c-4.45-0.76-9-1.03-13.52-0.74c-4.51,0.32-8.99,1.14-13.3,2.54c-4.31,1.39-8.44,3.38-12.11,6.03
			c-3.67,2.63-6.91,5.92-9.24,9.81c-2.38,3.86-3.56,8.41-3.51,12.95C356.6,195.65,358.11,200.12,360.59,203.94z"/>
	</g>
	<g>
		<rect x="369.52" y="182.46" class="st10" width="63.95" height="19.05"/>
		<path d="M374.63,187.91l3.19-5.46h2.82l-4.7,8.03l-3.61,6.17h-2.82L374.63,187.91z M374.6,190.84l-0.27-0.46l-4.7-7.93h2.82
			l3.18,5.38l0.37,0.63l4.85,8.18h-2.82L374.6,190.84z"/>
		<path d="M382.35,196.02c-0.54-0.52-0.81-1.3-0.81-2.36c0-1,0.3-1.75,0.9-2.26s1.51-0.75,2.71-0.75h2.54l0.14,2.04h-2.67
			c-0.4,0-0.71,0.08-0.91,0.24s-0.3,0.4-0.3,0.73c0,0.33,0.13,0.58,0.38,0.74s0.64,0.24,1.15,0.24c0.72,0,1.25-0.08,1.6-0.24
			s0.52-0.42,0.52-0.76l0.21,1.47c-0.04,0.36-0.21,0.67-0.5,0.93s-0.67,0.44-1.11,0.57s-0.92,0.19-1.41,0.19
			C383.7,196.8,382.89,196.54,382.35,196.02z M387.61,190.23c0-0.47-0.16-0.83-0.47-1.08s-0.75-0.38-1.33-0.38
			c-0.38,0-0.75,0.06-1.12,0.19s-0.7,0.3-0.99,0.52l-1.66-1.63c0.4-0.46,0.94-0.82,1.6-1.08s1.4-0.39,2.21-0.39
			c0.89,0,1.64,0.15,2.27,0.44s1.1,0.73,1.43,1.29s0.49,1.24,0.49,2.04v6.51h-2.43V190.23z"/>
		<path d="M391.9,186.52h4.96v2.29h-4.96V186.52z M393.56,196.02c-0.41-0.45-0.62-1.12-0.62-2.01v-10.45h2.68v9.79
			c0,0.25,0.05,0.44,0.15,0.57s0.24,0.2,0.43,0.2h0.66v2.58h-1.35C394.63,196.7,393.98,196.48,393.56,196.02z"/>
		<path d="M400.92,196.28c-0.65-0.35-1.15-0.85-1.49-1.51s-0.51-1.46-0.51-2.39v-1.65c0-0.92,0.17-1.7,0.51-2.36
			s0.84-1.15,1.49-1.49s1.44-0.51,2.37-0.51s1.71,0.17,2.37,0.51s1.15,0.84,1.49,1.49s0.51,1.44,0.51,2.36v1.68
			c0,0.92-0.17,1.71-0.51,2.37s-0.84,1.15-1.49,1.5s-1.44,0.52-2.37,0.52S401.57,196.63,400.92,196.28z M404.54,193.75
			c0.3-0.32,0.45-0.76,0.45-1.33v-1.68c0-0.57-0.15-1.01-0.45-1.32s-0.72-0.47-1.26-0.47c-0.53,0-0.95,0.16-1.25,0.47
			s-0.44,0.75-0.44,1.32v1.68c0,0.57,0.15,1.02,0.44,1.33s0.71,0.47,1.25,0.47S404.24,194.07,404.54,193.75z"/>
		<path d="M412.78,193.31c0,0.25,0.07,0.44,0.21,0.57s0.34,0.2,0.6,0.2h0.45v2.58h-1.37c-0.81,0-1.45-0.23-1.89-0.7
			s-0.67-1.13-0.67-1.98v-11.51h2.68V193.31z"/>
		<path d="M415.75,182.46h2.68v2.68h-2.68V182.46z M415.75,186.52h2.68v10.14h-2.68V186.52z"/>
		<path d="M420.91,182.46h2.68v14.2h-2.68V182.46z M422.16,193l4.73-6.48h2.83l-7.2,9.43L422.16,193z M424.57,191.42l2.21-1.33
			l3.45,6.56h-3.1L424.57,191.42z"/>
	</g>
</g>
<g>
	<rect x="41.51" y="430.78" class="st10" width="425.17" height="57.82"/>
	<path d="M131.3,455.16c0,0-0.55-0.12-1.65-0.35c-1.1-0.23-2.14-0.57-3.1-1.02c-0.97-0.45-1.83-0.99-2.6-1.62l2.11-3.75
		c0.93,0.76,2,1.35,3.22,1.77c1.22,0.41,2.47,0.62,3.75,0.62c1.48,0,2.63-0.25,3.45-0.75c0.82-0.5,1.23-1.21,1.23-2.13v-0.02
		c0-0.64-0.18-1.15-0.55-1.53s-0.84-0.65-1.43-0.83c-0.59-0.18-1.34-0.34-2.26-0.48c-0.03-0.01-0.06-0.02-0.09-0.02
		c-0.03,0-0.06-0.01-0.09-0.02l-0.37-0.05c-1.62-0.25-2.96-0.57-4.02-0.96c-1.06-0.38-1.96-1.05-2.71-2.01
		c-0.74-0.96-1.11-2.32-1.11-4.08v-0.02c0-1.56,0.35-2.89,1.05-4s1.71-1.95,3.04-2.53c1.33-0.58,2.93-0.87,4.81-0.87
		c0.86,0,1.75,0.1,2.65,0.3c0.9,0.2,1.78,0.49,2.65,0.86s1.68,0.83,2.46,1.36l-1.93,3.85c-0.93-0.64-1.9-1.14-2.91-1.49
		s-1.98-0.53-2.91-0.53c-1.39,0-2.47,0.23-3.24,0.69c-0.76,0.46-1.15,1.1-1.15,1.93v0.02c0,0.7,0.2,1.25,0.6,1.65
		c0.4,0.4,0.89,0.7,1.48,0.89c0.59,0.19,1.41,0.39,2.47,0.6c0.04,0.01,0.09,0.02,0.13,0.02c0.04,0.01,0.09,0.01,0.13,0.03
		c0.07,0.01,0.13,0.03,0.19,0.04c0.06,0.02,0.12,0.03,0.19,0.04c1.53,0.3,2.8,0.66,3.83,1.09c1.02,0.43,1.88,1.11,2.56,2.06
		c0.69,0.95,1.03,2.24,1.03,3.88v0.03c0,1.54-0.36,2.86-1.08,3.95c-0.72,1.1-1.77,1.93-3.15,2.51s-3.04,0.86-4.97,0.86
		C131.88,455.16,131.3,455.16,131.3,455.16z"/>
	<path d="M146.58,453.84c-0.91-0.88-1.37-2.22-1.37-4.01c0-1.7,0.51-2.98,1.54-3.83c1.02-0.85,2.56-1.28,4.61-1.28h4.32l0.23,3.47
		h-4.53c-0.69,0-1.2,0.14-1.54,0.41c-0.34,0.27-0.51,0.68-0.51,1.24c0,0.56,0.22,0.98,0.65,1.25c0.43,0.27,1.08,0.41,1.96,0.41
		c1.22,0,2.12-0.14,2.71-0.42c0.59-0.28,0.89-0.71,0.89-1.29l0.35,2.51c-0.07,0.62-0.35,1.15-0.85,1.58
		c-0.5,0.43-1.13,0.75-1.89,0.97c-0.76,0.21-1.56,0.32-2.4,0.32C148.88,455.16,147.5,454.72,146.58,453.84z M155.52,443.99
		c0-0.8-0.27-1.41-0.8-1.84s-1.28-0.65-2.26-0.65c-0.64,0-1.28,0.11-1.91,0.32s-1.19,0.5-1.68,0.88l-2.82-2.77
		c0.69-0.79,1.59-1.4,2.72-1.83c1.13-0.44,2.38-0.66,3.75-0.66c1.5,0,2.79,0.25,3.85,0.75c1.06,0.5,1.87,1.23,2.43,2.19
		c0.56,0.96,0.84,2.11,0.84,3.46v11.07h-4.13V443.99z"/>
	<path d="M164.14,430.78h4.55v24.14h-4.55V430.78z M174.1,444.47c0-0.84-0.24-1.49-0.72-1.96s-1.17-0.7-2.05-0.7
		c-0.84,0-1.49,0.24-1.95,0.71c-0.46,0.47-0.69,1.13-0.69,1.98l-0.35-3.82c0.52-1.08,1.14-1.9,1.87-2.44
		c0.72-0.54,1.64-0.81,2.73-0.81c1.81,0,3.22,0.61,4.22,1.83c1,1.22,1.49,2.95,1.49,5.19v10.46h-4.55V444.47z"/>
	<path d="M182.88,430.78h4.55v4.55h-4.55V430.78z M182.88,437.68h4.55v17.23h-4.55V437.68z"/>
	<path d="M190.34,437.68h9.28v3.88h-9.28V437.68z M192.16,435.34c0-1.53,0.35-2.67,1.05-3.43c0.7-0.76,1.78-1.14,3.25-1.14h3.15
		v4.05h-1.93c-0.32,0-0.56,0.12-0.73,0.37s-0.25,0.56-0.25,0.95v18.78h-4.55V435.34z"/>
	<path d="M202.31,453.84c-0.91-0.88-1.37-2.22-1.37-4.01c0-1.7,0.51-2.98,1.54-3.83c1.02-0.85,2.56-1.28,4.61-1.28h4.32l0.23,3.47
		h-4.53c-0.69,0-1.2,0.14-1.54,0.41c-0.34,0.27-0.51,0.68-0.51,1.24c0,0.56,0.22,0.98,0.65,1.25c0.43,0.27,1.08,0.41,1.96,0.41
		c1.22,0,2.12-0.14,2.71-0.42c0.59-0.28,0.89-0.71,0.89-1.29l0.35,2.51c-0.07,0.62-0.35,1.15-0.85,1.58
		c-0.5,0.43-1.13,0.75-1.89,0.97c-0.76,0.21-1.56,0.32-2.4,0.32C204.61,455.16,203.23,454.72,202.31,453.84z M211.25,443.99
		c0-0.8-0.27-1.41-0.8-1.84s-1.28-0.65-2.26-0.65c-0.64,0-1.28,0.11-1.91,0.32s-1.19,0.5-1.68,0.88l-2.82-2.77
		c0.69-0.79,1.59-1.4,2.72-1.83c1.13-0.44,2.38-0.66,3.75-0.66c1.5,0,2.79,0.25,3.85,0.75c1.06,0.5,1.87,1.23,2.43,2.19
		c0.56,0.96,0.84,2.11,0.84,3.46v11.07h-4.13V443.99z"/>
	<path d="M227.67,437.68h8.43v3.88h-8.43V437.68z M230.5,453.84c-0.7-0.77-1.05-1.91-1.05-3.41v-17.76H234v16.63
		c0,0.42,0.08,0.74,0.25,0.97c0.17,0.23,0.41,0.34,0.73,0.34h1.13V455h-2.29C232.31,455,231.21,454.61,230.5,453.84z"/>
	<path d="M243.01,454.28c-1.11-0.59-1.96-1.44-2.54-2.56c-0.58-1.12-0.87-2.48-0.87-4.06v-2.81c0-1.56,0.29-2.9,0.87-4.01
		c0.58-1.11,1.43-1.96,2.54-2.54c1.11-0.58,2.45-0.87,4.03-0.87c1.57,0,2.91,0.29,4.03,0.87c1.11,0.58,1.96,1.43,2.54,2.54
		c0.58,1.11,0.87,2.45,0.87,4.01v2.86c0,1.57-0.29,2.91-0.87,4.03c-0.58,1.11-1.43,1.96-2.54,2.55c-1.11,0.59-2.45,0.88-4.03,0.88
		C245.46,455.16,244.12,454.87,243.01,454.28z M249.16,449.97c0.51-0.54,0.76-1.29,0.76-2.27v-2.86c0-0.96-0.25-1.71-0.76-2.24
		c-0.51-0.53-1.22-0.8-2.14-0.8c-0.91,0-1.61,0.27-2.12,0.8c-0.5,0.53-0.76,1.28-0.76,2.24v2.86c0,0.97,0.25,1.73,0.75,2.27
		c0.5,0.54,1.21,0.81,2.13,0.81C247.93,450.78,248.65,450.51,249.16,449.97z"/>
	<path d="M258.62,437.68h4.55v24.24h-4.55V437.68z M264.56,454.39c-0.73-0.51-1.27-1.24-1.63-2.18l0.23-3.93
		c0,0.56,0.1,1.05,0.3,1.44s0.49,0.7,0.87,0.91c0.38,0.21,0.84,0.32,1.39,0.32c0.85,0,1.51-0.28,1.98-0.85
		c0.47-0.56,0.71-1.36,0.71-2.39v-2.74c0-1.05-0.24-1.87-0.71-2.45c-0.47-0.58-1.13-0.87-1.98-0.87c-0.54,0-1,0.11-1.39,0.32
		c-0.38,0.22-0.67,0.53-0.87,0.94s-0.3,0.91-0.3,1.49l-0.35-3.82c0.46-1.01,1.08-1.78,1.83-2.33c0.76-0.55,1.6-0.82,2.51-0.82
		c1.22,0,2.26,0.29,3.13,0.88c0.87,0.59,1.53,1.44,1.98,2.57s0.68,2.48,0.68,4.07v2.76c0,1.57-0.23,2.91-0.68,4.03
		c-0.45,1.11-1.12,1.96-1.98,2.55c-0.87,0.59-1.91,0.88-3.13,0.88C266.16,455.16,265.29,454.91,264.56,454.39z"/>
	<path d="M276.86,430.78h4.55v4.55h-4.55V430.78z M276.86,437.68h4.55v17.23h-4.55V437.68z"/>
	<path d="M290.2,449.22c0,0.42,0.12,0.74,0.36,0.97c0.24,0.23,0.58,0.34,1.02,0.34h0.76v4.38h-2.32c-1.38,0-2.46-0.4-3.22-1.2
		s-1.15-1.92-1.15-3.37v-19.57h4.55V449.22z"/>
	<path d="M295.33,437.68h4.55v17.23h-4.55V437.68z M305.37,444.97c0-1.01-0.25-1.78-0.75-2.33c-0.5-0.55-1.2-0.82-2.11-0.82
		c-0.84,0-1.49,0.24-1.95,0.71c-0.46,0.47-0.69,1.13-0.69,1.98l-0.35-3.82c0.51-1.06,1.15-1.87,1.91-2.42s1.66-0.83,2.69-0.83
		c1.22,0,2.26,0.29,3.13,0.88c0.87,0.59,1.53,1.44,1.98,2.57s0.68,2.48,0.68,4.07v9.96h-4.55V444.97z M315.41,444.97
		c0-1.01-0.24-1.78-0.72-2.33c-0.48-0.55-1.16-0.82-2.05-0.82c-0.87,0-1.55,0.26-2.02,0.79c-0.47,0.53-0.71,1.27-0.71,2.23
		l-0.85-3.98c0.54-1.1,1.25-1.94,2.12-2.53c0.87-0.59,1.83-0.89,2.9-0.89c1.24,0,2.3,0.29,3.18,0.88c0.88,0.59,1.55,1.44,2.01,2.57
		c0.46,1.13,0.69,2.48,0.69,4.07v9.96h-4.55V444.97z"/>
	<path d="M324.98,453.84c-0.91-0.88-1.37-2.22-1.37-4.01c0-1.7,0.51-2.98,1.54-3.83c1.02-0.85,2.56-1.28,4.61-1.28h4.32l0.23,3.47
		h-4.53c-0.69,0-1.2,0.14-1.54,0.41c-0.34,0.27-0.51,0.68-0.51,1.24c0,0.56,0.22,0.98,0.65,1.25c0.43,0.27,1.08,0.41,1.96,0.41
		c1.22,0,2.12-0.14,2.71-0.42c0.59-0.28,0.89-0.71,0.89-1.29l0.35,2.51c-0.07,0.62-0.35,1.15-0.86,1.58
		c-0.5,0.43-1.13,0.75-1.89,0.97c-0.76,0.21-1.56,0.32-2.4,0.32C327.28,455.16,325.9,454.72,324.98,453.84z M333.92,443.99
		c0-0.8-0.27-1.41-0.8-1.84s-1.28-0.65-2.26-0.65c-0.64,0-1.28,0.11-1.91,0.32s-1.19,0.5-1.68,0.88l-2.82-2.77
		c0.69-0.79,1.59-1.4,2.72-1.83c1.13-0.44,2.38-0.66,3.75-0.66c1.5,0,2.79,0.25,3.85,0.75c1.06,0.5,1.87,1.23,2.43,2.19
		c0.56,0.96,0.84,2.11,0.84,3.46v11.07h-4.13V443.99z"/>
	<path d="M344.71,454.28c-0.87-0.59-1.53-1.44-1.98-2.55c-0.45-1.11-0.68-2.45-0.68-4.03v-2.76c0-1.58,0.23-2.94,0.68-4.07
		s1.12-1.99,1.98-2.57c0.87-0.59,1.91-0.88,3.13-0.88c0.92,0,1.76,0.27,2.51,0.82c0.76,0.55,1.37,1.33,1.83,2.33l-0.35,3.82
		c0-0.59-0.1-1.08-0.3-1.49s-0.49-0.72-0.87-0.94c-0.38-0.21-0.84-0.32-1.39-0.32c-0.85,0-1.51,0.29-1.98,0.87
		c-0.47,0.58-0.71,1.4-0.71,2.45v2.74c0,1.03,0.24,1.83,0.71,2.39c0.47,0.56,1.13,0.85,1.98,0.85c0.54,0,1-0.11,1.39-0.32
		c0.38-0.21,0.67-0.51,0.87-0.91s0.3-0.88,0.3-1.44l0.23,3.93c-0.35,0.94-0.9,1.67-1.63,2.18c-0.73,0.52-1.6,0.77-2.61,0.77
		C346.62,455.16,345.58,454.87,344.71,454.28z M351.84,430.78h4.55v24.14h-4.55V430.78z"/>
	<path d="M360.62,430.78h4.55v4.55h-4.55V430.78z M360.62,437.68h4.55v17.23h-4.55V437.68z"/>
	<path d="M378.53,430.78h4.55v16.95h-4.55V430.78z M378.53,450.37h4.55v4.55h-4.55V450.37z"/>
</g>
<g>
</g>
<g>
</g>
<g>
</g>
<g>
</g>
<g>
</g>
<g>
</g>
<g>
</g>
<g>
</g>
<g>
</g>
<g>
</g>
<g>
</g>
</svg>
