<svg id="Слой_7" data-name="Слой 7" xmlns="http://www.w3.org/2000/svg" viewBox="0 0 636.48 373.9"><defs><style>.cls-1,.cls-15{fill:#ececec;}.cls-13,.cls-2{fill:#ffc800;}.cls-3{fill:#1a2e35;}.cls-4{fill:#375a64;}.cls-5{fill:#dcdcdc;}.cls-6{fill:#c8c8c8;}.cls-7,.cls-8{fill:#fff;}.cls-8{opacity:0.6;}.cls-9{opacity:0.2;}.cls-10{opacity:0.1;}.cls-11{opacity:0.8;}.cls-12{fill:#a8a8a8;}.cls-13{font-size:20.51px;}.cls-13,.cls-15{font-family:Norwester-Regular, Norwester;}.cls-14{letter-spacing:-0.03em;}.cls-15{font-size:22.08px;}.cls-16{letter-spacing:-0.03em;}.cls-17{opacity:0.4;}.cls-18{fill:#ff9581;}.cls-19{fill:#2b454e;}.cls-20{fill:#ff98bb;}</style></defs><path class="cls-1" d="M673.84,233.4l5.89-9.49-2.91-1.8a2.66,2.66,0,0,1-1.23-2.5,13.31,13.31,0,0,0,0-1.67,2.67,2.67,0,0,1,1.39-2.41l3-1.62-5.28-9.84-3,1.61a2.64,2.64,0,0,1-2.78-.18,14.65,14.65,0,0,0-1.42-.88,2.62,2.62,0,0,1-1.39-2.4l.1-3.42-11.16-.35-.1,3.43a2.66,2.66,0,0,1-1.56,2.31l-.73.37c-.25.13-.48.27-.72.41a2.63,2.63,0,0,1-2.77,0l-2.93-1.81-5.89,9.49,2.92,1.8a2.68,2.68,0,0,1,1.23,2.5,15.44,15.44,0,0,0-.06,1.67,2.64,2.64,0,0,1-1.38,2.4l-3,1.62,5.28,9.84,3-1.61a2.64,2.64,0,0,1,2.77.18c.46.31.93.61,1.41.87a2.65,2.65,0,0,1,1.41,2.41l-.11,3.42,11.16.35.11-3.43a2.64,2.64,0,0,1,1.55-2.3c.25-.12.5-.24.74-.37l.72-.41a2.65,2.65,0,0,1,2.78,0Zm-9.45-7.05A9.15,9.15,0,1,1,668.14,214,9.14,9.14,0,0,1,664.39,226.35Z" transform="translate(-45.16 -167.99)"/><path class="cls-1" d="M116.28,466.93l-3.91-6.77-2.07,1.2a1.87,1.87,0,0,1-2-.07c-.33-.21-.67-.41-1-.59a1.86,1.86,0,0,1-1-1.65v-2.39H98.48v2.39a1.84,1.84,0,0,1-1,1.65,11.12,11.12,0,0,0-1,.59,1.87,1.87,0,0,1-2,.07l-2.08-1.2-3.91,6.77,2.09,1.2a1.89,1.89,0,0,1,.91,1.73c0,.19,0,.38,0,.58s0,.38,0,.57a1.87,1.87,0,0,1-.91,1.72l-2.09,1.21,3.91,6.77,2.08-1.2a1.87,1.87,0,0,1,2,.07c.33.21.66.41,1,.59a1.85,1.85,0,0,1,1,1.65v2.4h7.82v-2.4a1.87,1.87,0,0,1,1-1.65,11.12,11.12,0,0,0,1-.59,1.87,1.87,0,0,1,2-.07l2.08,1.2,3.91-6.77-2.08-1.2a1.87,1.87,0,0,1-.91-1.72c0-.2,0-.39,0-.58s0-.39,0-.58a1.88,1.88,0,0,1,.91-1.73Zm-7.48,3.51a6.41,6.41,0,1,1-6.41-6.42A6.41,6.41,0,0,1,108.8,470.44Z" transform="translate(-45.16 -167.99)"/><path class="cls-1" d="M84.48,367.23A30.48,30.48,0,1,0,115,397.7,30.46,30.46,0,0,0,84.48,367.23Zm0,44.7A14.23,14.23,0,1,1,98.71,397.7,14.24,14.24,0,0,1,84.48,411.93Z" transform="translate(-45.16 -167.99)"/><polygon class="cls-1" points="45.18 200.5 33.46 200.5 34.11 192.21 44.53 192.21 45.18 200.5"/><polygon class="cls-1" points="22.87 204.45 14.59 212.74 9.18 206.41 16.55 199.04 22.87 204.45"/><polygon class="cls-1" points="9.89 223.01 9.89 234.73 1.6 234.08 1.6 223.66 9.89 223.01"/><polygon class="cls-1" points="13.84 245.32 22.13 253.6 15.8 259.01 8.44 251.64 13.84 245.32"/><polygon class="cls-1" points="32.4 258.3 44.12 258.3 43.47 266.59 33.05 266.59 32.4 258.3"/><polygon class="cls-1" points="54.71 254.35 62.99 246.06 68.4 252.39 61.03 259.76 54.71 254.35"/><polygon class="cls-1" points="67.69 235.79 67.69 224.07 75.98 224.72 75.98 235.14 67.69 235.79"/><polygon class="cls-1" points="63.74 213.48 55.45 205.2 61.78 199.79 69.15 207.16 63.74 213.48"/><path class="cls-1" d="M625.5,262.86A30.47,30.47,0,1,0,656,293.33,30.47,30.47,0,0,0,625.5,262.86Zm0,44.7a14.23,14.23,0,1,1,14.23-14.23A14.23,14.23,0,0,1,625.5,307.56Z" transform="translate(-45.16 -167.99)"/><polygon class="cls-1" points="586.2 96.13 574.48 96.13 575.13 87.84 585.55 87.84 586.2 96.13"/><polygon class="cls-1" points="563.89 100.08 555.61 108.37 550.2 102.04 557.57 94.67 563.89 100.08"/><polygon class="cls-1" points="550.92 118.64 550.92 130.36 542.62 129.71 542.62 119.29 550.92 118.64"/><polygon class="cls-1" points="554.86 140.95 563.15 149.23 556.83 154.64 549.46 147.27 554.86 140.95"/><polygon class="cls-1" points="573.43 153.93 585.14 153.93 584.5 162.22 574.08 162.22 573.43 153.93"/><polygon class="cls-1" points="595.73 149.98 604.02 141.69 609.42 148.02 602.05 155.38 595.73 149.98"/><polygon class="cls-1" points="608.71 131.41 608.71 119.7 617 120.34 617 130.77 608.71 131.41"/><polygon class="cls-1" points="604.76 109.11 596.48 100.83 602.8 95.42 610.17 102.79 604.76 109.11"/><path class="cls-2" d="M97.47,436.66c-9.18,12.44-18.76,26.88-21.09,42.47,0,.24.35.32.4.08a94.35,94.35,0,0,1,4.06-12.49c6-1.66,12-3,15.14-9,3.23-6.16,2.82-14.19,2.21-20.9C98.14,436.44,97.66,436.43,97.47,436.66Z" transform="translate(-45.16 -167.99)"/><path class="cls-3" d="M80.93,466.61c4.13-9.26,9.43-18.56,16.16-26.17,0-.05.11,0,.07.07a111.48,111.48,0,0,0-11,17.34c3-3.09,6.37-5.85,9.25-9.13,0-.06.14,0,.09.1-2.86,3.43-6,7.16-9.71,9.7q-1.5,2.76-3,5.54c.25-.14.51-.27.77-.39,0,0,.08,0,0,.06-.29.15-.57.3-.86.42-.48.88-1,1.76-1.46,2.63C81.12,467,80.85,466.8,80.93,466.61Z" transform="translate(-45.16 -167.99)"/><path class="cls-3" d="M84,463.38a53.09,53.09,0,0,0,7-4.71c.06-.05.15,0,.09.09a37.29,37.29,0,0,1-7,4.79C84,463.61,83.89,463.44,84,463.38Z" transform="translate(-45.16 -167.99)"/><path class="cls-2" d="M75.32,476.81c0,.19.34.19.33,0,0-5.14,0-10.3.08-15.46,1.32-2.65,4.14-4.12,6.11-6.25A28.05,28.05,0,0,0,85.5,450a36.7,36.7,0,0,0,4.25-14.17c.54-5.49-1.54-23.62-3.86-23-1.2.32-5.09,9.3-6.12,12.27a85.35,85.35,0,0,0-3.65,15C74.24,452.24,74.4,464.65,75.32,476.81Z" transform="translate(-45.16 -167.99)"/><path class="cls-3" d="M75.28,454.66l0,0c.28-6.5,1.75-13.07,3.12-19.37,1.47-6.79,3.2-13.18,6.7-19.24.06-.11.23,0,.17.1a71.31,71.31,0,0,0-5.38,14.77c.23-.37.52-.71.76-1.06.1-.13.32,0,.23.13a10.08,10.08,0,0,1-1.1,1.55l0,0c-1.2,4.85-2.07,9.81-2.81,14.77l.17-.19a0,0,0,0,1,.07.05c-.09.17-.19.33-.29.49-.37,2.52-.72,5-1.07,7.51,4.48-3.82,8.3-8.33,10.46-13.89a0,0,0,0,1,0,0c-2.11,5.76-5.44,10.88-10.57,14.38-.09.67-.18,1.34-.28,2,0,.14-.24.11-.24,0,0-.59,0-1.18.06-1.78A.13.13,0,0,1,75.28,454.66Z" transform="translate(-45.16 -167.99)"/><path class="cls-3" d="M77.39,445.24a104.05,104.05,0,0,0,9.12-15.7c0-.07.13,0,.11,0a51,51,0,0,1-9.06,15.79C77.48,445.46,77.32,445.34,77.39,445.24Z" transform="translate(-45.16 -167.99)"/><path class="cls-3" d="M81.93,428.27c1.42-2.5,2.91-4.94,4.25-7.5,0-.07.13,0,.1.06a38.56,38.56,0,0,1-4.13,7.57A.13.13,0,0,1,81.93,428.27Z" transform="translate(-45.16 -167.99)"/><path class="cls-3" d="M81.38,429.36a0,0,0,0,1,0,.05A0,0,0,0,1,81.38,429.36Z" transform="translate(-45.16 -167.99)"/><path class="cls-2" d="M71.84,462a52.89,52.89,0,0,1-1.2,10.12c0,.37.1.73.16,1.11a48.63,48.63,0,0,0,1.81-11.28.34.34,0,0,0,0-.35h0a74.71,74.71,0,0,0-1.13-15.29c-1.59-9.44-5.07-18.49-11.65-25.57a.48.48,0,0,0-.73.15c-2.65,6.76-1.73,14.82.54,21.55a39.44,39.44,0,0,0,5.22,10.24C67.13,455.81,70,458.49,71.84,462Z" transform="translate(-45.16 -167.99)"/><path class="cls-3" d="M60.62,423.85C66.86,434,71.2,446,71.73,457.94c0,.22-.35.27-.38.06-.14-1.08-.31-2.14-.48-3.2h0a40.86,40.86,0,0,1-7.08-8.17c0-.05,0-.12.09-.07A85.52,85.52,0,0,0,70.74,454q-.66-4-1.6-7.81l-.49-.58c-.11-.13.07-.32.18-.19l.15.17a88.91,88.91,0,0,0-3.26-10.36c-1.59-1.9-3.36-3.53-4.52-5.81a0,0,0,0,1,.08,0c.93,1.3,1.83,2.61,2.89,3.83.42.48.88.93,1.32,1.4A80.41,80.41,0,0,0,60.38,424C60.29,423.84,60.53,423.7,60.62,423.85Z" transform="translate(-45.16 -167.99)"/><path class="cls-3" d="M61.88,436.34c2,2.72,4.32,5.31,6.19,8.11.05.08-.06.16-.13.1a41.34,41.34,0,0,1-6.2-8.13C61.69,436.33,61.82,436.26,61.88,436.34Z" transform="translate(-45.16 -167.99)"/><path class="cls-3" d="M68.35,445.08l.09.09a.06.06,0,1,1-.09.09l-.09-.09A.06.06,0,0,1,68.35,445.08Z" transform="translate(-45.16 -167.99)"/><path class="cls-2" d="M50.84,443.32a31.14,31.14,0,0,0,6.59,15.44,16.32,16.32,0,0,0,5.34,4.17c2.31,1.14,4.73,2.46,7.12,3.4a46.24,46.24,0,0,1,2.52,9l.24-.79c-1.54-13.19-10.07-24.46-21-31.7A.53.53,0,0,0,50.84,443.32Z" transform="translate(-45.16 -167.99)"/><path class="cls-3" d="M54.62,447.21c-.08-.06,0-.2.11-.14a44.78,44.78,0,0,1,13.91,17.14c.08.19-.17.34-.27.16-.51-.89-1-1.75-1.55-2.6h0c-2.49-.47-4.85-2.22-6.7-3.89,0,0,0-.12.07-.07A15.27,15.27,0,0,0,63.33,460c1,.52,2.11.84,3.17,1.26-.92-1.47-1.89-2.87-2.89-4.24a28.92,28.92,0,0,1-7.49-4.21.07.07,0,0,1,.07-.12,72.83,72.83,0,0,0,7,3.72,63,63,0,0,0-4.91-5.73c-.85-.44-1.71-.89-2.53-1.37a.07.07,0,0,1,0-.13,9.17,9.17,0,0,1,1.94.95C56.72,449.16,55.7,448.17,54.62,447.21Z" transform="translate(-45.16 -167.99)"/><path class="cls-3" d="M54.85,451.77a2.47,2.47,0,0,1,.42.3s0,.09-.05.07a3.14,3.14,0,0,1-.44-.25A.07.07,0,1,1,54.85,451.77Z" transform="translate(-45.16 -167.99)"/><polygon class="cls-4" points="44.52 335.86 14.61 335.86 17.02 308.62 17.55 302.61 41.58 302.61 42.11 308.62 44.52 335.86"/><polygon class="cls-3" points="42.11 308.62 17.02 308.62 17.55 302.61 41.58 302.61 42.11 308.62"/><rect class="cls-4" x="16.12" y="298.41" width="26.89" height="5.95"/><polygon class="cls-3" points="0 335.86 79.56 335.62 159.12 335.53 318.24 335.36 477.36 335.53 556.92 335.62 636.48 335.86 556.92 336.11 477.36 336.19 318.24 336.36 159.12 336.19 79.56 336.11 0 335.86"/><rect class="cls-5" x="97.52" y="36.19" width="441.45" height="295.29"/><rect class="cls-3" x="100.73" y="39.79" width="435.03" height="288.09"/><rect class="cls-6" x="40.02" y="353.63" width="556.44" height="20.27"/><polygon class="cls-5" points="40.02 353.63 97.52 331.49 538.96 331.49 596.46 353.63 40.02 353.63"/><polygon class="cls-3" points="102.65 345.78 139.75 331.49 496.73 331.49 533.83 345.78 102.65 345.78"/><rect class="cls-7" x="124.98" y="61.58" width="386.51" height="244.52"/><rect class="cls-4" x="124.98" y="61.58" width="386.51" height="9.41"/><path class="cls-2" d="M177.62,234.28a2.34,2.34,0,1,1-2.33-2.34A2.33,2.33,0,0,1,177.62,234.28Z" transform="translate(-45.16 -167.99)"/><path class="cls-1" d="M187.15,234.28a2.34,2.34,0,1,1-2.33-2.34A2.33,2.33,0,0,1,187.15,234.28Z" transform="translate(-45.16 -167.99)"/><path class="cls-7" d="M196.68,234.28a2.34,2.34,0,1,1-2.33-2.34A2.34,2.34,0,0,1,196.68,234.28Z" transform="translate(-45.16 -167.99)"/><rect class="cls-2" x="354.97" y="344.23" width="70.42" height="54.03" transform="translate(735.2 574.49) rotate(180)"/><path class="cls-8" d="M362,356a6.39,6.39,0,1,0,5-5A6.4,6.4,0,0,0,362,356Z" transform="translate(-45.16 -167.99)"/><polygon class="cls-2" points="333.04 218.62 380.23 218.62 356.64 189.54 333.04 218.62"/><polygon class="cls-9" points="333.04 218.62 380.23 218.62 356.64 189.54 333.04 218.62"/><polygon class="cls-2" points="309.81 218.65 351.66 218.65 330.73 199.71 309.81 218.65"/><polygon class="cls-10" points="309.81 218.65 351.66 218.65 330.73 199.71 309.81 218.65"/><rect class="cls-2" x="309.81" y="218.62" width="70.42" height="11.64"/><rect class="cls-10" x="309.81" y="218.62" width="70.42" height="11.64"/><rect class="cls-5" x="144.07" y="176.23" width="52.9" height="4.45"/><rect class="cls-5" x="144.07" y="186.56" width="153.08" height="4.45"/><rect class="cls-5" x="144.07" y="196.35" width="153.08" height="4.45"/><rect class="cls-5" x="144.07" y="206.14" width="153.08" height="4.45"/><rect class="cls-5" x="144.07" y="215.93" width="153.08" height="4.45"/><rect class="cls-5" x="144.07" y="225.72" width="153.08" height="4.45"/><rect class="cls-5" x="271.56" y="88.87" width="52.9" height="11.91"/><rect class="cls-5" x="271.56" y="108.98" width="108.68" height="4.45"/><rect class="cls-5" x="271.56" y="118.78" width="108.68" height="4.45"/><rect class="cls-5" x="271.56" y="128.57" width="108.68" height="4.45"/><rect class="cls-5" x="271.56" y="138.36" width="108.68" height="4.45"/><rect class="cls-5" x="271.56" y="151.38" width="108.68" height="4.45"/><rect class="cls-5" x="271.56" y="161.18" width="108.68" height="4.45"/><rect class="cls-2" x="395.66" y="88.87" width="96.73" height="12.12"/><rect class="cls-7" x="395.93" y="100.99" width="96.22" height="129.06"/><path class="cls-5" d="M537.57,398.26H440.82V268.77h96.75Zm-96.22-.43H537V269.19H441.35Z" transform="translate(-45.16 -167.99)"/><polygon class="cls-5" points="396.18 230.13 395.68 229.97 491.9 100.91 492.39 101.07 396.18 230.13"/><polygon class="cls-5" points="491.9 230.13 395.68 101.07 396.18 100.91 492.39 229.97 491.9 230.13"/><rect class="cls-7" x="144.27" y="89.08" width="115.28" height="76.34"/><path class="cls-5" d="M189.25,333.62v-.19l0-76.54h.19l115.48,0,0,76.72h-.19Zm.37-76.34,0,76,114.89,0,0-75.95Z" transform="translate(-45.16 -167.99)"/><path class="cls-5" d="M189.62,257.28c9.69,6.14,19.33,12.38,28.95,18.64l28.8,18.87L276,313.88l14.28,9.61,14.22,9.71L290,323.93l-14.45-9.37-28.8-18.87L218.12,276.6Q203.83,267,189.62,257.28Z" transform="translate(-45.16 -167.99)"/><path class="cls-5" d="M304.53,257.28Q290.36,267,276,276.6l-28.66,19.09-28.8,18.87-14.45,9.37-14.5,9.27,14.22-9.71,14.28-9.61,28.66-19.09,28.8-18.87C285.2,269.66,294.84,263.42,304.53,257.28Z" transform="translate(-45.16 -167.99)"/><rect class="cls-7" x="477.09" y="0.59" width="93.64" height="59.73"/><path class="cls-1" d="M616.48,228.91H521.65V168h94.83Zm-93.64-1.18h92.45V169.18H522.84Z" transform="translate(-45.16 -167.99)"/><rect class="cls-4" x="477.09" y="0.59" width="93.64" height="11.3"/><path class="cls-2" d="M532.85,174.31a2.85,2.85,0,1,1-2.84-2.84A2.84,2.84,0,0,1,532.85,174.31Z" transform="translate(-45.16 -167.99)"/><path class="cls-1" d="M544.46,174.31a2.85,2.85,0,1,1-2.84-2.84A2.84,2.84,0,0,1,544.46,174.31Z" transform="translate(-45.16 -167.99)"/><path class="cls-7" d="M556.07,174.31a2.85,2.85,0,1,1-2.85-2.84A2.84,2.84,0,0,1,556.07,174.31Z" transform="translate(-45.16 -167.99)"/><path class="cls-1" d="M538.41,202.22A11.55,11.55,0,0,1,550,190.89a11.78,11.78,0,0,1,7.27,2.45,1.81,1.81,0,0,1-2.2,2.87,7.83,7.83,0,0,0-5.07-1.73,8.34,8.34,0,0,0-5.66,2.26,7.76,7.76,0,0,0-2.3,5.48,7.62,7.62,0,0,0,2.3,5.47A8.3,8.3,0,0,0,550,210a7.94,7.94,0,0,0,5.07-1.73,1.91,1.91,0,0,1,2.52.34,1.86,1.86,0,0,1-.32,2.52,11.78,11.78,0,0,1-7.27,2.45A11.5,11.5,0,0,1,538.41,202.22Z" transform="translate(-45.16 -167.99)"/><path class="cls-1" d="M563,208.07a1.63,1.63,0,0,1,2.29-.22,10.31,10.31,0,0,0,6,2.42,6.78,6.78,0,0,0,3.93-1.16,2.84,2.84,0,0,0,1.36-2.27,1.81,1.81,0,0,0-.29-1,3,3,0,0,0-.94-.94,12.58,12.58,0,0,0-4.31-1.48h-.06a17.08,17.08,0,0,1-4.06-1.22,6.79,6.79,0,0,1-2.93-2.46,4.84,4.84,0,0,1-.72-2.58,5.8,5.8,0,0,1,2.52-4.59,9.26,9.26,0,0,1,5.44-1.67,12.33,12.33,0,0,1,6.86,2.52,1.62,1.62,0,0,1,.44,2.23,1.58,1.58,0,0,1-2.24.47c-1.6-1.07-3.14-2-5.06-2a6,6,0,0,0-3.53,1.07,2.52,2.52,0,0,0-1.19,2,1.5,1.5,0,0,0,.22.88,3,3,0,0,0,.85.82,10.68,10.68,0,0,0,3.93,1.38h.06a18.67,18.67,0,0,1,4.35,1.33,7.27,7.27,0,0,1,3.14,2.61,5.11,5.11,0,0,1,.76,2.67,6.07,6.07,0,0,1-2.71,4.88,9.84,9.84,0,0,1-5.82,1.79,13.56,13.56,0,0,1-8-3.14A1.68,1.68,0,0,1,563,208.07Z" transform="translate(-45.16 -167.99)"/><path class="cls-1" d="M583.62,208.07a1.63,1.63,0,0,1,2.29-.22,10.31,10.31,0,0,0,6,2.42,6.78,6.78,0,0,0,3.93-1.16,2.84,2.84,0,0,0,1.36-2.27,1.81,1.81,0,0,0-.29-1,3.08,3.08,0,0,0-.94-.94,12.58,12.58,0,0,0-4.31-1.48h-.06a17.08,17.08,0,0,1-4.06-1.22,6.79,6.79,0,0,1-2.93-2.46,4.84,4.84,0,0,1-.72-2.58,5.8,5.8,0,0,1,2.52-4.59,9.26,9.26,0,0,1,5.44-1.67,12.33,12.33,0,0,1,6.86,2.52,1.62,1.62,0,0,1,.44,2.23,1.59,1.59,0,0,1-2.24.47c-1.6-1.07-3.14-2-5.06-2a6,6,0,0,0-3.53,1.07,2.52,2.52,0,0,0-1.19,2,1.5,1.5,0,0,0,.22.88,3,3,0,0,0,.85.82,10.68,10.68,0,0,0,3.93,1.38h.06a18.67,18.67,0,0,1,4.35,1.33,7.27,7.27,0,0,1,3.14,2.61,5.11,5.11,0,0,1,.76,2.67,6.09,6.09,0,0,1-2.71,4.88,9.84,9.84,0,0,1-5.82,1.79,13.56,13.56,0,0,1-8-3.14A1.68,1.68,0,0,1,583.62,208.07Z" transform="translate(-45.16 -167.99)"/><rect class="cls-4" x="532.89" y="82.86" width="52.57" height="23.62"/><rect class="cls-2" x="157.98" y="24.47" width="52.57" height="23.62"/><g class="cls-11"><rect class="cls-7" x="341.71" y="187.88" width="156.16" height="109.4"/><path class="cls-1" d="M543.63,465.87H386.28V355.28H543.63Zm-156.16-1.19h155V356.46h-155Z" transform="translate(-45.16 -167.99)"/><rect class="cls-4" x="341.71" y="187.88" width="156.16" height="11.3"/><path class="cls-1" d="M543.63,367.76H386.28V355.28H543.63Zm-156.16-1.18h155V356.46h-155Z" transform="translate(-45.16 -167.99)"/><path class="cls-2" d="M397.48,361.6a2.85,2.85,0,1,1-2.85-2.84A2.85,2.85,0,0,1,397.48,361.6Z" transform="translate(-45.16 -167.99)"/><path class="cls-1" d="M409.09,361.6a2.85,2.85,0,1,1-2.85-2.84A2.85,2.85,0,0,1,409.09,361.6Z" transform="translate(-45.16 -167.99)"/><path class="cls-7" d="M420.7,361.6a2.85,2.85,0,1,1-2.85-2.84A2.85,2.85,0,0,1,420.7,361.6Z" transform="translate(-45.16 -167.99)"/><rect class="cls-1" x="353.83" y="221.65" width="6.04" height="2.21"/><rect class="cls-1" x="364.27" y="221.65" width="69.28" height="2.21"/><rect class="cls-2" x="437.26" y="221.65" width="11.47" height="2.21"/><rect class="cls-12" x="451.23" y="221.65" width="19.83" height="2.21"/><rect class="cls-1" x="359.87" y="227.55" width="6.04" height="2.21"/><rect class="cls-12" x="370.16" y="227.55" width="45.46" height="2.21"/><rect class="cls-12" x="364.27" y="245.26" width="43.42" height="2.21"/><rect class="cls-2" x="370.16" y="233.45" width="30.46" height="2.21"/><rect class="cls-12" x="444.93" y="239.36" width="11.62" height="2.21"/><rect class="cls-12" x="404.01" y="233.45" width="48.65" height="2.21"/><rect class="cls-2" x="364.27" y="251.17" width="58.07" height="2.21"/><rect class="cls-2" x="449.95" y="227.55" width="31.47" height="2.21"/><rect class="cls-1" x="418.48" y="227.55" width="28.97" height="2.21"/><rect class="cls-1" x="454.94" y="233.45" width="19.55" height="2.21"/><rect class="cls-1" x="359.87" y="233.45" width="6.04" height="2.21"/><rect class="cls-12" x="353.83" y="239.36" width="6.04" height="2.21"/><rect class="cls-1" x="364.27" y="239.36" width="35.69" height="2.21"/><rect class="cls-1" x="410.16" y="245.26" width="38.58" height="2.21"/><rect class="cls-2" x="451.23" y="245.26" width="24.55" height="2.21"/><rect class="cls-2" x="403.59" y="239.36" width="38.53" height="2.21"/><rect class="cls-1" x="353.83" y="245.26" width="6.04" height="2.21"/><rect class="cls-1" x="353.83" y="251.17" width="6.04" height="2.21"/><path class="cls-2" d="M402.72,383.83a.53.53,0,0,1,0,.75.56.56,0,0,1-.36.14.57.57,0,0,1-.38-.14l-2.33-2.37s0,0,0,0h0a.11.11,0,0,1,0-.07l0,0s0,0,0-.05a.06.06,0,0,0,0,0v-.06s0,0,0,0a.23.23,0,0,1,0,0v-.06s0,0,0,0,0,0,0-.06v0s0-.06,0-.07a0,0,0,0,1,0,0,.13.13,0,0,1,0-.06l2.33-2.36a.53.53,0,0,1,.74,0,.53.53,0,0,1,0,.75l-2,2Z" transform="translate(-45.16 -167.99)"/><path class="cls-2" d="M404.83,384.09l2-4.83a.47.47,0,0,1,.61-.24.45.45,0,0,1,.23.59l-2,4.84a.46.46,0,0,1-.42.27.34.34,0,0,1-.17,0A.45.45,0,0,1,404.83,384.09Z" transform="translate(-45.16 -167.99)"/><path class="cls-2" d="M411.71,382.15h0a.15.15,0,0,1-.05.06l-2.33,2.37a.57.57,0,0,1-.38.14.57.57,0,0,1-.37-.14.53.53,0,0,1,0-.75l2-2-2-2a.53.53,0,0,1,0-.75.54.54,0,0,1,.75,0l2.33,2.36.05.06s0,0,0,0,0,.05,0,.07v0a.36.36,0,0,0,0,.07v.09a.23.23,0,0,1,0,0V382h0s0,.06,0,.08,0,0,0,0S411.73,382.11,411.71,382.15Z" transform="translate(-45.16 -167.99)"/></g><rect class="cls-2" x="91.63" y="192.27" width="63.79" height="23.62"/><rect class="cls-4" x="259.76" y="268.15" width="63.79" height="23.62"/><rect class="cls-2" x="565.9" y="164.42" width="35.61" height="23.62"/><path class="cls-7" d="M620.73,346.51a2.37,2.37,0,0,0,4.62-.72V339a1,1,0,0,1,1.91,0v6.83a4.27,4.27,0,0,1-8.34,1.31.93.93,0,0,1,.61-1.19A.94.94,0,0,1,620.73,346.51Z" transform="translate(-45.16 -167.99)"/><path class="cls-7" d="M629.66,347.06a.9.9,0,0,1,1.25-.12,5.68,5.68,0,0,0,3.29,1.33,3.71,3.71,0,0,0,2.15-.64,1.57,1.57,0,0,0,.74-1.24,1,1,0,0,0-.16-.55,1.64,1.64,0,0,0-.51-.51,6.9,6.9,0,0,0-2.36-.81h0a9.47,9.47,0,0,1-2.22-.67,3.69,3.69,0,0,1-1.6-1.34,2.66,2.66,0,0,1-.4-1.41,3.16,3.16,0,0,1,1.38-2.51,5.06,5.06,0,0,1,3-.92,6.73,6.73,0,0,1,3.75,1.38.89.89,0,0,1-1,1.48,5,5,0,0,0-2.77-1.1,3.29,3.29,0,0,0-1.92.58,1.38,1.38,0,0,0-.66,1.09.9.9,0,0,0,.12.48,1.86,1.86,0,0,0,.47.45,6.1,6.1,0,0,0,2.15.75h0a10.4,10.4,0,0,1,2.38.72,4.17,4.17,0,0,1,1.72,1.43,2.86,2.86,0,0,1,.41,1.46,3.34,3.34,0,0,1-1.48,2.67,5.36,5.36,0,0,1-3.18,1,7.44,7.44,0,0,1-4.4-1.72A.92.92,0,0,1,629.66,347.06Z" transform="translate(-45.16 -167.99)"/><rect class="cls-7" x="24.24" y="24.39" width="93.64" height="59.73"/><path class="cls-1" d="M163.63,252.71H68.81V191.79h94.82ZM70,251.52h92.45V193H70Z" transform="translate(-45.16 -167.99)"/><rect class="cls-4" x="24.24" y="24.39" width="93.64" height="11.3"/><path class="cls-1" d="M163.63,204.27H68.81V191.79h94.82ZM70,203.09h92.45V193H70Z" transform="translate(-45.16 -167.99)"/><path class="cls-2" d="M80,198.11a2.84,2.84,0,1,1-2.84-2.84A2.85,2.85,0,0,1,80,198.11Z" transform="translate(-45.16 -167.99)"/><path class="cls-1" d="M91.61,198.11a2.84,2.84,0,1,1-2.84-2.84A2.85,2.85,0,0,1,91.61,198.11Z" transform="translate(-45.16 -167.99)"/><path class="cls-7" d="M103.22,198.11a2.85,2.85,0,1,1-2.84-2.84A2.85,2.85,0,0,1,103.22,198.11Z" transform="translate(-45.16 -167.99)"/><path class="cls-7" d="M140.66,364.39a.27.27,0,0,1,.3-.3h4.53a2.43,2.43,0,0,1,2.72,2.72v4.61a2.44,2.44,0,0,1-2.72,2.72h-2.27v4.76a.27.27,0,0,1-.3.3h-2a.27.27,0,0,1-.3-.3Zm4.23,7.25a.67.67,0,0,0,.75-.75v-3.55a.67.67,0,0,0-.75-.76h-1.67v5.06Z" transform="translate(-45.16 -167.99)"/><path class="cls-7" d="M158.19,364.09c.28,0,.41.17.3.43L155,372.93v5.89a.34.34,0,0,1-.38.38h-1.81a.34.34,0,0,1-.38-.38v-5.89L149,364.52c-.12-.26,0-.43.3-.43h1.89a.4.4,0,0,1,.43.3l2.12,5.42,2.11-5.42a.41.41,0,0,1,.44-.3Z" transform="translate(-45.16 -167.99)"/><path class="cls-7" d="M166.73,364.09a.27.27,0,0,1,.3.3v1.89a.27.27,0,0,1-.3.3h-2.19V378.9c0,.21-.1.3-.31.3h-2a.27.27,0,0,1-.3-.3V366.58h-2.19a.28.28,0,0,1-.31-.3v-1.89a.28.28,0,0,1,.31-.3Z" transform="translate(-45.16 -167.99)"/><path class="cls-7" d="M173.53,364.39a.27.27,0,0,1,.3-.3h1.95c.22,0,.32.11.32.3V378.9c0,.19-.1.3-.32.3h-1.95a.27.27,0,0,1-.3-.3v-6h-2.42v6a.27.27,0,0,1-.3.3h-1.95c-.22,0-.32-.11-.32-.3V364.39c0-.19.1-.3.32-.3h1.95a.27.27,0,0,1,.3.3v6h2.42Z" transform="translate(-45.16 -167.99)"/><path class="cls-7" d="M178,366.81a2.43,2.43,0,0,1,2.72-2.72h2.11a2.43,2.43,0,0,1,2.72,2.72v9.67a2.43,2.43,0,0,1-2.72,2.72h-2.11a2.43,2.43,0,0,1-2.72-2.72Zm4.36,9.95a.67.67,0,0,0,.76-.75v-8.73a.68.68,0,0,0-.76-.75h-1.09a.67.67,0,0,0-.76.75V376a.67.67,0,0,0,.76.75Z" transform="translate(-45.16 -167.99)"/><path class="cls-7" d="M195.2,364.09a.27.27,0,0,1,.3.3V378.9a.27.27,0,0,1-.3.3h-1.87A.32.32,0,0,1,193,379l-2.89-8.07H190v8a.27.27,0,0,1-.3.3h-2a.28.28,0,0,1-.31-.3V364.39a.28.28,0,0,1,.31-.3h1.87a.32.32,0,0,1,.34.24l2.87,8h.11v-8a.27.27,0,0,1,.3-.3Z" transform="translate(-45.16 -167.99)"/><path class="cls-7" d="M586,256.39a.23.23,0,0,1,.26-.26H588a.24.24,0,0,1,.27.26v10.1a2.1,2.1,0,0,1-2.39,2.28H584a2.09,2.09,0,0,1-2.38-2.28v-1.64c0-.16.08-.25.27-.25h1.65a.23.23,0,0,1,.26.25v1.2a.59.59,0,0,0,.67.63h.86a.58.58,0,0,0,.66-.63Z" transform="translate(-45.16 -167.99)"/><path class="cls-7" d="M596.21,256.13a.32.32,0,0,1,.33.32v10a2.09,2.09,0,0,1-2.38,2.28H592.3a2.09,2.09,0,0,1-2.38-2.28v-10a.32.32,0,0,1,.33-.32h1.59a.32.32,0,0,1,.33.32v9.6c0,.43.23.63.66.63h.86c.43,0,.66-.2.66-.63v-9.6a.32.32,0,0,1,.33-.32Z" transform="translate(-45.16 -167.99)"/><path class="cls-7" d="M605,256.13a.24.24,0,0,1,.26.26v12.12a.24.24,0,0,1-.26.26h-1.64a.29.29,0,0,1-.3-.21l-2.53-6.74h-.08v6.69a.23.23,0,0,1-.26.26h-1.72a.24.24,0,0,1-.27-.26V256.39a.24.24,0,0,1,.27-.26h1.63a.29.29,0,0,1,.3.21l2.52,6.71h.1v-6.66a.23.23,0,0,1,.26-.26Z" transform="translate(-45.16 -167.99)"/><path class="cls-7" d="M608.89,256.13a.24.24,0,0,1,.27.26v12.12a.24.24,0,0,1-.27.26h-1.72a.23.23,0,0,1-.26-.26V256.39a.23.23,0,0,1,.26-.26Z" transform="translate(-45.16 -167.99)"/><path class="cls-7" d="M610.81,258.41a2.09,2.09,0,0,1,2.38-2.28h1.86a2.09,2.09,0,0,1,2.38,2.28v8.08a2.09,2.09,0,0,1-2.38,2.28h-1.86a2.09,2.09,0,0,1-2.38-2.28Zm3.82,8.32a.57.57,0,0,0,.66-.63v-7.3a.58.58,0,0,0-.66-.63h-1a.58.58,0,0,0-.66.63v7.3a.57.57,0,0,0,.66.63Z" transform="translate(-45.16 -167.99)"/><path class="cls-7" d="M625.88,262.26a2,2,0,0,1-1.21,2.08l1.14,4.14c.05.19,0,.29-.23.29h-1.72a.26.26,0,0,1-.28-.22l-1.11-4h-1.14v4a.24.24,0,0,1-.26.26h-1.72a.24.24,0,0,1-.27-.26V256.39a.24.24,0,0,1,.27-.26h4.15a2.09,2.09,0,0,1,2.38,2.28Zm-2.91.19a.58.58,0,0,0,.66-.63v-3a.58.58,0,0,0-.66-.63h-1.64v4.23Z" transform="translate(-45.16 -167.99)"/><path class="cls-3" d="M214.63,196.14a.31.31,0,0,1,.34-.32h2.16c.25,0,.36.12.36.32v15.4c0,.2-.11.32-.36.32H215a.31.31,0,0,1-.34-.32v-6.38h-2.69v6.38a.3.3,0,0,1-.33.32h-2.17c-.25,0-.36-.12-.36-.32v-15.4c0-.2.11-.32.36-.32h2.17a.3.3,0,0,1,.33.32v6.38h2.69Z" transform="translate(-45.16 -167.99)"/><path class="cls-3" d="M227.24,195.82a.29.29,0,0,1,.33.32v2a.29.29,0,0,1-.33.32H224.8v13.07c0,.22-.1.32-.34.32h-2.18c-.21,0-.34-.1-.34-.32V198.47h-2.43a.31.31,0,0,1-.34-.32v-2a.31.31,0,0,1,.34-.32Z" transform="translate(-45.16 -167.99)"/><path class="cls-3" d="M240.81,195.82a.37.37,0,0,1,.42.4v15.24a.37.37,0,0,1-.42.4h-1.95a.37.37,0,0,1-.42-.4v-9h-.15l-2.08,9.06a.43.43,0,0,1-.46.36h-1a.44.44,0,0,1-.47-.36l-2.08-9.06H232v9a.37.37,0,0,1-.42.4h-1.94a.37.37,0,0,1-.42-.4V196.22a.37.37,0,0,1,.42-.4h2.78a.43.43,0,0,1,.46.36l2.33,10,2.33-10a.44.44,0,0,1,.47-.36Z" transform="translate(-45.16 -167.99)"/><path class="cls-3" d="M246.19,209.21h5a.3.3,0,0,1,.33.33v2c0,.22-.1.32-.33.32h-7.52c-.21,0-.34-.1-.34-.32v-15.4a.31.31,0,0,1,.34-.32h2.18a.3.3,0,0,1,.34.32Z" transform="translate(-45.16 -167.99)"/><text class="cls-13" transform="translate(263.29 288.49)">D<tspan class="cls-14" x="10.25" y="0">E</tspan><tspan x="19.87" y="0">SIGN</tspan></text><text class="cls-15" transform="translate(37.5 65.09)">M<tspan class="cls-16" x="14.79" y="0">O</tspan><tspan x="25.17" y="0">TION</tspan></text><rect class="cls-3" x="112.81" y="308.36" width="22.36" height="2.18" transform="translate(-231.37 19.36) rotate(-46.68)"/><rect class="cls-4" x="71.16" y="149.18" width="15.71" height="2.18"/><rect class="cls-4" x="71.16" y="132.23" width="15.71" height="2.18"/><rect class="cls-4" x="122.9" y="298.27" width="2.18" height="22.36" transform="translate(-223.65 1.31) rotate(-43.31)"/><rect class="cls-3" x="112.81" y="325.31" width="22.36" height="2.18" transform="translate(-243.7 24.68) rotate(-46.68)"/><rect class="cls-4" x="71.16" y="166.14" width="15.71" height="2.18"/><rect class="cls-4" x="71.16" y="149.18" width="15.71" height="2.18"/><rect class="cls-4" x="122.9" y="315.22" width="2.18" height="22.36" transform="translate(-235.27 5.93) rotate(-43.31)"/><rect class="cls-3" x="112.81" y="342.27" width="22.36" height="2.18" transform="translate(-256.04 30.01) rotate(-46.68)"/><rect class="cls-4" x="71.16" y="183.09" width="15.71" height="2.18"/><rect class="cls-4" x="71.16" y="166.14" width="15.71" height="2.18"/><rect class="cls-4" x="122.9" y="332.17" width="2.18" height="22.36" transform="translate(-246.9 10.55) rotate(-43.31)"/><rect class="cls-3" x="112.81" y="359.22" width="22.36" height="2.18" transform="translate(-268.37 35.32) rotate(-46.68)"/><rect class="cls-4" x="71.16" y="200.04" width="15.71" height="2.18"/><rect class="cls-4" x="71.16" y="183.09" width="15.71" height="2.18"/><rect class="cls-4" x="122.9" y="349.13" width="2.18" height="22.36" transform="translate(-258.53 15.16) rotate(-43.31)"/><rect class="cls-3" x="112.81" y="376.17" width="22.36" height="2.18" transform="translate(-280.71 40.65) rotate(-46.68)"/><rect class="cls-4" x="71.16" y="217" width="15.71" height="2.18"/><rect class="cls-4" x="71.16" y="200.04" width="15.71" height="2.18"/><rect class="cls-4" x="122.9" y="366.08" width="2.18" height="22.36" transform="translate(-270.16 19.78) rotate(-43.31)"/><rect class="cls-3" x="112.81" y="393.13" width="22.36" height="2.18" transform="translate(-293.05 45.98) rotate(-46.68)"/><rect class="cls-4" x="71.16" y="233.95" width="15.71" height="2.18"/><rect class="cls-4" x="71.16" y="217" width="15.71" height="2.18"/><rect class="cls-4" x="122.9" y="383.03" width="2.18" height="22.36" transform="translate(-281.79 24.4) rotate(-43.31)"/><rect class="cls-3" x="112.81" y="410.08" width="22.36" height="2.18" transform="translate(-305.38 51.3) rotate(-46.68)"/><rect class="cls-4" x="71.16" y="250.9" width="15.71" height="2.18"/><rect class="cls-4" x="71.16" y="233.95" width="15.71" height="2.18"/><rect class="cls-4" x="122.9" y="399.99" width="2.18" height="22.36" transform="translate(-293.42 29.01) rotate(-43.31)"/><rect class="cls-3" x="112.81" y="427.03" width="22.36" height="2.18" transform="translate(-317.71 56.61) rotate(-46.68)"/><rect class="cls-4" x="71.16" y="267.86" width="15.71" height="2.18"/><rect class="cls-4" x="71.16" y="250.9" width="15.71" height="2.18"/><rect class="cls-4" x="122.9" y="416.94" width="2.18" height="22.36" transform="translate(-305.05 33.63) rotate(-43.31)"/><rect class="cls-3" x="112.81" y="443.99" width="22.36" height="2.18" transform="translate(-330.03 61.92) rotate(-46.68)"/><rect class="cls-4" x="71.16" y="284.81" width="15.71" height="2.18"/><rect class="cls-4" x="71.16" y="267.86" width="15.71" height="2.18"/><rect class="cls-4" x="122.9" y="433.9" width="2.18" height="22.36" transform="translate(-316.67 38.25) rotate(-43.31)"/><rect class="cls-3" x="112.81" y="460.94" width="22.36" height="2.18" transform="translate(-342.46 67.41) rotate(-46.7)"/><rect class="cls-4" x="71.16" y="301.77" width="15.71" height="2.18"/><rect class="cls-4" x="71.16" y="284.81" width="15.71" height="2.18"/><rect class="cls-4" x="122.9" y="450.85" width="2.18" height="22.36" transform="translate(-328.31 42.87) rotate(-43.31)"/><rect class="cls-3" x="112.81" y="477.9" width="22.36" height="2.18" transform="translate(-354.8 72.73) rotate(-46.7)"/><rect class="cls-4" x="71.16" y="318.72" width="15.71" height="2.18"/><rect class="cls-4" x="71.16" y="301.77" width="15.71" height="2.18"/><rect class="cls-4" x="122.9" y="467.8" width="2.18" height="22.36" transform="translate(-339.93 47.48) rotate(-43.31)"/><rect class="cls-4" x="118.91" y="480.09" width="9.87" height="22.66" transform="translate(570.11 199.58) rotate(90)"/><rect class="cls-4" x="22.36" y="391.27" width="186" height="5.68" transform="translate(464.3 110.76) rotate(90)"/><rect class="cls-4" x="39.34" y="391.27" width="186" height="5.68" transform="translate(481.29 93.78) rotate(90)"/><polygon class="cls-4" points="239.31 131.78 222.33 115.06 79.04 88.35 35.49 115.18 34.35 113.33 78.61 86.06 223.39 113.04 240.84 130.23 239.31 131.78"/><polygon class="cls-3" points="96.32 117.4 78.87 93.15 62.16 117.37 58.58 114.89 78.79 85.58 99.86 114.86 96.32 117.4"/><rect class="cls-3" x="257.81" y="282.26" width="2.18" height="22.36" transform="translate(-177.37 112.57) rotate(-46.69)"/><rect class="cls-4" x="221.46" y="117.4" width="2.18" height="15.71"/><rect class="cls-4" x="204.51" y="117.4" width="2.18" height="15.71"/><rect class="cls-4" x="247.71" y="292.35" width="22.36" height="2.18" transform="translate(-175.94 89.56) rotate(-43.32)"/><rect class="cls-3" x="240.85" y="282.26" width="2.18" height="22.36" transform="translate(-182.7 100.23) rotate(-46.69)"/><rect class="cls-4" x="204.51" y="117.4" width="2.18" height="15.71"/><rect class="cls-4" x="187.56" y="117.4" width="2.18" height="15.71"/><rect class="cls-4" x="230.76" y="292.35" width="22.36" height="2.18" transform="translate(-180.56 77.93) rotate(-43.32)"/><rect class="cls-3" x="223.9" y="282.26" width="2.18" height="22.36" transform="translate(-188.02 87.9) rotate(-46.69)"/><rect class="cls-4" x="187.56" y="117.4" width="2.18" height="15.71"/><rect class="cls-4" x="170.6" y="117.4" width="2.18" height="15.71"/><rect class="cls-4" x="213.81" y="292.35" width="22.36" height="2.18" transform="translate(-185.17 66.3) rotate(-43.32)"/><rect class="cls-3" x="206.94" y="282.26" width="2.18" height="22.36" transform="translate(-193.35 75.56) rotate(-46.69)"/><rect class="cls-4" x="170.6" y="117.4" width="2.18" height="15.71"/><rect class="cls-4" x="153.65" y="117.4" width="2.18" height="15.71"/><rect class="cls-4" x="196.85" y="292.35" width="22.36" height="2.18" transform="translate(-189.79 54.67) rotate(-43.32)"/><rect class="cls-3" x="189.99" y="282.26" width="2.18" height="22.36" transform="translate(-198.68 63.22) rotate(-46.69)"/><rect class="cls-4" x="153.65" y="117.4" width="2.18" height="15.71"/><rect class="cls-4" x="136.7" y="117.4" width="2.18" height="15.71"/><rect class="cls-4" x="179.9" y="292.35" width="22.36" height="2.18" transform="translate(-194.42 43.05) rotate(-43.32)"/><rect class="cls-3" x="173.04" y="282.26" width="2.18" height="22.36" transform="translate(-204 50.89) rotate(-46.69)"/><rect class="cls-4" x="136.7" y="117.4" width="2.18" height="15.71"/><rect class="cls-4" x="119.74" y="117.4" width="2.18" height="15.71"/><rect class="cls-4" x="162.95" y="292.35" width="22.36" height="2.18" transform="translate(-199.03 31.41) rotate(-43.32)"/><rect class="cls-3" x="156.08" y="282.26" width="2.18" height="22.36" transform="translate(-209.33 38.55) rotate(-46.69)"/><rect class="cls-4" x="119.74" y="117.4" width="2.18" height="15.71"/><rect class="cls-4" x="102.79" y="117.4" width="2.18" height="15.71"/><rect class="cls-4" x="145.99" y="292.35" width="22.36" height="2.18" transform="translate(-203.65 19.78) rotate(-43.32)"/><rect class="cls-3" x="139.13" y="282.26" width="2.18" height="22.36" transform="translate(-214.65 26.21) rotate(-46.69)"/><rect class="cls-4" x="102.79" y="117.4" width="2.18" height="15.71"/><rect class="cls-4" x="85.83" y="117.4" width="2.18" height="15.71"/><rect class="cls-4" x="129.04" y="292.35" width="22.36" height="2.18" transform="translate(-208.27 8.14) rotate(-43.32)"/><rect class="cls-3" x="122.18" y="282.26" width="2.18" height="22.36" transform="translate(-219.98 13.87) rotate(-46.69)"/><rect class="cls-4" x="85.83" y="117.4" width="2.18" height="15.71"/><rect class="cls-4" x="68.88" y="117.4" width="2.18" height="15.71"/><rect class="cls-4" x="112.08" y="292.35" width="22.36" height="2.18" transform="translate(-212.89 -3.49) rotate(-43.32)"/><rect class="cls-3" x="105.22" y="282.26" width="2.18" height="22.36" transform="translate(-225.3 1.54) rotate(-46.69)"/><rect class="cls-4" x="68.88" y="117.4" width="2.18" height="15.71"/><rect class="cls-4" x="51.93" y="117.4" width="2.18" height="15.71"/><rect class="cls-4" x="95.13" y="292.35" width="22.36" height="2.18" transform="translate(-217.51 -15.12) rotate(-43.32)"/><rect class="cls-3" x="88.27" y="282.26" width="2.18" height="22.36" transform="translate(-230.63 -10.8) rotate(-46.69)"/><rect class="cls-4" x="51.93" y="117.4" width="2.18" height="15.71"/><rect class="cls-4" x="34.97" y="117.4" width="2.18" height="15.71"/><rect class="cls-4" x="78.18" y="292.35" width="22.36" height="2.18" transform="translate(-222.13 -26.74) rotate(-43.32)"/><rect class="cls-3" x="24.47" y="113.29" width="9.86" height="22.66"/><rect class="cls-4" x="34.33" y="113.29" width="9.87" height="22.66"/><rect class="cls-4" x="38.31" y="135.96" width="18.93" height="11.3"/><rect class="cls-4" x="34.33" y="130.28" width="206.51" height="5.68"/><polygon class="cls-4" points="229.06 118.97 34.33 118.97 34.33 113.29 223.51 113.29 229.06 118.97"/><rect class="cls-4" x="225.18" y="117.4" width="2.18" height="15.71"/><path class="cls-3" d="M238.84,403.71c1.31-1.83,2.71-3.58,4.11-5.32s2.85-3.45,4.31-5.15l.39-.45.37.47c2.16,2.68,4.31,5.38,6.4,8.12l3.14,4.12c1,1.39,2.05,2.77,3,4.18-1.17-1.27-2.29-2.58-3.43-3.87l-3.36-3.94c-2.23-2.63-4.4-5.31-6.57-8l.77,0c-1.48,1.68-2.95,3.36-4.49,5S240.46,402.15,238.84,403.71Z" transform="translate(-45.16 -167.99)"/><rect class="cls-3" x="191.95" y="138.27" width="2.18" height="68.08"/><rect class="cls-3" x="210.39" y="138.99" width="2.18" height="68.08"/><rect class="cls-4" x="188.04" y="135.96" width="28.73" height="4.63"/><path class="cls-3" d="M248.66,379.75l-.24,4.84-.7-.84a7.57,7.57,0,0,1,2.19.95,5.27,5.27,0,0,1,1.73,1.69,4.31,4.31,0,0,1-.12,4.6,4.47,4.47,0,0,1-3.89,2,4.68,4.68,0,0,1-3.6-2.15,4.49,4.49,0,0,0,3.6,1.73,3.87,3.87,0,0,0,3.17-2,3.27,3.27,0,0,0-.22-3.45,5,5,0,0,0-3.16-1.68l-.66-.11,0-.72-.24-4.84Z" transform="translate(-45.16 -167.99)"/><polygon class="cls-4" points="216.78 201.85 216.78 209.74 202.41 213.15 188.05 209.74 188.05 201.85 216.78 201.85"/><path class="cls-3" d="M239.79,374.47a1.67,1.67,0,1,1-1.66-1.67A1.66,1.66,0,0,1,239.79,374.47Z" transform="translate(-45.16 -167.99)"/><path class="cls-3" d="M258.68,374.47A1.67,1.67,0,1,1,257,372.8,1.67,1.67,0,0,1,258.68,374.47Z" transform="translate(-45.16 -167.99)"/><path class="cls-12" d="M127.66,255.2a3.68,3.68,0,1,1-3.67-3.68A3.67,3.67,0,0,1,127.66,255.2Z" transform="translate(-45.16 -167.99)"/><path class="cls-4" d="M125.7,255.2a1.72,1.72,0,1,1-1.71-1.72A1.71,1.71,0,0,1,125.7,255.2Z" transform="translate(-45.16 -167.99)"/><rect class="cls-3" x="62.82" y="328.36" width="31.73" height="7.5"/><rect class="cls-4" x="55.95" y="335.86" width="45.48" height="14.71"/><path class="cls-2" d="M142.3,317.06h-34V279.48h22.18a7.75,7.75,0,0,1,7.68,6.72Z" transform="translate(-45.16 -167.99)"/><path class="cls-3" d="M133.06,305.64H117.14a1.44,1.44,0,0,1-.51-.08,1.79,1.79,0,0,1-1.28-1.72V283.77h11.32a6.33,6.33,0,0,1,3.51,1.05,6.05,6.05,0,0,1,1.32,1.2,6.32,6.32,0,0,1,1.43,3.22l1.9,14.36A1.8,1.8,0,0,1,133.06,305.64Z" transform="translate(-45.16 -167.99)"/><g class="cls-17"><path class="cls-7" d="M131.35,295.16a1.76,1.76,0,0,1-.53,1.26l-9.21,9.22h-4.47a1.44,1.44,0,0,1-.51-.08L128.3,293.9a1.79,1.79,0,0,1,3,1.26Z" transform="translate(-45.16 -167.99)"/><path class="cls-7" d="M131.5,286l-16.15,16.15v-2.52l14.83-14.83A6.05,6.05,0,0,1,131.5,286Z" transform="translate(-45.16 -167.99)"/><path class="cls-7" d="M127.81,283.87l-9.18,9.18a1.34,1.34,0,0,1-2.28-.95,1.33,1.33,0,0,1,.39-.94l7.4-7.39h2.53A6.2,6.2,0,0,1,127.81,283.87Z" transform="translate(-45.16 -167.99)"/></g><rect class="cls-7" x="196.54" y="406.37" width="95.24" height="63.06" transform="translate(87.16 -218.83) rotate(16.25)"/><path class="cls-5" d="M189.42,455l.05-.15,17.69-60.7.16,0,91.58,26.7L281.16,481.7l-.15-.05Zm18-60.45-17.56,60.23,91.12,26.57,17.56-60.24Z" transform="translate(-45.16 -167.99)"/><path class="cls-2" d="M254.54,440.93a10.81,10.81,0,1,1-7.35-13.41A10.81,10.81,0,0,1,254.54,440.93Z" transform="translate(-45.16 -167.99)"/><polygon class="cls-7" points="193.34 273.02 195.9 264.24 205.6 271.83 193.34 273.02"/><rect class="cls-1" x="188.41" y="463.34" width="95.24" height="4.93" transform="translate(94.64 -215.44) rotate(16.25)"/><rect class="cls-6" x="194.25" y="464.58" width="80.16" height="1.46" transform="translate(94.44 -214.98) rotate(16.25)"/><rect class="cls-6" x="191.08" y="451.6" width="3.11" height="3.11" transform="translate(89.37 -203.8) rotate(16.25)"/><rect class="cls-12" x="191.83" y="452.01" width="0.59" height="2" transform="translate(89.3 -203.66) rotate(16.25)"/><rect class="cls-12" x="192.85" y="452.3" width="0.59" height="2" transform="translate(89.51 -203.94) rotate(16.26)"/><rect class="cls-6" x="273.97" y="475.76" width="3.11" height="3.11" transform="translate(99.44 -226.03) rotate(16.25)"/><rect class="cls-12" x="274.47" y="476.72" width="0.61" height="0.76" transform="translate(99.37 -225.83) rotate(16.25)"/><polygon class="cls-12" points="230.32 310.21 229.57 309.49 229.78 308.76 230.8 308.56 230.32 310.21"/><g id="u5Zjqx"><path class="cls-12" d="M276.32,477l.17-.09a1,1,0,0,1,.11.63,1,1,0,0,1-.51.74l-.1-.17a.77.77,0,0,0,.39-.49A.79.79,0,0,0,276.32,477Z" transform="translate(-45.16 -167.99)"/><path class="cls-12" d="M275.9,477.88l-.1-.17a.41.41,0,0,0,.2-.25.44.44,0,0,0,0-.32l.17-.09A.6.6,0,0,1,275.9,477.88Z" transform="translate(-45.16 -167.99)"/></g><rect class="cls-6" x="277.54" y="476.8" width="3.11" height="3.11" transform="translate(99.87 -226.99) rotate(16.25)"/><rect class="cls-12" x="278.17" y="477.2" width="1.29" height="1.29" transform="translate(99.71 -226.93) rotate(16.25)"/><rect class="cls-7" x="278.73" y="478.29" width="1.29" height="1.29" transform="translate(100.03 -227.04) rotate(16.25)"/><path class="cls-12" d="M210.27,458.3a1.6,1.6,0,0,0-.05.75l-14.57-4.25.41-1.41,14.58,4.25A1.59,1.59,0,0,0,210.27,458.3Z" transform="translate(-45.16 -167.99)"/><path class="cls-12" d="M213.47,459.23a1.59,1.59,0,0,1-.37.66,1.68,1.68,0,0,1-2.88-.84,1.71,1.71,0,0,1,.42-1.41,1.65,1.65,0,0,1,1.69-.48,1.67,1.67,0,0,1,1.18,1.32A1.74,1.74,0,0,1,213.47,459.23Z" transform="translate(-45.16 -167.99)"/><path class="cls-18" d="M463.16,523.06c.62-1.78,33.11-42.89,35.29-43.65.24-.1,14.17,10.25,14.17,10.25.56.79,27.55-4.33,27.55-4.33l-.41,32.42-48.91-2.06s-6.69,3.74-12.81,6.78h0a74.81,74.81,0,0,1-8,3.69C467.53,526.75,462.52,524.82,463.16,523.06Z" transform="translate(-45.16 -167.99)"/><path class="cls-7" d="M470,526.17a71.87,71.87,0,0,0,8-3.69h0c6.11-3,12.8-6.8,12.8-6.8l10.89.46L519.35,489c-3.75.58-6.55.92-6.74.67,0,0-13.91-10.35-14.16-10.25-2.18.76-34.66,41.87-35.29,43.65S467.53,526.75,470,526.17Z" transform="translate(-45.16 -167.99)"/><path class="cls-2" d="M462.87,523.11c.66-1.82,33.28-42.91,35.52-43.69.84-.3,7.67,4.12,14.23,10.24l-21.07,26.47s-19.13,9.62-21.67,10.22S462.21,524.92,462.87,523.11Z" transform="translate(-45.16 -167.99)"/><path class="cls-3" d="M465,523.82c5.64-6.75,27.74-34.52,32.8-41.62,0-.06,0-.09,0,0-5.74,6.57-27.61,34.52-32.87,41.57C464.76,523.88,464.86,524,465,523.82Z" transform="translate(-45.16 -167.99)"/><path class="cls-3" d="M473.46,524.88a7.11,7.11,0,0,0,1.59-5.46,6.86,6.86,0,0,0-2.46-4.46s-.1,0-.06.09a8.16,8.16,0,0,1,.84,9.76A.06.06,0,0,0,473.46,524.88Z" transform="translate(-45.16 -167.99)"/><path class="cls-3" d="M489.14,517.74c2.23-2.73,3.8-6.7,2.9-10.2,0-.14-.22-.09-.25,0a49,49,0,0,1-3,9.95A.22.22,0,0,0,489.14,517.74Z" transform="translate(-45.16 -167.99)"/><path class="cls-3" d="M486.63,519.21c2.22-2.73,3.79-6.7,2.89-10.2,0-.14-.22-.09-.25,0a48.11,48.11,0,0,1-3,9.94A.23.23,0,0,0,486.63,519.21Z" transform="translate(-45.16 -167.99)"/><path class="cls-3" d="M484.11,520.68c2.22-2.73,3.79-6.7,2.89-10.2,0-.14-.22-.09-.25,0a48.11,48.11,0,0,1-3,9.94A.23.23,0,0,0,484.11,520.68Z" transform="translate(-45.16 -167.99)"/><path class="cls-3" d="M481.59,522.15c2.22-2.73,3.79-6.7,2.89-10.2,0-.14-.22-.09-.25,0a48.11,48.11,0,0,1-3,9.94A.23.23,0,0,0,481.59,522.15Z" transform="translate(-45.16 -167.99)"/><path class="cls-3" d="M502.93,489.14c2.45-3.1-2.37-6.9-4.82-3.8S500.48,492.25,502.93,489.14Z" transform="translate(-45.16 -167.99)"/><path class="cls-3" d="M494.13,526.56c2.27-.48,2.54-3.13,2-4.95a18.49,18.49,0,0,0-5.06-8.1.09.09,0,0,0-.15,0,.44.44,0,0,0-.62.32c-.2,3-.79,6.27-.05,9.28C490.7,524.89,492,527,494.13,526.56Zm-3.17-8c.06-1.5.2-3,.21-4.48a55.1,55.1,0,0,1,2.85,4.8,20.09,20.09,0,0,1,1.06,2.48c.43,1.32.59,5.86-2.63,3.75C490.68,523.91,490.89,520.31,491,518.52Z" transform="translate(-45.16 -167.99)"/><path class="cls-3" d="M495.5,505.85c-2.27,2.1-3.55,5.12-5.06,7.77a.43.43,0,0,0,.34.61.09.09,0,0,0,.11.1,18.42,18.42,0,0,0,8.68-4c1.44-1.23,2.68-3.59,1.05-5.24S496.83,504.62,495.5,505.85Zm2.89-.42c3.85,0,1.22,3.71.13,4.58a21.37,21.37,0,0,1-2.25,1.49,55.22,55.22,0,0,1-5,2.43c.82-1.26,1.52-2.57,2.3-3.86C494.47,508.54,496.27,505.42,498.39,505.43Z" transform="translate(-45.16 -167.99)"/><path class="cls-19" d="M541.76,477.62l22.06-1.74s31.86-9.23,50.27-4.4c21.11,5.55,24.09,30.21,2.63,40.1C595.48,521.36,502,517.75,502,517.75l20-29.68s30.77-7.23,57.71-5.76l-38.14,4.39Z" transform="translate(-45.16 -167.99)"/><path class="cls-3" d="M542,483.9c3.28-.54,6.6-.81,9.91-1.11s6.69-.56,10-.77a197.6,197.6,0,0,1,20.07-.3c.62,0,1.25.06,1.88.1a2.73,2.73,0,0,1,.41-.1l1-.2c.6-.1,1.21-.17,1.82-.25,1.27-.17,2.54-.28,3.81-.49a.06.06,0,0,1,0,.12c-1.27.25-2.52.59-3.79.84-.37.08-.73.15-1.1.21,2.45.18,4.89.42,7.33.7a.06.06,0,1,1,0,.12c-3.32-.27-6.68-.36-10-.37s-6.63,0-9.94.11c-6.7.24-13.4.7-20.07,1.26-3.75.31-7.51.7-11.27.78C541.69,484.56,541.61,484,542,483.9Z" transform="translate(-45.16 -167.99)"/><path class="cls-3" d="M511.58,517.07c1.24-1.89,2.3-3.91,3.43-5.86s2.28-3.92,3.43-5.87c2.28-3.9,10.45-17,11.25-17.92,0-.06.15,0,.12.08-.39,1-5.5,9.7-6.68,11.64-2.35,3.87-4.81,7.66-7.24,11.48-.69,1.09-1.41,2.17-2.11,3.25s-1.45,2.15-2.1,3.27C511.64,517.2,511.54,517.13,511.58,517.07Z" transform="translate(-45.16 -167.99)"/><path class="cls-18" d="M621.32,529c-.54-1.81-31-44.41-33.18-45.27-.24-.12-14.64,9.57-14.64,9.57-.61.76-27.31-5.63-27.31-5.63l-1.13,32.39,49,.26s6.51,4.06,12.47,7.39h0a73.48,73.48,0,0,0,7.85,4.07C616.78,532.51,621.88,530.83,621.32,529Z" transform="translate(-45.16 -167.99)"/><path class="cls-7" d="M614.35,531.82a72.5,72.5,0,0,1-7.85-4.07h0c-6-3.32-12.46-7.39-12.46-7.39l-10.9-.05-16.32-28c3.73.77,6.51,1.24,6.7,1,0,0,14.39-9.68,14.64-9.56,2.14.86,32.64,43.46,33.18,45.26S616.78,532.52,614.35,531.82Z" transform="translate(-45.16 -167.99)"/><path class="cls-2" d="M621.61,529.1c-.57-1.85-31.22-44.43-33.41-45.32-.83-.34-7.86,3.75-14.7,9.56l19.79,27.43s18.65,10.52,21.16,11.23S622.18,530.94,621.61,529.1Z" transform="translate(-45.16 -167.99)"/><path class="cls-3" d="M619.47,529.71c-5.32-7-26.08-35.79-30.8-43.13,0-.06,0-.09.05,0,5.41,6.83,25.94,35.79,30.86,43.08C619.69,529.78,619.58,529.86,619.47,529.71Z" transform="translate(-45.16 -167.99)"/><path class="cls-3" d="M611,530.37a7,7,0,0,1-1.33-5.53,6.85,6.85,0,0,1,2.66-4.34s.1,0,.06.09a8.16,8.16,0,0,0-1.3,9.71C611.07,530.36,611,530.42,611,530.37Z" transform="translate(-45.16 -167.99)"/><path class="cls-3" d="M595.62,522.49c-2.1-2.83-3.48-6.87-2.42-10.32,0-.14.23-.08.25,0A48.86,48.86,0,0,0,596,522.29.22.22,0,0,1,595.62,522.49Z" transform="translate(-45.16 -167.99)"/><path class="cls-3" d="M598.06,524.08c-2.09-2.83-3.47-6.87-2.41-10.33,0-.13.23-.07.25,0a48.6,48.6,0,0,0,2.55,10.07A.22.22,0,0,1,598.06,524.08Z" transform="translate(-45.16 -167.99)"/><path class="cls-3" d="M600.51,525.67c-2.1-2.83-3.47-6.87-2.41-10.33,0-.13.23-.07.25,0a48.07,48.07,0,0,0,2.55,10.08A.22.22,0,0,1,600.51,525.67Z" transform="translate(-45.16 -167.99)"/><path class="cls-3" d="M603,527.25c-2.1-2.83-3.47-6.86-2.42-10.32.05-.14.24-.08.25,0a49.5,49.5,0,0,0,2.55,10.08A.22.22,0,0,1,603,527.25Z" transform="translate(-45.16 -167.99)"/><path class="cls-3" d="M583.2,493.28c-2.3-3.21,2.69-6.79,5-3.57S585.5,496.5,583.2,493.28Z" transform="translate(-45.16 -167.99)"/><path class="cls-3" d="M594.24,527.82c.88-3,.44-6.22.38-9.27,0-.31-.35-.43-.6-.34,0-.05-.09-.08-.14,0a18.34,18.34,0,0,0-5.44,7.85c-.61,1.79-.47,4.45,1.77,5S593.72,529.56,594.24,527.82ZM592,529.66c-3.32,2-3-2.57-2.45-3.87a19.46,19.46,0,0,1,1.18-2.43,55.07,55.07,0,0,1,3.07-4.66c-.06,1.5,0,3,0,4.49C593.75,525,593.79,528.58,592,529.66Z" transform="translate(-45.16 -167.99)"/><path class="cls-3" d="M584.75,509.34c-1.7,1.57-.57,4,.8,5.28A18.41,18.41,0,0,0,594,519a.08.08,0,0,0,.11-.09.43.43,0,0,0,.37-.59c-1.38-2.72-2.52-5.79-4.69-8C588.56,509,586.36,507.86,584.75,509.34Zm6.83,5.29c.71,1.32,1.36,2.67,2.12,4a54.17,54.17,0,0,1-4.91-2.67,21.19,21.19,0,0,1-2.17-1.59c-1-.92-3.5-4.74.34-4.57C589.08,509.85,590.73,513.06,591.58,514.63Z" transform="translate(-45.16 -167.99)"/><path class="cls-19" d="M545,477.73l-22-.58s-22.68-11.65-41.3-7.69c-21.35,4.53-24.77,31.11-9.16,41,19.77,12.47,109.22,12.53,109.22,12.53l-18.45-33.27s-29.56-7.05-56.55-6.85l37.9,6.19Z" transform="translate(-45.16 -167.99)"/><path class="cls-3" d="M564.55,491.82a.85.85,0,0,1,0-.17l0-.14c0-.1-.05-.21-.07-.32s-.13-.43-.21-.64-.16-.43-.26-.64a4.88,4.88,0,0,0-.34-.58s0,0-.05,0l0,0,0,0-.05,0c-3.26-.69-25.38-4.46-28.68-4.93s-6.65-.86-10-1.23a200.16,200.16,0,0,0-20-1.26h-1.88c-.13-.05-.27-.07-.41-.11-.32-.09-.63-.17-1-.24-.6-.14-1.2-.24-1.81-.35-1.26-.23-2.52-.39-3.77-.66-.08,0-.11.09,0,.11,1.26.32,2.49.72,3.75,1l1.09.26c-2.45.06-4.9.19-7.36.34-.07,0-.08.13,0,.12,3.33-.1,6.69,0,10,.11s6.62.3,9.92.58c6.68.56,13.35,1.34,20,2.21,3.73.49,26.29,4.4,30,4.66h.05a2.67,2.67,0,0,0,.09.26c.1.2.2.41.31.61a6.55,6.55,0,0,0,.32.58c0,.09.11.18.17.27l.09.14a1.21,1.21,0,0,1,.1.14A.06.06,0,1,0,564.55,491.82Z" transform="translate(-45.16 -167.99)"/><path class="cls-3" d="M574.86,520.76c-1.15-1.94-2.12-4-3.16-6s-2.09-4-3.14-6c-2.09-4-9.63-17.48-10.39-18.43a.08.08,0,0,0-.13.07c.35,1,5,9.95,6.12,11.94,2.17,4,4.45,7.89,6.69,11.82.64,1.12,1.31,2.23,2,3.34s1.35,2.22,1.94,3.36C574.79,520.89,574.9,520.83,574.86,520.76Z" transform="translate(-45.16 -167.99)"/><path class="cls-2" d="M522.49,476.77c.82.87,53,2.06,53.27,1.73.72-.89-6-34-11.48-46.67-7-16.23-10.92-17.69-13.26-18.66a18.58,18.58,0,0,0-9.76-.39c-1.49.61-8,7.87-9.91,13.75C527.45,438.33,521.78,476,522.49,476.77Z" transform="translate(-45.16 -167.99)"/><path class="cls-7" d="M544.28,433.87a7.65,7.65,0,0,0-.68,2,8,8,0,0,0-.13,2.14,7.34,7.34,0,0,0,.69-2A8,8,0,0,0,544.28,433.87ZM551.62,468a7.56,7.56,0,0,0-.67,2,7.67,7.67,0,0,0-.14,2.15,7.77,7.77,0,0,0,.68-2A7.67,7.67,0,0,0,551.62,468Zm-19.91-15.34a7.42,7.42,0,0,0-.68,2,7.67,7.67,0,0,0-.13,2.14,7.59,7.59,0,0,0,.68-2A8.06,8.06,0,0,0,531.71,452.66Zm34.64-2.79a7.6,7.6,0,0,0-.68,2.05,7.94,7.94,0,0,0-.13,2.13,7.17,7.17,0,0,0,.69-2A8.06,8.06,0,0,0,566.35,449.87ZM550,415.63a7.69,7.69,0,0,0-2.15-.14,7.65,7.65,0,0,0,2,.68,6.94,6.94,0,0,0,2.14.13A7.68,7.68,0,0,0,550,415.63Zm16.37,21.79a8.34,8.34,0,0,0-1.74-.54,8,8,0,0,0-2.14-.13,7.65,7.65,0,0,0,2,.68,7.43,7.43,0,0,0,1.89.14,1,1,0,0,0,.25,0Zm-36-7.65c0,.17-.09.34-.14.52a6.88,6.88,0,0,0,1.93.1A6.92,6.92,0,0,0,530.4,429.77ZM538,476a7.69,7.69,0,0,0-2.15-.13,7.42,7.42,0,0,0,2,.68,7.64,7.64,0,0,0,2.14.13A7.59,7.59,0,0,0,538,476Zm1.28-28.72a7.69,7.69,0,0,0-2.15-.12,7.77,7.77,0,0,0,2,.68,8.06,8.06,0,0,0,2.14.13A7.28,7.28,0,0,0,539.24,447.24Zm36.39,29a7.41,7.41,0,0,0-.94,0,6.09,6.09,0,0,0,1,.42Zm-17.54-15.81a7.27,7.27,0,0,0-2.14-.14,7.71,7.71,0,0,0,2,.68,7.35,7.35,0,0,0,2.15.13A7.29,7.29,0,0,0,558.09,460.43Zm-18.21-36.78a7.71,7.71,0,0,0-1.43-1.6,8.21,8.21,0,0,0,1,1.92,7.76,7.76,0,0,0,1.43,1.61A8.09,8.09,0,0,0,539.88,423.65Zm-.37,41.11a7.51,7.51,0,0,0-1.43-1.61,7.37,7.37,0,0,0,1,1.92,7.66,7.66,0,0,0,1.41,1.61A7.32,7.32,0,0,0,539.51,464.76Zm20.84,11.32a7.66,7.66,0,0,0-1.41-1.61,7.35,7.35,0,0,0,1,1.92,7,7,0,0,0,1.42,1.61A7.37,7.37,0,0,0,560.35,476.08Zm-5-32.55a7.43,7.43,0,0,0-1.42-1.61,8,8,0,0,0,1,1.92,7.25,7.25,0,0,0,1.43,1.61A8.05,8.05,0,0,0,555.35,443.53ZM531,438.58a7.92,7.92,0,0,0-1.6,1.42,7.28,7.28,0,0,0,1.91-1,7.06,7.06,0,0,0,1.62-1.43A8.12,8.12,0,0,0,531,438.58Zm-4,30.14a7.63,7.63,0,0,0-1.6,1.42,7.5,7.5,0,0,0,1.92-1,7.71,7.71,0,0,0,1.61-1.42A7.11,7.11,0,0,0,527,468.72Zm20.83-14.63a7.47,7.47,0,0,0-1.62,1.41,8.15,8.15,0,0,0,3.53-2.38A7,7,0,0,0,547.86,454.09Zm20,13.77a7.25,7.25,0,0,0-1.61,1.43,7.63,7.63,0,0,0,1.91-1,7.51,7.51,0,0,0,1.62-1.42A7.5,7.5,0,0,0,567.89,467.86Zm-14.11-40.71a7.25,7.25,0,0,0-1.61,1.43,8.56,8.56,0,0,0,3.53-2.38A7.32,7.32,0,0,0,553.78,427.15Z" transform="translate(-45.16 -167.99)"/><path class="cls-18" d="M559.67,417.57c22.5,16.91,42,40.38,40.09,47.81-2,7.86-17.53,16.65-31.27,18.44-2.81.37-11.51-20.26-8.63-21.21,2.24-.74,12.45-3.64,13.67-5,.85-1-15-23.26-20.15-34.9C548,410.49,553.64,413,559.67,417.57Z" transform="translate(-45.16 -167.99)"/><path class="cls-18" d="M565.66,462s-8.59.86-14.18,1.69c-3.12.46-8.39,1.73-10.53,3.12-3.19,2.07-15.22,12.79-12.69,15.77,2.3,2.69,5.76-1.57,5.76-1.57s-4.22,4.3-1.12,6.27,7.1-4,7.1-4-4.81,4.25-1.3,6c3,1.55,8.37-4.85,8.37-4.85s-5.53,3.91-2.57,5.81c3.28,2.09,12.47-6.5,12.47-6.5,7.35.82,11.88.32,17.06-1.13C575,482.37,565.66,462,565.66,462Z" transform="translate(-45.16 -167.99)"/><path class="cls-3" d="M538.7,484.7c.34-.45.68-.9,1-1.36a28.26,28.26,0,0,1,2.06-2.57c.73-.79,1.49-1.54,2.28-2.27s1.75-1.46,2.56-2.25c.06-.06.15,0,.08.1a28,28,0,0,0-2.29,2.45c-.73.81-1.45,1.64-2.18,2.47s-1.46,1.56-2.18,2.34c-.37.4-.71.81-1.06,1.21a8.49,8.49,0,0,1-1,1.15s-.08,0-.07-.06A8.17,8.17,0,0,1,538.7,484.7Z" transform="translate(-45.16 -167.99)"/><path class="cls-3" d="M533.16,481.91a44.49,44.49,0,0,1,3.71-4.87,31.16,31.16,0,0,1,4.53-4.13c.06,0,.13,0,.09.1-1.37,1.52-2.76,3-4.15,4.54-.68.74-3.66,4.18-4,4.5C533.24,482.13,533.12,482,533.16,481.91Z" transform="translate(-45.16 -167.99)"/><path class="cls-3" d="M543.85,487.47a42.77,42.77,0,0,1,3.56-4.52,39.81,39.81,0,0,1,4.62-3.66c.06,0,.13,0,.08.09-1.44,1.34-2.89,2.64-4.27,4-.67.68-3.18,3.55-3.87,4.15A.08.08,0,0,1,543.85,487.47Z" transform="translate(-45.16 -167.99)"/><path class="cls-2" d="M584.69,438.42l-17.14,11.11s-12.71-19.69-16-29,.55-9.35,9.54-2.59S584.69,438.42,584.69,438.42Z" transform="translate(-45.16 -167.99)"/><path class="cls-7" d="M554.32,426.82l.23.46a6.52,6.52,0,0,0,1.15-1.08A5.94,5.94,0,0,0,554.32,426.82Zm19.62,12.57a7.25,7.25,0,0,0-1.61,1.43,8.24,8.24,0,0,0,1.92-1,7,7,0,0,0,1.6-1.42A7.78,7.78,0,0,0,573.94,439.39Zm-.21-8.21a7.66,7.66,0,0,0-1.42-1.6,7.82,7.82,0,0,0,1,1.92,8.38,8.38,0,0,0,1.43,1.61A7.41,7.41,0,0,0,573.73,431.18Zm-9.1,5.7a8,8,0,0,0-2.14-.13,8.25,8.25,0,0,0,4.18.81A7.65,7.65,0,0,0,564.63,436.88Zm18.73.31a6.49,6.49,0,0,0-.76,0,6.25,6.25,0,0,0,1.34.51C583.78,437.56,583.58,437.38,583.36,437.19Zm-33-21.47a5,5,0,0,0,0,.53,5.7,5.7,0,0,0,1.6.05A6.5,6.5,0,0,0,550.38,415.72Zm14.54,6.33a7.31,7.31,0,0,0-.68,2,7.6,7.6,0,0,0-.13,2.14,7.65,7.65,0,0,0,.68-2A8,8,0,0,0,564.92,422.05Z" transform="translate(-45.16 -167.99)"/><path class="cls-3" d="M580.8,436a141.37,141.37,0,0,1-14.27,9.63c-.06,0-.12-.06-.06-.1,1.3-.79,8.29-5.93,14.26-9.64C580.8,435.81,580.86,435.91,580.8,436Z" transform="translate(-45.16 -167.99)"/><path class="cls-3" d="M568.65,448.77a8,8,0,0,0-1,.54c-1.9-3.29-4-6.62-5.89-9.89l-2.85-4.81c-1-1.67-1.88-3.41-3-5a0,0,0,0,0-.08,0,52,52,0,0,0,2.34,4.66c-.17-.24-.34-.48-.53-.7-.42-.51-.84-1-1.22-1.54-.06-.09-.2,0-.14.07.37.52.69,1,1,1.58s.68,1.05,1,1.56.73,1,1.11,1.44l.14.17c.52.95,1,1.92,1.57,2.86,1.91,3.31,6.24,10,6.29,9.95a8.74,8.74,0,0,0,1.25-.82S568.7,448.76,568.65,448.77Z" transform="translate(-45.16 -167.99)"/><path class="cls-18" d="M531.46,418.35C513.35,428.14,496.39,440,493.31,448c-1.95,5.08.7,14.18,2.83,19.64,1,2.66,26.12-8.17,24-10.35-5.28-5.41-6.14-7.6-5.61-8.72.35-.71,20.05-18.39,25.53-26.3C547.68,411.27,539.39,414.07,531.46,418.35Z" transform="translate(-45.16 -167.99)"/><path class="cls-18" d="M530.07,481.93c-2.36,1.38-5.26-4.73-5.26-4.73a5.09,5.09,0,0,1-1.36,3.15c-1.49,1.44-4.42-.26-4.42-.26a6.24,6.24,0,0,1-2,3.1c-1.57,1.24-4.76-.06-4.76-.06a5.45,5.45,0,0,1-3.44,1.63c-3.5.17-6.55-4.23-8.52-7s-4.94-12.49-5.7-14.29l17.72-12.78s12.36,9.95,14.21,13.54C528.13,467.25,533.69,479.83,530.07,481.93Z" transform="translate(-45.16 -167.99)"/><path class="cls-3" d="M524.85,477.11a45.65,45.65,0,0,0-4.36-10.28c0-.07-.15,0-.11.06,1.75,3.23,2.68,7,4.3,10.28A.09.09,0,0,0,524.85,477.11Z" transform="translate(-45.16 -167.99)"/><path class="cls-3" d="M519.22,479.87a9.29,9.29,0,0,0-1.14-2.27c-.46-.77-.93-1.54-1.41-2.3-1-1.51-2-3-3-4.47,0-.07-.15,0-.11.06,1,1.51,1.91,3,2.81,4.59.45.78.89,1.56,1.33,2.34A10.68,10.68,0,0,0,519,480C519.09,480.07,519.26,480,519.22,479.87Z" transform="translate(-45.16 -167.99)"/><path class="cls-3" d="M512.27,483.06a6.89,6.89,0,0,0-1.14-2L509.77,479c-.89-1.37-1.79-2.74-2.64-4.15,0-.07-.15,0-.11.06.85,1.43,1.69,2.88,2.56,4.3.42.7.85,1.39,1.29,2.09a6.38,6.38,0,0,0,1.33,1.79A0,0,0,0,0,512.27,483.06Z" transform="translate(-45.16 -167.99)"/><path class="cls-2" d="M505.31,433l13.59,12.9s17.33-15.86,22.28-24.42,1.17-9.29-8.9-4.3S505.31,433,505.31,433Z" transform="translate(-45.16 -167.99)"/><path class="cls-7" d="M529.27,420.47a7.38,7.38,0,0,0-1.6,1.42,7.31,7.31,0,0,0,1.91-1,7.19,7.19,0,0,0,1.61-1.41A7.2,7.2,0,0,0,529.27,420.47Zm-8.67,19a7.41,7.41,0,0,0-1.42-1.6,8.14,8.14,0,0,0,1,1.91,6.81,6.81,0,0,0,1.43,1.61A8.24,8.24,0,0,0,520.6,439.47Zm17.85-17.42a8.21,8.21,0,0,0,1,1.92l.07.09c.12-.16.24-.33.34-.49A7.55,7.55,0,0,0,538.45,422.05Zm-8.3,7.66a7.67,7.67,0,0,0-2.15-.13,7.72,7.72,0,0,0,2,.68,7.62,7.62,0,0,0,2.14.13A7.65,7.65,0,0,0,530.15,429.71Zm-19.56,3.88a7.71,7.71,0,0,0-2.15-.12,7.77,7.77,0,0,0,2,.68,8.45,8.45,0,0,0,2.14.13A7.28,7.28,0,0,0,510.59,433.59Zm9.47-6.13a8.25,8.25,0,0,0-.81,4.18,7.65,7.65,0,0,0,.68-2A8,8,0,0,0,520.06,427.46Z" transform="translate(-45.16 -167.99)"/><path class="cls-3" d="M521.62,442.43a133.42,133.42,0,0,1-12-11.56c-.06-.05,0-.13.08-.07,1,1.06,7.3,6.65,12,11.55C521.77,442.4,521.68,442.48,521.62,442.43Z" transform="translate(-45.16 -167.99)"/><path class="cls-3" d="M531.91,427c-.65,1.45-1.29,2.89-1.83,4.37a2.64,2.64,0,0,1,0-.29,17.35,17.35,0,0,1,.36-2.7c0-.1-.13-.14-.15,0-.19.89-.36,1.8-.48,2.7-.07.44-.1.88-.13,1.31,0,.05,0,.11,0,.16s0,0,0,.06c-.61,2-1,4-1.52,6a.08.08,0,0,0,.15,0c.52-2,1.27-3.86,1.93-5.77s1.18-3.86,1.81-5.78A.07.07,0,0,0,531.91,427Z" transform="translate(-45.16 -167.99)"/><path class="cls-18" d="M543.05,421.91c3,.58,7.89-4.16,9.74-7.91a61,61,0,0,0-.82-6.12c-.26-2-.51-4.15-.6-6.17,0-.41-12.51,3.6-12.51,3.6a32.25,32.25,0,0,1,1.55,7.68,4.38,4.38,0,0,1-.06.83s0,.09,0,.14C540.15,415.54,540.16,421.35,543.05,421.91Z" transform="translate(-45.16 -167.99)"/><path class="cls-3" d="M550.6,401.8c-.45,3.43-2.22,11.75-9,12.18a7.93,7.93,0,0,1-1.3,0,.59.59,0,0,1,0-.14,5.39,5.39,0,0,0,0-.82,32.25,32.25,0,0,0-1.55-7.69S547.88,402.41,550.6,401.8Z" transform="translate(-45.16 -167.99)"/><path class="cls-18" d="M549.41,385.09c2.41,4,3.24,17.16.84,20.73-3.48,5.18-10.73,7.4-15.52,2.86-4.65-4.39-5.42-21.54-2.6-24.95C536.29,378.72,545.85,379.15,549.41,385.09Z" transform="translate(-45.16 -167.99)"/><path class="cls-3" d="M540,397.3s.08,0,.08.08c0,.88.21,1.89,1,2.13,0,0,0,.05,0,.05C540.09,399.49,539.85,398.15,540,397.3Z" transform="translate(-45.16 -167.99)"/><path class="cls-3" d="M540.69,396.32c1.42-.2,1.72,2.65.41,2.84S539.5,396.5,540.69,396.32Z" transform="translate(-45.16 -167.99)"/><path class="cls-3" d="M535,397.86s-.06.05-.06.08c.12.88.12,1.91-.65,2.29,0,0,0,0,0,0C535.29,400,535.29,398.67,535,397.86Z" transform="translate(-45.16 -167.99)"/><path class="cls-3" d="M534.14,397c-1.43.05-1.23,2.9.09,2.86S535.34,397,534.14,397Z" transform="translate(-45.16 -167.99)"/><path class="cls-3" d="M541.76,393.93a11.46,11.46,0,0,1-1.17-.06,1.92,1.92,0,0,1-1.19-.3.6.6,0,0,1-.11-.73,1.53,1.53,0,0,1,1.41-.57,2.26,2.26,0,0,1,1.49.56A.65.65,0,0,1,541.76,393.93Z" transform="translate(-45.16 -167.99)"/><path class="cls-3" d="M532.61,395.08a10.34,10.34,0,0,0,1.1-.41,1.91,1.91,0,0,0,1-.64.61.61,0,0,0-.12-.73,1.48,1.48,0,0,0-1.51-.12,2.19,2.19,0,0,0-1.25,1A.64.64,0,0,0,532.61,395.08Z" transform="translate(-45.16 -167.99)"/><path class="cls-3" d="M542.31,405.34c-.18.23-.36.53-.68.6a2.45,2.45,0,0,1-1-.12,0,0,0,0,0,0,.05,1.19,1.19,0,0,0,1.17.35.91.91,0,0,0,.61-.85C542.41,405.32,542.34,405.31,542.31,405.34Z" transform="translate(-45.16 -167.99)"/><path class="cls-3" d="M541.1,402.8a3,3,0,0,1-1.86,1.55,3.51,3.51,0,0,1-1.07.16h-.41a.2.2,0,0,1-.19-.17h0a.28.28,0,0,1,0-.09h0v-.08c-.1-.67-.14-1.71-.14-1.71-.23.15-1.44.85-1.46.5a45.86,45.86,0,0,1,.19-9.22c0-.1.16-.09.17,0,.24,2.83,0,5.69.19,8.54a5.61,5.61,0,0,1,1.37-.58c.1,0,0,2,.12,2.31a.1.1,0,0,0,0,0,4.2,4.2,0,0,0,3-1.3C541.07,402.67,541.15,402.72,541.1,402.8Z" transform="translate(-45.16 -167.99)"/><path class="cls-3" d="M538.53,404.13a3.65,3.65,0,0,0,1.55.95,1.65,1.65,0,0,0,1,0c.68-.26.63-.91.44-1.45a3.58,3.58,0,0,0-.4-.81A4.68,4.68,0,0,1,538.53,404.13Z" transform="translate(-45.16 -167.99)"/><path class="cls-20" d="M540.08,405.08a1.65,1.65,0,0,0,1,0c.68-.26.63-.91.44-1.45A1.66,1.66,0,0,0,540.08,405.08Z" transform="translate(-45.16 -167.99)"/><path class="cls-3" d="M551.6,396.16c-3.25.73-5.22-5-5.22-5s-5.79.35-7.55-3.67c0,0-4.53,4.58-9,4s-4.69-5.48-4.46-6.59,3,.24,3,.24-.34-2.73.31-3.16,1.79,1,1.79,1a35.51,35.51,0,0,1,9.86-4c4.9-1,8.42,3.4,8.42,3.4s2.73,0,4,1.6S553.67,395.7,551.6,396.16Z" transform="translate(-45.16 -167.99)"/><path class="cls-3" d="M538.72,386.64a7,7,0,0,0,1.07,2.37,4.65,4.65,0,0,0,2,1.57,6.67,6.67,0,0,0,2.52.41c.43,0,.87-.06,1.31-.1s.86-.17,1.31-.23c-.42.16-.85.29-1.27.43s-.88.18-1.33.23a6,6,0,0,1-2.71-.34,4.52,4.52,0,0,1-2.08-1.78A5.52,5.52,0,0,1,538.72,386.64Z" transform="translate(-45.16 -167.99)"/><path class="cls-3" d="M548.86,383.05a8.21,8.21,0,0,0-2.74-3.23,6.5,6.5,0,0,0-4-1.11,7.42,7.42,0,0,0-1,.08l-1,.22a20.9,20.9,0,0,0-2,.69c-.64.32-1.31.6-1.93.95s-1.24.74-1.88,1.09c.58-.43,1.18-.84,1.77-1.27s1.27-.71,1.9-1.07a11.12,11.12,0,0,1,4.24-1.12,6.68,6.68,0,0,1,4.19,1.27A7.41,7.41,0,0,1,548.86,383.05Z" transform="translate(-45.16 -167.99)"/><path class="cls-18" d="M549.27,396s1.93-4.73,4-4.14,1.29,7-.71,8.31a2.26,2.26,0,0,1-3.23-.51Z" transform="translate(-45.16 -167.99)"/><path class="cls-3" d="M553,393.69s0,0,0,.06a5.71,5.71,0,0,0-2.09,4.16,1.25,1.25,0,0,1,1.75-.75s0,.09,0,.09a1.41,1.41,0,0,0-1.39.81,7.39,7.39,0,0,0-.44,1.38c0,.15-.3.13-.28,0v0C550.07,397.43,551,394.36,553,393.69Z" transform="translate(-45.16 -167.99)"/><path class="cls-3" d="M554.39,414.81a57.1,57.1,0,0,1-4,5.23,9.62,9.62,0,0,1-5.14,3.3c-2,.36-4,.13-5-2.25a14.72,14.72,0,0,1-.71-6.39.08.08,0,1,0-.15,0c-.17,3.23-.22,8.22,2.78,9.07,3.36.95,6.4-1,8.48-3.44a30.71,30.71,0,0,0,3.78-5.46S554.42,414.78,554.39,414.81Z" transform="translate(-45.16 -167.99)"/><rect class="cls-6" x="457.65" y="320.78" width="57.6" height="2.58"/><polygon class="cls-12" points="502.93 320.78 504.9 323.36 457.65 323.36 457.65 320.78 502.93 320.78"/><polygon class="cls-6" points="500.46 323.36 444.33 323.36 439.65 285.23 495.79 285.23 500.46 323.36"/><path class="cls-7" d="M518.63,472.29a3.34,3.34,0,0,1-3.35,3.42,3.49,3.49,0,0,1-3.48-3.42,3.35,3.35,0,0,1,3.36-3.42A3.49,3.49,0,0,1,518.63,472.29Z" transform="translate(-45.16 -167.99)"/></svg>