<svg id="Слой_2" data-name="Слой 2" xmlns="http://www.w3.org/2000/svg" viewBox="0 0 585.39 389.79"><defs><style>.cls-1{fill:#ececec;}.cls-2{fill:#dcdcdc;}.cls-3{fill:#a8a8a8;}.cls-11,.cls-4{fill:#1a2e35;}.cls-5{fill:#fff;}.cls-6{fill:#ffc800;}.cls-7{fill:#375a64;}.cls-8{fill:#fb6a55;}.cls-9{fill:#c8c8c8;}.cls-10{fill:#ff99bc;}.cls-11{opacity:0.2;}.cls-12{fill:#2b454e;}.cls-13{opacity:0.1;}</style></defs><path class="cls-1" d="M534.48,332.87c0-1.17.15-4.29.15-5.62,0-5.69-2-8.26-7.33-8.42-2.49-.15-4-1.63-4-3.74s1.48-3.58,4-3.74c5.3-.23,7.33-2.73,7.33-8.5,0-1.32-.15-4.44-.15-5.61,0-7.56,3.19-12.4,15.28-15.05a3.37,3.37,0,0,1,2.1,6.39c-7.56,2.34-8.65,4.76-8.65,10.06,0,1.56.15,4.13.15,5.77,0,6.08-3,9-8.11,10.68,5.23,1.72,8.11,4.6,8.11,10.68,0,1.64-.15,4.21-.15,5.77,0,5.3,1.09,7.72,8.65,10.06a3.37,3.37,0,0,1-2.1,6.39C537.67,345.34,534.48,340.51,534.48,332.87Z" transform="translate(-59.1 -210.75)"/><path class="cls-1" d="M580.16,297.24c0,1.17-.15,4.29-.15,5.61,0,5.77,2.1,8.27,7.4,8.5,2.42.16,3.9,1.64,3.9,3.74s-1.48,3.59-3.9,3.74c-5.3.16-7.4,2.73-7.4,8.42,0,1.33.15,4.45.15,5.62,0,7.64-3.19,12.47-15.28,15.12a3.35,3.35,0,0,1-2-6.39c7.49-2.34,8.58-4.76,8.58-10.06,0-1.56-.15-4.13-.15-5.77,0-6.08,3-9,8.1-10.68-5.22-1.71-8.1-4.6-8.1-10.68,0-1.64.15-4.21.15-5.77,0-5.3-1.09-7.72-8.58-10.06a3.23,3.23,0,0,1-2.26-3.19,3.27,3.27,0,0,1,4.29-3.2C577,284.84,580.16,289.68,580.16,297.24Z" transform="translate(-59.1 -210.75)"/><ellipse class="cls-1" cx="292.69" cy="367.32" rx="281.9" ry="22.47"/><polygon class="cls-2" points="558.5 340.14 389.09 340.14 422.87 143.65 549.55 143.65 558.5 340.14"/><polygon class="cls-3" points="558.5 340.14 543.65 340.14 535.31 143.65 549.55 143.65 558.5 340.14"/><polygon class="cls-4" points="0 340.14 73.17 339.9 146.35 339.81 292.69 339.64 439.04 339.81 512.21 339.89 585.39 340.14 512.21 340.38 439.04 340.47 292.69 340.64 146.35 340.47 73.17 340.38 0 340.14"/><rect class="cls-5" x="249.62" y="104.19" width="139.01" height="88.67"/><path class="cls-1" d="M448.6,404.49H307.84V314.07H448.6Zm-139-1.75H446.85V315.82H309.6Z" transform="translate(-59.1 -210.75)"/><rect class="cls-6" x="249.62" y="104.19" width="139.01" height="16.77"/><path class="cls-1" d="M448.6,332.59H307.84V314.07H448.6Zm-139-1.76H446.85v-15H309.6Z" transform="translate(-59.1 -210.75)"/><path class="cls-3" d="M324.46,323.45a4.22,4.22,0,1,1-4.22-4.22A4.22,4.22,0,0,1,324.46,323.45Z" transform="translate(-59.1 -210.75)"/><path class="cls-1" d="M341.7,323.45a4.22,4.22,0,1,1-4.22-4.22A4.22,4.22,0,0,1,341.7,323.45Z" transform="translate(-59.1 -210.75)"/><path class="cls-5" d="M358.93,323.45a4.22,4.22,0,1,1-4.22-4.22A4.22,4.22,0,0,1,358.93,323.45Z" transform="translate(-59.1 -210.75)"/><path class="cls-1" d="M334.67,364.87a17.14,17.14,0,0,1,17.14-16.81,17.46,17.46,0,0,1,10.79,3.64,2.68,2.68,0,0,1-3.27,4.25,11.63,11.63,0,0,0-7.52-2.57,12.36,12.36,0,0,0-8.4,3.36,11.55,11.55,0,0,0-3.41,8.13,11.37,11.37,0,0,0,3.41,8.13,12.36,12.36,0,0,0,8.4,3.36,11.73,11.73,0,0,0,7.52-2.57,2.83,2.83,0,0,1,3.74.52,2.75,2.75,0,0,1-.47,3.73,17.46,17.46,0,0,1-10.79,3.64A17.08,17.08,0,0,1,334.67,364.87Z" transform="translate(-59.1 -210.75)"/><path class="cls-1" d="M379.46,367.81h-6.63a2.57,2.57,0,1,1,0-5.13h6.63v-6.5a2.63,2.63,0,0,1,2.66-2.66,2.67,2.67,0,0,1,2.67,2.66v6.5h6.63a2.57,2.57,0,1,1,0,5.13h-6.63v6.5a2.67,2.67,0,0,1-2.67,2.66,2.63,2.63,0,0,1-2.66-2.66Z" transform="translate(-59.1 -210.75)"/><path class="cls-1" d="M408.42,367.81h-6.64a2.57,2.57,0,0,1,0-5.13h6.64v-6.5a2.63,2.63,0,0,1,2.66-2.66,2.66,2.66,0,0,1,2.66,2.66v6.5h6.63a2.57,2.57,0,1,1,0,5.13h-6.63v6.5a2.66,2.66,0,0,1-2.66,2.66,2.63,2.63,0,0,1-2.66-2.66Z" transform="translate(-59.1 -210.75)"/><rect class="cls-7" x="88.69" y="104.31" width="139.1" height="35.06"/><polygon class="cls-4" points="327.19 38.79 333.12 53.09 327.2 55.53 321.25 41.14 311.48 48.72 311.48 8.44 339.67 36.93 327.19 38.79"/><path class="cls-4" d="M370.58,214.8a5.88,5.88,0,0,1,0-4.05,5.88,5.88,0,0,1,0,4.05Z" transform="translate(-59.1 -210.75)"/><path class="cls-4" d="M367.09,216.25a5.93,5.93,0,0,1-2.86-2.87,5.24,5.24,0,0,1,1.68,1.18A5.4,5.4,0,0,1,367.09,216.25Z" transform="translate(-59.1 -210.75)"/><path class="cls-4" d="M365.65,219.74a6,6,0,0,1-4,0,5.88,5.88,0,0,1,4,0Z" transform="translate(-59.1 -210.75)"/><path class="cls-4" d="M367.09,223.22a5.4,5.4,0,0,1-1.18,1.69,5.24,5.24,0,0,1-1.68,1.18,5.93,5.93,0,0,1,2.86-2.87Z" transform="translate(-59.1 -210.75)"/><path class="cls-4" d="M375.51,219.74a5.88,5.88,0,0,1,4.05,0,6,6,0,0,1-4.05,0Z" transform="translate(-59.1 -210.75)"/><path class="cls-4" d="M374.07,216.25a5.4,5.4,0,0,1,1.18-1.69,5.24,5.24,0,0,1,1.68-1.18,5.24,5.24,0,0,1-1.18,1.69A5.36,5.36,0,0,1,374.07,216.25Z" transform="translate(-59.1 -210.75)"/><path class="cls-5" d="M169.83,320a.49.49,0,0,1,.53-.52h7.9c3.1,0,4.74,1.65,4.74,4.74v8c0,3.06-1.64,4.74-4.74,4.74h-3.95v8.3a.47.47,0,0,1-.53.52h-3.42a.48.48,0,0,1-.53-.52Zm7.38,12.65a1.18,1.18,0,0,0,1.31-1.32v-6.19a1.16,1.16,0,0,0-1.31-1.31h-2.9v8.82Z" transform="translate(-59.1 -210.75)"/><path class="cls-5" d="M201.05,322.76c.49,0,.72.33.52.76l-6,13.67v8a.59.59,0,0,1-.66.65h-3.16a.59.59,0,0,1-.66-.65v-8l-6-13.67c-.19-.43,0-.76.53-.76h3.29a.75.75,0,0,1,.76.53l3.69,8.46,3.69-8.46a.75.75,0,0,1,.75-.53Z" transform="translate(-59.1 -210.75)"/><path class="cls-5" d="M215.6,322.76a.48.48,0,0,1,.53.53v3.29a.48.48,0,0,1-.53.53h-3.82v18.18c0,.36-.16.52-.53.52h-3.42a.47.47,0,0,1-.53-.52V327.11h-3.82a.48.48,0,0,1-.52-.53v-3.29a.48.48,0,0,1,.52-.53Z" transform="translate(-59.1 -210.75)"/><path class="cls-5" d="M227.45,323.29a.49.49,0,0,1,.53-.53h3.39c.4,0,.56.2.56.53v22c0,.33-.16.52-.56.52H228a.48.48,0,0,1-.53-.52v-8.76h-4.21v8.76a.48.48,0,0,1-.53.52h-3.39c-.39,0-.56-.19-.56-.52v-22c0-.33.17-.53.56-.53h3.39a.49.49,0,0,1,.53.53v8.89h4.21Z" transform="translate(-59.1 -210.75)"/><path class="cls-5" d="M235.22,327.5c0-3.09,1.65-4.74,4.75-4.74h3.68c3.1,0,4.75,1.65,4.75,4.74v13.57c0,3.1-1.65,4.74-4.75,4.74H240c-3.1,0-4.75-1.64-4.75-4.74Zm7.71,14.07a1.17,1.17,0,0,0,1.32-1.32V328.33a1.18,1.18,0,0,0-1.32-1.32h-2.11a1.18,1.18,0,0,0-1.31,1.32v11.92a1.17,1.17,0,0,0,1.31,1.32Z" transform="translate(-59.1 -210.75)"/><path class="cls-5" d="M265.22,322.76a.49.49,0,0,1,.53.53v22a.48.48,0,0,1-.53.52h-2.6a.59.59,0,0,1-.59-.42l-6.19-12.58v12.48a.47.47,0,0,1-.53.52h-3.09a.48.48,0,0,1-.53-.52v-22a.49.49,0,0,1,.53-.53h2.6a.59.59,0,0,1,.59.43l6.19,12.58V323.29a.48.48,0,0,1,.53-.53Z" transform="translate(-59.1 -210.75)"/><path class="cls-8" d="M476.8,387.51c-10.79,47-32.62,106.43-49.48,118.42-13.61,9.68-85,26.72-88.95,27.15-9.85,1-29.31-68.6-19.1-71.43,12.87-3.56,74-5.46,77.51-9,3.61-3.73,25.87-33.87,51.07-68.79C465.24,359.69,483.49,358.37,476.8,387.51Z" transform="translate(-59.1 -210.75)"/><path class="cls-8" d="M346.28,529.26c-1.18.59-17.84,9-28.15,12-7.68,2.23-30,8-33.28-.17-2.25-5.6,10.46-10.57,19.37-14.28,4.69-2,10.48-6.87,9.09-9.89-2.41-5.27-14.5,0-22.45,4.64-15.36,8.93-35.83,25-45.22,17.21-3.54-3,.57-8.32,6.6-13.58-9.78,6.13-20.21,11.16-24.28,8.05-2.33-1.78-2.44-4.22-1.14-7-3,1-5.69.79-7.55-1.18-3.18-3.32-1.63-8.24,1.85-13.27a3.78,3.78,0,0,1-2.89-1.9c-6.73-10.26,27-39.73,38.62-42.49,34.28-8.15,70.76-5.18,70.76-5.18C341.07,472.94,346.3,529.24,346.28,529.26Z" transform="translate(-59.1 -210.75)"/><path class="cls-4" d="M295.86,497.7A58.1,58.1,0,0,0,273,506.5c-8.69,5.74-14.46,12.45-21.75,19.21-.19.18.08.49.27.31,3.48-3.22,17.87-15.3,21.6-18a55.42,55.42,0,0,1,22.78-10.13A.07.07,0,0,0,295.86,497.7Z" transform="translate(-59.1 -210.75)"/><path class="cls-4" d="M289.47,483.15c-9,2.46-18.24,5-26.61,9.22C253.71,497,246.55,504.64,239.5,512q-6.33,6.6-12.39,13.46c-.17.2.09.5.27.31q10.73-11.34,22.12-22a73.41,73.41,0,0,1,24.26-15.29c5.16-2,10.46-3.53,15.74-5.09C289.6,483.28,289.57,483.12,289.47,483.15Z" transform="translate(-59.1 -210.75)"/><path class="cls-4" d="M279.84,470.43c-8.75,1.79-16.39,3.33-24.14,8-10.26,6.21-20.17,16.68-23.65,20.39-3.84,4.1-7.54,8.32-11.17,12.6-.15.17.15.44.3.26a292.46,292.46,0,0,1,26.71-26.45,58.1,58.1,0,0,1,14.93-9.71c5.45-2.34,11.29-3.67,17-5.05C279.89,470.48,279.88,470.42,279.84,470.43Z" transform="translate(-59.1 -210.75)"/><path class="cls-6" d="M397.31,445.77,463.09,443s11.94-32.6,16.34-61.54-20.26-18.54-44.68,12.62S397.31,445.77,397.31,445.77Z" transform="translate(-59.1 -210.75)"/><path class="cls-5" d="M418.83,426.1c.45-.12.9-.18,1.34-.27a2.69,2.69,0,0,1,3.26,2.61,2.07,2.07,0,0,0,1,1.8,2.36,2.36,0,0,0,1.1.37c.45.09.9.15,1.34.27-.44.13-.89.18-1.34.28A2.59,2.59,0,0,1,424,431a2.76,2.76,0,0,1-1.68-2.55,2.06,2.06,0,0,0-1-1.75,2.64,2.64,0,0,0-1.13-.34C419.73,426.28,419.28,426.23,418.83,426.1Zm46.28-40a2.64,2.64,0,0,1,1.13.34,2.07,2.07,0,0,1,1,1.75,2.76,2.76,0,0,0,1.68,2.55,2.58,2.58,0,0,0,1.49.15c.45-.1.9-.15,1.34-.28-.44-.12-.89-.18-1.34-.27a2.36,2.36,0,0,1-1.1-.37,2.07,2.07,0,0,1-1-1.8,2.69,2.69,0,0,0-3.26-2.61c-.44.09-.89.15-1.34.27C464.22,386,464.67,386.05,465.11,386.14Zm1.67,25.63a2.6,2.6,0,0,1-1,.56,2.08,2.08,0,0,1-1.95-.52,2.75,2.75,0,0,0-3-.62,2.64,2.64,0,0,0-1.16,1c-.25.38-.53.73-.76,1.14.41-.23.76-.51,1.14-.76a2.52,2.52,0,0,1,1.05-.52,2.1,2.1,0,0,1,1.95.6,2.74,2.74,0,0,0,3,.52,2.71,2.71,0,0,0,1.12-1c.26-.38.53-.73.76-1.14C467.52,411.24,467.16,411.52,466.78,411.77Zm-17.87-29.9a2.84,2.84,0,0,1-1.05.56,2.1,2.1,0,0,1-2-.52,3.52,3.52,0,0,0-.35-.31l-.77.82a1.43,1.43,0,0,1,.37.29,2.73,2.73,0,0,0,3,.53,2.78,2.78,0,0,0,1.12-1c.25-.38.53-.73.75-1.14C449.64,381.34,449.29,381.62,448.91,381.87Zm-7.44,24.63a2.51,2.51,0,0,1-.34,1.13,2.06,2.06,0,0,1-1.75,1,2.76,2.76,0,0,0-2.55,1.68,2.5,2.5,0,0,0-.14,1.49c.09.45.14.9.27,1.34.12-.44.18-.89.27-1.34a2.47,2.47,0,0,1,.37-1.1,2.09,2.09,0,0,1,1.8-1A2.69,2.69,0,0,0,442,406.5c-.09-.44-.14-.89-.27-1.34C441.62,405.61,441.56,406.06,441.47,406.5Zm18.83,25.05a2.51,2.51,0,0,1-.34,1.13,2,2,0,0,1-1.75,1,2.77,2.77,0,0,0-2.55,1.68,2.67,2.67,0,0,0-.14,1.49c.09.45.14.9.27,1.34.13-.44.18-.89.27-1.34a2.47,2.47,0,0,1,.37-1.1,2.09,2.09,0,0,1,1.8-1,2.69,2.69,0,0,0,2.61-3.26c-.09-.44-.14-.89-.27-1.34C460.45,430.66,460.39,431.11,460.3,431.55Z" transform="translate(-59.1 -210.75)"/><path class="cls-4" d="M465.33,428.7c-14.22-.37-28.5.27-42.72,1.18-4,.25-8,.61-12.05,1.05-.11,0-.13.18,0,.18,7.11,0,14.22-.22,21.33-.44s14.26-.5,21.38-.92c4-.23,8.05-.46,12.06-.78C465.49,429,465.51,428.7,465.33,428.7Z" transform="translate(-59.1 -210.75)"/><path class="cls-6" d="M415.76,550.89h167.9C585.51,547.5,558,400.43,501.37,359c-12.57-9.19-34.85-3.28-41.05,5.65C429.16,409.58,415.76,550.89,415.76,550.89Z" transform="translate(-59.1 -210.75)"/><path class="cls-5" d="M487,426.1c.44-.12.89-.18,1.34-.27a2.68,2.68,0,0,1,3.25,2.61,2.12,2.12,0,0,0,1,1.8,2.36,2.36,0,0,0,1.11.37c.44.09.89.15,1.34.27-.45.13-.9.18-1.34.28a2.62,2.62,0,0,1-1.5-.15,2.75,2.75,0,0,1-1.67-2.55,2.08,2.08,0,0,0-1-1.75,2.68,2.68,0,0,0-1.13-.34C487.86,426.28,487.41,426.23,487,426.1Zm26.08,88.78a2.51,2.51,0,0,1,1.13.34,2,2,0,0,1,1,1.74,2.78,2.78,0,0,0,1.67,2.56,2.7,2.7,0,0,0,1.5.14c.45-.09.89-.15,1.34-.27-.45-.13-.89-.18-1.34-.27a2.52,2.52,0,0,1-1.11-.37,2.12,2.12,0,0,1-1-1.81,2.73,2.73,0,0,0-1.77-2.5,2.65,2.65,0,0,0-1.49-.1c-.45.09-.89.14-1.34.27C512.16,514.73,512.6,514.78,513.05,514.88Zm30.8-83.73a2.69,2.69,0,0,1,1.13.35,2.07,2.07,0,0,1,1,1.74,2.74,2.74,0,0,0,1.67,2.55,2.62,2.62,0,0,0,1.5.15c.44-.09.89-.15,1.34-.27-.45-.13-.9-.18-1.34-.27a2.48,2.48,0,0,1-1.11-.38,2.12,2.12,0,0,1-1-1.8,2.68,2.68,0,0,0-3.25-2.61c-.45.1-.89.15-1.34.27C543,431,543.4,431.06,543.85,431.15Zm-78.74-45a2.64,2.64,0,0,1,1.13.34,2.07,2.07,0,0,1,1,1.75,2.76,2.76,0,0,0,1.68,2.55,2.58,2.58,0,0,0,1.49.15c.45-.1.9-.15,1.34-.28-.44-.12-.89-.18-1.34-.27a2.36,2.36,0,0,1-1.1-.37,2.07,2.07,0,0,1-1-1.8,2.69,2.69,0,0,0-3.26-2.61c-.44.09-.89.15-1.34.27C464.22,386,464.67,386.05,465.11,386.14Zm48.47-1a2.55,2.55,0,0,1,1.13.34,2.06,2.06,0,0,1,1,1.74,2.78,2.78,0,0,0,1.68,2.56,2.7,2.7,0,0,0,1.5.14c.44-.09.89-.14,1.34-.27-.45-.13-.9-.18-1.34-.27a2.47,2.47,0,0,1-1.11-.37,2.1,2.1,0,0,1-1-1.81,2.72,2.72,0,0,0-1.76-2.5,2.75,2.75,0,0,0-1.49-.1c-.45.09-.9.14-1.34.27C512.68,385,513.13,385,513.58,385.13ZM453.22,463.4a2.68,2.68,0,0,1,1.13.34,2.09,2.09,0,0,1,1,1.75A2.77,2.77,0,0,0,457,468a2.62,2.62,0,0,0,1.5.15c.44-.1.89-.15,1.34-.28-.45-.12-.9-.17-1.34-.27a2.36,2.36,0,0,1-1.11-.37,2.07,2.07,0,0,1-1-1.8,2.68,2.68,0,0,0-3.25-2.61c-.45.09-.9.15-1.34.27C452.32,463.26,452.77,463.31,453.22,463.4Zm52.85,81.09a2.69,2.69,0,0,1,1.13.35,2.09,2.09,0,0,1,1,1.74,2.76,2.76,0,0,0,1.67,2.56,2.7,2.7,0,0,0,1.5.14c.44-.09.89-.15,1.34-.27-.45-.13-.9-.18-1.34-.27a2.48,2.48,0,0,1-1.11-.38,2.1,2.1,0,0,1-1-1.8,2.73,2.73,0,0,0-1.76-2.51,2.65,2.65,0,0,0-1.49-.09c-.45.09-.9.14-1.34.27C505.17,544.35,505.62,544.4,506.07,544.49Zm-26-43.57a2.64,2.64,0,0,1,1.12.34,2.07,2.07,0,0,1,1,1.75,2.76,2.76,0,0,0,1.68,2.55,2.6,2.6,0,0,0,1.49.15c.45-.1.9-.15,1.34-.28-.44-.12-.89-.18-1.34-.27a2.36,2.36,0,0,1-1.1-.37,2.07,2.07,0,0,1-1-1.8,2.68,2.68,0,0,0-3.25-2.61c-.45.09-.9.15-1.35.27C479.15,500.78,479.6,500.83,480.05,500.92Zm-59.59,44.67a2.48,2.48,0,0,1-1.1-.38,2.05,2.05,0,0,1-1-1.8,2.71,2.71,0,0,0-1.59-2.42c0,.36-.08.7-.11,1a1.94,1.94,0,0,1,.59,1.41A2.76,2.76,0,0,0,419,546a2.55,2.55,0,0,0,1.5.15c.45-.09.9-.15,1.34-.28C421.36,545.73,420.91,545.67,420.46,545.59Zm11.45-36.75a2.55,2.55,0,0,1,1.13.34,2.07,2.07,0,0,1,1,1.75,2.78,2.78,0,0,0,1.68,2.55,2.62,2.62,0,0,0,1.5.14c.44-.09.89-.14,1.34-.27-.45-.12-.9-.18-1.34-.27a2.47,2.47,0,0,1-1.11-.37,2.09,2.09,0,0,1-1-1.8,2.68,2.68,0,0,0-3.25-2.61c-.45.09-.9.14-1.34.27C431,508.69,431.46,508.75,431.91,508.84Zm70.3-44.37a2.51,2.51,0,0,1,1.12.34,2.06,2.06,0,0,1,1,1.75,2.76,2.76,0,0,0,1.68,2.55,2.59,2.59,0,0,0,1.49.14c.45-.09.9-.14,1.34-.27-.44-.12-.89-.18-1.34-.27a2.47,2.47,0,0,1-1.1-.37,2.09,2.09,0,0,1-1-1.8,2.68,2.68,0,0,0-3.25-2.61c-.45.09-.9.14-1.35.27C501.31,464.32,501.76,464.38,502.21,464.47Zm61.56,59.66a2.68,2.68,0,0,1,1.13.34,2.07,2.07,0,0,1,1,1.75,2.77,2.77,0,0,0,1.68,2.55,2.54,2.54,0,0,0,1.5.14c.44-.09.89-.14,1.34-.27-.45-.12-.9-.18-1.34-.27A2.47,2.47,0,0,1,568,528a2.09,2.09,0,0,1-1-1.8,2.68,2.68,0,0,0-3.25-2.61c-.45.09-.9.15-1.34.27C562.87,524,563.32,524,563.77,524.13Zm-24.44-36.42a2.68,2.68,0,0,1,1.13.34,2.08,2.08,0,0,1,1,1.75,2.75,2.75,0,0,0,1.67,2.55,2.54,2.54,0,0,0,1.5.14c.45-.09.89-.14,1.34-.27-.45-.12-.89-.18-1.34-.27a2.47,2.47,0,0,1-1.11-.37,2.13,2.13,0,0,1-1-1.8,2.68,2.68,0,0,0-3.25-2.61c-.45.09-.89.15-1.34.27C538.44,487.57,538.88,487.62,539.33,487.71Zm-72.55-75.94a2.6,2.6,0,0,1-1,.56,2.08,2.08,0,0,1-1.95-.52,2.75,2.75,0,0,0-3-.62,2.64,2.64,0,0,0-1.16,1c-.25.38-.53.73-.76,1.14.41-.23.76-.51,1.14-.76a2.52,2.52,0,0,1,1.05-.52,2.1,2.1,0,0,1,1.95.6,2.74,2.74,0,0,0,3,.52,2.71,2.71,0,0,0,1.12-1c.26-.38.53-.73.76-1.14C467.52,411.24,467.16,411.52,466.78,411.77Zm72.34,52.05a2.66,2.66,0,0,1-1,.56,2.08,2.08,0,0,1-2-.52,2.76,2.76,0,0,0-3-.62,2.64,2.64,0,0,0-1.16,1c-.25.38-.53.73-.76,1.14.41-.23.76-.51,1.14-.76a2.46,2.46,0,0,1,1-.52,2.11,2.11,0,0,1,2,.6,2.72,2.72,0,0,0,3,.52,2.64,2.64,0,0,0,1.12-1c.25-.38.53-.73.76-1.14C539.86,463.29,539.5,463.57,539.12,463.82ZM494,366.91a2.66,2.66,0,0,1-1,.56,2.1,2.1,0,0,1-2-.52,2.75,2.75,0,0,0-3-.62,2.7,2.7,0,0,0-1.16,1c-.25.38-.53.73-.75,1.14.4-.23.76-.51,1.14-.76a2.49,2.49,0,0,1,1-.52,2.09,2.09,0,0,1,1.95.6,2.74,2.74,0,0,0,3,.52,2.7,2.7,0,0,0,1.12-1c.25-.38.53-.73.76-1.14C494.71,366.38,494.36,366.66,494,366.91Zm-.89,28.7a2.64,2.64,0,0,1-.34,1.13,2.06,2.06,0,0,1-1.75,1,2.76,2.76,0,0,0-2.55,1.68,2.58,2.58,0,0,0-.15,1.49c.1.45.15.9.28,1.34.12-.44.18-.89.27-1.34a2.32,2.32,0,0,1,.37-1.1,2.07,2.07,0,0,1,1.8-1,2.69,2.69,0,0,0,2.61-3.26c-.09-.44-.15-.89-.27-1.34C493.23,394.72,493.18,395.17,493.09,395.61Zm-10.66,78.65a2.55,2.55,0,0,1-.34,1.13,2,2,0,0,1-1.74,1,2.76,2.76,0,0,0-2.56,1.67,2.7,2.7,0,0,0-.14,1.5c.09.45.15.89.27,1.34.13-.45.18-.89.27-1.34a2.52,2.52,0,0,1,.38-1.11,2.12,2.12,0,0,1,1.8-1,2.74,2.74,0,0,0,2.51-1.76,2.65,2.65,0,0,0,.09-1.49c-.09-.45-.14-.89-.27-1.34C482.58,473.37,482.53,473.81,482.43,474.26Zm55.82-68.51H538a2.77,2.77,0,0,0-2.56,1.68,2.66,2.66,0,0,0-.14,1.49c.09.45.14.9.27,1.35.12-.45.18-.9.28-1.35a2.43,2.43,0,0,1,.36-1.1,2.13,2.13,0,0,1,1.81-1,2.18,2.18,0,0,0,.72-.12C538.6,406.4,538.41,406.08,538.25,405.75Zm-.39,127a2.55,2.55,0,0,1-.34,1.13,2.06,2.06,0,0,1-1.75,1,2.76,2.76,0,0,0-2.55,1.67,2.62,2.62,0,0,0-.14,1.5c.09.45.14.89.27,1.34.12-.45.18-.89.27-1.34A2.52,2.52,0,0,1,534,537a2.1,2.1,0,0,1,1.8-1,2.69,2.69,0,0,0,2.61-3.26c-.09-.45-.14-.89-.27-1.34C538,531.89,538,532.33,537.86,532.78Zm24-71.3a.34.34,0,0,1-.06.12,2,2,0,0,1-1.74,1,2.76,2.76,0,0,0-2.55,1.68,2.51,2.51,0,0,0-.15,1.49c.09.45.15.9.28,1.35.12-.45.18-.9.26-1.35a2.48,2.48,0,0,1,.38-1.1,2.09,2.09,0,0,1,1.8-1,2.79,2.79,0,0,0,2.16-1.1v0C562.12,462.24,562,461.86,561.87,461.48Zm-122.79,15.6a2.64,2.64,0,0,1-.34,1.12,2.06,2.06,0,0,1-1.75,1,2.76,2.76,0,0,0-2.55,1.68,2.59,2.59,0,0,0-.15,1.49c.1.45.15.9.28,1.34.12-.44.18-.89.27-1.34a2.36,2.36,0,0,1,.37-1.1,2.07,2.07,0,0,1,1.8-1,2.68,2.68,0,0,0,2.61-3.25c-.09-.45-.15-.9-.27-1.35C439.22,476.18,439.17,476.63,439.08,477.08ZM442,406.6c-.24.78-.48,1.55-.71,2.33a2.61,2.61,0,0,0,.6-.93A3,3,0,0,0,442,406.6Zm25.18-46a2.55,2.55,0,0,1-.34,1.13,2.07,2.07,0,0,1-1.74,1,2.76,2.76,0,0,0-2.56,1.67,2.7,2.7,0,0,0-.14,1.5c.09.45.14.89.27,1.34.13-.45.18-.89.27-1.34a2.47,2.47,0,0,1,.37-1.11,2.15,2.15,0,0,1,1.81-1,2.72,2.72,0,0,0,2.5-1.76,2.75,2.75,0,0,0,.1-1.49c-.09-.45-.14-.89-.27-1.34C467.36,359.74,467.3,360.18,467.21,360.63Zm-6.91,70.92a2.51,2.51,0,0,1-.34,1.13,2,2,0,0,1-1.75,1,2.77,2.77,0,0,0-2.55,1.68,2.67,2.67,0,0,0-.14,1.49c.09.45.14.9.27,1.34.13-.44.18-.89.27-1.34a2.47,2.47,0,0,1,.37-1.1,2.09,2.09,0,0,1,1.8-1,2.69,2.69,0,0,0,2.61-3.26c-.09-.44-.14-.89-.27-1.34C460.45,430.66,460.39,431.11,460.3,431.55Zm62.06,9.54a2.68,2.68,0,0,1-.34,1.13,2.09,2.09,0,0,1-1.75,1,2.77,2.77,0,0,0-2.55,1.68,2.62,2.62,0,0,0-.15,1.5c.1.44.15.89.28,1.34.12-.45.17-.9.27-1.34a2.36,2.36,0,0,1,.37-1.11,2.07,2.07,0,0,1,1.8-1,2.68,2.68,0,0,0,2.61-3.25c-.09-.45-.15-.9-.27-1.34C522.5,440.19,522.45,440.64,522.36,441.09ZM465,520.73a2.55,2.55,0,0,1-.34,1.13,2.07,2.07,0,0,1-1.74,1,2.76,2.76,0,0,0-2.56,1.67,2.7,2.7,0,0,0-.14,1.5c.09.45.15.89.27,1.34.13-.45.18-.89.27-1.34a2.47,2.47,0,0,1,.37-1.11,2.15,2.15,0,0,1,1.81-1,2.72,2.72,0,0,0,2.5-1.76,2.65,2.65,0,0,0,.1-1.49c-.09-.45-.14-.89-.27-1.34C465.15,519.84,465.1,520.28,465,520.73Zm48.13-104.25a2.54,2.54,0,0,1,1-.56,2.09,2.09,0,0,1,2,.51,2.75,2.75,0,0,0,3,.62,2.56,2.56,0,0,0,1.16-.95c.25-.38.53-.74.75-1.14-.4.23-.76.5-1.14.76a2.4,2.4,0,0,1-1,.51,2.06,2.06,0,0,1-2-.59,2.68,2.68,0,0,0-4.15.45c-.25.39-.53.74-.76,1.14C512.4,417,512.75,416.73,513.13,416.48Zm-36.2,32.78a2.63,2.63,0,0,1,1-.55,2.07,2.07,0,0,1,2,.51,2.75,2.75,0,0,0,3,.62,2.61,2.61,0,0,0,1.16-.95c.25-.38.53-.74.75-1.14-.4.22-.76.5-1.14.75a2.32,2.32,0,0,1-1,.52,2.11,2.11,0,0,1-1.95-.59,2.74,2.74,0,0,0-3-.53,2.77,2.77,0,0,0-1.12,1c-.25.38-.53.74-.76,1.14C476.2,449.79,476.55,449.52,476.93,449.26Zm-24.52,48.31a2.66,2.66,0,0,1,1-.56,2.05,2.05,0,0,1,1.95.52,2.78,2.78,0,0,0,3,.62,2.64,2.64,0,0,0,1.16-1c.25-.38.53-.73.76-1.14-.41.23-.76.51-1.14.76a2.52,2.52,0,0,1-1.05.52,2.1,2.1,0,0,1-1.95-.6,2.66,2.66,0,0,0-4.14.46c-.25.38-.53.73-.76,1.14C451.67,498.1,452,497.82,452.41,497.57ZM463,547.76a2.66,2.66,0,0,1,1-.56,2.08,2.08,0,0,1,1.95.52,2.76,2.76,0,0,0,3,.62,2.64,2.64,0,0,0,1.16-1c.25-.38.53-.73.76-1.14-.41.23-.76.51-1.14.76a2.46,2.46,0,0,1-1,.52,2.11,2.11,0,0,1-2-.6,2.74,2.74,0,0,0-3-.52,2.71,2.71,0,0,0-1.12,1c-.25.38-.53.73-.76,1.14C462.27,548.29,462.63,548,463,547.76Zm47.45-55.16a2.7,2.7,0,0,1,1-.55,2.06,2.06,0,0,1,2,.51,2.75,2.75,0,0,0,3,.62,2.62,2.62,0,0,0,1.16-.95c.25-.39.53-.74.75-1.14-.4.22-.75.5-1.14.75a2.32,2.32,0,0,1-1,.52,2.09,2.09,0,0,1-1.95-.6,2.7,2.7,0,0,0-4.15.46c-.25.38-.53.74-.75,1.14C509.73,493.13,510.08,492.85,510.46,492.6Zm32.67,20a2.63,2.63,0,0,1,1-.55,2,2,0,0,1,2,.51,2.76,2.76,0,0,0,3,.62,2.56,2.56,0,0,0,1.16-.95c.25-.38.53-.74.76-1.14-.41.22-.76.5-1.14.75a2.41,2.41,0,0,1-1,.52,2.12,2.12,0,0,1-2-.59,2.67,2.67,0,0,0-4.14.45c-.26.38-.53.74-.76,1.14C542.39,513.12,542.75,512.85,543.13,512.59Zm-54.95,15.18a2.73,2.73,0,0,1,1-.56,2.06,2.06,0,0,1,2,.52,2.75,2.75,0,0,0,3,.62,2.64,2.64,0,0,0,1.16-1c.25-.38.53-.73.75-1.14-.4.23-.75.51-1.14.76a2.43,2.43,0,0,1-1,.52,2.09,2.09,0,0,1-1.95-.6,2.68,2.68,0,0,0-4.15.46c-.25.38-.53.73-.75,1.14C487.45,528.3,487.8,528,488.18,527.77Zm70.87,20a2.6,2.6,0,0,1,1-.56,2.08,2.08,0,0,1,1.95.52,2.75,2.75,0,0,0,3,.62,2.64,2.64,0,0,0,1.16-1c.25-.38.53-.73.76-1.14-.41.23-.76.51-1.14.76a2.52,2.52,0,0,1-1,.52,2.09,2.09,0,0,1-2-.6,2.74,2.74,0,0,0-3-.52,2.8,2.8,0,0,0-1.13,1c-.25.38-.53.73-.75,1.14C558.31,548.29,558.67,548,559.05,547.76Zm12.64-54.33a2,2,0,0,1-.88-.53,2.73,2.73,0,0,0-3-.52,2.77,2.77,0,0,0-1.12,1c-.25.38-.53.73-.76,1.13.41-.22.76-.5,1.14-.75a2.7,2.7,0,0,1,1-.56,2.1,2.1,0,0,1,2,.52,2.79,2.79,0,0,0,1.94.82ZM437.62,534.68a2.7,2.7,0,0,1,1-.55,2.07,2.07,0,0,1,2,.51,2.75,2.75,0,0,0,3,.62,2.62,2.62,0,0,0,1.16-1c.25-.39.53-.74.75-1.14-.4.22-.76.5-1.14.75a2.32,2.32,0,0,1-1,.52,2.09,2.09,0,0,1-1.95-.6,2.69,2.69,0,0,0-4.15.46c-.25.38-.53.74-.76,1.14C436.89,535.21,437.24,534.93,437.62,534.68Zm-4-84.28a2.45,2.45,0,0,1,1-.55,2,2,0,0,1,1.95.51,2.75,2.75,0,0,0,3,.62,2.64,2.64,0,0,0,1.16-1c.25-.38.53-.73.76-1.14-.41.23-.76.51-1.14.76a2.52,2.52,0,0,1-1,.52,2.09,2.09,0,0,1-2-.6,2.74,2.74,0,0,0-3-.52,2.71,2.71,0,0,0-1.12,1c-.26.38-.53.74-.76,1.14C432.84,450.93,433.2,450.65,433.58,450.4Z" transform="translate(-59.1 -210.75)"/><path class="cls-4" d="M442.43,403.8q-2.31,8.37-4.47,16.77.29-3.68.77-7.32c0-.14-.2-.2-.24-.05a52.4,52.4,0,0,0-1,9.16q-2.58,10.14-4.86,20.35c-2.87,13.06-5.43,26.21-7.55,39.41-1.19,7.44-2.12,14.94-3.39,22.36,0,.14.19.2.22.06,1.17-6.59,2.72-13.14,4.15-19.68s2.81-13,4.16-19.52c2.71-13.1,5.59-26.16,8.28-39.26,1.52-7.38,2.94-14.78,4.46-22.16A.27.27,0,0,0,442.43,403.8Z" transform="translate(-59.1 -210.75)"/><path class="cls-7" d="M435.88,316.67c1.86,10.19-3.88,19.77-12.81,21.4s-17.69-5.3-19.55-15.48,3.87-19.77,12.81-21.4S434,306.49,435.88,316.67Z" transform="translate(-59.1 -210.75)"/><path class="cls-9" d="M441.24,316.36c2.07,11.33-4.31,22-14.25,23.8s-19.68-5.89-21.75-17.22,4.31-22,14.25-23.81S439.17,305,441.24,316.36Z" transform="translate(-59.1 -210.75)"/><path class="cls-8" d="M469.58,396.3c10.13-.06,23-18.68,26.63-32.12.25-.92-11-32.62-12.6-39.14-.32-1.34-38.45,19.84-38.45,19.84s7.33,12.68,10,24.05C455.39,369.89,459.8,396.35,469.58,396.3Z" transform="translate(-59.1 -210.75)"/><path class="cls-4" d="M459.85,371.34a23.87,23.87,0,0,1-4.05.74c-.16-.8-.3-1.47-.4-2a.12.12,0,0,0,0-.07,1.24,1.24,0,0,0,0-.18c-.05-.2-.07-.41-.13-.61a.28.28,0,0,0,0-.13l0-.17a70.07,70.07,0,0,0-2.29-7.5,119,119,0,0,0-6.24-13.86c-.2-.37-.38-.71-.55-1-.5-.94-.82-1.51-.89-1.65l0,0h0l1-.58,1.34-.74a.06.06,0,0,0,.06,0l.89-.48,1.11-.62,1-.56.2-.11c.42-.23.86-.46,1.33-.73l.3-.17,1.33-.72c.23-.13.46-.26.7-.38l2.16-1.18,1.65-.89,1.39-.76c1.57-.85,3.18-1.72,4.79-2.57l1.54-.84c1.88-1,3.75-2,5.52-2.91l1.19-.61.78-.41.94-.49,2-1,1.23-.62,1.69-.82c.26-.14.53-.25.77-.37.73-.35,1.35-.62,1.87-.83l.34-.14h0C482.81,336.36,481.93,365.43,459.85,371.34Z" transform="translate(-59.1 -210.75)"/><path class="cls-8" d="M472.17,276c9,12.71,15.18,56.05,8.15,68.51-10.18,18.07-33.63,27.29-50.69,13.5-16.54-13.37-23.55-70-15.08-82C427,258.24,458.83,257.2,472.17,276Z" transform="translate(-59.1 -210.75)"/><path class="cls-4" d="M439.84,314.22c0-.11.25.11.26.23.34,2.93,1.22,6.23,4,6.81.09,0,.1.16,0,.16C440.81,321.44,439.69,317.05,439.84,314.22Z" transform="translate(-59.1 -210.75)"/><path class="cls-4" d="M442,310.79c4.64-1,6.39,8.31,2.09,9.28S438.11,311.67,442,310.79Z" transform="translate(-59.1 -210.75)"/><path class="cls-4" d="M423.92,317.65c-.05-.11-.21.18-.18.3.63,2.88.88,6.28-1.57,7.74-.07,0,0,.19.06.15C425.34,324.8,425,320.28,423.92,317.65Z" transform="translate(-59.1 -210.75)"/><path class="cls-4" d="M420.76,315.11c-4.73.51-3.34,9.93,1,9.45S424.72,314.67,420.76,315.11Z" transform="translate(-59.1 -210.75)"/><path class="cls-4" d="M444.89,305.82a36,36,0,0,1-3.86-.6c-1.48-.24-2.68-.28-3.82-1.36a2,2,0,0,1-.13-2.45c1.17-1.51,3.06-1.66,4.85-1.43a7.38,7.38,0,0,1,4.74,2.34C448,303.69,446.65,305.93,444.89,305.82Z" transform="translate(-59.1 -210.75)"/><path class="cls-4" d="M416.26,311.07a35.62,35.62,0,0,0,3.54-1.66c1.35-.65,2.49-1,3.29-2.38a2,2,0,0,0-.57-2.39c-1.55-1.12-3.4-.73-5.06,0a7.34,7.34,0,0,0-3.88,3.58C412.7,309.89,414.6,311.67,416.26,311.07Z" transform="translate(-59.1 -210.75)"/><path class="cls-4" d="M448.32,340.44c-.57.81-1.09,1.87-2.12,2.16a7.8,7.8,0,0,1-3.26-.15.1.1,0,0,0-.09.17,4,4,0,0,0,4,.89,3.15,3.15,0,0,0,1.8-3C448.63,340.34,448.4,340.32,448.32,340.44Z" transform="translate(-59.1 -210.75)"/><path class="cls-4" d="M443.65,332.33a10,10,0,0,1-5.77,5.62,12.39,12.39,0,0,1-3.52.83,3.25,3.25,0,0,1-.69.05l-.66,0a.74.74,0,0,1-.7-.54v0a1.53,1.53,0,0,1,0-.3v0l0-.26c-.47-2.22-.89-5.65-.89-5.65-.74.56-4.55,3.2-4.7,2-1.23-9.76-2.6-20.62-1.76-30.59a.28.28,0,0,1,.55,0c1.55,9.33,1.45,18.87,2.86,28.27,1.23-.75,3.22-2.09,4.39-2.28.34,0,.69,6.65,1,7.63a.25.25,0,0,0,0,.1c3.84-.22,6.46-1.88,9.63-5.08C443.51,331.92,443.78,332.07,443.65,332.33Z" transform="translate(-59.1 -210.75)"/><path class="cls-4" d="M435.47,337.4a11.89,11.89,0,0,0,5.36,2.76,5.39,5.39,0,0,0,3.24-.4c2.2-1,1.86-3.17,1.1-4.91a13.16,13.16,0,0,0-1.56-2.59A15.45,15.45,0,0,1,435.47,337.4Z" transform="translate(-59.1 -210.75)"/><path class="cls-10" d="M440.83,340.16a5.39,5.39,0,0,0,3.24-.4c2.2-1,1.86-3.17,1.1-4.91C442.73,335.57,440.59,337.71,440.83,340.16Z" transform="translate(-59.1 -210.75)"/><path class="cls-11" d="M470.55,294.16c2.88,3.65,9.18,12.4,11.32,12.51-2.21-14.11-5.82-26.44-11.44-33a29.09,29.09,0,0,0-8.25-6.67C463,270.73,467.49,290.33,470.55,294.16Z" transform="translate(-59.1 -210.75)"/><path class="cls-4" d="M428.5,285.58a14,14,0,0,0,13.26,3.29c4.57-1.28,8.83-5,10-9.72,0-.14.26-.09.22.05-1.24,5-4.7,9.45-9.89,10.76a14.44,14.44,0,0,1-13.82-4.13C428.11,285.67,428.33,285.42,428.5,285.58Z" transform="translate(-59.1 -210.75)"/><path class="cls-4" d="M439.05,249.54c8.1-.73,16,2.91,19.59,8.08a15.75,15.75,0,0,1,2.67,10c0,.14-.3.14-.3,0A17.31,17.31,0,0,0,451.16,253a22.27,22.27,0,0,0-19.83-.14,14.07,14.07,0,0,0-6.84,6.88c-.13.31-.75.19-.66-.13C425.45,254.36,431.72,250.21,439.05,249.54Z" transform="translate(-59.1 -210.75)"/><path class="cls-4" d="M394.11,272.34a17.91,17.91,0,0,1,6.51-10.43c4.61-3.63,10.27-3.81,15.89-3.87a.12.12,0,0,1,0,.24c-4.78.07-9.63.41-13.74,3.13a17.61,17.61,0,0,0-7.13,9.44,17.18,17.18,0,0,0,9.45,20.4,17.49,17.49,0,0,0,13.83-.15c.17-.08.33.17.16.25-7.87,3.81-17.95,1.16-22.57-6.38A17.85,17.85,0,0,1,394.11,272.34Z" transform="translate(-59.1 -210.75)"/><path class="cls-4" d="M476.69,285.22s6-15.33-1.41-22.94C471.09,258,459.11,260,459.11,260s-4.69-6.47-14.94-7.59-21.66,6.17-21.66,6.17-10.22-4.36-18.59,1.83c-11.67,8.61-7.87,27.48,5.44,32.13,9.35,3.27,20.43-6,20.43-6,1.18,0,13.84,5.76,21.53-5.84,0,0,8,5.61,14,.32C465.34,281.05,469.41,287.21,476.69,285.22Z" transform="translate(-59.1 -210.75)"/><path class="cls-6" d="M446,326.93a12.64,12.64,0,0,1-13.37-11.83h0a12.62,12.62,0,1,1,16.45,11.25A12.08,12.08,0,0,1,446,326.93ZM434.31,315a10.93,10.93,0,1,0,10.24-11.58,11.16,11.16,0,0,0-2.67.5A10.93,10.93,0,0,0,434.31,315Z" transform="translate(-59.1 -210.75)"/><path class="cls-6" d="M419.82,332c-5.08,1-10.31-3.75-11.65-10.58a15.08,15.08,0,0,1,.92-9.17,7.87,7.87,0,0,1,13.21-2.59,15,15,0,0,1,4.31,8.15c1.27,6.46-1.39,12.51-6,14A7.23,7.23,0,0,1,419.82,332Zm-9.2-19a13.42,13.42,0,0,0-.79,8.14c1.16,5.91,5.49,10.06,9.67,9.24s6.62-6.29,5.46-12.21a13.33,13.33,0,0,0-3.81-7.23,6.73,6.73,0,0,0-5.86-2l-.62.16A7,7,0,0,0,410.62,312.94Z" transform="translate(-59.1 -210.75)"/><path class="cls-6" d="M433.32,316.46l.81-1.48c-2.18-1.21-6.94-2.48-9.33,1.35l1.43.89C428.36,313.79,433.12,316.35,433.32,316.46Z" transform="translate(-59.1 -210.75)"/><path class="cls-6" d="M489.13,308.83l1.32-1.05c-.49-.61-4.89-6-8.7-5.89-3.57.13-25.36,6.55-26.28,6.83l.48,1.61c6.24-1.84,23.1-6.67,25.85-6.75C484.32,303.49,487.94,307.34,489.13,308.83Z" transform="translate(-59.1 -210.75)"/><path class="cls-8" d="M474.54,312.17s5.16-16.19,12.22-14.75,6.07,22.89-.19,27.73a7.55,7.55,0,0,1-10.86-.87Z" transform="translate(-59.1 -210.75)"/><path class="cls-4" d="M486.32,303.56c.11-.05.19.11.1.18-4.34,3.55-5.52,9-5.87,14.32.91-2.3,2.6-3.93,5.61-2.94.16.05.1.29-.05.31a4.62,4.62,0,0,0-4.39,3.06,21.91,21.91,0,0,0-1.11,4.67c-.1.52-1,.53-1,0V323C477.56,316.71,479.72,306.31,486.32,303.56Z" transform="translate(-59.1 -210.75)"/><path class="cls-9" d="M482.34,299.91s-1-22.63-9-34.29c-8.86-13-33.34-21.67-50.86-7,0,0,25.44-6.6,42.09,9,7.66,7.19,10.31,33.75,10.31,33.75Z" transform="translate(-59.1 -210.75)"/><ellipse class="cls-9" cx="480.77" cy="311.77" rx="18.3" ry="20.86" transform="translate(-88.11 -160.65) rotate(-5.79)"/><path class="cls-7" d="M467.8,312.43c1.05,10.3,9.22,17.91,18.26,17s15.52-10,14.47-20.31-9.22-17.91-18.25-17S466.76,302.13,467.8,312.43Z" transform="translate(-59.1 -210.75)"/><path class="cls-8" d="M522.85,373.55c27.11,29,91.59,138,70.69,158.08-21.06,20.23-136.94-7-169.53-22.48-9.7-4.62,27.14-65.06,38.54-66.47,9.49-1.18,58,21,59.39,18.22,1.59-3.16-9.43-23.4-21.1-65.53C487.39,346.78,510.88,360.72,522.85,373.55Z" transform="translate(-59.1 -210.75)"/><path class="cls-8" d="M414.38,423.17c-23.56-3.29-30.11-.51-48.53-13.84-12.08-8.75-22.86-4.79-16,9.11,11.28,22.74,40.79,33.36,52.08,34.09Z" transform="translate(-59.1 -210.75)"/><path class="cls-8" d="M477,445.85s-26.47-14.7-51.24-20.68c-17.12-4.14-55.39-9-92,28.77-8.69,8.95-14.71,27.87,4.78,18.39,13.85-6.73,20.6-15.18,29.36-17.63,0,0-4.8,25,4.51,33.32,4.16,3.74,15.76,13.65,25.88,20.09a48.17,48.17,0,0,0,4.2-4.51s9.43,7,27.19,5.29Z" transform="translate(-59.1 -210.75)"/><path class="cls-8" d="M408.76,423.83C400.57,428.1,383.37,437.44,372,450c-12.68,13.92-33.35,44.16-23,53.41,7.6,6.79,16.51-4.06,16.51-4.06s-5.91,14.3,2.3,18.92c7.49,4.22,13.87-4.59,13.87-4.59s-2.09,9.29,5.9,12c9.61,3.22,12.42-16.78,25-21.94C415.35,502.52,408.76,423.83,408.76,423.83Z" transform="translate(-59.1 -210.75)"/><path class="cls-4" d="M388.9,460.91c-7,5.28-20,21.37-23.54,38-.08.37.17.64.31.31A184.78,184.78,0,0,1,389,461C389.09,461,389,460.85,388.9,460.91Z" transform="translate(-59.1 -210.75)"/><path class="cls-4" d="M402.58,474.12c-5.61,5.18-18.18,22.36-21.22,39.37-.07.38.19.63.32.29,7.43-18.63,16.51-33.29,21-39.55C402.78,474.15,402.65,474.05,402.58,474.12Z" transform="translate(-59.1 -210.75)"/><path class="cls-4" d="M367.88,454.55c-7.68,2.26-12.67,6-19.15,10.53a107.13,107.13,0,0,1-9.9,6.26c-3.13,1.69-7.74,4.25-11.07,1.6-1.85-1.47-1.83-4.16-1.41-6.27a16.85,16.85,0,0,1,2.78-6.63c.07-.1-.1-.23-.18-.13a22.57,22.57,0,0,0-3.17,5.67,10.24,10.24,0,0,0-.7,6c1.13,4.23,6.12,4.79,9.66,3.62a33,33,0,0,0,6-2.92c1.87-1.07,3.68-2.23,5.45-3.43,3.65-2.46,7.16-5.14,10.78-7.65a100.16,100.16,0,0,1,11-6.39A.15.15,0,0,0,367.88,454.55Z" transform="translate(-59.1 -210.75)"/><path class="cls-4" d="M351.8,481.57c2-4.38,12.75-22.62,16.24-26.84a.11.11,0,0,0-.16-.15c-6,5.67-15.61,20.74-17.85,25.57s-4.76,10.87-4.77,16.19c0,8,5.33,9.54,7.29,9.94a10.41,10.41,0,0,0,6.83-1.12,21,21,0,0,0,6.19-5.82c.08-.11-.06-.26-.16-.15-2.78,3.16-7.4,6.28-11.76,5.71a7.31,7.31,0,0,1-5-2.68c-1.36-1.84-1.47-4.26-1.28-6.46C347.83,490.79,349.76,486.06,351.8,481.57Z" transform="translate(-59.1 -210.75)"/><path class="cls-4" d="M381.36,513.49c-1.12,1-3.42,4.28-7.08,5-2.67.52-5.47.27-7.52-1.68a10.39,10.39,0,0,1-2.89-7.29,67.66,67.66,0,0,1,1.68-10.1c0-.16-.15-.23-.2-.08-1.16,3.54-2.41,7.39-2.41,10.86a10.93,10.93,0,0,0,3.07,8,8.19,8.19,0,0,0,8.4,1.74c1.43-.53,5.94-3.42,7.25-6.28C381.69,513.59,381.41,513.45,381.36,513.49Z" transform="translate(-59.1 -210.75)"/><path class="cls-4" d="M411.77,502.23a19.81,19.81,0,0,0-3.4,2.87c-1.13,1.09-2.21,2.21-3.27,3.36a45.06,45.06,0,0,0-5.55,7.61c-1.62,2.72-3.12,5.75-5.76,7.64a7.5,7.5,0,0,1-8.78.22,7.34,7.34,0,0,1-2.75-4.07,14.45,14.45,0,0,1-.51-5.47.11.11,0,1,0-.21,0,25.07,25.07,0,0,0-.4,5,8.85,8.85,0,0,0,1.57,4.22,8.37,8.37,0,0,0,8.2,3.06c3.35-.61,5.81-3.13,7.63-5.86,2-3,3.69-6.27,5.86-9.22,1.14-1.55,2.25-3.12,3.5-4.58s2.86-2.9,4.06-4.5C412.05,502.33,411.93,502.14,411.77,502.23Z" transform="translate(-59.1 -210.75)"/><path class="cls-4" d="M421.16,509.08a69.32,69.32,0,0,1-12.92-2.68c-.14,0-.33.33-.2.4a30.65,30.65,0,0,0,6.37,2.1,22.62,22.62,0,0,0,6.72.41C421.25,509.3,421.31,509.09,421.16,509.08Z" transform="translate(-59.1 -210.75)"/><path class="cls-4" d="M565.82,482.09a168.48,168.48,0,0,0-21.33-12.19,165.29,165.29,0,0,0-22.64-8.77c-4.41-1.4-8.87-2.58-13.33-3.8a.11.11,0,0,0-.06.22,209.71,209.71,0,0,1,22.87,8.58q11.14,4.8,22.09,10c4.14,2,8.18,4.13,12.24,6.23A.16.16,0,0,0,565.82,482.09Z" transform="translate(-59.1 -210.75)"/><path class="cls-6" d="M578.37,442l-65.8-2.18s-12.25-32.48-16.91-61.38,19-20.07,43.71,10.86S578.37,442,578.37,442Z" transform="translate(-59.1 -210.75)"/><path class="cls-5" d="M519.9,415.72a2.71,2.71,0,0,1-1,.52,2.08,2.08,0,0,1-2-.61,2.74,2.74,0,0,0-3-.51,2.67,2.67,0,0,0-1.13,1c-.25.37-.53.72-.76,1.13.41-.22.76-.5,1.15-.76a2.69,2.69,0,0,1,1-.56,2.12,2.12,0,0,1,2,.52,2.76,2.76,0,0,0,3,.63,2.64,2.64,0,0,0,1.16-1c.25-.38.53-.73.76-1.14C520.62,415.19,520.27,415.47,519.9,415.72Zm20.75-12.1c-.1-.45-.15-.9-.28-1.34-.12.44-.18.89-.26,1.34a2.64,2.64,0,0,1-.34,1.12,2.07,2.07,0,0,1-1.75,1,2.77,2.77,0,0,0-2.56,1.68,2.66,2.66,0,0,0-.14,1.49c.09.45.14.9.27,1.35.12-.45.18-.9.28-1.35a2.43,2.43,0,0,1,.36-1.1,2.13,2.13,0,0,1,1.81-1,2.69,2.69,0,0,0,2.61-3.24Zm-23.12-36.19a3.58,3.58,0,0,0,0,.48c.1.43.14.88.27,1.33.13-.45.18-.9.28-1.33v0C517.92,367.71,517.73,367.57,517.53,367.43Zm46.91,54.74a1.91,1.91,0,0,1-1.3-.58,2.75,2.75,0,0,0-3-.61,2.56,2.56,0,0,0-1.16.95c-.25.39-.53.74-.76,1.15.41-.23.76-.51,1.15-.76a2.22,2.22,0,0,1,1-.52,2.09,2.09,0,0,1,2,.59,2.76,2.76,0,0,0,2.7.66C564.88,422.77,564.67,422.47,564.44,422.17Zm-45.54-32.8a2.65,2.65,0,0,1-1.12-.37,2.12,2.12,0,0,1-.95-1.8,2.73,2.73,0,0,0-1.76-2.52,2.89,2.89,0,0,0-1.5-.1c-.44.1-.89.16-1.34.28.45.11.9.17,1.34.27a2.73,2.73,0,0,1,1.14.33,2.12,2.12,0,0,1,1,1.75,2.75,2.75,0,0,0,1.68,2.56,2.57,2.57,0,0,0,1.49.14c.44-.1.88-.14,1.33-.26C519.78,389.52,519.34,389.46,518.9,389.37Zm30.27,46a2.44,2.44,0,0,1-1.1-.38,2.09,2.09,0,0,1-1-1.8,2.75,2.75,0,0,0-1.76-2.51,2.82,2.82,0,0,0-1.48-.1c-.45.1-.9.14-1.35.27.45.13.9.18,1.35.28a2.35,2.35,0,0,1,1.11.34,2,2,0,0,1,1,1.74,2.75,2.75,0,0,0,1.67,2.55,2.53,2.53,0,0,0,1.5.15c.45-.09.9-.15,1.34-.28C550.07,435.54,549.62,435.48,549.17,435.4Z" transform="translate(-59.1 -210.75)"/><path class="cls-4" d="M515.27,439.63c-.35,0-2.66-.41-2.67-.41-.17-.86-3.92-14.44-4.91-17.39-2-6-4.37-11.94-6.65-17.86a.16.16,0,0,0-.31.09c1.49,5.09,2.88,10.22,4.41,15.31-.46-.73-.92-1.45-1.35-2.19-.89-1.51-1.67-3.07-2.5-4.61a.14.14,0,0,0-.25.11,25.71,25.71,0,0,0,2.9,6.05,21.78,21.78,0,0,0,1.71,2.33c.13.42.25.85.39,1.27.93,3,5.75,17.67,6,17.68.05,0,2.43.06,3.17.06C515.39,440.07,515.46,439.63,515.27,439.63Z" transform="translate(-59.1 -210.75)"/><path class="cls-4" d="M567.72,429.29c-14.19-1.06-28.48-1.13-42.73-.92q-6,.09-12.08.47c-.12,0-.14.17,0,.18,7.1.38,14.21.47,21.32.6s14.27.2,21.41.13c4,0,8-.07,12.08-.19C567.87,429.55,567.9,429.3,567.72,429.29Z" transform="translate(-59.1 -210.75)"/><rect class="cls-7" x="339.88" y="549.13" width="10.05" height="6.56" transform="translate(630.7 894.08) rotate(180)"/><rect class="cls-7" x="326.85" y="548.7" width="10.05" height="6.56" transform="translate(604.64 893.21) rotate(180)"/><rect class="cls-7" x="313.82" y="548.27" width="10.05" height="6.56" transform="translate(578.59 892.34) rotate(180)"/><rect class="cls-7" x="300.79" y="547.83" width="10.05" height="6.56" transform="translate(552.53 891.47) rotate(180)"/><rect class="cls-7" x="287.76" y="547.4" width="10.05" height="6.56" transform="translate(526.47 890.61) rotate(180)"/><rect class="cls-7" x="274.74" y="546.97" width="10.05" height="6.56" transform="translate(500.41 889.74) rotate(180)"/><rect class="cls-7" x="261.71" y="546.53" width="10.05" height="6.56" transform="translate(474.36 888.87) rotate(180)"/><rect class="cls-7" x="248.68" y="546.1" width="10.05" height="6.56" transform="translate(448.3 888.01) rotate(180)"/><rect class="cls-7" x="235.65" y="545.67" width="10.05" height="6.56" transform="translate(422.24 887.14) rotate(180)"/><polygon class="cls-12" points="174.09 348.71 293.28 348.71 293.28 340.73 174.09 337.41 174.09 348.71"/><polygon class="cls-7" points="57.74 317.24 254.52 317.24 223.23 170.74 26.45 170.74 57.74 317.24"/><polygon class="cls-12" points="50.47 317.24 247.24 317.24 215.95 170.74 19.17 170.74 50.47 317.24"/><path class="cls-4" d="M175.31,446.26a14.79,14.79,0,0,0,14.09,12.16c6.72,0,11.3-5.44,10.24-12.16a14.8,14.8,0,0,0-14.09-12.17C178.83,434.09,174.24,439.54,175.31,446.26Z" transform="translate(-59.1 -210.75)"/><polygon class="cls-7" points="106.12 355.5 202.9 355.5 202.9 347.98 106.12 344.85 106.12 355.5"/><polygon class="cls-7" points="79.81 355.49 131.77 355.49 163.06 273.4 111.1 273.4 79.81 355.49"/><polygon class="cls-4" points="71.25 355.49 123.22 355.49 154.51 273.4 102.55 273.4 71.25 355.49"/><path class="cls-12" d="M356.07,568.25h99.78c8.51,0-3.81-24.25-34.89-33.55S346.26,559.15,356.07,568.25Z" transform="translate(-59.1 -210.75)"/><path class="cls-4" d="M395.22,568.25c-.28-1.34-.57-2.67-1-4s-.8-2.59-1.28-3.86a45.93,45.93,0,0,0-3.51-7.27,33.84,33.84,0,0,0-4.91-6.39l-1.44-1.42-1.58-1.27c-.26-.21-.51-.44-.78-.65l-.85-.56c-.57-.37-1.13-.75-1.7-1.15a25.2,25.2,0,0,1,6.89,4.5,28.09,28.09,0,0,1,5.22,6.42,35.15,35.15,0,0,1,3.38,7.54A32.42,32.42,0,0,1,395.22,568.25Z" transform="translate(-59.1 -210.75)"/><path class="cls-4" d="M383.4,545.18c-1.38.69-2.76,1.38-4.12,2.12s-2.71,1.45-4,2.22c-2.65,1.55-5.28,3.15-7.76,4.94a45.35,45.35,0,0,0-7,5.93,21.12,21.12,0,0,0-2.76,3.62,12.74,12.74,0,0,0-1.69,4.24,12,12,0,0,1,1.26-4.48,22,22,0,0,1,2.61-3.89,37.15,37.15,0,0,1,7-6.24,63.27,63.27,0,0,1,8-4.79A66.82,66.82,0,0,1,383.4,545.18Z" transform="translate(-59.1 -210.75)"/><polygon class="cls-6" points="484.3 299.44 478.38 373.9 437.41 373.9 431.49 299.44 484.3 299.44"/><polygon class="cls-13" points="484.3 299.44 478.38 373.9 437.41 373.9 431.49 299.44 484.3 299.44"/><rect class="cls-7" x="427.62" y="292.71" width="60.21" height="10.86"/><polygon class="cls-12" points="483.7 292.71 431.74 292.71 434.78 280.52 480.67 280.52 483.7 292.71"/><path class="cls-5" d="M531.22,548.07c0,9.67-6.36,17.51-14.22,17.51s-14.22-7.84-14.22-17.51,6.37-17.5,14.22-17.5S531.22,538.41,531.22,548.07Z" transform="translate(-59.1 -210.75)"/></svg>