<svg id="Слой_3" data-name="Слой 3" xmlns="http://www.w3.org/2000/svg" viewBox="0 0 587.58 399.43"><defs><style>.cls-1{fill:#ececec;}.cls-2{fill:#dcdcdc;}.cls-3{fill:#a8a8a8;}.cls-4{fill:#ff9581;}.cls-5{fill:#1a2e35;}.cls-6{fill:#ffc800;}.cls-7{fill:#fff;}.cls-8{opacity:0.1;}.cls-9{opacity:0.3;}.cls-10{fill:#ff99bc;}.cls-11{fill:#375a64;}.cls-12{fill:#2b454e;}</style></defs><path class="cls-1" d="M203.08,378l-10.63-18.42-5.63,3.26a5.06,5.06,0,0,1-5.3-.18,30.16,30.16,0,0,0-2.75-1.59,5.07,5.07,0,0,1-2.8-4.49V350H154.7v6.51a5.06,5.06,0,0,1-2.79,4.49,29,29,0,0,0-2.76,1.59,5,5,0,0,1-5.29.18l-5.64-3.26L127.59,378l5.67,3.26a5,5,0,0,1,2.47,4.69c0,.52,0,1,0,1.56s0,1,0,1.57a5,5,0,0,1-2.46,4.67L127.59,397l10.63,18.41,5.65-3.26a5.06,5.06,0,0,1,5.3.19,30.91,30.91,0,0,0,2.74,1.58,5.06,5.06,0,0,1,2.79,4.5v6.51H176v-6.51a5.06,5.06,0,0,1,2.79-4.5,29.55,29.55,0,0,0,2.74-1.58,5.06,5.06,0,0,1,5.3-.19l5.65,3.26L203.08,397l-5.65-3.27a5,5,0,0,1-2.47-4.67c0-.52,0-1.05,0-1.58s0-1,0-1.56a5.06,5.06,0,0,1,2.47-4.7Zm-20.33,9.51a17.42,17.42,0,1,1-17.4-17.42A17.4,17.4,0,0,1,182.75,387.47Z" transform="translate(-67.83 -141.55)"/><polygon class="cls-2" points="587.58 394.66 371.63 394.66 414.68 144.19 576.17 144.19 587.58 394.66"/><polygon class="cls-3" points="587.58 394.66 568.64 394.66 558.02 144.19 576.17 144.19 587.58 394.66"/><path class="cls-4" d="M475.68,335c-17.37,69-34.54,121.78-54.21,134.71-15.86,10.42-38.14,17.74-61.06,22.86-26.88,6-54.74,9-74.26,10.61-7.69.65-14.09,1.05-18.63,1.37-11.24.72-29.63-73.48-21.67-82.53,1.83-2.06,9.23-3.67,19.62-5,35-4.39,103.82-5.42,107.93-9.33,4.26-4.1,39.36-53.25,69.46-91.87C463.64,289.17,485.32,296.76,475.68,335Z" transform="translate(-67.83 -141.55)"/><path class="cls-4" d="M290.06,497.08c-1.4.65-21.23,9.26-33.41,12.31-9.09,2.27-35.42,8.12-38.92-1.64-2.4-6.65,12.69-11.91,23.27-15.87,5.57-2.08,12.55-7.58,11.06-11.17-2.6-6.27-17-.6-26.46,4.46-18.35,9.78-43,27.7-53.63,18.17-4-3.6,1-9.7,8.31-15.59-11.7,6.75-24.12,12.18-28.74,8.36-2.66-2.17-2.68-5-1-8.23-3.57,1-6.69.68-8.78-1.7-3.57-4-1.55-9.71,2.74-15.44a4.47,4.47,0,0,1-3.3-2.35c-7.43-12.29,33.25-45.31,47-48,40.45-8.05,83-3,83-3C286.42,430.52,290.09,497.06,290.06,497.08Z" transform="translate(-67.83 -141.55)"/><path class="cls-5" d="M232.47,457.53a65.55,65.55,0,0,0-27.12,9.3c-9.6,6.08-17.36,14.59-26.27,21.54-.24.18.07.56.31.36,4.2-3.61,8.8-6.8,13.14-10.24s8.42-6.88,12.89-9.93a64.84,64.84,0,0,1,27.08-10.87A.08.08,0,1,0,232.47,457.53Z" transform="translate(-67.83 -141.55)"/><path class="cls-5" d="M225.63,440.24c-10.65,2.49-21.55,5-31.52,9.63-10.9,5.06-19.61,13.64-28.16,21.9q-7.69,7.43-15.07,15.2c-.21.22.08.59.3.37q13-12.79,26.81-24.8a85.71,85.71,0,0,1,29-16.84c6.12-2.08,12.38-3.68,18.63-5.28C225.78,440.39,225.75,440.21,225.63,440.24Z" transform="translate(-67.83 -141.55)"/><path class="cls-5" d="M214.92,424.94c-10.32,1.73-19.32,3.19-28.58,8.35-12.28,6.82-24.31,18.63-28.54,22.82-4.67,4.63-9.18,9.4-13.61,14.25-.18.2.16.52.34.32a340.54,340.54,0,0,1,32.38-29.78,67.84,67.84,0,0,1,17.88-10.71c6.48-2.51,13.36-3.81,20.14-5.18C215,425,215,424.93,214.92,424.94Z" transform="translate(-67.83 -141.55)"/><path class="cls-6" d="M463,404.57,401,368s26.46-42.76,49.08-62.94,31.73-4.35,28.3,25S463,404.57,463,404.57Z" transform="translate(-67.83 -141.55)"/><path class="cls-5" d="M410.72,358.71c9.93,5.08,36.46,19.67,52.4,31.52.09.07-.14.49-.25.43-14.79-7.74-43.08-25.37-52.51-31.33C410.19,359.22,410.53,358.62,410.72,358.71Z" transform="translate(-67.83 -141.55)"/><path class="cls-5" d="M406.05,371l56.89,33.54s11.95-45.19,15.39-74.52c2.2-18.93-.8-32.24-9.31-33.86Z" transform="translate(-67.83 -141.55)"/><path class="cls-7" d="M401.37,536.21h214c2.36-4.33-32.72-191.8-104.89-244.58-16-11.72-44.43-4.18-52.33,7.2C418.45,356.07,401.37,536.21,401.37,536.21Z" transform="translate(-67.83 -141.55)"/><path class="cls-6" d="M510.69,291.63S482,368.35,479,404.57c-.87,10.58-9.84,132.15-9.84,132.15H620.26s-30-147.38-78.81-215.8C526,299.21,510.69,291.63,510.69,291.63Z" transform="translate(-67.83 -141.55)"/><path class="cls-6" d="M464.9,290.5S439.46,352.1,433.08,387c-3.5,19.14-21.23,149.76-21.23,149.76H395.62s16.23-139.83,41.91-203.1C451.29,299.73,464.9,290.5,464.9,290.5Z" transform="translate(-67.83 -141.55)"/><path class="cls-8" d="M491.41,372.34l36.48,4.52s-2.06,33.87-2.81,35.18-20.28,9.34-21.59,8.59-15.54-11.16-16.24-12.1C486.39,407.37,491.41,372.34,491.41,372.34Z" transform="translate(-67.83 -141.55)"/><path class="cls-4" d="M466.58,333.44c12.69,2.32,33.24-18,40.94-33.93.52-1.1-6.09-43.48-6.53-52-.09-1.75-52.86,15.76-52.86,15.76s6.19,17.62,6.86,32.5C455,297,454.3,331.19,466.58,333.44Z" transform="translate(-67.83 -141.55)"/><path class="cls-5" d="M504.32,274.11c-23.5,20.26-48.73,15.8-49.86,15.59a148.68,148.68,0,0,0-6.33-26.45S500.9,245.74,501,247.5C501.19,251.51,502.76,263,504.32,274.11Z" transform="translate(-67.83 -141.55)"/><path class="cls-5" d="M422.78,177.61s-14.9,10.8-13.92,28.32,9,34.21,10.66,34.72S422.78,177.61,422.78,177.61Z" transform="translate(-67.83 -141.55)"/><path class="cls-4" d="M498.54,182.18c8.92,17.75,8.3,73.55-3,87.9-16.32,20.79-47.65,27.89-66.48,7.22-18.26-20-16.17-92.74-3.17-106.26C445.09,151.14,485.35,156,498.54,182.18Z" transform="translate(-67.83 -141.55)"/><path class="cls-9" d="M495.59,270.08C479.28,290.88,448,298,429.1,277.3c-6.67-7.31-10.6-21.63-12.3-37.52,0,0,4.59,11.3,11.17,11.38s8.29-6.19,8.29-6.19l2.74-.91a31.82,31.82,0,0,0,30.81,3.32c17.53-7.27,20.46-28.3,20.46-28.3l14.39.66C505,240.17,502,261.89,495.59,270.08Z" transform="translate(-67.83 -141.55)"/><path class="cls-5" d="M450.42,224.15c0-.15.29.18.29.33-.15,3.76.32,8.09,3.72,9.35.1,0,.09.23,0,.21C450.25,233.43,449.68,227.68,450.42,224.15Z" transform="translate(-67.83 -141.55)"/><path class="cls-5" d="M453.8,220.24c6.05-.42,6.45,11.71.84,12.1S448.73,220.59,453.8,220.24Z" transform="translate(-67.83 -141.55)"/><path class="cls-5" d="M429.69,225.39c0-.14-.29.19-.28.34.24,3.76-.11,8.09-3.47,9.45-.1,0-.09.23,0,.21C430.11,234.67,430.52,228.91,429.69,225.39Z" transform="translate(-67.83 -141.55)"/><path class="cls-5" d="M426.21,221.58c-6.06-.26-6.14,11.87-.52,12.11S431.28,221.8,426.21,221.58Z" transform="translate(-67.83 -141.55)"/><path class="cls-5" d="M458.4,214.54a46.72,46.72,0,0,1-4.75-1.5c-1.82-.6-3.32-.88-4.55-2.45a2.56,2.56,0,0,1,.31-3.12c1.76-1.67,4.17-1.5,6.39-.87a9.32,9.32,0,0,1,5.51,3.87C462.7,212.45,460.6,215,458.4,214.54Z" transform="translate(-67.83 -141.55)"/><path class="cls-5" d="M421.32,215.63a49.23,49.23,0,0,0,4.77-1.41c1.83-.56,3.35-.82,4.6-2.37a2.55,2.55,0,0,0-.25-3.12c-1.73-1.71-4.14-1.57-6.37-1a9.37,9.37,0,0,0-5.59,3.76C417.06,213.45,419.11,216.06,421.32,215.63Z" transform="translate(-67.83 -141.55)"/><path class="cls-5" d="M456,258.82c-.88.91-1.73,2.15-3.09,2.31a9.88,9.88,0,0,1-4.07-.82.13.13,0,0,0-.16.2,5,5,0,0,0,4.84,1.88c1.69-.35,2.48-1.85,2.84-3.42C456.45,258.76,456.16,258.68,456,258.82Z" transform="translate(-67.83 -141.55)"/><path class="cls-5" d="M451.72,247.7a12.81,12.81,0,0,1-8.35,6,16.09,16.09,0,0,1-4.6.36,4.24,4.24,0,0,1-.88-.07c-.28,0-.52-.05-.83-.1a.93.93,0,0,1-.78-.81v0a2.55,2.55,0,0,1,0-.39v-.36c-.18-2.89,0-7.29,0-7.29-1,.56-6.35,3.16-6.31,1.65.33-12.54.71-26.48,3.69-38.88a.35.35,0,0,1,.69.08c.15,12.06-1.82,24.06-1.85,36.18,1.69-.71,4.46-2,6-2,.42.1-.41,8.51-.23,9.8a.44.44,0,0,0,0,.14c4.88.46,8.49-1.13,13.1-4.55C451.63,247.15,451.93,247.39,451.72,247.7Z" transform="translate(-67.83 -141.55)"/><path class="cls-5" d="M440.43,252.51a15.17,15.17,0,0,0,6.23,4.51,6.84,6.84,0,0,0,4.16.12c3-.89,3-3.64,2.33-6a16.2,16.2,0,0,0-1.47-3.56A19.67,19.67,0,0,1,440.43,252.51Z" transform="translate(-67.83 -141.55)"/><path class="cls-10" d="M446.66,257a6.84,6.84,0,0,0,4.16.12c3-.89,3-3.64,2.33-6C449.94,251.6,446.83,253.89,446.66,257Z" transform="translate(-67.83 -141.55)"/><path class="cls-5" d="M503.69,235.8c-6.67,2.06-14.38-18-16.56-25.71-1.93-6.8-4.17-28.37-4.5-29.84s-29.06,19.14-45.89,14.25-28.1-20-28.34-27,20.61-25,38.68-25.91,42.58,22,42.58,22-8.33-9.9-8.05-10.72,12,3.83,14.13,12.15c0,0-2.33-10.44-1.45-10.64s10,8.74,7.94,15.52c0,0,10.51,9.07,11.5,19S511.53,233.38,503.69,235.8Z" transform="translate(-67.83 -141.55)"/><path class="cls-5" d="M424.78,191c5.12,2.34,10.25,4.92,15.9,5.66,6.11.79,12.45-.75,18.13-2.94a57.32,57.32,0,0,0,15.89-9.44c4.2-3.47,7.93-7.66,12.41-10.75,1.13-.77,2.43.84,1.74,1.88-6.8,10.25-18.86,18.81-30.48,22.52-12.24,3.9-23.75,1.19-33.65-6.8C424.66,191.09,424.69,191,424.78,191Z" transform="translate(-67.83 -141.55)"/><path class="cls-4" d="M494.53,228.26s9.63-19.41,18.25-16.23,3.23,30-5.59,34.9-13.52-3.19-13.52-3.19Z" transform="translate(-67.83 -141.55)"/><path class="cls-5" d="M511,219.68a.13.13,0,0,1,.09.24c-6.16,3.65-8.69,10.25-10.16,16.92,1.59-2.72,4-4.45,7.64-2.62.19.09.07.39-.12.38-2.78-.18-4.64.58-6.13,3a27.73,27.73,0,0,0-2.3,5.67c-.22.63-1.33.48-1.2-.23l0-.16C497.46,234.55,502.2,221.88,511,219.68Z" transform="translate(-67.83 -141.55)"/><path class="cls-4" d="M542.26,314.37c41.49,52.13,96.6,143.44,71.83,162.14-40.72,30.74-156.61,44.73-183.16,46.85-11.46.91-31.28-74.53-23.28-83.86s130-11.23,131.16-18.67c.66-4.21-16.34-41.83-26.41-87.53C500.79,280.6,530.57,299.68,542.26,314.37Z" transform="translate(-67.83 -141.55)"/><path class="cls-4" d="M427.84,434.16s-34.92-1.67-57.81-1.69c-12.77,0-34.67,1.92-44,6.2-14,6.41-68.66,42.16-60.28,55.59,7.59,12.16,50.62-24.52,50.62-24.52s-46.69,33.17-34.86,46.13,54.93-34.95,54.93-34.95-47.21,35.16-32.89,46.6c10.81,8.64,52.3-32.55,52.3-32.55s-40.37,30.5-29.63,39.86c11.87,10.35,52.55-25.26,52.55-25.26,31.31,19.2,54.07,15.54,70,11C452.52,519.48,427.84,434.16,427.84,434.16Z" transform="translate(-67.83 -141.55)"/><path class="cls-5" d="M331.73,457.23c-5.62,3.7-11.34,7.41-16.62,11.59S304.7,477.38,299.83,482c-11.93,11.42-17.61,20.44-17.2,19.92,9.74-12.27,28.4-27.54,33.68-31.73s10.32-8.62,15.59-12.8C332,457.32,331.86,457.15,331.73,457.23Z" transform="translate(-67.83 -141.55)"/><path class="cls-5" d="M347.19,476c-7,5-14.09,9.77-20.85,15.11S310.44,504.22,304.1,510c-.49.45-.06,1.34.45.91,6.57-5.51,16.29-13,22.92-18.43s13-11.12,19.85-16.29C347.43,476.09,347.3,475.94,347.19,476Z" transform="translate(-67.83 -141.55)"/><path class="cls-5" d="M363.36,489.75c-11.06,7.14-20.79,16.32-30.12,25.55-.46.46.07.56.57.11,9.85-8.68,17.52-15.56,29.8-25.28C363.8,490,363.59,489.6,363.36,489.75Z" transform="translate(-67.83 -141.55)"/><path class="cls-5" d="M432.8,433.27c-15.93-.76-62.74-2.77-78.69-2.19-14.05.52-25.83,3.08-38,10.41-26,15.72-43.11,34.74-47.4,40.43-2.6,3.45-6.41,8.95-3.3,13,3.79,4.95,18.67.87,34.73-12.53.58-.48.24-.81-.35-.37-22.47,16.75-31.05,14.37-33.2,11.26-1.39-2,.16-5.33,1.59-7.86,2.06-3.66,5.2-7,8.12-9.94,10.08-10.27,22.12-19.57,34.08-27.53a84.49,84.49,0,0,1,44.7-14.75c16.33-.67,61.39,1.57,77.72.66C433.18,433.86,433.15,433.28,432.8,433.27Z" transform="translate(-67.83 -141.55)"/><path class="cls-5" d="M279.15,508.77c1.08-4.32,4.37-8.16,7-11.65A81,81,0,0,1,297,485c.18-.16.46.06.29.25a127.89,127.89,0,0,0-9.61,11.7,69.15,69.15,0,0,0-4.33,7c-1.25,2.33-2.71,5-2.23,7.75.93,5.23,7.5,5.37,11.45,4.13a44.27,44.27,0,0,0,7.4-3.24,72.54,72.54,0,0,0,9.16-6.34c.25-.21.86-.1.61.12-6,5.3-17.47,16.35-26.27,11.77A8.12,8.12,0,0,1,279.15,508.77Z" transform="translate(-67.83 -141.55)"/><path class="cls-6" d="M593.38,368.24l-66.29,28s-18.59-46.71-21.34-76.9,15.4-28.08,36.92-7.86S593.38,368.24,593.38,368.24Z" transform="translate(-67.83 -141.55)"/><path class="cls-5" d="M525.44,382.9c10-4.95,37.52-17.58,56.53-23.33.11,0,.3.4.2.46-15,7.27-46,19.5-56.44,23.53C525.53,383.63,525.25,383,525.44,382.9Z" transform="translate(-67.83 -141.55)"/><path class="cls-5" d="M511,358c0-.1.11-.16.16-.07,1.35,2.27,2.56,4.57,3.72,6.94-1.47-5.22-2.81-10.48-4-15.74a.15.15,0,0,1,.29-.07c5.39,15.34,11.15,30.58,16.21,46,1.72-.18,3.45-.39,5.15-.71a.23.23,0,0,1,.12.44c-1.84.55-3.66,1.25-5.44,2a.89.89,0,0,1-1.19-.33,231,231,0,0,1-9.72-26.81c-.79-1.37-1.56-2.75-2.25-4.17A56.36,56.36,0,0,1,511,358Z" transform="translate(-67.83 -141.55)"/><rect class="cls-11" x="129.53" y="389.81" width="214.49" height="9.62"/><rect class="cls-5" x="236.06" y="389.81" width="107.95" height="9.62"/><polygon class="cls-12" points="238.57 399.42 29.54 399.42 0 257.46 209.03 257.46 238.57 399.42"/><path class="cls-7" d="M203.32,473.16a12.31,12.31,0,0,1-12.47,13.93,15.85,15.85,0,0,1-15.4-13.93,12.31,12.31,0,0,1,12.47-13.93A15.86,15.86,0,0,1,203.32,473.16Z" transform="translate(-67.83 -141.55)"/><path class="cls-6" d="M277.28,364.08c-18.66,0-33.29-39.18-33.29-89.19s14.63-89.19,33.29-89.19,33.29,39.17,33.29,89.19S296,364.08,277.28,364.08Zm0-172.6c-13.28,0-27.5,33.52-27.5,83.41s14.22,83.4,27.5,83.4,27.51-33.51,27.51-83.4S290.57,191.48,277.28,191.48Z" transform="translate(-67.83 -141.55)"/><path class="cls-6" d="M221.44,328.32c-10.62,0-18-3-21.4-8.84-4.72-8.17-.65-20.45,11.45-34.58,11.46-13.36,28.91-27.16,49.15-38.84s40.91-19.9,58.21-23.14c18.29-3.42,31-.8,35.67,7.37s.66,20.46-11.45,34.58c-11.45,13.37-28.9,27.16-49.14,38.85s-40.91,19.9-58.21,23.14A78.39,78.39,0,0,1,221.44,328.32ZM333.3,227.22a73.73,73.73,0,0,0-13.38,1.39c-16.68,3.12-36.7,11.09-56.39,22.46s-36.61,24.72-47.64,37.6c-10.24,11.94-14.19,22.12-10.84,27.92s14.14,7.47,29.6,4.58c16.67-3.12,36.7-11.1,56.38-22.46s36.61-24.72,47.65-37.6c10.24-12,14.18-22.12,10.83-27.92C347.24,229.25,341.55,227.22,333.3,227.22Z" transform="translate(-67.83 -141.55)"/><path class="cls-6" d="M333.13,328.32a78.39,78.39,0,0,1-14.28-1.46c-17.3-3.24-38-11.46-58.21-23.14S223,278.24,211.49,264.87c-12.1-14.12-16.17-26.4-11.45-34.58s17.4-10.79,35.68-7.37c17.3,3.24,38,11.46,58.21,23.14s37.69,25.48,49.14,38.84c12.11,14.13,16.18,26.41,11.45,34.58C351.16,325.32,343.74,328.32,333.13,328.32ZM221.27,227.22c-8.26,0-14,2-16.22,6-3.35,5.8.6,16,10.84,27.92,11,12.88,28,26.23,47.64,37.6s39.71,19.34,56.39,22.46c15.46,2.89,26.24,1.22,29.59-4.58s-.59-16-10.83-27.92c-11-12.88-28-26.23-47.65-37.6s-39.71-19.34-56.38-22.46A73.9,73.9,0,0,0,221.27,227.22Z" transform="translate(-67.83 -141.55)"/><circle class="cls-6" cx="209.45" cy="133.34" r="13.1"/></svg>