<svg id="Слой_5" data-name="Слой 5" xmlns="http://www.w3.org/2000/svg" viewBox="0 0 611.45 474.29"><defs><style>.cls-1{fill:#ececec;}.cls-15,.cls-2{fill:#dcdcdc;}.cls-3{fill:none;stroke:#ececec;stroke-miterlimit:10;}.cls-4{fill:#a8a8a8;}.cls-5{fill:#1a2e35;}.cls-6{fill:#375a64;}.cls-7{fill:#2b454e;}.cls-8{fill:#ffc800;}.cls-9{fill:#c36358;}.cls-10{fill:#fff;}.cls-11,.cls-12{opacity:0.1;}.cls-13{fill:#ff99bc;}.cls-14,.cls-15{opacity:0.6;}</style></defs><path class="cls-1" d="M598.44,387.06l19.46-.27,9.63-.12,9.6-.05-.45.44,0-16.34.5.5-19.35-.07c-6.44,0-12.89-.11-19.34-.16l.27-.27Zm0,0-.27-16.34v-.27h.28c6.45-.05,12.9-.16,19.34-.16l19.35-.06h.5v.51l-.06,16.34v.45h-.44l-9.75-.06-9.71-.11Z" transform="translate(-51.95 -129.24)"/><path class="cls-1" d="M620,407.68l19.46-.28,9.63-.11,9.6-.06-.45.45,0-16.35.5.5-19.34-.06c-6.45,0-12.9-.12-19.35-.17l.28-.27Zm0,0-.27-16.35v-.27H620c6.45-.05,12.9-.16,19.35-.17l19.34-.06h.5v.5l-.05,16.35v.45h-.44l-9.75-.05-9.71-.11Z" transform="translate(-51.95 -129.24)"/><path class="cls-1" d="M576.86,407.68l19.46-.28,9.63-.11,9.6-.06-.45.45-.05-16.35.5.5-19.35-.06c-6.44,0-12.89-.12-19.34-.17l.27-.27Zm0,0-.27-16.35v-.27h.28c6.45-.05,12.9-.16,19.34-.17l19.35-.06h.5v.5L616,407.68v.45h-.44l-9.75-.05-9.71-.11Z" transform="translate(-51.95 -129.24)"/><path class="cls-1" d="M78.23,407.68l19.46-.28,9.63-.11,9.6-.06-.45.45,0-16.35.5.5-19.34-.06c-6.45,0-12.9-.12-19.35-.17l.27-.27Zm0,0L78,391.33v-.27h.28c6.45-.05,12.9-.16,19.35-.17l19.34-.06h.5v.5l0,16.35v.45h-.44l-9.75-.05L97.46,408Z" transform="translate(-51.95 -129.24)"/><path class="cls-1" d="M410.59,150.3l-19.46.28-9.63.11-9.6.06.45-.45,0,16.35-.5-.5,19.34.06c6.45,0,12.9.11,19.35.17l-.28.27Zm0,0,.27,16.35v.27h-.28c-6.45.05-12.9.16-19.35.16l-19.34.07h-.5v-.5l.05-16.35v-.45h.44l9.75.06,9.71.11Z" transform="translate(-51.95 -129.24)"/><path class="cls-1" d="M389,129.69l-19.46.27-9.63.12-9.6,0,.44-.44.06,16.34-.5-.5,19.34.07c6.45,0,12.9.11,19.35.16l-.28.27Zm0,0,.27,16.34v.27H389c-6.45.05-12.9.16-19.35.16l-19.34.06h-.5V146l.05-16.34v-.45h.45l9.75,0,9.71.12Z" transform="translate(-51.95 -129.24)"/><polygon class="cls-2" points="359.07 25.46 363.94 36.16 475.19 36.16 480.04 25.46 359.07 25.46"/><polyline class="cls-3" points="63.48 422.19 63.48 238.6 24.42 185.3 24.42 85.46"/><path class="cls-3" d="M79.85,211.29a3.47,3.47,0,1,1-3.47-3.47A3.47,3.47,0,0,1,79.85,211.29Z" transform="translate(-51.95 -129.24)"/><polyline class="cls-3" points="53.42 422.19 53.42 245.04 14.37 191.74 14.37 121.98"/><path class="cls-3" d="M69.79,247.81a3.47,3.47,0,1,1-3.47-3.47A3.47,3.47,0,0,1,69.79,247.81Z" transform="translate(-51.95 -129.24)"/><line class="cls-3" x1="73.17" y1="422.19" x2="73.17" y2="179.07"/><path class="cls-3" d="M128.59,304.84a3.47,3.47,0,1,1-3.47-3.47A3.47,3.47,0,0,1,128.59,304.84Z" transform="translate(-51.95 -129.24)"/><polyline class="cls-3" points="82.5 422.19 82.5 298.63 109.01 248.62 109.01 158.97"/><path class="cls-3" d="M164.44,284.74a3.47,3.47,0,1,1-3.47-3.47A3.48,3.48,0,0,1,164.44,284.74Z" transform="translate(-51.95 -129.24)"/><polyline class="cls-3" points="91.77 422.19 91.77 303.97 123.03 248.69 123.03 189.64"/><path class="cls-3" d="M178.45,315.41a3.47,3.47,0,1,1-3.47-3.47A3.47,3.47,0,0,1,178.45,315.41Z" transform="translate(-51.95 -129.24)"/><polyline class="cls-3" points="547.98 422.19 547.98 326.26 587.03 272.96 587.03 216.95"/><path class="cls-3" d="M635.51,342.78a3.47,3.47,0,1,0,3.47-3.47A3.47,3.47,0,0,0,635.51,342.78Z" transform="translate(-51.95 -129.24)"/><polyline class="cls-3" points="558.03 422.19 558.03 332.7 597.09 279.4 597.09 253.47"/><path class="cls-3" d="M645.57,379.3a3.47,3.47,0,1,0,3.47-3.47A3.47,3.47,0,0,0,645.57,379.3Z" transform="translate(-51.95 -129.24)"/><line class="cls-3" x1="538.28" y1="422.19" x2="538.28" y2="266.73"/><path class="cls-3" d="M586.77,392.5a3.47,3.47,0,1,0,3.47-3.47A3.47,3.47,0,0,0,586.77,392.5Z" transform="translate(-51.95 -129.24)"/><polyline class="cls-3" points="528.96 422.19 528.96 342.46 502.44 292.45 502.44 202.8"/><path class="cls-3" d="M550.93,328.57a3.47,3.47,0,1,0,3.47-3.47A3.47,3.47,0,0,0,550.93,328.57Z" transform="translate(-51.95 -129.24)"/><polyline class="cls-3" points="519.68 422.19 519.68 347.8 488.42 292.52 488.42 233.47"/><path class="cls-3" d="M536.91,359.24a3.47,3.47,0,1,0,3.47-3.47A3.47,3.47,0,0,0,536.91,359.24Z" transform="translate(-51.95 -129.24)"/><ellipse class="cls-1" cx="305.73" cy="450.83" rx="294.45" ry="23.47"/><polygon class="cls-2" points="20.03 422.43 196.98 422.43 161.7 217.19 29.38 217.19 20.03 422.43"/><polygon class="cls-4" points="20.03 422.43 35.54 422.43 44.25 217.19 29.38 217.19 20.03 422.43"/><polygon class="cls-5" points="0 422.43 76.43 422.19 152.86 422.1 305.73 421.93 458.59 422.1 535.02 422.19 611.45 422.43 535.02 422.68 458.59 422.76 305.73 422.93 152.86 422.76 76.43 422.68 0 422.43"/><rect class="cls-6" x="320.11" y="420.6" width="10.49" height="6.85"/><rect class="cls-6" x="333.72" y="420.14" width="10.49" height="6.85"/><rect class="cls-6" x="347.32" y="419.69" width="10.49" height="6.85"/><rect class="cls-6" x="360.93" y="419.24" width="10.49" height="6.85"/><rect class="cls-6" x="374.54" y="418.79" width="10.49" height="6.85"/><rect class="cls-6" x="388.15" y="418.33" width="10.49" height="6.85"/><rect class="cls-6" x="401.76" y="417.88" width="10.49" height="6.85"/><rect class="cls-6" x="415.37" y="417.43" width="10.49" height="6.85"/><rect class="cls-6" x="428.98" y="416.97" width="10.49" height="6.85"/><polygon class="cls-7" points="442.04 431.39 317.54 431.39 317.54 423.05 442.04 419.58 442.04 431.39"/><polygon class="cls-6" points="563.56 398.51 358.02 398.51 390.71 245.49 596.25 245.49 563.56 398.51"/><polygon class="cls-7" points="571.16 398.51 365.63 398.51 398.31 245.49 603.85 245.49 571.16 398.51"/><path class="cls-5" d="M553.08,454.44a15.46,15.46,0,0,1-14.72,12.71c-7,0-11.8-5.69-10.69-12.71a15.46,15.46,0,0,1,14.72-12.71C549.41,441.73,554.2,447.42,553.08,454.44Z" transform="translate(-51.95 -129.24)"/><polygon class="cls-5" points="475.33 274.65 470.38 297.88 465.89 297.88 470.85 274.65 475.33 274.65"/><polygon class="cls-5" points="484.9 274.65 479.95 297.88 475.45 297.88 480.4 274.65 484.9 274.65"/><polygon class="cls-5" points="494.46 274.65 489.5 297.88 485.02 297.88 489.97 274.65 494.46 274.65"/><polygon class="cls-5" points="504.03 274.65 499.07 297.88 494.57 297.88 499.53 274.65 504.03 274.65"/><polygon class="cls-5" points="513.58 274.65 508.63 297.88 504.14 297.88 509.1 274.65 513.58 274.65"/><polygon class="cls-5" points="523.15 274.65 518.2 297.88 513.7 297.88 518.65 274.65 523.15 274.65"/><polygon class="cls-6" points="510.11 438.48 409.02 438.48 409.02 430.63 510.11 427.36 510.11 438.48"/><polygon class="cls-6" points="537.6 438.46 483.32 438.46 450.63 352.72 504.91 352.72 537.6 438.46"/><polygon class="cls-5" points="546.53 438.46 492.25 438.46 459.57 352.72 513.84 352.72 546.53 438.46"/><path class="cls-7" d="M392.42,569.8H288.2c-8.9,0,4-25.33,36.44-35S402.66,560.3,392.42,569.8Z" transform="translate(-51.95 -129.24)"/><path class="cls-5" d="M351.52,569.8a34.27,34.27,0,0,1,1.63-8.43,36.8,36.8,0,0,1,3.53-7.87,29.42,29.42,0,0,1,5.45-6.71,26.78,26.78,0,0,1,7.18-4.71l-1.77,1.2-.89.58c-.28.22-.55.45-.82.68l-1.66,1.32-1.5,1.49a35.28,35.28,0,0,0-5.13,6.66,47.19,47.19,0,0,0-3.67,7.61c-.5,1.32-.95,2.67-1.33,4S351.81,568.4,351.52,569.8Z" transform="translate(-51.95 -129.24)"/><path class="cls-5" d="M363.87,545.7a70.71,70.71,0,0,1,8.9,3.85,67.12,67.12,0,0,1,8.33,5,38.71,38.71,0,0,1,7.26,6.51,22.2,22.2,0,0,1,2.73,4.06,12.45,12.45,0,0,1,1.33,4.67,13.49,13.49,0,0,0-1.76-4.44,22.54,22.54,0,0,0-2.88-3.79,47.78,47.78,0,0,0-7.26-6.19c-2.6-1.88-5.34-3.54-8.12-5.16q-2.08-1.2-4.22-2.31C366.76,547.13,365.32,546.42,363.87,545.7Z" transform="translate(-51.95 -129.24)"/><path class="cls-5" d="M211.43,250.82c-5-9.63-22.76-29.62-44-18.92-30.24,15.27-17.91,78.25-28.55,101.86-19.29,42.78-10.75,77.52,14.43,76.53,28.22-1.12,46.2-36.67,28.29-98-11.19-38.34-5-58.39,3-59.36s14.85,7.59,14.85,7.59Z" transform="translate(-51.95 -129.24)"/><path class="cls-5" d="M209.3,247.27a64.58,64.58,0,0,0-10.14-11.79,38.12,38.12,0,0,0-13.5-8.12,26,26,0,0,0-16-.22,33.81,33.81,0,0,0-13.74,8.21,37.7,37.7,0,0,0-8.36,13.59,69.37,69.37,0,0,0-3.5,15.35,139.14,139.14,0,0,0,.58,31.08,204.4,204.4,0,0,1,1.68-30.77,74.09,74.09,0,0,1,3.82-14.67A35.59,35.59,0,0,1,158,237.41a31.33,31.33,0,0,1,12.5-7.64,24.24,24.24,0,0,1,14.48-.24,38.86,38.86,0,0,1,13.25,7.05,61.17,61.17,0,0,1,5.79,5C205.85,243.43,207.61,245.32,209.3,247.27Z" transform="translate(-51.95 -129.24)"/><path class="cls-5" d="M176,291c1.35,6.2,3.38,12.22,5.17,18.29s3.74,12.08,5.42,18.16,3.16,12.19,4.2,18.37a95.64,95.64,0,0,1,1.6,18.61,48.91,48.91,0,0,1-3.43,18,53.26,53.26,0,0,1-10.21,15.31,39.75,39.75,0,0,1-15.39,10,35.39,35.39,0,0,1-9.12,2,30.72,30.72,0,0,1-4.7.06,16.29,16.29,0,0,1-4.64-.78,23.32,23.32,0,0,0,9.38,1.5,37,37,0,0,0,9.51-1.4,39.33,39.33,0,0,0,8.88-3.87,43,43,0,0,0,7.69-5.93,49.86,49.86,0,0,0,6.28-7.4l1.36-2,1.26-2.07a37.36,37.36,0,0,0,2.25-4.36,50.83,50.83,0,0,0,3.8-19c.17-13-2.8-25.56-6.54-37.68-1.88-6.08-4-12.05-6.25-18S178,297.05,176,291Z" transform="translate(-51.95 -129.24)"/><path class="cls-8" d="M213.31,250.49c-.43-2.94-3.2-6.34-5.19-6.53s-15,8.31-15.55,12.13,6.24,5.9,6.24,5.9Z" transform="translate(-51.95 -129.24)"/><path class="cls-9" d="M214.58,386.47c43.08,26,103.57,52.81,124.83,48.86,17.14-3.18,81.36-49.88,84.58-52.56,7.9-6.67-29.8-66.32-39.34-60.7-12,7.07-57.88,51.6-63.09,51.62-5.42,0-44.22-5.19-88.73-11.64C202.09,357.58,187.84,370.32,214.58,386.47Z" transform="translate(-51.95 -129.24)"/><path class="cls-9" d="M395.44,301.86c10.29-5.25,21.67-12.1,33.69-13.48s24.1,13.14,24.7,17.68-.15,33.42-12.15,35S434,320,433.25,317.55s-1.66-5.55-3.89-5S390,337.14,390,337.14Z" transform="translate(-51.95 -129.24)"/><path class="cls-9" d="M396.42,303.41c.68-.09,31.14-17,43.17-18.42s24.09,13.14,24.7,17.68-.16,33.42-12.15,35-7.65-21.1-8.44-23.52-1.66-5.56-3.89-5-39.34,24.6-39.34,24.6Z" transform="translate(-51.95 -129.24)"/><path class="cls-5" d="M447.86,336.72c-1.73-1.7-2.37-4.52-2.94-6.83a25,25,0,0,1-.59-7.72c.16-2.24.8-4.53.58-6.79a13.36,13.36,0,0,0-2.51-6.12c-1.16-1.56-2.84-.75-4.28,0a57,57,0,0,0-6.13,3.82c-2.15,1.44-4.26,2.93-6.37,4.41a61.3,61.3,0,0,0-6.46,4.75c-.14.14,0,.41.19.31a64.82,64.82,0,0,0,5.72-3.55c2.14-1.37,4.29-2.73,6.45-4.06s4-2.59,6-3.8c.72-.42,2.14-1.44,3-1.36s1.7,2.27,2,3a11.48,11.48,0,0,1,.45,6.54,33.8,33.8,0,0,0-.37,6.74,17.79,17.79,0,0,0,1.33,6.19c.83,1.84,2.33,3.21,3.55,4.78C447.7,337.21,448.06,336.91,447.86,336.72Z" transform="translate(-51.95 -129.24)"/><path class="cls-9" d="M362.56,340s29.21-34.73,35.33-41.67c12.28-13.92,67.57-45.59,75.61-47.54s13.2,14.37-24.18,37c-19.7,11.93-21.82,24.41-20.54,31s9.27,18.12,20.4,16.33,16.2-19,26.22-22.23,5.75,16.53,0,28.36-17.75,22.54-26.92,27.45-37.35,21.77-37.35,21.77Z" transform="translate(-51.95 -129.24)"/><path class="cls-5" d="M462,325.39c-3.77,3.82-8,8.67-13.48,9.62-5.69,1-9.9-2.24-13.18-6.55s-5.58-9.5-5-15a26.24,26.24,0,0,1,6-13.55,63.84,63.84,0,0,1,13.79-12.08c.23-.16,0-.48-.27-.33-4.83,3-19.94,11.65-21.26,26.19-.54,5.95,1.88,10.86,5.21,15.33,3.06,4.11,7.24,7.92,12.71,7.64,6.67-.35,11.63-6.47,15.84-11.11C462.52,325.3,462.19,325.19,462,325.39Z" transform="translate(-51.95 -129.24)"/><path class="cls-8" d="M316,369.11l-49.87,47.35S233,401.75,208.11,384s.79-28.68,41.92-24.37S316,369.11,316,369.11Z" transform="translate(-51.95 -129.24)"/><path class="cls-10" d="M254.27,410.81l-.66-.32c0-.1,0-.19,0-.29a38.17,38.17,0,0,0-2.35-11.7,10.15,10.15,0,0,0-3.54-4.58,7.34,7.34,0,0,0-2.69-1,22.07,22.07,0,0,0-3-.11,40.31,40.31,0,0,0-11.72,2.36c-1,.36-2.07.76-3.09,1.18l-.57-.34c1.15-.48,2.31-.93,3.47-1.36a41.65,41.65,0,0,1,11.9-2.42,21.29,21.29,0,0,1,3.07.12,7.6,7.6,0,0,1,2.9,1.11,10.59,10.59,0,0,1,3.77,4.83,38.34,38.34,0,0,1,2.43,11.88C254.24,410.36,254.26,410.59,254.27,410.81Zm34.14-46.35-.21.59c-1.83,4.87-4.12,9.76-8.1,13.18a13.67,13.67,0,0,1-7,3,13.89,13.89,0,0,1-7.53-1.43c-4.71-2.25-8.59-5.93-12.27-9.63s-7-7.46-10.5-11.15h0l-.26,0c3.55,3.75,7,7.64,10.59,11.36s7.53,7.44,12.32,9.78a13.41,13.41,0,0,0,14.94-1.64c4.07-3.51,6.37-8.46,8.24-13.32.09-.24.18-.46.25-.69A3.11,3.11,0,0,0,288.41,364.46Zm-26.34,50.11c2.6,1.22,4.09,1.88,4.09,1.88l.08-.06C264.86,415.77,263.46,415.17,262.07,414.57Z" transform="translate(-51.95 -129.24)"/><path class="cls-5" d="M253.82,407.77c10.06-10.94,20.9-21.2,31.92-31.21q4.67-4.24,9.54-8.28c.09-.07.23,0,.14.13-5.14,5.36-10.49,10.5-15.82,15.68s-10.73,10.35-16.22,15.39c-3.1,2.85-6.19,5.7-9.35,8.48C253.89,408.08,253.69,407.91,253.82,407.77Z" transform="translate(-51.95 -129.24)"/><path class="cls-11" d="M286.9,396.77l-20.74,19.68s-33.13-14.7-58-32.42c-10.14-7.21-11.89-13.31-7.64-17.69Z" transform="translate(-51.95 -129.24)"/><path class="cls-8" d="M283.56,551.92H116.8S153,412.05,186.54,372.67c.75-.91,1.53-1.76,2.3-2.57.16-.18.3-.32.46-.48a35.59,35.59,0,0,1,8.95-6.92c.59-.32,1.18-.62,1.79-.88,12.92-5.94,26.55-1,36.39,7.4,3.13,2.68,38.47,48.66,41.6,66.19,2.7,15.48-7.76,32.11-7.76,32.11Z" transform="translate(-51.95 -129.24)"/><path class="cls-5" d="M245.25,461.53a144.38,144.38,0,0,0-21.07,3.65c-3.43.91-6.79,2-10.15,3.12-1.67.56-3.35,1.07-5,1.58a23.43,23.43,0,0,1-5.43,1.07.13.13,0,0,0,0,.25,38.08,38.08,0,0,0,5.23-.14,36.86,36.86,0,0,0,5-1c3.49-.89,6.93-1.94,10.4-2.86,7-1.87,14-3.74,21.16-5.09C245.67,462.05,245.58,461.49,245.25,461.53Z" transform="translate(-51.95 -129.24)"/><path class="cls-5" d="M262.86,467.67a157.18,157.18,0,0,0-17.63-.69c-2.94.06-5.86.29-8.79.6-1.4.15-2.8.32-4.19.51s-3,.62-4.57.81c-.16,0-.16.27,0,.25,1.46-.13,2.94,0,4.4-.07l4.39-.15c2.94-.1,5.87-.16,8.8-.29,5.88-.25,11.72-.44,17.6-.49C263.19,468.15,263.16,467.7,262.86,467.67Z" transform="translate(-51.95 -129.24)"/><g class="cls-12"><path d="M229.26,444.64a2.26,2.26,0,0,1,1,3,1.72,1.72,0,0,1-1.29.72,2.8,2.8,0,0,1-1.73-.45l-12.5-8.54a.32.32,0,0,1-.23-.18l-.12-.06a1.1,1.1,0,0,1-.19-.25.25.25,0,0,1-.14-.12c-.06-.06-.09-.16-.14-.19s-.11-.13-.12-.16l-.07-.23c0-.07-.07-.1-.1-.2s0-.13,0-.16l-.07-.23c0-.07,0-.11,0-.14s0-.17,0-.27,0,0,0-.07,0-.24.07-.31,0-.07,0-.07a.43.43,0,0,1,.13-.25l6.37-10.21a2.18,2.18,0,0,1,3-.27,2.26,2.26,0,0,1,1,3l-5.39,8.57Z" transform="translate(-51.95 -129.24)"/><path d="M238.17,444.93l2-19.91a1.54,1.54,0,0,1,2.14-1.17,2.27,2.27,0,0,1,1.7,2.25L242,446a1.41,1.41,0,0,1-1.36,1.24,1.77,1.77,0,0,1-.71-.07A2.31,2.31,0,0,1,238.17,444.93Z" transform="translate(-51.95 -129.24)"/><path d="M263.51,434.72s0,0,0,0a1.22,1.22,0,0,1-.16.26L257,445.22a1.68,1.68,0,0,1-1.31.72,2.7,2.7,0,0,1-1.71-.45,2.27,2.27,0,0,1-1-3l5.39-8.57-10.53-7.15a2.25,2.25,0,0,1-1-3,2.18,2.18,0,0,1,3-.27l12.49,8.53a2.08,2.08,0,0,1,.31.21s.06.06.06.06a2.91,2.91,0,0,1,.26.29s.05,0,.06.06a1.68,1.68,0,0,0,.2.28s0,0,.06.1l.08.23s.07.13.08.16,0,.14,0,.17l.09.26s0,0,0,.07,0,.24,0,.31,0,0,0,.1S263.54,434.58,263.51,434.72Z" transform="translate(-51.95 -129.24)"/></g><path class="cls-10" d="M273.83,490.14a4.84,4.84,0,0,1-.71.38l-1.39.65c-.47.2-1,.33-1.45.51a17.71,17.71,0,0,1-3,.71,15.24,15.24,0,0,1-6.12-.39,9.32,9.32,0,0,1-2.73-1.5,10.61,10.61,0,0,1-2.06-2.33,19.4,19.4,0,0,1-2.47-5.59,56.79,56.79,0,0,1-1.74-12c0-.7-.06-1.41-.07-2.11,0-.26,0-.52,0-.79-.2-7.11.15-14.21.53-21.3.43-8.05,1-16.08,1.19-24.13.08-3.54.09-7.09-.11-10.61,0-.16,0-.32,0-.48,0-.32,0-.63-.06-.95a38.17,38.17,0,0,0-2.35-11.7,10.15,10.15,0,0,0-3.54-4.58,7.34,7.34,0,0,0-2.69-1,22.07,22.07,0,0,0-3-.11,40.31,40.31,0,0,0-11.72,2.36,76.66,76.66,0,0,0-7.5,3.14l-.57.26c-4.61,2.22-9.05,4.79-13.45,7.41-6.92,4.12-13.73,8.44-20.89,12.18-2.44,1.26-4.91,2.46-7.43,3.51l-.3.13c-1.09.45-2.2.88-3.33,1.27A39.44,39.44,0,0,1,165,425.45a21.89,21.89,0,0,1-6.6-.87c0-.11.07-.19.11-.28a22.22,22.22,0,0,0,6.49.8,39.4,39.4,0,0,0,11.73-2.44c1.1-.39,2.19-.82,3.27-1.26l.31-.13c2.53-1.06,5-2.25,7.42-3.52,7.12-3.74,13.91-8.08,20.84-12.23,4.28-2.54,8.62-5.07,13.12-7.27l.55-.28a84.65,84.65,0,0,1,7.9-3.35,41.65,41.65,0,0,1,11.9-2.42,21.29,21.29,0,0,1,3.07.12,7.6,7.6,0,0,1,2.9,1.11,10.59,10.59,0,0,1,3.77,4.83,38.34,38.34,0,0,1,2.43,11.88c0,.42.06.85.07,1.27a2.48,2.48,0,0,1,0,.47c.2,3.46.2,6.92.15,10.37-.16,8.08-.72,16.12-1.16,24.17-.36,6.78-.71,13.56-.58,20.32,0,.26,0,.53,0,.79,0,1,.06,2,.1,3a56.15,56.15,0,0,0,1.68,11.86,18.81,18.81,0,0,0,2.37,5.42,10.69,10.69,0,0,0,1.94,2.19,8.63,8.63,0,0,0,2.53,1.41,14.55,14.55,0,0,0,5.85.39,19.58,19.58,0,0,0,2.89-.69c.47-.17.93-.3,1.4-.49l1.35-.62.87-.45Zm4.07-55.34a127.79,127.79,0,0,0-9.16,10.2c-5.67,7-10.83,14.38-16,21.74l-.66.93c-.64.92-1.3,1.83-1.94,2.75-3.6,5.07-7.24,10.16-11.09,15-.1.14-.21.28-.32.41-2.55,3.2-5.18,6.32-8,9.28A72.62,72.62,0,0,1,219,505.47a32.65,32.65,0,0,1-3.29,2.1c-1.11.71-2.29,1.26-3.45,1.86a11.07,11.07,0,0,1-7.43,1.14,15.2,15.2,0,0,1-6.68-3.7A36.37,36.37,0,0,1,193,501a99,99,0,0,1-7.95-13.5c-4.68-9.38-8.67-19.09-12.79-28.73s-8.32-19.32-13.53-28.46c-.51-.89-1-1.77-1.58-2.65-.1.25-.2.51-.31.76.46.73.89,1.48,1.32,2.22,5.17,9.1,9.29,18.78,13.42,28.42s8.16,19.34,12.88,28.74a100.3,100.3,0,0,0,8,13.58,37,37,0,0,0,5.26,5.92,15.55,15.55,0,0,0,7,3.81,11.66,11.66,0,0,0,7.8-1.19c1.19-.6,2.38-1.17,3.49-1.87s2.25-1.38,3.33-2.14a75.8,75.8,0,0,0,11.84-10.43c2.77-3,5.4-6.08,7.92-9.26.11-.13.22-.28.32-.41,3.88-4.92,7.52-10,11.13-15.15l1.58-2.24.64-.93c5.29-7.54,10.52-15.11,16.32-22.27a127.45,127.45,0,0,1,8.93-10C278,435.12,277.94,435,277.9,434.8ZM197.83,540.33c-6.51-8.21-12.91-16.57-20-24.34S163,500.88,153.42,496.32a35.88,35.88,0,0,0-7.5-2.42,36.5,36.5,0,0,0-3.91-.59,37.19,37.19,0,0,0-3.95-.07,33,33,0,0,0-4.31.38l-.08.26a32.53,32.53,0,0,1,4.41-.38c1.3-.08,2.6.05,3.91.09a33.36,33.36,0,0,1,3.86.62,34.5,34.5,0,0,1,7.42,2.44c9.47,4.54,17.26,11.9,24.27,19.62S191,532.4,197.45,540.62c3,3.8,6.05,7.6,9.19,11.31h.68C204.07,548.13,201,544.23,197.83,540.33Zm80.12-24c-1,2.69-2,5.36-3,8-3.34,9.22-6.57,18.48-10.38,27.51h.73c3.78-9,7-18.13,10.34-27.26.83-2.28,1.68-4.58,2.53-6.85ZM262.72,531c-.14-.76-.25-1.54-.41-2.31l-.53-2.28c-.31-1.52-.79-3-1.21-4.51a80.63,80.63,0,0,0-7.47-17.11,121.23,121.23,0,0,0-13.7-19,3.23,3.23,0,0,1-.35-.4c-2.94-3.37-6-6.61-9.09-9.81-8.71-8.9-17.88-17.3-26.65-26.11-4.37-4.41-8.65-8.91-12.71-13.62-1-1.17-2-2.35-3-3.55s-2-2.41-2.86-3.66a45.91,45.91,0,0,1-4.22-7.06,1.41,1.41,0,0,1-.18-.37,5.23,5.23,0,0,1-.29-.58,44.73,44.73,0,0,1-4-18,58.64,58.64,0,0,1,2.8-18.33c.22-.71.47-1.44.72-2.14-.12.17-.22.35-.34.52-.19.53-.37,1-.53,1.58a58.81,58.81,0,0,0-2.9,18.37,45,45,0,0,0,4,18.14,4.43,4.43,0,0,0,.27.58,1.62,1.62,0,0,0,.19.37,47.56,47.56,0,0,0,4.23,7.14c.9,1.28,1.88,2.49,2.87,3.69s2,2.39,3,3.56c4.06,4.72,8.34,9.23,12.71,13.66,8.77,8.83,17.93,17.26,26.59,26.14,3.13,3.21,6.19,6.51,9.12,9.9l.35.4a120.16,120.16,0,0,1,13.56,18.83,81.79,81.79,0,0,1,7.39,17c.41,1.5.87,3,1.18,4.48l.53,2.27c.14.76.26,1.53.41,2.29a31.29,31.29,0,0,1-2.91,20.79h.7a32,32,0,0,0,3.32-11.54A32.54,32.54,0,0,0,262.72,531ZM271,418.6l-.81-.39c-5.2-2.49-10.5-4.69-15.85-6.8l-.64-.26c-4.63-1.83-9.29-3.6-13.91-5.42-5.09-2-10.14-4.12-15.05-6.52-.61-.3-1.24-.61-1.85-.93l-.59-.31a71,71,0,0,1-11.53-7.25,38,38,0,0,1-10.57-12.25,28.5,28.5,0,0,1-2.75-7.62,26.84,26.84,0,0,1-.41-7.43,6.76,6.76,0,0,0-.61.38,28.24,28.24,0,0,0,.45,7.16,29.69,29.69,0,0,0,2.83,7.77,38.66,38.66,0,0,0,10.74,12.4,73.29,73.29,0,0,0,11.3,7.12l.57.29c.73.38,1.46.75,2.2,1.11,4.94,2.41,10,4.49,15.09,6.5,4.69,1.86,9.43,3.63,14.12,5.48.22.07.42.16.64.25,5.29,2.07,10.52,4.24,15.65,6.69l1.31.63C271.18,419,271.06,418.8,271,418.6Z" transform="translate(-51.95 -129.24)"/><path class="cls-9" d="M180.47,376.25C151.57,406,82,518.51,103.45,539.92s141.05,8,174,1.68c11-2.11-15.45-74.7-27.32-76.4-9.88-1.42-68.27,9.9-70.29,7.33-1.63-2.08,10.1-29.28,23.14-73C218,349,193.23,363.1,180.47,376.25Z" transform="translate(-51.95 -129.24)"/><path class="cls-9" d="M306.75,455.49c24.85.32,31.18,4.22,52.29-6.65,13.86-7.13,24.36-1.34,15,11.92-15.23,21.7-47.37,28-59.15,27Z" transform="translate(-51.95 -129.24)"/><path class="cls-9" d="M238.55,469.06s29.65-11,56.16-13.29c18.34-1.58,58.61-.56,90.47,44.19,7.55,10.61,10.79,31.09-7.84,18.24-13.24-9.13-18.88-18.92-27.54-22.82,0,0,1,26.54-9.9,33.69-4.89,3.2-18.42,11.61-29.89,16.66a50.77,50.77,0,0,1-3.62-5.31s-10.84,5.72-28.91,1.18Z" transform="translate(-51.95 -129.24)"/><path class="cls-9" d="M312.45,457.06c7.79,5.7,24.08,18.05,33.89,32.79,10.9,16.37,27.48,50.85,15.31,58.77-8.92,5.81-16.41-6.8-16.41-6.8s3.85,15.69-5.35,19.18c-8.39,3.17-13.6-6.93-13.6-6.93s.7,9.93-8,11.43c-10.43,1.8-10.18-19.29-22.32-26.59C293.26,537.27,312.45,457.06,312.45,457.06Z" transform="translate(-51.95 -129.24)"/><path class="cls-5" d="M327.12,498.48c6.44,6.56,17.25,25.21,18.31,43,0,.4-.26.63-.36.27A193.41,193.41,0,0,0,327,498.58C326.91,498.49,327.05,498.41,327.12,498.48Z" transform="translate(-51.95 -129.24)"/><path class="cls-5" d="M310.91,510c5,6.23,15.26,25.95,15.72,44,0,.4-.3.61-.38.25-4.74-20.42-11.81-37-15.5-44.16C310.7,510,310.85,509.88,310.91,510Z" transform="translate(-51.95 -129.24)"/><path class="cls-5" d="M349.83,495.22c7.57,3.54,12.13,8.22,18.12,13.88a109.75,109.75,0,0,0,9.22,8c3,2.24,7.33,5.6,11.19,3.39,2.14-1.23,2.54-4,2.45-6.25A17.89,17.89,0,0,0,389,507c-.06-.11.14-.22.2-.1a23.7,23.7,0,0,1,2.38,6.36,10.65,10.65,0,0,1-.22,6.3c-1.84,4.19-7.08,4-10.55,2.22a35.48,35.48,0,0,1-5.78-4c-1.75-1.4-3.44-2.88-5.08-4.4-3.39-3.12-6.58-6.43-9.93-9.59a104.89,104.89,0,0,0-10.33-8.34C349.53,495.36,349.68,495.15,349.83,495.22Z" transform="translate(-51.95 -129.24)"/><path class="cls-5" d="M362.18,525.64c-1.37-4.83-9.61-25.35-12.55-30.26a.12.12,0,0,1,.19-.13c5.29,6.8,12.85,23.87,14.4,29.21s3.21,12,2.38,17.47c-1.26,8.29-7,9-9.09,9.11a10.85,10.85,0,0,1-6.88-2.23c-2.23-1.62-4.18-4.58-5.47-7-.07-.12.1-.25.18-.13,2.38,3.7,6.66,7.65,11.25,7.75a7.61,7.61,0,0,0,5.54-2c1.7-1.68,2.19-4.17,2.35-6.47C364.83,535.79,363.58,530.61,362.18,525.64Z" transform="translate(-51.95 -129.24)"/><path class="cls-5" d="M326.63,554c1,1.16,2.85,5,6.52,6.27,2.68.95,5.6,1.13,8-.55a10.89,10.89,0,0,0,4.13-7.08c.32-1.57.1-8.56-.14-10.7,0-.16.19-.21.22,0,.64,3.84,1.32,8,.78,11.6a11.49,11.49,0,0,1-4.43,7.78,8.57,8.57,0,0,1-8.95.47c-1.39-.77-5.6-4.47-6.5-7.63C326.27,554,326.59,553.9,326.63,554Z" transform="translate(-51.95 -129.24)"/><path class="cls-5" d="M297,537.54a20.88,20.88,0,0,1,3.06,3.5c1,1.3,1.93,2.63,2.85,4a46.86,46.86,0,0,1,4.53,8.72c1.25,3.07,2.31,6.43,4.74,8.81a7.85,7.85,0,0,0,9,1.6,7.72,7.72,0,0,0,3.47-3.77,14.8,14.8,0,0,0,1.39-5.57.12.12,0,1,1,.23,0,26.62,26.62,0,0,1-.38,5.2,9.15,9.15,0,0,1-2.29,4.11A8.72,8.72,0,0,1,314.7,566c-3.36-1.16-5.51-4.15-7-7.25-1.61-3.45-2.82-7.06-4.59-10.44-.94-1.78-1.85-3.58-2.9-5.29s-2.5-3.44-3.48-5.28A.16.16,0,0,1,297,537.54Z" transform="translate(-51.95 -129.24)"/><path class="cls-5" d="M286.22,543.13A71.37,71.37,0,0,0,300,542.4c.14,0,.28.4.14.45a32.3,32.3,0,0,1-6.91,1.17,23.94,23.94,0,0,1-7-.64C286.1,543.35,286.07,543.12,286.22,543.13Z" transform="translate(-51.95 -129.24)"/><path class="cls-5" d="M120.11,497.48a176.63,176.63,0,0,1,22.52-12.3,172.2,172.2,0,0,1,23.82-8.7c4.63-1.37,9.32-2.52,14-3.7a.12.12,0,0,1,.05.23,221.46,221.46,0,0,0-24.05,8.5q-11.73,4.8-23.28,10c-4.35,2-8.61,4.15-12.9,6.26A.17.17,0,0,1,120.11,497.48Z" transform="translate(-51.95 -129.24)"/><path class="cls-8" d="M121.1,446.65l68.76-.95S203.31,412,208.76,382s-19.44-21.35-45.87,10.46S121.1,446.65,121.1,446.65Z" transform="translate(-51.95 -129.24)"/><path class="cls-10" d="M202.13,409.44c-.06.22-.12.44-.19.66-4.6,2.79-9.22,5.53-14,8-2.44,1.26-4.91,2.46-7.43,3.51l-.3.13c-1.09.45-2.2.88-3.33,1.27A39.44,39.44,0,0,1,165,425.45a22,22,0,0,1-11.28-2.82,3,3,0,0,1-.35-.19c-.38-.22-.75-.44-1.11-.67a31.43,31.43,0,0,1-7.44-7l.11-.15a30.73,30.73,0,0,0,6.79,6.44,16.36,16.36,0,0,0,1.62,1l.16.1A22.07,22.07,0,0,0,165,425.1a39.4,39.4,0,0,0,11.73-2.44c1.1-.39,2.19-.82,3.27-1.26l.31-.13c2.53-1.06,5-2.25,7.42-3.52C192.65,415.18,197.39,412.32,202.13,409.44Zm-43.42,20.91a78.54,78.54,0,0,0-5-7.72l-.38-.52a47,47,0,0,0-3.9-4.55,24,24,0,0,0-4.13-3.4l-.38.48A23.82,23.82,0,0,1,149,418c1,1,1.87,2,2.73,3.06l.54.69a74.39,74.39,0,0,1,5.86,8.91c2.83,5,5.35,10.13,7.71,15.36l.76,0C164.19,440.69,161.62,435.43,158.71,430.35Zm31.89,5.56c-1-1.17-2-2.35-3-3.55s-2-2.41-2.86-3.66a45.91,45.91,0,0,1-4.22-7.06,1.41,1.41,0,0,1-.18-.37,5.23,5.23,0,0,1-.29-.58,44.73,44.73,0,0,1-4-18,58.64,58.64,0,0,1,2.8-18.33,84.63,84.63,0,0,1,5.29-12.9.73.73,0,0,0-.18.14,83.49,83.49,0,0,0-5.26,12.72,58.81,58.81,0,0,0-2.9,18.37,45,45,0,0,0,4,18.14,4.43,4.43,0,0,0,.27.58,1.62,1.62,0,0,0,.19.37,47.56,47.56,0,0,0,4.23,7.14c.9,1.28,1.88,2.49,2.87,3.69s2,2.39,3,3.56c.73.85,1.46,1.68,2.21,2.51l.16-.41C192,437.49,191.29,436.7,190.6,435.91Zm9.56-57.44a28.5,28.5,0,0,1-2.75-7.62,27.26,27.26,0,0,1-.47-6.63,5.12,5.12,0,0,0-.58.21,27.06,27.06,0,0,0,.48,6.53,29.69,29.69,0,0,0,2.83,7.77,36.5,36.5,0,0,0,7.76,9.89c0-.19.09-.39.13-.6A35.77,35.77,0,0,1,200.16,378.47Z" transform="translate(-51.95 -129.24)"/><path class="cls-5" d="M187,445.42c.37,0,2.8-.38,2.81-.38.19-.89,4.38-15,5.47-18.06,2.22-6.25,4.81-12.38,7.31-18.52a.17.17,0,0,1,.32.11c-1.66,5.28-3.22,10.61-4.91,15.89.49-.74,1-1.49,1.45-2.25,1-1.56,1.81-3.18,2.71-4.77a.14.14,0,0,1,.25.12,26.83,26.83,0,0,1-3.15,6.26,23.74,23.74,0,0,1-1.83,2.4c-.15.44-.28.88-.43,1.31-1,3.09-6.37,18.34-6.62,18.35H187.1C186.91,445.88,186.85,445.41,187,445.42Z" transform="translate(-51.95 -129.24)"/><path class="cls-5" d="M132.48,433.56c14.84-.82,29.76-.61,44.64-.1q6.31.23,12.61.73c.12,0,.14.19,0,.19-7.43.25-14.85.2-22.28.2s-14.91-.08-22.36-.29c-4.21-.12-8.41-.24-12.61-.45C132.32,433.83,132.29,433.57,132.48,433.56Z" transform="translate(-51.95 -129.24)"/><path class="cls-9" d="M206,363.23c.5,2.95,13.27,22.66,26.6,22.83,4.34.05,5.66-23.64,5.66-23.64l.5-1.73,6.93-24.18L218,316.33l-4-2.69s-1.46,6.74-3.19,15.15c-.09.39-.17.78-.25,1.2s-.22.92-.3,1.36c-.28,1.25-.56,2.54-.8,3.82-.2,1-.39,1.92-.56,2.95s-.35,2-.55,3.06C206.63,351.37,205.76,362,206,363.23Z" transform="translate(-51.95 -129.24)"/><path class="cls-5" d="M210.76,328.79a50.43,50.43,0,0,0,28,31.9l6.93-24.18L218,316.33l-4-2.69S212.49,320.38,210.76,328.79Z" transform="translate(-51.95 -129.24)"/><path class="cls-9" d="M276.43,288.14c12.46,42.35-11.49,54.6-20.63,57.28-8.29,2.43-36.83,9.65-53.61-31.18s-1-60,17.65-66.58S264,245.79,276.43,288.14Z" transform="translate(-51.95 -129.24)"/><path class="cls-5" d="M268.3,282.59a25.81,25.81,0,0,1-3,.17,4.9,4.9,0,0,1-3.14-.41,1.57,1.57,0,0,1-.5-1.85c.65-1.34,2.07-1.76,3.47-1.89a5.72,5.72,0,0,1,4,1A1.67,1.67,0,0,1,268.3,282.59Z" transform="translate(-51.95 -129.24)"/><path class="cls-5" d="M239.78,290.55a27.84,27.84,0,0,0,2.72-1.39,5,5,0,0,0,2.5-1.94,1.58,1.58,0,0,0-.51-1.85c-1.23-.83-2.67-.48-3.94.13a5.72,5.72,0,0,0-2.94,2.89A1.67,1.67,0,0,0,239.78,290.55Z" transform="translate(-51.95 -129.24)"/><path class="cls-5" d="M247.62,299.36c-.05-.11-.18.2-.14.32.94,2.85,1.54,6.28-.78,8-.07.05,0,.19.07.15C249.82,306.45,249,301.91,247.62,299.36Z" transform="translate(-51.95 -129.24)"/><path class="cls-5" d="M244.16,297.11c-4.74,1-2.35,10.42,2,9.48S248.13,296.25,244.16,297.11Z" transform="translate(-51.95 -129.24)"/><path class="cls-5" d="M242.44,298.07c-.69.74-1.25,1.89-2.22,2.24-1.12.4-2.23-.36-3.22-1.12-.1-.08-.16,0-.13.15.43,1.81,1.59,3.48,3.59,3.26,1.82-.2,2.68-2.12,2.67-4.05C243.13,298.2,242.72,297.77,242.44,298.07Z" transform="translate(-51.95 -129.24)"/><path class="cls-5" d="M264.68,294.31c0-.11.26.09.29.21.62,2.94,1.83,6.2,4.71,6.52.09,0,.12.16,0,.17C266.36,301.55,264.8,297.2,264.68,294.31Z" transform="translate(-51.95 -129.24)"/><path class="cls-5" d="M266.54,290.62c4.6-1.5,7.28,7.82,3,9.22S262.67,291.89,266.54,290.62Z" transform="translate(-51.95 -129.24)"/><path class="cls-5" d="M268.66,290.68c.88.28,1.86,1,2.76.78s1.5-1.46,1.88-2.61c0-.12.13-.06.17.06.56,1.77.51,3.79-1.11,4.63s-3.06-.44-4-2.09C268.19,291.14,268.3,290.57,268.66,290.68Z" transform="translate(-51.95 -129.24)"/><path class="cls-5" d="M254,324c.85.55,1.75,1.35,2.83,1.22a7.8,7.8,0,0,0,3-1.39c.09-.05.2,0,.16.12a4,4,0,0,1-3.4,2.37,3.21,3.21,0,0,1-2.86-2.12C253.69,324,253.91,323.91,254,324Z" transform="translate(-51.95 -129.24)"/><path class="cls-5" d="M263.72,309.3s1.76,4.18,2.3,6.23c.05.19-7,3.71-11.6-.45a.22.22,0,0,1,.23-.37c3.23,1.26,6.34,1,9.56.18,0-.61-3.24-7.06-2.92-7.17,1.09-.39,3.49-.22,4.92-.18-3.4-8.81-8.19-17-11.45-25.83a.29.29,0,0,1,.5-.27c5.63,8.23,9.77,18.28,13.52,27.29C269.25,309.85,264.63,309.43,263.72,309.3Z" transform="translate(-51.95 -129.24)"/><path class="cls-5" d="M263.66,315.59a10.9,10.9,0,0,1-3,4.63,4.91,4.91,0,0,1-2.75,1.15c-2.22.17-2.92-1.68-3.1-3.4a11.49,11.49,0,0,1,.06-2.77A14.1,14.1,0,0,0,263.66,315.59Z" transform="translate(-51.95 -129.24)"/><path class="cls-13" d="M260.65,320.22a4.91,4.91,0,0,1-2.75,1.15c-2.22.17-2.92-1.68-3.1-3.4C257.05,317.43,259.73,318.16,260.65,320.22Z" transform="translate(-51.95 -129.24)"/><path class="cls-5" d="M204.32,319.59c8.81-6.26,7.43-16.41,7.43-16.41a47.51,47.51,0,0,0,16.34-18.77c-.13.95-1.08,7.81-1.68,11.29,26.7-10.1,31.47-32.76,31.47-32.76,10.56,7.34,13.37,12.74,15.17,15.36,0,0-2.82-17-13.56-26.77-13.14-12-27.22-6.75-27.22-6.75a39.65,39.65,0,0,0-36,18.54C181.79,286.07,204.32,319.59,204.32,319.59Z" transform="translate(-51.95 -129.24)"/><path class="cls-5" d="M246.59,287.37a51.69,51.69,0,0,1-13.24,7.74s-.06-.05,0-.06a44,44,0,0,0,18.08-15.88,41.39,41.39,0,0,0,4.48-9.4c1.14-3.46,2.13-7.52,1.79-11.18a.22.22,0,0,1,.43,0c.36,3.87.65,7.44-.25,11.27a30.7,30.7,0,0,1-4.5,10.24,35.07,35.07,0,0,1-6.77,7.31" transform="translate(-51.95 -129.24)"/><path class="cls-8" d="M245.33,314.8a13,13,0,1,1,9.9-17.91h0a13,13,0,0,1-9.9,17.91Zm-3.76-23.9a11,11,0,0,0-2.68.77,11.24,11.24,0,1,0,2.68-.77Z" transform="translate(-51.95 -129.24)"/><path class="cls-8" d="M273.94,306.64c-4.9.77-10.14-3.55-12-10.06a15.46,15.46,0,0,1,.2-9.47,8.07,8.07,0,0,1,13.31-3.72,15.43,15.43,0,0,1,5.08,8c1.92,6.88-.68,13.65-5.8,15.08A6.16,6.16,0,0,1,273.94,306.64Zm-5-23.62c-.22,0-.43.08-.65.14a6.94,6.94,0,0,0-4.45,4.55,13.77,13.77,0,0,0-.15,8.4c1.67,6,6.43,9.87,10.65,8.68s6.27-7,4.6-12.94a13.73,13.73,0,0,0-4.48-7.1A7.16,7.16,0,0,0,268.9,283Z" transform="translate(-51.95 -129.24)"/><path class="cls-8" d="M255.22,298.45l-1.43-1c1.44-2.12,5.23-5.48,9.19-3.07l-.9,1.48C258.53,293.71,255.35,298.26,255.22,298.45Z" transform="translate(-51.95 -129.24)"/><path class="cls-8" d="M200.49,317.21l-1.7-.35c.16-.79,1.71-7.78,5.26-9.43,3.33-1.53,26.29-5.69,27.27-5.86l.3,1.7c-6.58,1.19-24.27,4.54-26.84,5.73C202.43,310.09,200.89,315.3,200.49,317.21Z" transform="translate(-51.95 -129.24)"/><path class="cls-9" d="M210.08,312.51s-12.18-11.6-17.62-7,5.61,22.75,13.35,24a7.47,7.47,0,0,0,9-5.92Z" transform="translate(-51.95 -129.24)"/><path class="cls-5" d="M195.76,310.64c-.12,0-.11.18,0,.2,5.46,1,9.06,5.16,11.9,9.64-1.88-1.57-4.13-2.17-6.27.12-.11.12.06.3.19.24a4.6,4.6,0,0,1,5.28.57,22.19,22.19,0,0,1,3.18,3.52c.33.41,1.09,0,.81-.48l-.06-.11C209.61,317.88,202.79,309.89,195.76,310.64Z" transform="translate(-51.95 -129.24)"/><path class="cls-5" d="M200.48,366.34c1.75,2.24,3.55,4.43,5.45,6.53s3.8,4.19,5.84,6.14c4.07,3.86,8.45,7.58,13.56,9.72a15,15,0,0,0,7.92,1.33,4.8,4.8,0,0,0,3.34-1.62,10.67,10.67,0,0,0,1.93-3.49,31.35,31.35,0,0,0,1.52-8.22,44.39,44.39,0,0,0,0-8.47,38.43,38.43,0,0,1,.76,8.5,32,32,0,0,1-1.17,8.55,10.61,10.61,0,0,1-2.05,4,5.72,5.72,0,0,1-1.86,1.47,8.39,8.39,0,0,1-2.23.62,16.21,16.21,0,0,1-8.69-1.29,35.53,35.53,0,0,1-7.41-4.51A56.32,56.32,0,0,1,211,379.8,85.15,85.15,0,0,1,200.48,366.34Z" transform="translate(-51.95 -129.24)"/><rect class="cls-6" x="49.85" y="114.19" width="76.8" height="34.5"/><g class="cls-14"><rect class="cls-10" x="314.41" y="27.31" width="228.15" height="159.84"/><path class="cls-1" d="M595.38,317.25H365.5V155.69H595.38Zm-228.15-1.72H593.65V157.42H367.23Z" transform="translate(-51.95 -129.24)"/><rect class="cls-6" x="314.41" y="27.31" width="228.15" height="16.5"/><path class="cls-1" d="M595.38,173.92H365.5V155.69H595.38Zm-228.15-1.73H593.65V157.42H367.23Z" transform="translate(-51.95 -129.24)"/><path class="cls-8" d="M381.86,164.92a4.16,4.16,0,1,1-4.16-4.15A4.16,4.16,0,0,1,381.86,164.92Z" transform="translate(-51.95 -129.24)"/><path class="cls-1" d="M398.82,164.92a4.16,4.16,0,1,1-4.16-4.15A4.16,4.16,0,0,1,398.82,164.92Z" transform="translate(-51.95 -129.24)"/><path class="cls-10" d="M415.78,164.92a4.16,4.16,0,1,1-4.16-4.15A4.16,4.16,0,0,1,415.78,164.92Z" transform="translate(-51.95 -129.24)"/><rect class="cls-1" x="332.11" y="76.65" width="8.82" height="3.22"/><rect class="cls-1" x="347.37" y="76.65" width="101.21" height="3.22"/><rect class="cls-8" x="454" y="76.65" width="16.76" height="3.22"/><rect class="cls-4" x="474.41" y="76.65" width="28.97" height="3.22"/><rect class="cls-1" x="340.94" y="85.27" width="8.82" height="3.22"/><rect class="cls-4" x="355.97" y="85.27" width="66.42" height="3.22"/><rect class="cls-4" x="347.37" y="111.15" width="63.44" height="3.22"/><rect class="cls-8" x="355.97" y="93.9" width="44.51" height="3.22"/><rect class="cls-4" x="465.21" y="102.53" width="16.98" height="3.22"/><rect class="cls-4" x="405.42" y="93.9" width="71.08" height="3.22"/><rect class="cls-8" x="347.37" y="119.78" width="84.84" height="3.22"/><rect class="cls-8" x="472.54" y="85.27" width="45.98" height="3.22"/><rect class="cls-1" x="426.56" y="85.27" width="42.33" height="3.22"/><rect class="cls-1" x="479.83" y="93.9" width="28.57" height="3.22"/><rect class="cls-1" x="340.94" y="93.9" width="8.82" height="3.22"/><rect class="cls-4" x="332.11" y="102.53" width="8.82" height="3.22"/><rect class="cls-1" x="347.37" y="102.53" width="52.15" height="3.22"/><rect class="cls-1" x="414.4" y="111.15" width="56.36" height="3.22"/><rect class="cls-8" x="474.41" y="111.15" width="35.86" height="3.22"/><rect class="cls-8" x="404.82" y="102.53" width="56.29" height="3.22"/><rect class="cls-1" x="332.11" y="111.15" width="8.82" height="3.22"/><rect class="cls-1" x="332.11" y="119.78" width="8.82" height="3.22"/><path class="cls-8" d="M389.52,197.4a.77.77,0,0,1,0,1.09.81.81,0,0,1-.53.22.84.84,0,0,1-.56-.22L385,195A.1.1,0,0,1,385,195l0,0a.21.21,0,0,1,0-.1.05.05,0,0,1,0-.05s0-.06,0-.07,0-.05,0-.06v-.08s0,0,0-.08l0-.06v-.08s0,0,0-.05a.38.38,0,0,1,0-.1s0,0,0,0,0-.09.06-.11,0,0,0,0,0-.06.08-.08l3.4-3.45a.79.79,0,0,1,1.09,0,.77.77,0,0,1,0,1.09l-2.87,2.89Z" transform="translate(-51.95 -129.24)"/><path class="cls-8" d="M392.6,197.79l3-7.07a.68.68,0,0,1,.88-.35.65.65,0,0,1,.34.86l-3,7.08a.66.66,0,0,1-.86.35A.67.67,0,0,1,392.6,197.79Z" transform="translate(-51.95 -129.24)"/><path class="cls-8" d="M402.65,194.94h0a.38.38,0,0,1-.09.09l-3.4,3.45a.79.79,0,0,1-.54.22.82.82,0,0,1-.55-.22.77.77,0,0,1,0-1.09l2.87-2.9-2.87-2.89a.77.77,0,0,1,0-1.09.79.79,0,0,1,1.09,0l3.4,3.45a.36.36,0,0,1,.09.08s0,0,0,0a.41.41,0,0,1,.06.11s0,0,0,0a.61.61,0,0,0,0,.11s0,0,0,0v.08l0,.06,0,.06v.1s0,0,0,0,0,.09,0,.11,0,0,0,0Z" transform="translate(-51.95 -129.24)"/></g><rect class="cls-8" x="273.39" y="161.28" width="52.03" height="34.5"/><path class="cls-10" d="M339.47,311.11a3.47,3.47,0,0,0,6.76-1.05v-10a1.4,1.4,0,0,1,2.79,0v10A6.25,6.25,0,0,1,336.83,312a1.39,1.39,0,0,1,2.64-.86Z" transform="translate(-51.95 -129.24)"/><path class="cls-10" d="M352.52,311.92a1.3,1.3,0,0,1,1.83-.18,8.21,8.21,0,0,0,4.8,1.93,5.41,5.41,0,0,0,3.14-.92,2.29,2.29,0,0,0,1.08-1.81,1.45,1.45,0,0,0-.23-.81,2.31,2.31,0,0,0-.75-.75A9.89,9.89,0,0,0,359,308.2h-.05a13.82,13.82,0,0,1-3.24-1,5.35,5.35,0,0,1-2.34-2,3.92,3.92,0,0,1-.58-2.06,4.67,4.67,0,0,1,2-3.67,7.47,7.47,0,0,1,4.35-1.33,9.88,9.88,0,0,1,5.48,2,1.3,1.3,0,0,1,.35,1.78,1.27,1.27,0,0,1-1.79.38,7.31,7.31,0,0,0-4-1.61,4.72,4.72,0,0,0-2.81.86,2,2,0,0,0-1,1.58,1.18,1.18,0,0,0,.18.7,2.38,2.38,0,0,0,.68.66,8.63,8.63,0,0,0,3.14,1.1h.05a14.49,14.49,0,0,1,3.46,1.06,5.87,5.87,0,0,1,2.52,2.08,4.14,4.14,0,0,1,.6,2.14,4.87,4.87,0,0,1-2.16,3.89,7.83,7.83,0,0,1-4.65,1.43,10.8,10.8,0,0,1-6.43-2.51A1.33,1.33,0,0,1,352.52,311.92Z" transform="translate(-51.95 -129.24)"/><path class="cls-10" d="M110.82,254.18c0-.17.13-.28.33-.28h4.94c1.93,0,3,.87,3,2.51v4.25c0,1.62-1,2.51-3,2.51h-2.47v4.38c0,.18-.1.28-.33.28h-2.14c-.2,0-.33-.1-.33-.28Zm4.61,6.69c.55,0,.82-.26.82-.7V256.9c0-.45-.27-.7-.82-.7h-1.81v4.67Z" transform="translate(-51.95 -129.24)"/><path class="cls-10" d="M129.9,253.9c.31,0,.45.16.33.4l-3.77,7.75v5.43c0,.23-.14.35-.41.35h-2c-.27,0-.41-.12-.41-.35v-5.43l-3.76-7.75c-.13-.24,0-.4.33-.4h2.05a.44.44,0,0,1,.47.28l2.31,5,2.3-5a.44.44,0,0,1,.47-.28Z" transform="translate(-51.95 -129.24)"/><path class="cls-10" d="M139.19,253.9c.22,0,.32.11.32.28v1.74c0,.18-.1.28-.32.28H136.8v11.35c0,.2-.1.28-.33.28h-2.13c-.21,0-.33-.08-.33-.28V256.2h-2.39c-.2,0-.33-.1-.33-.28v-1.74c0-.17.13-.28.33-.28Z" transform="translate(-51.95 -129.24)"/><path class="cls-10" d="M146.58,254.18c0-.17.13-.28.33-.28H149c.25,0,.35.11.35.28v13.37c0,.18-.1.28-.35.28h-2.12c-.2,0-.33-.1-.33-.28V262H144v5.53c0,.18-.12.28-.32.28h-2.12c-.25,0-.35-.1-.35-.28V254.18c0-.17.1-.28.35-.28h2.12c.2,0,.32.11.32.28v5.54h2.63Z" transform="translate(-51.95 -129.24)"/><path class="cls-10" d="M151.44,256.41c0-1.64,1-2.51,2.95-2.51h2.31c1.93,0,3,.87,3,2.51v8.91c0,1.64-1,2.51-3,2.51h-2.31c-1.93,0-2.95-.87-2.95-2.51Zm4.74,9.18c.54,0,.83-.23.83-.7v-8c0-.46-.29-.7-.83-.7H155c-.53,0-.82.24-.82.7v8c0,.47.29.7.82.7Z" transform="translate(-51.95 -129.24)"/><path class="cls-10" d="M170.16,253.9c.21,0,.33.11.33.28v13.37c0,.18-.12.28-.33.28h-2a.37.37,0,0,1-.37-.22l-3.14-7.44h-.1v7.38c0,.18-.11.28-.33.28H162c-.21,0-.33-.1-.33-.28V254.18c0-.17.12-.28.33-.28h2a.36.36,0,0,1,.37.23l3.12,7.4h.12v-7.35c0-.17.11-.28.33-.28Z" transform="translate(-51.95 -129.24)"/><path class="cls-15" d="M148.54,535.54s31.94-14.72,31.94-34.44-41.43-32.43-41.43-47.85,18.07-24.49,18.07-24.49-28.54,9.75-28.54,29.25,27.31,32.72,29.93,45.13C162.13,520.37,148.54,535.54,148.54,535.54Z" transform="translate(-51.95 -129.24)"/><path class="cls-15" d="M150.11,535.54S118.17,524,118.17,508.46,159.6,483,159.6,470.84s-18.07-19.26-18.07-19.26,28.54,7.67,28.54,23-31.36,25.88-33.61,38.34C134.26,525.13,150.11,535.54,150.11,535.54Z" transform="translate(-51.95 -129.24)"/><rect class="cls-7" x="81.72" y="455.91" width="30.39" height="4.74"/><rect class="cls-5" x="81.72" y="455.91" width="30.39" height="3.13"/><path class="cls-7" d="M97.61,572.4a17.21,17.21,0,0,0,17.11,7.32,17.49,17.49,0,0,0,3.08-.89,21.49,21.49,0,0,0,4.3-2.26l-3.86-5.72a14.13,14.13,0,0,1-2.28,1.29c-7.24,3.28-11.82-2.42-12.72-3.73-4.17-5.85-5.66-19.22-1.44-24.36.28-.38,1.5-1,6.39.05.91.21,1.93.44,3.09.76a12.16,12.16,0,0,0,2.78.59l.12-3.43.34-3.43c-.32-.06-.81-.2-1.45-.38a44.49,44.49,0,0,0-6.91-1.44c-3.6-.37-7.38.06-9.69,2.91C89.61,548.07,92.39,565.06,97.61,572.4Z" transform="translate(-51.95 -129.24)"/><path class="cls-5" d="M118.24,570.85a14.13,14.13,0,0,1-2.28,1.29l1.84,6.69a21.49,21.49,0,0,0,4.3-2.26Z" transform="translate(-51.95 -129.24)"/><path class="cls-5" d="M106.16,536.77l2,7.33c.91.21,1.93.44,3.09.76a12.16,12.16,0,0,0,2.78.59l.12-3.43.34-3.43c-.32-.06-.81-.2-1.45-.38A44.49,44.49,0,0,0,106.16,536.77Z" transform="translate(-51.95 -129.24)"/><path class="cls-7" d="M189.3,527.81s-3.65,31-10,44-15.08,14.48-20.54,14.48H138.94c-5.46,0-14.25-1.46-20.55-14.48s-9.94-44-9.94-44Z" transform="translate(-51.95 -129.24)"/><path class="cls-6" d="M185,553.54c-.63,2.85-1.32,5.67-2.08,8.32H114.85c-.76-2.65-1.45-5.47-2.08-8.32Z" transform="translate(-51.95 -129.24)"/><path class="cls-6" d="M182,565c-.47,1.48-.95,2.88-1.46,4.16H117.24c-.51-1.28-1-2.68-1.46-4.16Z" transform="translate(-51.95 -129.24)"/><path class="cls-6" d="M186.54,545.71c-.25,1.35-.51,2.74-.8,4.16H112c-.29-1.42-.55-2.81-.8-4.16Z" transform="translate(-51.95 -129.24)"/></svg>