<svg id="Слой_4" data-name="Слой 4" xmlns="http://www.w3.org/2000/svg" viewBox="0 0 624.9 418.08"><defs><style>.cls-1{fill:#ececec;}.cls-2{fill:#dcdcdc;}.cls-3{fill:#a8a8a8;}.cls-4{fill:#1a2e35;}.cls-5{fill:#e55f4e;}.cls-6{fill:#ffc800;}.cls-7{fill:#fff;}.cls-8{fill:#375a64;}.cls-9{fill:#2b454e;}.cls-10{opacity:0.1;}</style></defs><path class="cls-1" d="M547.79,339.6a7.13,7.13,0,0,1-5,12.22,7.54,7.54,0,0,1-5.2-2l-31.79-32.24c-.34-.11-.45-.34-.56-.67a1.59,1.59,0,0,0-.34-.23,2.82,2.82,0,0,1-.34-.91.59.59,0,0,1-.34-.45c-.11-.22-.11-.56-.23-.68,0-.34-.22-.45-.22-.56v-.79c0-.23-.11-.34-.11-.68,0-.12.11-.46.11-.57v-.79c0-.23.22-.34.22-.45.12-.34.12-.57.23-.91,0-.11.11-.11.11-.22a7.75,7.75,0,0,1,.57-1,.22.22,0,0,1,.22-.23,2.26,2.26,0,0,1,.68-.79l31.79-32.24a7.39,7.39,0,0,1,10.18,0,7.16,7.16,0,0,1,0,10.18l-26.81,27Z" transform="translate(-46.86 -151.93)"/><path class="cls-1" d="M576.63,343.22l27.72-66a6.28,6.28,0,0,1,8.26-3.28,6.11,6.11,0,0,1,3.16,8l-27.71,66.06a6.28,6.28,0,0,1-5.77,3.73,5.37,5.37,0,0,1-2.26-.45A6.13,6.13,0,0,1,576.63,343.22Z" transform="translate(-46.86 -151.93)"/><path class="cls-1" d="M670.52,316.64a.11.11,0,0,1-.11.11,5,5,0,0,1-.8.79l-31.78,32.24a7.37,7.37,0,0,1-10.18,0,7.16,7.16,0,0,1,0-10.18l26.81-27-26.81-27a7.16,7.16,0,0,1,0-10.18,7.39,7.39,0,0,1,10.18,0l31.78,32.24a6,6,0,0,1,.8.79c.11,0,.11.23.11.23a10.29,10.29,0,0,1,.56,1c0,.11.12.11.12.22a4.84,4.84,0,0,0,.34,1c0,.11.11.11.11.34V312c0,.11.11.45.11.57s-.11.45-.11.56V314c0,.11-.11.11-.11.22a9.81,9.81,0,0,0-.34,1c0,.11-.12.11-.12.34S670.74,316.19,670.52,316.64Z" transform="translate(-46.86 -151.93)"/><polygon class="cls-2" points="2.77 412.88 238.06 412.88 191.15 139.98 15.2 139.98 2.77 412.88"/><polygon class="cls-3" points="2.77 412.88 23.4 412.88 34.98 139.98 15.2 139.98 2.77 412.88"/><path class="cls-4" d="M297.51,391.2c-2.1,0-11.93.11-26.31.27-4.76-8.73-10.19-24.14-7-45.83.56-3.59-9.07,17-6.4,46-27.78.3-65.58.67-98.59.71-.26-12.21-1.08-23.5-1.08-23.5a130.37,130.37,0,0,1-6.1,23.53c-4.51,0-8.94,0-13.18,0,1.56-18.92-.83-52-.83-52a162.78,162.78,0,0,1-17.93,51.88c-21-.18-34.73-.67-33.81-1.6,32.76-34,10.17-54.11,20.13-84.3,11.94-36.18,45.18-41.54,45.05-68.83-.05-22.19-1.72-62.48,28.15-70.73,0,0,24.86-24.68,62.25-10.47,46.25,17.54,25.61,85.74,28.37,99.7,3.92,19.93,13.7,27.06,20.45,49.83,6.9,23-4.61,38.14-6.35,53.68S302.77,391.22,297.51,391.2Z" transform="translate(-46.86 -151.93)"/><path class="cls-4" d="M85.53,385.75c4.41-6.09,8.38-12.52,10.77-19.3,2.61-6.74,1.78-13.67.56-20.84s-2.71-14.42-3.17-22,.16-15.42,3-22.81a51.7,51.7,0,0,1,13.23-19.53c5.7-5.51,12.18-9.91,18.44-14.26s12.39-8.74,17.1-14.39a39.44,39.44,0,0,0,9-19.73,36.31,36.31,0,0,1-6.74,21.28c-4.46,6.41-10.56,11.52-16.57,16.25S119.11,279.75,114,285a49,49,0,0,0-11.49,17.69,54.17,54.17,0,0,0-2.84,20.65c.21,7.1,1.38,14.26,2.16,21.64a69.45,69.45,0,0,1,.41,11.31,31.67,31.67,0,0,1-3,11.24A64.73,64.73,0,0,1,85.53,385.75Z" transform="translate(-46.86 -151.93)"/><path class="cls-4" d="M267.55,182.11c3.38,8.46,4.45,17.59,5.54,26.55.91,9,1.36,18.06,1.7,27.07l.6,13.44A63.38,63.38,0,0,0,277.13,262c2.06,8.34,6.75,15.64,12.06,23.08a101,101,0,0,1,7.28,11.94,59.88,59.88,0,0,1,4.79,13.32,87.16,87.16,0,0,1,1.63,13.86,54.7,54.7,0,0,1-1.25,14c-1,4.61-2.51,9-3.79,13.25a65.73,65.73,0,0,0-2.6,13c-1,8.62,3.59,17.3,10.79,23-8-4.7-13.77-13.51-13.75-23.09a65.06,65.06,0,0,1,1.65-13.78c1-4.52,2.31-8.84,3-13.14,1.41-8.53.54-17.45-1.37-25.86a59.57,59.57,0,0,0-4.54-12,96.3,96.3,0,0,0-7-11.24,131.2,131.2,0,0,1-7.45-11.75,53.19,53.19,0,0,1-5.12-13.25A68,68,0,0,1,270,249.46c-.13-4.56-.07-9.08,0-13.59.08-9,.29-18,.11-27S269.56,190.92,267.55,182.11Z" transform="translate(-46.86 -151.93)"/><path class="cls-5" d="M207.91,345.7c15,65.22,45.3,147.81,68.72,164.46,18.9,13.45,118,37.12,123.54,37.72,13.68,1.38,40.71-95.29,26.52-99.21-17.87-4.95-102.81-7.59-107.65-12.56-5-5.19-35.92-47.05-70.92-95.54C224,307.06,198.62,305.23,207.91,345.7Z" transform="translate(-46.86 -151.93)"/><path class="cls-5" d="M389.19,542.57c1.63.82,24.77,12.46,39.08,16.61,10.68,3.1,41.65,11.18,46.23-.24,3.13-7.78-14.53-14.68-26.9-19.83-6.52-2.72-14.56-9.54-12.63-13.74,3.36-7.32,20.14,0,31.18,6.45,21.34,12.4,49.77,34.72,62.81,23.9,4.92-4.1-.8-11.55-9.17-18.86,13.58,8.52,28.07,15.5,33.72,11.17,3.24-2.46,3.39-5.85,1.59-9.71,4.19,1.36,7.9,1.09,10.48-1.64,4.42-4.62,2.27-11.44-2.57-18.43a5.24,5.24,0,0,0,4-2.64c9.36-14.25-37.44-55.18-53.63-59-47.62-11.32-98.27-7.19-98.27-7.19C396.41,464.35,389.15,542.53,389.19,542.57Z" transform="translate(-46.86 -151.93)"/><path class="cls-4" d="M459.21,498.73A80.86,80.86,0,0,1,491,511c12.07,8,20.08,17.29,30.21,26.68a.28.28,0,0,1-.38.42C516,533.6,496,516.82,490.81,513a77,77,0,0,0-31.64-14.08C459,498.9,459.08,498.71,459.21,498.73Z" transform="translate(-46.86 -151.93)"/><path class="cls-4" d="M468.08,478.53c12.52,3.42,25.34,6.88,37,12.8,12.71,6.47,22.66,17,32.44,27.2q8.81,9.15,17.21,18.69c.23.27-.12.69-.38.42q-14.88-15.74-30.71-30.58a101.69,101.69,0,0,0-33.7-21.24c-7.16-2.73-14.52-4.91-21.86-7.07C467.9,478.71,467.94,478.49,468.08,478.53Z" transform="translate(-46.86 -151.93)"/><path class="cls-4" d="M481.45,460.86c12.16,2.49,22.77,4.63,33.54,11.14,14.25,8.63,28,23.16,32.84,28.32,5.33,5.69,10.47,11.55,15.52,17.5.21.24-.21.6-.42.36a403.18,403.18,0,0,0-37.1-36.73A80.18,80.18,0,0,0,505.09,468c-7.57-3.26-15.67-5.1-23.66-7C481.38,460.93,481.4,460.84,481.45,460.86Z" transform="translate(-46.86 -151.93)"/><path class="cls-6" d="M318.31,426.6,227,422.73s-16.59-45.27-22.69-85.46,28.13-25.76,62.05,17.52S318.31,426.6,318.31,426.6Z" transform="translate(-46.86 -151.93)"/><path class="cls-7" d="M229.06,342.29a4.05,4.05,0,0,1-1.75.89,3.53,3.53,0,0,1-3.26-1,4.54,4.54,0,0,0-5-.86,4.43,4.43,0,0,0-1.87,1.64c-.42.63-.88,1.22-1.26,1.89.67-.38,1.26-.84,1.89-1.26a4.1,4.1,0,0,1,1.75-.93,3.45,3.45,0,0,1,3.25.84,4.61,4.61,0,0,0,5,1.05,4.46,4.46,0,0,0,1.92-1.59c.42-.63.88-1.22,1.26-1.92C230.27,341.43,229.69,341.9,229.06,342.29Zm5,42.27c-.15-.74-.23-1.49-.44-2.23-.21.74-.3,1.49-.47,2.23a4.21,4.21,0,0,1-.56,1.89,3.44,3.44,0,0,1-2.9,1.7,4.56,4.56,0,0,0-4.25,2.78,4.46,4.46,0,0,0-.25,2.5c.15.73.25,1.49.46,2.23.21-.74.3-1.5.44-2.23a4.07,4.07,0,0,1,.63-1.85,3.52,3.52,0,0,1,3-1.6,4.55,4.55,0,0,0,4.18-2.94A4.45,4.45,0,0,0,234.06,384.56Zm64.92,34a.65.65,0,0,1-.09.19,3.4,3.4,0,0,1-2.92,1.7,4.63,4.63,0,0,0-4.24,2.8,4,4,0,0,0-.3,2.25l1,0a4,4,0,0,1,.59-1.64,3.47,3.47,0,0,1,3-1.62,4.59,4.59,0,0,0,3.6-1.83v0C299.4,419.8,299.19,419.17,299,418.54Zm-37.9,3.89a4.13,4.13,0,0,1-1.74.93,3.42,3.42,0,0,1-3.24-.87,4.6,4.6,0,0,0-5-1,4.46,4.46,0,0,0-1.93,1.6,6.27,6.27,0,0,1-.42.59l1,0a4.42,4.42,0,0,1,1.74-.86,3.57,3.57,0,0,1,3.26,1,.57.57,0,0,0,.13.1l5.74.23a5,5,0,0,0,1-1.09c.42-.63.88-1.22,1.26-1.89C262.3,421.55,261.72,422,261.08,422.43Zm16.73-47.35a3.89,3.89,0,0,1-1.82-.61,3.46,3.46,0,0,1-1.6-3,4.58,4.58,0,0,0-2.94-4.19,4.63,4.63,0,0,0-2.48-.16c-.76.16-1.5.25-2.25.46.75.21,1.49.29,2.25.44a4.38,4.38,0,0,1,1.87.57,3.46,3.46,0,0,1,1.7,2.92,4.56,4.56,0,0,0,2.79,4.24,4.21,4.21,0,0,0,2.48.23c.76-.14,1.5-.23,2.23-.44C279.31,375.33,278.57,375.25,277.81,375.08Z" transform="translate(-46.86 -151.93)"/><path class="cls-4" d="M223.83,402.9c19.76-.51,39.59.37,59.34,1.64q8.38.52,16.74,1.46c.15,0,.17.25,0,.25-9.87.05-19.74-.31-29.61-.62s-19.81-.68-29.71-1.26c-5.58-.33-11.16-.65-16.74-1.1C223.61,403.25,223.59,402.9,223.83,402.9Z" transform="translate(-46.86 -151.93)"/><path class="cls-4" d="M306,426.09,227,422.72s-16.6-45.26-22.69-85.45c-2.59-17.11,2.12-24.31,11-23.62h0Z" transform="translate(-46.86 -151.93)"/><path class="cls-6" d="M285.05,564.57H61.71s48.51-187.34,93.41-240.08c1-1.22,2-2.36,3.08-3.44a7.48,7.48,0,0,1,.61-.64,47.92,47.92,0,0,1,12-9.28c.79-.43,1.58-.82,2.4-1.18,17.29-7.95,35.55-1.36,48.73,9.92,4.19,3.58,51.53,65.17,55.71,88.65,3.62,20.74-10.38,43-10.38,43Z" transform="translate(-46.86 -151.93)"/><path class="cls-7" d="M185.3,367.12a4.17,4.17,0,0,1-1.83-.61,3.48,3.48,0,0,1-1.6-3,4.47,4.47,0,0,0-5.42-4.35c-.76.15-1.49.25-2.23.46.74.19,1.47.3,2.23.44a4.16,4.16,0,0,1,1.87.57,3.4,3.4,0,0,1,1.7,2.9,4.64,4.64,0,0,0,2.8,4.27,4.22,4.22,0,0,0,2.48.23c.76-.15,1.49-.23,2.25-.44C186.79,367.37,186.06,367.26,185.3,367.12Zm41.21,147.43a4.51,4.51,0,0,1-1.83-.63,3.47,3.47,0,0,1-1.59-3,4.56,4.56,0,0,0-3-4.18,4.52,4.52,0,0,0-2.48-.15c-.75.15-1.49.23-2.22.44.73.21,1.47.3,2.22.44a5,5,0,0,1,1.88.57,3.45,3.45,0,0,1,1.7,2.92A4.6,4.6,0,0,0,224,515.2a4.5,4.5,0,0,0,2.48.25c.76-.17,1.49-.25,2.25-.46C228,514.78,227.27,514.69,226.51,514.55ZM126.85,428.8a4.09,4.09,0,0,1-1.83-.61,3.5,3.5,0,0,1-1.61-3,4.52,4.52,0,0,0-2.93-4.18,4.73,4.73,0,0,0-2.48-.17c-.75.15-1.49.26-2.24.44.75.21,1.49.32,2.24.47a4.25,4.25,0,0,1,1.88.56,3.48,3.48,0,0,1,1.7,2.9,4.57,4.57,0,0,0,2.79,4.27,4.2,4.2,0,0,0,2.48.23c.76-.14,1.49-.25,2.23-.44C128.34,429.05,127.61,429,126.85,428.8Zm88,135.07a4.1,4.1,0,0,1-1.85-.61,3.5,3.5,0,0,1-1.6-3,4.46,4.46,0,0,0-5.42-4.35c-.73.14-1.49.25-2.23.44.74.21,1.5.31,2.23.46a4.05,4.05,0,0,1,1.89.57,3.46,3.46,0,0,1,1.71,2.9,4.56,4.56,0,0,0,2.77,4.26l.06,0H216a11.19,11.19,0,0,0,1.12-.24C216.38,564.12,215.63,564,214.89,563.87ZM171.53,491.3a4.23,4.23,0,0,1-1.82-.63,3.46,3.46,0,0,1-1.6-3,4.54,4.54,0,0,0-2.94-4.17,4.44,4.44,0,0,0-2.48-.16c-.76.14-1.5.23-2.23.44.73.21,1.47.29,2.23.44a4.68,4.68,0,0,1,1.87.57,3.44,3.44,0,0,1,1.7,2.92,4.6,4.6,0,0,0,2.79,4.24,4.51,4.51,0,0,0,2.48.26c.76-.17,1.5-.26,2.25-.47C173,491.53,172.29,491.45,171.53,491.3ZM63.45,558.64a.3.3,0,0,1-.15,0h0c-.09.33-.17.67-.25,1a2.85,2.85,0,0,0,.42,0c.73-.17,1.47-.25,2.22-.46A20.24,20.24,0,0,0,63.45,558.64Zm27.91-54.16a4,4,0,0,1-1.83-.61,3.47,3.47,0,0,1-1.6-3A4.57,4.57,0,0,0,85,496.68a4.74,4.74,0,0,0-2.48-.17l-1.33.26-.12.37c.48.11,1,.17,1.45.28a4.2,4.2,0,0,1,1.87.56,3.48,3.48,0,0,1,1.7,2.91,4.56,4.56,0,0,0,2.8,4.26,4.2,4.2,0,0,0,2.48.23c.75-.14,1.49-.23,2.22-.44C92.85,504.73,92.11,504.63,91.36,504.48Zm117.1-73.89a4.41,4.41,0,0,1-1.85-.64,3.5,3.5,0,0,1-1.6-3,4.52,4.52,0,0,0-2.94-4.16,4.36,4.36,0,0,0-2.48-.17c-.73.15-1.49.23-2.23.44.74.21,1.5.3,2.23.44a4.89,4.89,0,0,1,1.89.57,3.48,3.48,0,0,1,1.68,2.92,4.48,4.48,0,0,0,5.3,4.5c.74-.17,1.49-.25,2.23-.46C210,430.82,209.2,430.73,208.46,430.59Zm61.6,38.67a4.53,4.53,0,0,1-1.62-.59,3.53,3.53,0,0,1-1.6-3,4.54,4.54,0,0,0-2.94-4.18,4.62,4.62,0,0,0-2.48-.15c-.73.15-1.47.23-2.23.44.76.21,1.5.3,2.23.44a4.9,4.9,0,0,1,1.89.57,3.5,3.5,0,0,1,1.7,2.92,4.56,4.56,0,0,0,2.78,4.25,4.36,4.36,0,0,0,2.42.25Zm-9-46.83a4.13,4.13,0,0,1-1.74.93,3.42,3.42,0,0,1-3.24-.87,4.6,4.6,0,0,0-5-1,4.46,4.46,0,0,0-1.93,1.6c-.42.63-.88,1.22-1.26,1.89.67-.38,1.26-.84,1.89-1.26a4.42,4.42,0,0,1,1.74-.86,3.57,3.57,0,0,1,3.26,1,4.52,4.52,0,0,0,5,.88,4.67,4.67,0,0,0,1.88-1.64c.42-.63.88-1.22,1.26-1.89C262.3,421.55,261.72,422,261.08,422.43ZM185.3,308.82c-.15-.7-.23-1.41-.4-2.11,0,0-.06,0-.08,0-.17.7-.26,1.41-.4,2.11a4.67,4.67,0,0,1-.57,1.89,3.48,3.48,0,0,1-2.92,1.68,4.62,4.62,0,0,0-4.25,2.79,4.36,4.36,0,0,0-.23,2.5c.15.74.23,1.5.44,2.23.21-.73.3-1.49.47-2.23a4.09,4.09,0,0,1,.6-1.84,3.53,3.53,0,0,1,3-1.6,4.44,4.44,0,0,0,4.33-5.42Zm-17.74,131c-.15-.73-.23-1.47-.44-2.23-.21.76-.29,1.5-.46,2.23a4.17,4.17,0,0,1-.57,1.89,3.44,3.44,0,0,1-2.9,1.71,4.58,4.58,0,0,0-4.27,2.79,4.54,4.54,0,0,0-.23,2.48c.15.74.25,1.49.46,2.23.22-.74.3-1.49.45-2.23a3.88,3.88,0,0,1,.63-1.85,3.51,3.51,0,0,1,3-1.6,4.47,4.47,0,0,0,4.35-5.42Zm92.33,97.5c-.15-.76-.26-1.5-.47-2.25-.18.75-.29,1.49-.44,2.25a4.24,4.24,0,0,1-.56,1.87,3.47,3.47,0,0,1-2.9,1.7,4.57,4.57,0,0,0-4.27,2.79,4.2,4.2,0,0,0-.23,2.48c.15.74.23,1.5.44,2.23.21-.73.31-1.49.46-2.23a4.18,4.18,0,0,1,.61-1.84,3.56,3.56,0,0,1,3-1.6,4.52,4.52,0,0,0,4.18-2.92A4.66,4.66,0,0,0,259.89,537.31ZM130.7,368.69c-.15-.76-.25-1.49-.44-2.25-.21.76-.32,1.49-.47,2.25a4.16,4.16,0,0,1-.56,1.87,3.58,3.58,0,0,1-2.21,1.62c-.31.63-.61,1.28-.9,1.93h.23a4.57,4.57,0,0,0,4.18-2.94A4.63,4.63,0,0,0,130.7,368.69Zm103.36,15.87c-.15-.74-.23-1.49-.44-2.23-.21.74-.3,1.49-.47,2.23a4.21,4.21,0,0,1-.56,1.89,3.44,3.44,0,0,1-2.9,1.7,4.56,4.56,0,0,0-4.25,2.78,4.46,4.46,0,0,0-.25,2.5c.15.73.25,1.49.46,2.23.21-.74.3-1.5.44-2.23a4.07,4.07,0,0,1,.63-1.85,3.52,3.52,0,0,1,3-1.6,4.55,4.55,0,0,0,4.18-2.94A4.45,4.45,0,0,0,234.06,384.56ZM138.54,517.22c-.17-.74-.25-1.48-.46-2.23-.21.75-.3,1.49-.45,2.23a4.52,4.52,0,0,1-.56,1.89,3.5,3.5,0,0,1-2.92,1.7,4.58,4.58,0,0,0-4.25,2.77,4.28,4.28,0,0,0-.23,2.5c.15.74.23,1.5.44,2.23.21-.73.29-1.49.46-2.23a4.4,4.4,0,0,1,.61-1.85,3.52,3.52,0,0,1,3-1.59,4.57,4.57,0,0,0,4.18-2.94A4.64,4.64,0,0,0,138.54,517.22Zm90.52-174.93a4.05,4.05,0,0,1-1.75.89,3.53,3.53,0,0,1-3.26-1,4.54,4.54,0,0,0-5-.86,4.43,4.43,0,0,0-1.87,1.64c-.42.63-.88,1.22-1.26,1.89.67-.38,1.26-.84,1.89-1.26a4.1,4.1,0,0,1,1.75-.93,3.45,3.45,0,0,1,3.25.84,4.61,4.61,0,0,0,5,1.05,4.46,4.46,0,0,0,1.92-1.59c.42-.63.88-1.22,1.26-1.92C230.27,341.43,229.69,341.9,229.06,342.29Zm-60.3,54.63a3.84,3.84,0,0,1-1.74.86,3.52,3.52,0,0,1-3.26-1,4.53,4.53,0,0,0-5-.88,4.63,4.63,0,0,0-1.87,1.64c-.42.63-.88,1.22-1.26,1.89.68-.38,1.26-.84,1.89-1.26a4.75,4.75,0,0,1,1.75-.93,3.52,3.52,0,0,1,3.26.86,4.55,4.55,0,0,0,5,1,4.3,4.3,0,0,0,1.91-1.59c.42-.63.88-1.22,1.26-1.89C170,396,169.39,396.5,168.76,396.92ZM127.9,477.37a4.15,4.15,0,0,1-1.72.88,3.53,3.53,0,0,1-3.26-1,4.58,4.58,0,0,0-5-.86A4.5,4.5,0,0,0,116,478c-.42.63-.88,1.22-1.26,1.89.67-.38,1.26-.84,1.91-1.26a3.93,3.93,0,0,1,1.72-.92,3.41,3.41,0,0,1,3.26.84,4.64,4.64,0,0,0,5,1.05,4.46,4.46,0,0,0,1.93-1.6c.43-.63.89-1.22,1.27-1.91C129.14,476.49,128.55,477,127.9,477.37ZM145.58,561a4.25,4.25,0,0,1-1.75.88,3.48,3.48,0,0,1-3.25-1,4.6,4.6,0,0,0-5.05-.87,4.5,4.5,0,0,0-1.87,1.64c-.4.63-.86,1.22-1.26,1.89.69-.37,1.28-.84,1.91-1.26a4.18,4.18,0,0,1,1.73-.92,3.39,3.39,0,0,1,3.25.84,4.66,4.66,0,0,0,5,1.05,4.52,4.52,0,0,0,1.93-1.6c.42-.63.88-1.22,1.26-1.91C146.8,560.09,146.21,560.57,145.58,561Zm79-91.86a4.29,4.29,0,0,1-1.74.86,3.52,3.52,0,0,1-3.26-1,4.55,4.55,0,0,0-5-.88,4.39,4.39,0,0,0-1.85,1.64c-.42.63-.89,1.22-1.29,1.89.7-.38,1.29-.84,1.92-1.26a4.71,4.71,0,0,1,1.72-.93,3.45,3.45,0,0,1,3.26.87,4.6,4.6,0,0,0,5,1,4.46,4.46,0,0,0,1.93-1.6c.42-.63.88-1.22,1.26-1.89C225.84,468.23,225.25,468.69,224.62,469.11Zm50.76,34a3.19,3.19,0,0,1-1.35-.86,4.63,4.63,0,0,0-5-.88,4.8,4.8,0,0,0-1.87,1.64c-.42.65-.89,1.24-1.26,1.91.67-.38,1.26-.84,1.89-1.26a4.56,4.56,0,0,1,1.74-.95,3.53,3.53,0,0,1,3.26.87,4.64,4.64,0,0,0,2.92,1.34Zm-87.87,24.55a4.2,4.2,0,0,1-1.75.86,3.51,3.51,0,0,1-3.26-1,4.44,4.44,0,0,0-6.89.75c-.42.63-.88,1.22-1.26,1.89.67-.38,1.26-.84,1.89-1.26A4.76,4.76,0,0,1,178,528a3.42,3.42,0,0,1,3.26.86,4.6,4.6,0,0,0,5,1,4.36,4.36,0,0,0,1.94-1.6c.42-.63.88-1.22,1.26-1.89C188.73,526.8,188.14,527.26,187.51,527.68ZM103.29,539.2a4.29,4.29,0,0,1-1.74.86,3.52,3.52,0,0,1-3.26-1,4.52,4.52,0,0,0-5-.88,4.39,4.39,0,0,0-1.87,1.64c-.42.63-.88,1.22-1.28,1.89.69-.38,1.28-.84,1.91-1.26a4.71,4.71,0,0,1,1.72-.93,3.45,3.45,0,0,1,3.26.87,4.6,4.6,0,0,0,5,1,4.33,4.33,0,0,0,1.93-1.6c.42-.63.89-1.22,1.26-1.89C104.51,538.32,103.92,538.78,103.29,539.2Z" transform="translate(-46.86 -151.93)"/><path class="cls-4" d="M233.74,443.5a192.65,192.65,0,0,0-28.21,4.9c-4.59,1.21-9.09,2.64-13.59,4.16-2.24.76-4.5,1.45-6.76,2.12a30.62,30.62,0,0,1-7.27,1.44c-.22,0-.21.33,0,.34a51.31,51.31,0,0,0,7-.2A49.14,49.14,0,0,0,191.6,455c4.67-1.2,9.28-2.6,13.93-3.84,9.4-2.51,18.78-5,28.34-6.82C234.31,444.2,234.19,443.45,233.74,443.5Z" transform="translate(-46.86 -151.93)"/><path class="cls-4" d="M257.33,451.73a206.74,206.74,0,0,0-23.61-.93c-3.94.08-7.85.39-11.78.8q-2.81.3-5.6.69c-2.06.28-4.08.83-6.13,1.08-.21,0-.21.36,0,.34,1.94-.17,3.93,0,5.88-.09l5.89-.21c3.93-.13,7.86-.22,11.79-.38,7.86-.34,15.7-.59,23.57-.66C257.78,452.37,257.74,451.76,257.33,451.73Z" transform="translate(-46.86 -151.93)"/><path class="cls-5" d="M150.73,329.53C113.08,369.86,23.52,521.19,52.56,549.09c29.24,28.1,190.19-9.66,235.45-31.22,13.47-6.42-37.7-90.37-53.53-92.33-13.17-1.63-80.54,29.18-82.48,25.31-2.21-4.38,13.09-32.49,29.3-91C200,292.36,167.36,311.72,150.73,329.53Z" transform="translate(-46.86 -151.93)"/><path class="cls-5" d="M301.38,398.45c32.73-4.56,41.83-.71,67.41-19.22,16.78-12.15,31.74-6.65,22.16,12.66-15.66,31.57-56.65,46.32-72.33,47.34Z" transform="translate(-46.86 -151.93)"/><path class="cls-5" d="M214.45,430s36.77-20.42,71.17-28.73c23.78-5.74,76.92-12.47,127.77,40,12.06,12.44,20.42,38.71-6.65,25.55-19.23-9.34-28.6-21.08-40.78-24.48,0,0,6.67,34.68-6.26,46.28-5.78,5.18-21.88,19-35.95,27.89a67,67,0,0,1-5.82-6.26s-13.1,9.69-37.76,7.34Z" transform="translate(-46.86 -151.93)"/><path class="cls-5" d="M309.2,399.37c11.37,5.93,35.26,18.9,51.11,36.31C377.92,455,406.63,497,392.22,509.86c-10.57,9.42-22.94-5.65-22.94-5.65s8.21,19.86-3.19,26.28c-10.4,5.86-19.27-6.37-19.27-6.37s2.91,12.9-8.19,16.61c-13.35,4.47-17.25-23.31-34.68-30.47C300,508.65,309.2,399.37,309.2,399.37Z" transform="translate(-46.86 -151.93)"/><path class="cls-4" d="M336.78,450.87c9.78,7.33,27.72,29.68,32.68,52.83.11.52-.22.89-.43.43A256.53,256.53,0,0,0,336.59,451C336.5,450.93,336.67,450.79,336.78,450.87Z" transform="translate(-46.86 -151.93)"/><path class="cls-4" d="M317.77,469.22c7.79,7.19,25.26,31,29.48,54.67.09.53-.27.88-.45.41-10.32-25.88-22.94-46.23-29.22-54.93A.12.12,0,0,1,317.77,469.22Z" transform="translate(-46.86 -151.93)"/><path class="cls-4" d="M366,442c10.66,3.14,17.6,8.38,26.6,14.63a146.54,146.54,0,0,0,13.74,8.7c4.35,2.35,10.75,5.9,15.38,2.22,2.57-2.05,2.54-5.78,2-8.71a23.49,23.49,0,0,0-3.86-9.22c-.1-.14.14-.31.24-.18a31.53,31.53,0,0,1,4.41,7.89c.95,2.58,1.7,5.59,1,8.32-1.57,5.88-8.51,6.66-13.42,5a47,47,0,0,1-8.39-4.06c-2.59-1.49-5.1-3.09-7.57-4.76-5.07-3.43-9.94-7.14-15-10.63-5.52-3.82-9.34-5.69-15.25-8.88C365.61,442.28,365.76,442,366,442Z" transform="translate(-46.86 -151.93)"/><path class="cls-4" d="M388.3,479.56c-2.76-6.09-17.7-31.41-22.55-37.27-.12-.15.08-.35.22-.21,8.31,7.88,21.67,28.81,24.79,35.51s6.62,15.1,6.62,22.49c0,11.14-7.39,13.25-10.13,13.8a14.43,14.43,0,0,1-9.48-1.56c-3.26-1.68-6.41-5.19-8.6-8.07-.11-.16.09-.36.22-.21,3.87,4.39,10.28,8.72,16.34,7.92a10.16,10.16,0,0,0,6.89-3.71c1.88-2.56,2-5.93,1.78-9C393.82,492.37,391.13,485.8,388.3,479.56Z" transform="translate(-46.86 -151.93)"/><path class="cls-4" d="M347.25,523.89c1.55,1.33,4.75,6,9.82,6.94,3.72.72,7.6.37,10.45-2.33s3.84-6.39,4-10.14c.09-2.12-1.6-11.26-2.34-14-.06-.22.22-.32.28-.11,1.61,4.92,3.35,10.27,3.35,15.08,0,4-1.27,8.31-4.27,11.11a11.37,11.37,0,0,1-11.66,2.42c-2-.74-8.26-4.76-10.08-8.72C346.78,524,347.18,523.84,347.25,523.89Z" transform="translate(-46.86 -151.93)"/><path class="cls-4" d="M305,508.26a26.76,26.76,0,0,1,4.72,4c1.57,1.5,3.08,3.07,4.55,4.66A63.91,63.91,0,0,1,322,527.47c2.25,3.78,4.32,8,8,10.62a10.42,10.42,0,0,0,12.2.31,10.23,10.23,0,0,0,3.81-5.66,19.92,19.92,0,0,0,.71-7.6.15.15,0,1,1,.3,0c.18,2.35.82,4.53.55,6.91a12.12,12.12,0,0,1-2.19,5.87A11.62,11.62,0,0,1,334,542.14c-4.66-.86-8.07-4.36-10.6-8.14-2.82-4.22-5.13-8.71-8.14-12.81-1.58-2.16-3.14-4.33-4.87-6.37s-4-4-5.63-6.24C304.62,508.4,304.79,508.13,305,508.26Z" transform="translate(-46.86 -151.93)"/><path class="cls-4" d="M292,517.77a96.08,96.08,0,0,0,17.95-3.72c.18-.06.44.46.27.55a42.63,42.63,0,0,1-8.85,2.93,31.36,31.36,0,0,1-9.32.56C291.84,518.08,291.77,517.78,292,517.77Z" transform="translate(-46.86 -151.93)"/><path class="cls-4" d="M91.05,480.28a236.51,236.51,0,0,1,29.63-16.93,228.3,228.3,0,0,1,31.44-12.18c6.13-1.94,12.32-3.58,18.52-5.27a.15.15,0,0,1,.08.29A294.51,294.51,0,0,0,139,458.12q-15.48,6.67-30.69,13.9c-5.74,2.73-11.35,5.74-17,8.66A.23.23,0,0,1,91.05,480.28Z" transform="translate(-46.86 -151.93)"/><path class="cls-6" d="M73.62,424.64l91.39-3s17-45.11,23.49-85.24-26.39-27.89-60.71,15.08S73.62,424.64,73.62,424.64Z" transform="translate(-46.86 -151.93)"/><path class="cls-7" d="M96.55,398.81a4,4,0,0,1-1.75.86,3.41,3.41,0,0,1-3.11-.86c-.36.5-.73,1-1.07,1.51a4.53,4.53,0,0,0,4.62.72,4.32,4.32,0,0,0,1.94-1.58c.42-.65.88-1.24,1.26-1.91C97.77,397.93,97.18,398.39,96.55,398.81Zm72.21-1.89a3.84,3.84,0,0,1-1.74.86,3.52,3.52,0,0,1-3.26-1,4.53,4.53,0,0,0-5-.88,4.63,4.63,0,0,0-1.87,1.64c-.42.63-.88,1.22-1.26,1.89.68-.38,1.26-.84,1.89-1.26a4.75,4.75,0,0,1,1.75-.93,3.52,3.52,0,0,1,3.26.86,4.55,4.55,0,0,0,5,1,4.3,4.3,0,0,0,1.91-1.59c.42-.63.88-1.22,1.26-1.89C170,396,169.39,396.5,168.76,396.92ZM130.7,368.69c-.15-.76-.25-1.49-.44-2.25-.21.76-.32,1.49-.47,2.25a4.16,4.16,0,0,1-.56,1.87,3.47,3.47,0,0,1-2.9,1.7,4.64,4.64,0,0,0-4.27,2.8,4.22,4.22,0,0,0-.23,2.48c.15.76.25,1.49.46,2.25.19-.76.3-1.49.44-2.25a3.94,3.94,0,0,1,.63-1.83,3.42,3.42,0,0,1,3-1.6,4.57,4.57,0,0,0,4.18-2.94A4.63,4.63,0,0,0,130.7,368.69Zm50.94-56.39h0a2.34,2.34,0,0,1-.69.09,4.62,4.62,0,0,0-4.25,2.79,4.36,4.36,0,0,0-.23,2.5c.15.74.23,1.5.44,2.23.21-.73.3-1.49.47-2.23a4.09,4.09,0,0,1,.6-1.84,3.53,3.53,0,0,1,3-1.6,4.58,4.58,0,0,0,2.82-1.05A8.93,8.93,0,0,0,181.64,312.3Zm-42.16,25.62a4.29,4.29,0,0,0,1.75-1.55c.21-.32.44-.63.65-.93C141.08,336.24,140.28,337.08,139.48,337.92Zm-19,83.08a4.73,4.73,0,0,0-2.48-.17c-.75.15-1.49.26-2.24.44.75.21,1.49.32,2.24.47a4.25,4.25,0,0,1,1.88.56,3.78,3.78,0,0,1,.9.78l2-.06v0A4.44,4.44,0,0,0,120.48,421Zm61.39-57.5a4.47,4.47,0,0,0-5.42-4.35c-.76.15-1.49.25-2.23.46.74.19,1.47.3,2.23.44a4.16,4.16,0,0,1,1.87.57,3.4,3.4,0,0,1,1.7,2.9,4.64,4.64,0,0,0,1.92,3.76c.14-.63.31-1.24.46-1.87A3.3,3.3,0,0,1,181.87,363.5Z" transform="translate(-46.86 -151.93)"/><path class="cls-4" d="M161.25,421.31c.5,0,3.71-.57,3.73-.57.22-1.2,5.44-20.05,6.81-24.15,2.79-8.36,6.07-16.58,9.24-24.81a.22.22,0,0,1,.42.13c-2.06,7.08-4,14.2-6.12,21.26.64-1,1.27-2,1.88-3,1.24-2.1,2.32-4.27,3.47-6.41a.19.19,0,0,1,.35.15,36.56,36.56,0,0,1-4,8.41,31.22,31.22,0,0,1-2.38,3.23c-.18.59-.35,1.18-.53,1.76-1.3,4.13-8,24.54-8.34,24.56-.08,0-3.38.08-4.4.09C161.09,421.93,161,421.31,161.25,421.31Z" transform="translate(-46.86 -151.93)"/><path class="cls-4" d="M88.41,407c19.71-1.47,39.55-1.57,59.35-1.27q8.4.12,16.78.64c.16,0,.19.24,0,.25-9.85.53-19.73.65-29.61.84s-19.82.28-29.73.18c-5.59,0-11.18-.1-16.78-.27A.19.19,0,0,1,88.41,407Z" transform="translate(-46.86 -151.93)"/><path class="cls-5" d="M182.44,312.56c.35,4,15.2,31.71,33,33.42,5.79.54,10.17-30.93,10.17-30.93l.86-2.25,11.94-31.5-34.71-30-5.06-4s-2.69,8.83-6,19.86l-.46,1.57c-.2.62-.4,1.21-.56,1.79-.5,1.64-1,3.32-1.49,5-.36,1.27-.73,2.52-1.06,3.87s-.7,2.68-1.07,4C184.66,296.8,182.32,310.86,182.44,312.56Z" transform="translate(-46.86 -151.93)"/><path class="cls-4" d="M192.67,267.11a67.6,67.6,0,0,0,33.78,45.69l11.94-31.5-34.71-30-5.06-4S195.93,256.08,192.67,267.11Z" transform="translate(-46.86 -151.93)"/><path class="cls-5" d="M280.92,216.12c16.11,56.88-16.14,73-28.41,76.42-11.14,3.14-49.46,12.43-71.37-42.49s-.56-80.39,24.54-88.93S264.8,159.23,280.92,216.12Z" transform="translate(-46.86 -151.93)"/><path class="cls-4" d="M268.66,207.87a39.66,39.66,0,0,1-4.08.19c-1.57.05-2.81.26-4.2-.6a2.11,2.11,0,0,1-.64-2.49c.89-1.78,2.79-2.33,4.67-2.47a7.69,7.69,0,0,1,5.34,1.41C271.38,205.05,270.48,207.62,268.66,207.87Z" transform="translate(-46.86 -151.93)"/><path class="cls-4" d="M233.57,225.41c1.35-.37,2.53-.93,3.83-1.42,1.46-.56,2.68-.86,3.63-2.2a2.12,2.12,0,0,0-.39-2.54c-1.51-1.29-3.47-1.05-5.26-.45a7.7,7.7,0,0,0-4.36,3.39C230,223.86,231.79,225.88,233.57,225.41Z" transform="translate(-46.86 -151.93)"/><path class="cls-4" d="M243.4,231.22c-.07-.13-.25.27-.2.43,1.22,3.84,2,8.44-1.15,10.72-.1.07,0,.26.09.21C246.24,240.76,245.18,234.66,243.4,231.22Z" transform="translate(-46.86 -151.93)"/><path class="cls-4" d="M238.79,228.17c-6.36,1.3-3.29,13.92,2.6,12.72S244.12,227.08,238.79,228.17Z" transform="translate(-46.86 -151.93)"/><path class="cls-4" d="M236.47,229.44c-.93,1-1.7,2.5-3,3-1.5.52-3-.52-4.3-1.54-.13-.11-.21,0-.18.19.55,2.43,2.09,4.69,4.77,4.42,2.45-.25,3.63-2.8,3.64-5.38C237.4,229.61,236.85,229,236.47,229.44Z" transform="translate(-46.86 -151.93)"/><path class="cls-4" d="M265.09,224.22c0-.16.35.11.39.27.79,3.95,2.37,8.34,6.22,8.81.12,0,.16.21,0,.22C267.25,233.93,265.22,228.09,265.09,224.22Z" transform="translate(-46.86 -151.93)"/><path class="cls-4" d="M267.63,219.3c6.19-2,9.66,10.57,3.92,12.39S262.44,220.94,267.63,219.3Z" transform="translate(-46.86 -151.93)"/><path class="cls-4" d="M270.47,219.4c1.18.4,2.49,1.33,3.69,1.08,1.4-.29,2-1.92,2.55-3.46.06-.16.19-.09.24.08.72,2.38.62,5.09-1.55,6.18-2,1-4.09-.63-5.32-2.85C269.85,220,270,219.25,270.47,219.4Z" transform="translate(-46.86 -151.93)"/><path class="cls-4" d="M251,260.46c1.12.74,2.32,1.83,3.78,1.67a10.75,10.75,0,0,0,4.05-1.83.14.14,0,0,1,.21.17,5.42,5.42,0,0,1-4.6,3.13c-1.85,0-3-1.34-3.79-2.89C250.59,260.49,250.87,260.35,251,260.46Z" transform="translate(-46.86 -151.93)"/><path class="cls-4" d="M263.61,244.28s2.29,5.62,3,8.37c.07.26-9.42,4.88-15.52-.77a.29.29,0,0,1,.31-.48c4.3,1.73,8.48,1.4,12.8.37,0-.81-4.25-9.49-3.82-9.64,1.47-.51,4.69-.25,6.6-.18-4.44-11.84-10.74-22.88-15-34.74-.14-.43.45-.72.67-.36,7.42,11.1,12.83,24.62,17.73,36.73C271,245.09,264.83,244.47,263.61,244.28Z" transform="translate(-46.86 -151.93)"/><path class="cls-4" d="M233.22,167.43s3.77,8.36,1.81,15.19c-4,14-20.26,13.24-24.75,19.28-4.2,5.66-.78,15.34-4.51,20.92-5.17,7.73-14.16,6.58-14.44,11.25s-.87,19.46-6.29,22.24-47.66-87.89,27.67-97.48c0,0,9.61-6,26.85-.57,20,6.34,32.51,34.58,32.51,34.58a26.16,26.16,0,0,0-4.32-3.21c-4.15-2.58-6-5.29-9-6.91-4.7-2.54-6.78-.93-11.63-3.36C239.69,175.66,233.22,167.43,233.22,167.43Z" transform="translate(-46.86 -151.93)"/><path class="cls-4" d="M231.38,163.48a50.64,50.64,0,0,1,4.11,11.08c.94,3.76,1.41,7.8.27,11.39s-4.19,6.26-7.46,8.12-7.2,2.94-10.78,5.11a11.94,11.94,0,0,0-4.38,4.61,15.84,15.84,0,0,0-1.23,6.12c-.15,4-.33,7.89-2.41,11.06a13.18,13.18,0,0,1-9.33,5.89c-3.77.64-8.11.29-11.51,2.56,3.57-2,7.65-1.29,11.63-1.65a14.26,14.26,0,0,0,10.4-6c2.56-3.46,2.69-7.92,2.92-11.75a14,14,0,0,1,1.14-5.44,10.08,10.08,0,0,1,3.78-3.81c3.18-2,7.08-3.16,10.61-5.22a20.5,20.5,0,0,0,4.85-3.82,12.34,12.34,0,0,0,3.16-5.37c1.08-4.09.36-8.24-.77-12.05A51,51,0,0,0,231.38,163.48Z" transform="translate(-46.86 -151.93)"/><path class="cls-4" d="M233.39,166.65a41.43,41.43,0,0,0,5.35,9.7,19.45,19.45,0,0,0,8.9,7,28.33,28.33,0,0,0,5.51,1.14,9,9,0,0,1,4.5,2,28.26,28.26,0,0,0,4,3.87,12.47,12.47,0,0,0,5.22,2,13.73,13.73,0,0,1-4.65-2.7,28.23,28.23,0,0,1-3.51-4.13,9.58,9.58,0,0,0-5.21-2.77,29.8,29.8,0,0,1-5.21-1.16,20.68,20.68,0,0,1-8.37-6.19A83.87,83.87,0,0,1,233.39,166.65Z" transform="translate(-46.86 -151.93)"/><path class="cls-6" d="M175.56,240s-22.73-43.27,1.85-68.38c25.48-26,61-16.47,61-16.47s-38.64,2.41-54.65,23.36C165.15,202.86,175.56,240,175.56,240Z" transform="translate(-46.86 -151.93)"/><path class="cls-2" d="M238.13,253.52a18.73,18.73,0,1,1,14.18-26h0a18.73,18.73,0,0,1-9.71,24.63A19,19,0,0,1,238.13,253.52ZM232.55,219a16,16,0,0,0-3.87,1.14,16.2,16.2,0,1,0,3.87-1.14Z" transform="translate(-46.86 -151.93)"/><path class="cls-2" d="M279.4,241.53c-7.07,1.15-14.66-5.06-17.34-14.46a22.29,22.29,0,0,1,.23-13.67c1.54-4.22,4.4-7.11,8.06-8.15s7.61-.09,11.14,2.68a22.36,22.36,0,0,1,7.39,11.51c2.83,9.93-.89,19.72-8.28,21.83A10.29,10.29,0,0,1,279.4,241.53ZM272,207.45c-.31.05-.62.12-.93.2-2.86.82-5.13,3.16-6.4,6.61a19.92,19.92,0,0,0-.16,12.13c2.45,8.6,9.36,14.21,15.44,12.47s9-10.13,6.57-18.73A19.93,19.93,0,0,0,280,209.9,10.35,10.35,0,0,0,272,207.45Z" transform="translate(-46.86 -151.93)"/><path class="cls-2" d="M252.3,229.83l-2.07-1.41c2.08-3.07,7.52-7.95,13.26-4.5l-1.3,2.15C257.06,223,252.5,229.55,252.3,229.83Z" transform="translate(-46.86 -151.93)"/><path class="cls-2" d="M170.12,258l-2.45-.5c.23-1.14,2.41-11.25,7.54-13.65,4.8-2.23,41.18-9.08,42.59-9.34l.46,2.46c-9.51,1.75-38.28,7.41-42,9.15C172.89,247.69,170.69,255.22,170.12,258Z" transform="translate(-46.86 -151.93)"/><path class="cls-5" d="M190.41,247.55S174.26,231.86,166.9,238s7.21,30.54,17.56,32.28,12.14-7.8,12.14-7.8Z" transform="translate(-46.86 -151.93)"/><path class="cls-4" d="M171.25,244.86a.14.14,0,0,0,0,.27c7.3,1.44,12.06,7,15.81,13.07-2.5-2.12-5.5-3-8.4.07-.15.16.07.4.26.33,2.66-1.13,4.75-1,7.05.83a29.47,29.47,0,0,1,4.21,4.77c.44.54,1.47,0,1.1-.65a.64.64,0,0,1-.08-.14C189.71,254.74,180.69,244,171.25,244.86Z" transform="translate(-46.86 -151.93)"/><path class="cls-5" d="M153.12,325s40.78,29.25,64.08,26.22,21.19-25.58,21.19-25.58-23.33-20.42-50.84-19.13C167.65,307.39,153.12,325,153.12,325Z" transform="translate(-46.86 -151.93)"/><rect class="cls-8" x="228.84" y="407.6" width="233.69" height="10.48"/><rect class="cls-4" x="228.84" y="407.6" width="117.62" height="10.48"/><polygon class="cls-9" points="343.73 418.07 571.48 418.07 603.66 263.39 375.91 263.39 343.73 418.07"/><path class="cls-7" d="M502.9,496.12a13.42,13.42,0,0,0,13.59,15.18,17.27,17.27,0,0,0,16.77-15.18,13.41,13.41,0,0,0-13.58-15.18A17.27,17.27,0,0,0,502.9,496.12Z" transform="translate(-46.86 -151.93)"/><polygon class="cls-6" points="466.18 57.8 368.6 219.43 271.02 57.8 343.62 57.8 368.6 104.75 393.58 57.8 466.18 57.8"/><polygon class="cls-10" points="428.76 57.8 368.6 160.32 308.43 57.8 343.62 57.8 368.6 104.75 393.58 57.8 428.76 57.8"/></svg>