<svg id="Слой_6" data-name="Слой 6" xmlns="http://www.w3.org/2000/svg" viewBox="0 0 543.84 561.7"><defs><style>.cls-1{fill:#ececec;}.cls-2{fill:#1a2e35;}.cls-3{fill:#ffc800;}.cls-4{opacity:0.1;}.cls-5{fill:#2b454e;}.cls-6{opacity:0.2;}.cls-7,.cls-8{fill:#fff;}.cls-8{opacity:0.4;}.cls-9{fill:#dcdcdc;}.cls-10{fill:#375a64;}</style></defs><path class="cls-1" d="M153.69,457.05l-19.56.28-9.87.11-9.91.05h-.45v-.45l-.05-16.63v-.5h.5L134,440c6.56,0,13.11.11,19.67.16H154v.27Zm0,0-.27-16.63.27.27c-6.56.06-13.11.16-19.67.17l-19.67.06.5-.5-.06,16.63-.44-.45,9.76.06,9.79.11Z" transform="translate(-88.86 -96.66)"/><path class="cls-1" d="M131.74,478l-19.55.28-9.88.11-9.91.06H92V478l0-16.62v-.51h.5l19.67.06c6.56,0,13.12.11,19.67.16H132v.28Zm0,0-.27-16.62.27.27c-6.55,0-13.11.16-19.67.16l-19.67.07.5-.5L92.84,478l-.44-.44,9.76.05,9.8.11Z" transform="translate(-88.86 -96.66)"/><path class="cls-1" d="M131.74,118.27l-19.55.28-9.88.11-9.91,0H92v-.45l0-16.63v-.5h.5l19.67.06c6.56,0,13.12.12,19.67.17H132v.27Zm0,0-.27-16.63.27.27c-6.55.06-13.11.16-19.67.17l-19.67.06.5-.5-.06,16.63-.44-.45,9.76.06,9.8.11Z" transform="translate(-88.86 -96.66)"/><path class="cls-1" d="M629.16,118.27l-19.55.28-9.88.11-9.91,0h-.45v-.45l0-16.63v-.5h.5l19.67.06c6.56,0,13.12.12,19.67.17h.28v.27Zm0,0-.27-16.63.27.27c-6.55.06-13.11.16-19.67.17l-19.67.06.5-.5-.06,16.63-.44-.45,9.76.06,9.8.11Z" transform="translate(-88.86 -96.66)"/><path class="cls-1" d="M607.22,139.23l-19.56.28-9.88.11-9.91.06h-.44v-.45l-.06-16.62v-.51h.5l19.67.06c6.56,0,13.12.11,19.68.16h.27v.28Zm0,0-.28-16.62.28.27c-6.56.05-13.12.16-19.68.16l-19.67.06.5-.49,0,16.62-.45-.44,9.76.05,9.8.11Z" transform="translate(-88.86 -96.66)"/><path class="cls-1" d="M506.45,333.73,486.9,334l-9.88.11-9.91.05h-.45v-.45l-.05-16.63v-.5h.5l19.67.07c6.56,0,13.11.11,19.67.16h.28v.27Zm0,0-.27-16.63.27.28c-6.56.05-13.11.15-19.67.16l-19.67.06.5-.5-.06,16.63-.44-.45,9.76.06,9.79.11Z" transform="translate(-88.86 -96.66)"/><path class="cls-1" d="M484.5,354.69,465,355l-9.88.11-9.91.06h-.44v-.45l-.06-16.62v-.5h.5l19.67.06c6.56,0,13.12.11,19.67.16h.28v.27Zm0,0-.27-16.62.27.27c-6.55.05-13.11.16-19.67.16l-19.67.07.5-.5-.05,16.62-.45-.44,9.76.05,9.8.11Z" transform="translate(-88.86 -96.66)"/><path class="cls-1" d="M462.64,333.73l-19.55.28-9.88.11-9.91.05h-.44v-.45l-.05-16.63v-.5h.5l19.67.07c6.56,0,13.12.11,19.67.16h.28v.27Zm0,0-.27-16.63.27.28c-6.55.05-13.11.15-19.67.16l-19.67.06.5-.5-.05,16.63-.45-.45,9.76.06,9.8.11Z" transform="translate(-88.86 -96.66)"/><path class="cls-1" d="M629.16,478l-19.55.28-9.88.11-9.91.06h-.45V478l0-16.62v-.51h.5l19.67.06c6.56,0,13.12.11,19.67.16h.28v.28Zm0,0-.27-16.62.27.27c-6.55,0-13.11.16-19.67.16l-19.67.07.5-.5L590.26,478l-.44-.44,9.76.05,9.8.11Z" transform="translate(-88.86 -96.66)"/><path class="cls-1" d="M294.88,167.71l-19.55.27-9.88.12-9.91.05h-.44v-.44L255,151.08v-.5h.5l19.67.06c6.56,0,13.12.12,19.67.17h.28v.27Zm0,0-.27-16.63.27.27c-6.55.05-13.11.16-19.67.17l-19.67.06.5-.5L256,167.71l-.45-.45,9.76.06,9.8.11Z" transform="translate(-88.86 -96.66)"/><path class="cls-1" d="M588.75,277.84l7.74-12.49L592.67,263a3.46,3.46,0,0,1-1.62-3.28c.06-.73.08-1.47.07-2.2a3.48,3.48,0,0,1,1.82-3.17l4-2.13-6.94-13-4,2.13a3.51,3.51,0,0,1-3.65-.23,20,20,0,0,0-1.87-1.16,3.51,3.51,0,0,1-1.84-3.17l.14-4.5-14.69-.46-.13,4.52a3.5,3.5,0,0,1-2.05,3c-.33.15-.65.31-1,.49s-.63.35-.94.53a3.5,3.5,0,0,1-3.65,0l-3.85-2.39-7.75,12.49,3.83,2.38a3.47,3.47,0,0,1,1.62,3.29c-.06.73-.08,1.46-.07,2.19a3.5,3.5,0,0,1-1.82,3.17l-4,2.12,6.95,13,4-2.13a3.47,3.47,0,0,1,3.64.24c.61.41,1.23.8,1.87,1.15a3.48,3.48,0,0,1,1.84,3.17l-.14,4.5,14.69.46.14-4.51a3.48,3.48,0,0,1,2.05-3c.32-.15.65-.32,1-.49s.63-.35.94-.54a3.51,3.51,0,0,1,3.67,0Zm-12.44-9.27a12,12,0,1,1,4.93-16.3A12,12,0,0,1,576.31,268.57Z" transform="translate(-88.86 -96.66)"/><path class="cls-1" d="M165.39,419.36l7.75-12.49-3.82-2.37a3.48,3.48,0,0,1-1.63-3.28,17.91,17.91,0,0,0,.07-2.2,3.48,3.48,0,0,1,1.83-3.17l4-2.13-7-13-4,2.12a3.48,3.48,0,0,1-3.65-.23,21.45,21.45,0,0,0-1.87-1.16,3.51,3.51,0,0,1-1.84-3.17l.14-4.5-14.69-.45-.14,4.51a3.51,3.51,0,0,1-2,3c-.33.15-.65.32-1,.49s-.63.35-.94.53a3.5,3.5,0,0,1-3.65,0l-3.85-2.39-7.75,12.49,3.83,2.38a3.47,3.47,0,0,1,1.62,3.29,20,20,0,0,0-.07,2.19,3.5,3.5,0,0,1-1.82,3.17l-4,2.12,7,13,4-2.13a3.51,3.51,0,0,1,3.65.24,19.8,19.8,0,0,0,1.86,1.15,3.47,3.47,0,0,1,1.85,3.17l-.14,4.5,14.69.46.14-4.51a3.49,3.49,0,0,1,2-3c.33-.15.65-.32,1-.49s.63-.35.94-.54a3.51,3.51,0,0,1,3.67,0ZM153,410.09a12,12,0,1,1,4.92-16.3A12,12,0,0,1,153,410.09Z" transform="translate(-88.86 -96.66)"/><path class="cls-1" d="M315.86,180.15l-5.14-8.92L308,172.81a2.45,2.45,0,0,1-2.57-.09c-.43-.28-.87-.53-1.33-.77a2.44,2.44,0,0,1-1.36-2.17v-3.16h-10.3v3.16a2.45,2.45,0,0,1-1.35,2.17c-.46.24-.9.49-1.33.77a2.45,2.45,0,0,1-2.57.09l-2.73-1.58-5.14,8.92,2.74,1.58a2.46,2.46,0,0,1,1.2,2.27c0,.25,0,.51,0,.76s0,.51,0,.76a2.46,2.46,0,0,1-1.2,2.26l-2.74,1.59,5.14,8.92,2.74-1.58a2.43,2.43,0,0,1,2.57.09c.42.28.87.53,1.32.77a2.43,2.43,0,0,1,1.35,2.17v3.15h10.3v-3.15a2.44,2.44,0,0,1,1.36-2.17c.45-.24.9-.49,1.32-.77a2.43,2.43,0,0,1,2.57-.09l2.74,1.58,5.14-8.92-2.73-1.58a2.43,2.43,0,0,1-1.2-2.27c0-.25,0-.5,0-.76s0-.51,0-.76a2.45,2.45,0,0,1,1.2-2.27ZM306,184.76a8.44,8.44,0,1,1-8.43-8.44A8.42,8.42,0,0,1,306,184.76Z" transform="translate(-88.86 -96.66)"/><path class="cls-2" d="M148.69,439.54c-17.2,16.83-20.09,42.88-16.46,65.7.09.52.89.38.89-.11,0-5.2-.16-10.34-.14-15.47.09-.24.17-.46.27-.69,4.48-3.27,8.61-7,11.17-12,2.87-5.65,4-12,6.2-17.92.2-.56-.4-.4-.79-.11-10.47,7.72-13.8,16-16.8,27.12a92.2,92.2,0,0,1,1.82-17.28c2.26-10.53,6.73-21,14.29-28.78A.32.32,0,0,0,148.69,439.54Z" transform="translate(-88.86 -96.66)"/><path class="cls-3" d="M151.92,441.5c3,.1,4.81,4.83,7.12,6.21a2.22,2.22,0,0,0,3.26-.51c2.29-3.19-.85-7.13-3.79-9.33,2.1.87,3.85,2.39,6.13,2.82A2.12,2.12,0,0,0,167.4,439c1-4.35-4.45-6.29-8.19-6.38,1.81-1.26,7-4.69,4.25-6.37s-8.9,3.21-10.89,4.82c-2.92,2.38-6.41,5.92-6.54,9.63C145.86,445.08,149.64,442.41,151.92,441.5Z" transform="translate(-88.86 -96.66)"/><path class="cls-4" d="M151.92,441.5c3,.1,4.81,4.83,7.12,6.21a2.22,2.22,0,0,0,3.26-.51c2.29-3.19-.85-7.13-3.79-9.33,2.1.87,3.85,2.39,6.13,2.82A2.12,2.12,0,0,0,167.4,439c1-4.35-4.45-6.29-8.19-6.38,1.81-1.26,7-4.69,4.25-6.37s-8.9,3.21-10.89,4.82c-2.92,2.38-6.41,5.92-6.54,9.63C145.86,445.08,149.64,442.41,151.92,441.5Z" transform="translate(-88.86 -96.66)"/><path class="cls-3" d="M151.06,442.23c3.79-1.72,11.05.76,11.67-.68,1.25-2.91-4.55-4.91-7.69-5.3,2.89-.78,8.42-2,8.25-4.81-.21-3.4-8.48-.47-12.67,2.74-5.28,4-5.25,7.95-4.37,8.73C147.44,444,150.44,442.51,151.06,442.23Z" transform="translate(-88.86 -96.66)"/><path class="cls-2" d="M109.52,437.87c17.83,16.17,21.7,42.09,19,65-.08.52-.88.41-.9-.08-.2-5.19-.24-10.34-.45-15.46l-.29-.68c-4.61-3.09-8.87-6.62-11.62-11.57-3.09-5.54-4.46-11.86-6.88-17.67-.22-.56.39-.42.79-.14,10.75,7.31,14.4,15.48,17.82,26.45a92,92,0,0,0-2.48-17.19c-2.66-10.44-7.52-20.7-15.38-28.22C108.79,438.06,109.21,437.58,109.52,437.87Z" transform="translate(-88.86 -96.66)"/><path class="cls-3" d="M106.37,440c-3,.21-4.63,5-6.88,6.47a2.21,2.21,0,0,1-3.28-.39c-2.41-3.1.57-7.15,3.44-9.46-2.08.95-3.77,2.54-6,3.05a2.13,2.13,0,0,1-2.83-1.55c-1.17-4.3,4.21-6.44,7.94-6.68-1.86-1.19-7.18-4.42-4.49-6.21s9,2.87,11.07,4.41c3,2.26,6.63,5.67,6.9,9.37C112.56,443.3,108.68,440.78,106.37,440Z" transform="translate(-88.86 -96.66)"/><path class="cls-4" d="M106.37,440c-3,.21-4.63,5-6.88,6.47a2.21,2.21,0,0,1-3.28-.39c-2.41-3.1.57-7.15,3.44-9.46-2.08.95-3.77,2.54-6,3.05a2.13,2.13,0,0,1-2.83-1.55c-1.17-4.3,4.21-6.44,7.94-6.68-1.86-1.19-7.18-4.42-4.49-6.21s9,2.87,11.07,4.41c3,2.26,6.63,5.67,6.9,9.37C112.56,443.3,108.68,440.78,106.37,440Z" transform="translate(-88.86 -96.66)"/><path class="cls-3" d="M107.25,440.65c-3.85-1.57-11,1.18-11.69-.23-1.36-2.86,4.37-5.08,7.49-5.59-2.92-.67-8.49-1.71-8.43-4.49.08-3.41,8.46-.8,12.77,2.25,5.43,3.84,5.54,7.74,4.7,8.56C110.93,442.27,107.88,440.91,107.25,440.65Z" transform="translate(-88.86 -96.66)"/><path class="cls-2" d="M127.75,480.58a177,177,0,0,0,5.53,25.57.64.64,0,0,0,1.25-.25c-1.17-7.88-3.3-15.62-4.48-23.5a118.72,118.72,0,0,1-1.37-24.12c.76-13.27,4.36-27.4,13-37.79.2-.24-.21-.59-.4-.36-17.35,20.22-14.59,45-14.58,47.24-2.45-8.37-5-18-14.27-26.49-.4-.37-.71-.2-.65.43,1.66,15.53,6,23.64,15,31.94C127,475.71,127.36,478.16,127.75,480.58Z" transform="translate(-88.86 -96.66)"/><path class="cls-3" d="M141.86,422.82c3.12-1.38,7.43,2.59,10.51,2.86,1.64.15,2.85-.5,3.13-2.18.77-4.46-4.46-7-8.63-7.76,2.62-.16,5.2.54,7.78-.16a2.47,2.47,0,0,0,2-3.11c-1.15-5-7.78-4.28-11.71-2.49,1.24-2.22,4.91-8.39,1.2-8.75s-7.62,7.81-8.87,10.48c-1.84,3.94-3.68,9.37-1.94,13.29C137.37,429.58,140,424.91,141.86,422.82Z" transform="translate(-88.86 -96.66)"/><path class="cls-4" d="M141.86,422.82c3.12-1.38,7.43,2.59,10.51,2.86,1.64.15,2.85-.5,3.13-2.18.77-4.46-4.46-7-8.63-7.76,2.62-.16,5.2.54,7.78-.16a2.47,2.47,0,0,0,2-3.11c-1.15-5-7.78-4.28-11.71-2.49,1.24-2.22,4.91-8.39,1.2-8.75s-7.62,7.81-8.87,10.48c-1.84,3.94-3.68,9.37-1.94,13.29C137.37,429.58,140,424.91,141.86,422.82Z" transform="translate(-88.86 -96.66)"/><path class="cls-3" d="M141.34,424c3.06-3.69,11.85-4.78,11.77-6.58-.17-3.65-7.2-2.8-10.65-1.62,2.6-2.27,7.71-6.35,6.14-9.15-1.93-3.42-9,3.78-11.78,9.22-3.43,6.85-1.43,10.89-.13,11.26C138.47,427.65,140.84,424.62,141.34,424Z" transform="translate(-88.86 -96.66)"/><path class="cls-3" d="M116.34,485.25l-7.65,58.45h46.55c-1-5.18-9.62-58.51-9.62-58.51Z" transform="translate(-88.86 -96.66)"/><polygon class="cls-2" points="0 447.24 67.98 447 135.96 446.91 271.92 446.74 407.88 446.91 475.86 447 543.84 447.24 475.86 447.49 407.88 447.57 271.92 447.74 135.96 447.57 67.98 447.49 0 447.24"/><ellipse class="cls-1" cx="271.92" cy="533.96" rx="196.16" ry="27.74"/><path class="cls-2" d="M239.15,339.3,231,307.15l-64.54,16.4L157.91,290l51.58-117.53,25.57-6.5,24.87,97.86,20.66-5.25,8.58,33.79-20.65,5.25,8.17,32.15Zm-44.22-59,31.92-8.12-10.56-41.53Z" transform="translate(-88.86 -96.66)"/><path class="cls-2" d="M424,232a86.33,86.33,0,0,1-4.84,29.41,73.23,73.23,0,0,1-13.32,23.25,60.27,60.27,0,0,1-20,15.25,57.82,57.82,0,0,1-25.06,5.45,58.61,58.61,0,0,1-25.18-5.45,59.82,59.82,0,0,1-20.1-15.25,71.12,71.12,0,0,1-13.19-23.25,93.83,93.83,0,0,1,0-58.83,71.12,71.12,0,0,1,13.19-23.25,61.23,61.23,0,0,1,20.1-15.37,57.55,57.55,0,0,1,25.18-5.57,56.78,56.78,0,0,1,25.06,5.57,61.71,61.71,0,0,1,20,15.37,73.23,73.23,0,0,1,13.32,23.25A86.39,86.39,0,0,1,424,232Zm-39,0q0-16.95-6.78-27.49T360.78,194q-11.14,0-17.8,10.53T336.33,232q0,17,6.65,27.36t17.8,10.41q10.65,0,17.43-10.41T385,232Z" transform="translate(-88.86 -96.66)"/><path class="cls-2" d="M493.49,333.11l5.31-32.75-65.73-10.65,5.54-34.18,94.1-87.28,26,4.22-16.15,99.67,21,3.41L558.07,310l-21-3.4-5.31,32.74Zm-17.08-71.7,32.5,5.27,6.86-42.31Z" transform="translate(-88.86 -96.66)"/><path class="cls-2" d="M306.4,135a17.21,17.21,0,0,1-7.53-1.62,18.43,18.43,0,0,1-5.79-4.31A20,20,0,0,1,288,115.9a19,19,0,0,1,1.41-7.23,20.12,20.12,0,0,1,3.88-6.11,18.65,18.65,0,0,1,5.88-4.23,17.52,17.52,0,0,1,7.39-1.56A16.52,16.52,0,0,1,314,98.44a18.6,18.6,0,0,1,5.76,4.39,20.12,20.12,0,0,1,3.73,6.16,19.58,19.58,0,0,1,1.32,7,19.06,19.06,0,0,1-1.38,7.2,19.44,19.44,0,0,1-3.83,6.06,18.18,18.18,0,0,1-5.84,4.2A17.37,17.37,0,0,1,306.4,135ZM295.45,115.9a15,15,0,0,0,.74,4.73,12.67,12.67,0,0,0,2.15,4.05,10.79,10.79,0,0,0,3.46,2.81,10.68,10.68,0,0,0,9.36,0,10.86,10.86,0,0,0,3.45-2.9,13,13,0,0,0,2.13-4.07,15,15,0,0,0,.72-4.6,14.57,14.57,0,0,0-.78-4.73,13,13,0,0,0-2.18-4,10.32,10.32,0,0,0-3.45-2.79,10.75,10.75,0,0,0-9.33,0,10.75,10.75,0,0,0-3.46,2.87,13,13,0,0,0-2.1,4A15.27,15.27,0,0,0,295.45,115.9Z" transform="translate(-88.86 -96.66)"/><path class="cls-2" d="M342.65,135.31a15.3,15.3,0,0,1-6.11-1.17,13.86,13.86,0,0,1-4.6-3.16,14.13,14.13,0,0,1-2.9-4.6,15.51,15.51,0,0,1,0-11,14.13,14.13,0,0,1,2.9-4.6,13.71,13.71,0,0,1,4.6-3.16,15.3,15.3,0,0,1,6.11-1.17,15.1,15.1,0,0,1,6.09,1.17,13.79,13.79,0,0,1,4.57,3.16,14,14,0,0,1,2.9,4.6,15.51,15.51,0,0,1,0,11,14.22,14.22,0,0,1-2.87,4.6,13.53,13.53,0,0,1-4.57,3.16A15.32,15.32,0,0,1,342.65,135.31Zm-7.28-14.41a9.78,9.78,0,0,0,.56,3.38,8.18,8.18,0,0,0,1.54,2.63,7.08,7.08,0,0,0,2.31,1.73,7.06,7.06,0,0,0,5.74,0,7,7,0,0,0,2.32-1.73,8.3,8.3,0,0,0,1.54-2.66,10,10,0,0,0,.56-3.4,9.81,9.81,0,0,0-.56-3.35,8.19,8.19,0,0,0-1.54-2.66,7,7,0,0,0-2.32-1.73,6.87,6.87,0,0,0-2.87-.61,6.52,6.52,0,0,0-2.87.64,7.29,7.29,0,0,0-2.31,1.75,8.12,8.12,0,0,0-1.54,2.66A9.85,9.85,0,0,0,335.37,120.9Z" transform="translate(-88.86 -96.66)"/><path class="cls-2" d="M378.7,135.31a11,11,0,0,1-5.74-1.46,10.4,10.4,0,0,1-3.83-4V146.1H362V106.92h6.22v4.78a11.39,11.39,0,0,1,4-3.85,11.09,11.09,0,0,1,5.64-1.41,12,12,0,0,1,5.21,1.14,13.09,13.09,0,0,1,4.12,3.09,14.35,14.35,0,0,1,2.71,4.57,15.85,15.85,0,0,1,1,5.55,17.62,17.62,0,0,1-.9,5.69,14.66,14.66,0,0,1-2.53,4.63,11.69,11.69,0,0,1-3.85,3.08A10.72,10.72,0,0,1,378.7,135.31Zm-2.4-6.06a6.45,6.45,0,0,0,3-.69,7.19,7.19,0,0,0,2.31-1.86,9,9,0,0,0,1.49-2.72,9.79,9.79,0,0,0,.53-3.19,8.91,8.91,0,0,0-.59-3.26,8.24,8.24,0,0,0-1.62-2.64,7.59,7.59,0,0,0-2.44-1.75,7.26,7.26,0,0,0-3.06-.64,6.66,6.66,0,0,0-2.07.35,7.41,7.41,0,0,0-2,1,8.8,8.8,0,0,0-1.62,1.49,6.27,6.27,0,0,0-1.09,1.86v6.54a9.55,9.55,0,0,0,2.92,4A6.72,6.72,0,0,0,376.3,129.25Z" transform="translate(-88.86 -96.66)"/><path class="cls-2" d="M406.23,135.31a21.38,21.38,0,0,1-6.85-1.12,16.71,16.71,0,0,1-5.75-3.19l2.66-4.46a23.08,23.08,0,0,0,5,2.73,13.38,13.38,0,0,0,4.82.93,6.07,6.07,0,0,0,3.34-.79,2.57,2.57,0,0,0,1.23-2.29,2.29,2.29,0,0,0-1.44-2.18,31.15,31.15,0,0,0-4.68-1.59c-1.8-.5-3.35-1-4.62-1.44a11.68,11.68,0,0,1-3.09-1.57,5.39,5.39,0,0,1-1.7-2,6.5,6.5,0,0,1-.53-2.74,8.64,8.64,0,0,1,.83-3.82,8.35,8.35,0,0,1,2.31-2.9,10.51,10.51,0,0,1,3.48-1.83,14,14,0,0,1,4.33-.64,18.76,18.76,0,0,1,5.88.9,14.24,14.24,0,0,1,5,2.93l-2.87,4.3a16.94,16.94,0,0,0-4.12-2.34,11.4,11.4,0,0,0-4-.74,5.79,5.79,0,0,0-3,.74,2.59,2.59,0,0,0-1.22,2.39,2.29,2.29,0,0,0,.29,1.23,2.5,2.5,0,0,0,.93.85,9,9,0,0,0,1.67.72c.7.23,1.55.47,2.58.71q2.88.75,4.92,1.49a13.56,13.56,0,0,1,3.35,1.7,6,6,0,0,1,1.91,2.21,6.72,6.72,0,0,1,.61,3,7.74,7.74,0,0,1-3,6.46C412.45,134.52,409.71,135.31,406.23,135.31Z" transform="translate(-88.86 -96.66)"/><path class="cls-2" d="M423.51,120.58V96.66h7.12v23.92Zm0,14.2v-8h7.12v8Z" transform="translate(-88.86 -96.66)"/><rect class="cls-5" x="252.3" y="356.05" width="46.73" height="3.83"/><rect class="cls-5" x="252.3" y="361.03" width="46.73" height="3.83"/><rect class="cls-5" x="252.3" y="366.02" width="46.73" height="3.83"/><rect class="cls-5" x="252.3" y="371.01" width="46.73" height="3.83"/><rect class="cls-5" x="252.3" y="375.99" width="46.73" height="3.83"/><rect class="cls-5" x="230.41" y="475.47" width="88.85" height="3.83"/><rect class="cls-5" x="230.41" y="480.46" width="88.85" height="3.83"/><rect class="cls-5" x="230.41" y="485.44" width="88.85" height="3.83"/><rect class="cls-5" x="230.41" y="490.43" width="88.85" height="3.83"/><rect class="cls-5" x="230.41" y="495.42" width="88.85" height="3.83"/><path class="cls-3" d="M280.29,421.06c0-.52-19.45-7.05-19.45-7.05l1.15-67,25.84-5.55Z" transform="translate(-88.86 -96.66)"/><path class="cls-6" d="M280.29,421.06c0-.52-19.45-7.05-19.45-7.05l1.15-67,25.84-5.55Z" transform="translate(-88.86 -96.66)"/><path class="cls-3" d="M458.81,447.35c.14-.51,20.68.07,20.68.07l22-63.27-22.36-14.1Z" transform="translate(-88.86 -96.66)"/><path class="cls-6" d="M458.81,447.35c.14-.51,20.68.07,20.68.07l22-63.27-22.36-14.1Z" transform="translate(-88.86 -96.66)"/><path class="cls-3" d="M276.53,445.72s7.23-108.31,13.57-143.94c0,0,130.83,9.9,201.46,36.9,0,0-36.41,126.5-38.3,132.78C453.26,471.46,361.13,453.31,276.53,445.72Z" transform="translate(-88.86 -96.66)"/><path class="cls-4" d="M393.32,316.25q-3.19,19.56-6.51,39.1l-6.75,39.06-.36-.56,43.84,10.42,21.89,5.3L467.3,415l-22-4.92-22-5-43.88-10.25-.44-.1.08-.45,7-39Q389.61,335.72,393.32,316.25Z" transform="translate(-88.86 -96.66)"/><path class="cls-4" d="M388.51,323.68a2.55,2.55,0,1,1-2.3-2.54A2.56,2.56,0,0,1,388.51,323.68Zm0,0a2.12,2.12,0,0,0-.73-1.57,2.06,2.06,0,1,0-1.57,3.62,2.1,2.1,0,0,0,1.57-.47A2.15,2.15,0,0,0,388.51,323.68Z" transform="translate(-88.86 -96.66)"/><path class="cls-4" d="M386.21,339.8a2.56,2.56,0,0,1-2.3,2.54,2.55,2.55,0,0,1-2.79-2.54,2.55,2.55,0,1,1,5.09,0Zm0,0a2.12,2.12,0,0,0-.72-1.58,2.06,2.06,0,1,0-1.58,3.63,2.06,2.06,0,0,0,2.3-2.05Z" transform="translate(-88.86 -96.66)"/><path class="cls-4" d="M383.38,356.82a2.57,2.57,0,0,1-2.3,2.55,2.56,2.56,0,0,1-1.92-4.47,2.54,2.54,0,0,1,4.22,1.92Zm0,0a2.06,2.06,0,0,0-2.3-2.05,2.07,2.07,0,0,0,0,4.11,2.06,2.06,0,0,0,2.3-2.06Z" transform="translate(-88.86 -96.66)"/><path class="cls-4" d="M380.55,373.85a2.56,2.56,0,0,1-2.3,2.54,2.53,2.53,0,0,1-1.92-.62,2.62,2.62,0,0,1-.87-1.92,2.58,2.58,0,0,1,.87-1.92,2.53,2.53,0,0,1,1.92-.62A2.56,2.56,0,0,1,380.55,373.85Zm0,0a2.11,2.11,0,0,0-.72-1.57,2.06,2.06,0,1,0-1.58,3.62,2.11,2.11,0,0,0,1.58-.47A2.14,2.14,0,0,0,380.55,373.85Z" transform="translate(-88.86 -96.66)"/><path class="cls-4" d="M390.19,401a2.56,2.56,0,0,1-2.3,2.54A2.55,2.55,0,0,1,385.1,401a2.64,2.64,0,0,1,.87-1.93,2.61,2.61,0,0,1,1.92-.62A2.57,2.57,0,0,1,390.19,401Zm0,0a2,2,0,0,0-2.3-2.05,2.07,2.07,0,0,0,0,4.1,2.06,2.06,0,0,0,2.3-2.05Z" transform="translate(-88.86 -96.66)"/><path class="cls-4" d="M406.26,404.93a2.56,2.56,0,0,1-2.29,2.54,2.56,2.56,0,1,1,0-5.09A2.55,2.55,0,0,1,406.26,404.93Zm0,0a2.06,2.06,0,1,0-.72,1.57A2.09,2.09,0,0,0,406.26,404.93Z" transform="translate(-88.86 -96.66)"/><path class="cls-4" d="M422.34,408.85a2.56,2.56,0,0,1-2.3,2.54,2.62,2.62,0,0,1-1.93-.62,2.58,2.58,0,0,1,0-3.85,2.62,2.62,0,0,1,1.93-.62A2.57,2.57,0,0,1,422.34,408.85Zm0,0a2.15,2.15,0,0,0-.73-1.58,2.1,2.1,0,0,0-1.57-.47,2.06,2.06,0,1,0,1.57,3.62A2.12,2.12,0,0,0,422.34,408.85Z" transform="translate(-88.86 -96.66)"/><path class="cls-4" d="M438.41,412.77a2.56,2.56,0,0,1-2.3,2.54,2.56,2.56,0,1,1,0-5.09A2.57,2.57,0,0,1,438.41,412.77Zm0,0a2.14,2.14,0,0,0-.72-1.58,2.11,2.11,0,0,0-1.58-.47,2.06,2.06,0,1,0,1.58,3.62A2.11,2.11,0,0,0,438.41,412.77Z" transform="translate(-88.86 -96.66)"/><path class="cls-4" d="M454.47,416.87a2.56,2.56,0,0,1-2.48,2.36,2.6,2.6,0,0,1-1.87-.77,2.55,2.55,0,0,1,2.26-4.31A2.56,2.56,0,0,1,454.47,416.87Zm0,0a2.09,2.09,0,0,0-.59-1.63,2.12,2.12,0,0,0-1.54-.59,2.06,2.06,0,1,0,1.29,3.73A2.08,2.08,0,0,0,454.47,416.87Z" transform="translate(-88.86 -96.66)"/><path class="cls-4" d="M377.72,390.88a2.56,2.56,0,0,1-2.3,2.54,2.55,2.55,0,0,1-2.79-2.54,2.64,2.64,0,0,1,.87-1.93,2.61,2.61,0,0,1,1.92-.62A2.57,2.57,0,0,1,377.72,390.88Zm0,0a2.14,2.14,0,0,0-.72-1.58,2.11,2.11,0,0,0-1.58-.47,2.06,2.06,0,1,0,1.58,3.62A2.11,2.11,0,0,0,377.72,390.88Z" transform="translate(-88.86 -96.66)"/><circle class="cls-6" cx="325.82" cy="391.46" r="37.15" transform="translate(-267.06 221.56) rotate(-41.96)"/><circle class="cls-2" cx="325.82" cy="391.46" r="29.8" transform="translate(-244.5 460.94) rotate(-69.27)"/><rect class="cls-3" x="316.44" y="379.92" width="7.06" height="7.06" transform="translate(-23.42 -142.89) rotate(9.2)"/><rect class="cls-3" x="310.6" y="371.83" width="7.06" height="7.06" transform="translate(-24.79 -142.06) rotate(9.2)"/><rect class="cls-3" x="338.47" y="376.34" width="7.06" height="7.06" transform="translate(-23.71 -146.46) rotate(9.2)"/><rect class="cls-3" x="306.12" y="399.53" width="7.06" height="7.06" transform="translate(-20.42 -140.99) rotate(9.2)"/><rect class="cls-3" x="333.98" y="404.04" width="7.06" height="7.06" transform="translate(-19.34 -145.39) rotate(9.2)"/><rect class="cls-3" x="314.21" y="393.69" width="7.06" height="7.06" transform="translate(-21.25 -142.36) rotate(9.2)"/><rect class="cls-3" x="322.29" y="387.93" width="7.06" height="7.06" transform="translate(-22.06 -143.73) rotate(9.2)"/><rect class="cls-3" x="330.37" y="382.18" width="7.06" height="7.06" transform="translate(-22.88 -145.09) rotate(9.2)"/><rect class="cls-3" x="328.14" y="395.95" width="7.06" height="7.06" transform="translate(-20.7 -144.56) rotate(9.2)"/><circle class="cls-3" cx="425.52" cy="407.03" r="37.15" transform="translate(-247.88 381.52) rotate(-50.67)"/><circle class="cls-6" cx="425.52" cy="407.03" r="37.15" transform="translate(-247.88 381.52) rotate(-50.67)"/><path class="cls-6" d="M461.67,415.63c-.17.73-.37,1.44-.59,2.14l-72.42-15.44c.17-1.29.41-2.59.71-3.89a37.16,37.16,0,0,1,72.3,17.19Z" transform="translate(-88.86 -96.66)"/><circle class="cls-2" cx="425.52" cy="407.03" r="29.8" transform="translate(-212.89 98.85) rotate(-22.68)"/><rect class="cls-3" x="421.99" y="389.47" width="7.06" height="35.12" transform="translate(16.78 -184.02) rotate(13.37)"/><path class="cls-3" d="M463.82,414.93l-76.06-18.08a39.09,39.09,0,0,1,76.06,18.08Z" transform="translate(-88.86 -96.66)"/><path class="cls-6" d="M463.82,414.93l-76.06-18.08a39.09,39.09,0,0,1,76.06,18.08Z" transform="translate(-88.86 -96.66)"/><path class="cls-4" d="M360.87,429.12a13.86,13.86,0,0,1,3.44-8.37,10,10,0,0,1,4-2.71,11.25,11.25,0,0,1,4.87-.54,9.59,9.59,0,0,1,4.67,1.79,9.77,9.77,0,0,1,3,3.91,15.22,15.22,0,0,1,.77,9,23.78,23.78,0,0,0-2.62-8.08,7.72,7.72,0,0,0-6.07-4,9.21,9.21,0,0,0-7.22,2.11A19.6,19.6,0,0,0,360.87,429.12Z" transform="translate(-88.86 -96.66)"/><path class="cls-7" d="M286.71,353.34c.31-4,.76-7.92,1.13-11.88s.86-7.9,1.34-11.85,1-7.89,1.48-11.83,1.06-7.88,1.59-11.81l.14-1.06,1.07.07q12.85.81,25.67,2.11,6.4.66,12.79,1.48c4.25.62,8.51,1.18,12.74,1.95L319,308.93l-25.65-1.66,1.2-1c-.58,3.93-1.12,7.86-1.74,11.79s-1.21,7.86-1.86,11.78-1.31,7.84-2,11.75S287.52,349.44,286.71,353.34Z" transform="translate(-88.86 -96.66)"/><path class="cls-7" d="M292.89,383.37a32.39,32.39,0,0,1,5.94-13.28c.73-1,1.55-1.92,2.35-2.87s1.75-1.74,2.63-2.61,1.94-1.56,2.92-2.31,2.09-1.36,3.15-2,2.24-1.09,3.38-1.6l3.53-1.23,3.65-.75c1.23-.18,2.47-.22,3.7-.31a35.83,35.83,0,0,1,14.31,2.74,51.27,51.27,0,0,0-14.19-.94A33.36,33.36,0,0,0,311,362.33a38.7,38.7,0,0,0-10.76,8.88A44,44,0,0,0,292.89,383.37Z" transform="translate(-88.86 -96.66)"/><path class="cls-7" d="M395.37,393.4a32.42,32.42,0,0,1,7.73-12.33c.85-.88,1.8-1.68,2.71-2.51s2-1.49,3-2.23,2.13-1.27,3.21-1.88,2.26-1.06,3.4-1.54,2.37-.78,3.56-1.13l3.67-.72,3.72-.24c1.24,0,2.48.12,3.71.2a35.91,35.91,0,0,1,13.79,4.69,50.89,50.89,0,0,0-13.92-2.89,33.42,33.42,0,0,0-13.7,2.24,39,39,0,0,0-11.89,7.31A43.89,43.89,0,0,0,395.37,393.4Z" transform="translate(-88.86 -96.66)"/><path class="cls-3" d="M280.69,512.46c-9.52,0-30.35-2.14-43.76-19.38-17.15-22.05-11-64.37-10.68-66.16l7.45,1.13c-.06.41-6,40.92,9.18,60.41,14.82,19.06,41.7,16.32,42,16.29l.85,7.48A45.16,45.16,0,0,1,280.69,512.46Z" transform="translate(-88.86 -96.66)"/><path class="cls-8" d="M280.69,512.46c-9.52,0-30.35-2.14-43.76-19.38-17.15-22.05-11-64.37-10.68-66.16l7.45,1.13c-.06.41-6,40.92,9.18,60.41,14.82,19.06,41.7,16.32,42,16.29l.85,7.48A45.16,45.16,0,0,1,280.69,512.46Z" transform="translate(-88.86 -96.66)"/><path class="cls-3" d="M235.89,433.17a24.74,24.74,0,0,1-4.16-.34c-12.56-2-18.12-9.55-20.58-15.5s-3-13.17-1.69-21.43l15.94,2.58c-.83,5.12-.59,9.63.67,12.7.91,2.19,2.66,4.82,8.24,5.72,2.55.41,5.31.2,8.2-4.16a29.92,29.92,0,0,0,4-10.83l15.94,2.58A46.63,46.63,0,0,1,256,421.66C251,429.18,244,433.17,235.89,433.17Z" transform="translate(-88.86 -96.66)"/><path class="cls-3" d="M296.43,534c0-.35-13.5-2.5-13.5-2.5l-6.54-44,16.32-6.44Z" transform="translate(-88.86 -96.66)"/><path class="cls-6" d="M296.43,534c0-.35-13.5-2.5-13.5-2.5l-6.54-44,16.32-6.44Z" transform="translate(-88.86 -96.66)"/><path class="cls-3" d="M429.6,534.1c0-.34,13.55-2.2,13.55-2.2l7.51-43.8-16.17-6.81Z" transform="translate(-88.86 -96.66)"/><path class="cls-6" d="M429.6,534.1c0-.34,13.55-2.2,13.55-2.2l7.51-43.8-16.17-6.81Z" transform="translate(-88.86 -96.66)"/><path class="cls-3" d="M290.82,471.27s109-4.66,145.75,1.48c0,0-10.8,105.42-11.39,107.46,0,0-108.37-.29-125.31,0C299.87,580.21,290.68,510.11,290.82,471.27Z" transform="translate(-88.86 -96.66)"/><path class="cls-6" d="M323.92,500.16s59.47-2.35,79.56.74c0,0-5.9,53.16-6.22,54.19,0,0-59.16-.14-68.41,0C328.85,555.09,324.79,518.71,323.92,500.16Z" transform="translate(-88.86 -96.66)"/><path class="cls-6" d="M332.05,555.07c-1.37,0-2.45,0-3.2,0,0,0-4.06-36.39-4.94-54.94l3.72-.13Z" transform="translate(-88.86 -96.66)"/><path class="cls-3" d="M349.59,513.28a6.33,6.33,0,1,0,4.13,7.93A6.33,6.33,0,0,0,349.59,513.28ZM353,521a5.55,5.55,0,1,1-3.62-7A5.55,5.55,0,0,1,353,521Zm-3.39-7.7a6.33,6.33,0,1,0,4.13,7.93A6.33,6.33,0,0,0,349.59,513.28ZM353,521a5.55,5.55,0,1,1-3.62-7A5.55,5.55,0,0,1,353,521Zm-3.39-7.7a6.33,6.33,0,1,0,4.13,7.93A6.33,6.33,0,0,0,349.59,513.28ZM353,521a5.55,5.55,0,1,1-3.62-7A5.55,5.55,0,0,1,353,521Zm-1.28-14.39a13.34,13.34,0,1,0,8.7,16.73A13.35,13.35,0,0,0,351.7,506.59Zm3,14.92a7.31,7.31,0,1,1-4.78-9.17A7.32,7.32,0,0,1,354.66,521.51Zm-.94-.3a6.33,6.33,0,1,0-7.93,4.14A6.32,6.32,0,0,0,353.72,521.21ZM353,521a5.55,5.55,0,1,1-3.62-7A5.55,5.55,0,0,1,353,521Zm-3.39-7.7a6.33,6.33,0,1,0,4.13,7.93A6.33,6.33,0,0,0,349.59,513.28ZM353,521a5.55,5.55,0,1,1-3.62-7A5.55,5.55,0,0,1,353,521Zm-3.39-7.7a6.33,6.33,0,1,0,4.13,7.93A6.33,6.33,0,0,0,349.59,513.28ZM353,521a5.55,5.55,0,1,1-3.62-7A5.55,5.55,0,0,1,353,521Z" transform="translate(-88.86 -96.66)"/><polygon class="cls-3" points="257.43 435.61 252.54 434.07 251.72 437.62 256.07 438.99 257.43 435.61"/><polygon class="cls-3" points="248.64 431.03 246.27 426.49 243.19 428.41 245.29 432.46 248.64 431.03"/><polygon class="cls-3" points="245.67 421.58 247.21 416.69 243.66 415.87 242.29 420.22 245.67 421.58"/><polygon class="cls-3" points="250.25 412.79 254.79 410.42 252.87 407.34 248.82 409.44 250.25 412.79"/><polygon class="cls-3" points="259.7 409.82 264.59 411.36 265.41 407.81 261.06 406.44 259.7 409.82"/><polygon class="cls-3" points="268.49 414.4 270.85 418.94 273.94 417.02 271.83 412.97 268.49 414.4"/><polygon class="cls-3" points="271.46 423.85 269.92 428.74 273.47 429.56 274.84 425.21 271.46 423.85"/><polygon class="cls-3" points="266.88 432.64 262.33 435 264.26 438.09 268.31 435.99 266.88 432.64"/><path class="cls-9" d="M371.09,531.89a4.25,4.25,0,1,0,1.24,5.89A4.25,4.25,0,0,0,371.09,531.89Zm.81,5.6a3.74,3.74,0,1,1-1.09-5.17A3.73,3.73,0,0,1,371.9,537.49Zm-.81-5.6a4.25,4.25,0,1,0,1.24,5.89A4.25,4.25,0,0,0,371.09,531.89Zm.81,5.6a3.74,3.74,0,1,1-1.09-5.17A3.73,3.73,0,0,1,371.9,537.49Zm-.81-5.6a4.25,4.25,0,1,0,1.24,5.89A4.25,4.25,0,0,0,371.09,531.89Zm.81,5.6a3.74,3.74,0,1,1-1.09-5.17A3.73,3.73,0,0,1,371.9,537.49Zm1.77-9.56a9,9,0,1,0,2.62,12.42A9,9,0,0,0,373.67,527.93Zm-.78,10.21a4.92,4.92,0,1,1-1.44-6.81A4.93,4.93,0,0,1,372.89,538.14Zm-.56-.36a4.26,4.26,0,1,0-5.88,1.24A4.25,4.25,0,0,0,372.33,537.78Zm-.43-.29a3.74,3.74,0,1,1-1.09-5.17A3.73,3.73,0,0,1,371.9,537.49Zm-.81-5.6a4.25,4.25,0,1,0,1.24,5.89A4.25,4.25,0,0,0,371.09,531.89Zm.81,5.6a3.74,3.74,0,1,1-1.09-5.17A3.73,3.73,0,0,1,371.9,537.49Zm-.81-5.6a4.25,4.25,0,1,0,1.24,5.89A4.25,4.25,0,0,0,371.09,531.89Zm.81,5.6a3.74,3.74,0,1,1-1.09-5.17A3.73,3.73,0,0,1,371.9,537.49Z" transform="translate(-88.86 -96.66)"/><polygon class="cls-9" points="276.66 446.95 273.77 445.06 272.59 447.21 275.17 448.89 276.66 446.95"/><polygon class="cls-9" points="271.79 442.39 271.07 439.01 268.72 439.7 269.36 442.71 271.79 442.39"/><polygon class="cls-9" points="271.57 435.72 273.45 432.83 271.3 431.65 269.62 434.23 271.57 435.72"/><polygon class="cls-9" points="276.13 430.85 279.5 430.14 278.81 427.79 275.81 428.42 276.13 430.85"/><polygon class="cls-9" points="282.79 430.63 285.69 432.51 286.86 430.36 284.29 428.69 282.79 430.63"/><polygon class="cls-9" points="287.67 435.19 288.38 438.56 290.73 437.87 290.1 434.87 287.67 435.19"/><polygon class="cls-9" points="287.88 441.86 286 444.75 288.15 445.92 289.83 443.35 287.88 441.86"/><polygon class="cls-9" points="283.33 446.73 279.95 447.44 280.64 449.79 283.64 449.16 283.33 446.73"/><polygon class="cls-3" points="345.08 471.29 349.27 472.07 361.25 390.96 356.47 390.09 345.08 471.29"/><path class="cls-3" d="M397.26,555.09l6.22-54.19,41.85-14.15s-11.39,82.07-11.39,81.2Z" transform="translate(-88.86 -96.66)"/><path class="cls-8" d="M397.26,555.09l6.22-54.19,41.85-14.15s-11.39,82.07-11.39,81.2Z" transform="translate(-88.86 -96.66)"/><path class="cls-7" d="M295.82,503.1c-.68-4.49-1.05-9-1.33-13.54-.13-2.27-.18-4.54-.23-6.81s-.09-4.54,0-6.81l0-.59.58,0c8.31-.44,16.62-1,24.94-1.35s16.64-.78,25-1c-8.3.76-16.6,1.4-24.9,2s-16.62,1.11-24.92,1.68l.6-.63,0,6.78.08,6.78q0,3.39.12,6.78Z" transform="translate(-88.86 -96.66)"/><path class="cls-7" d="M409.32,501.7c2.59-1.23,5.22-2.38,7.89-3.43s5.34-2.11,8.05-3,5.44-1.84,8.21-2.61a77.35,77.35,0,0,1,8.42-2l.7-.12-.13.67c-.66,3.51-1.34,7-2.16,10.5.31-3.56.74-7.11,1.2-10.65l.57.56c-2.76.66-5.5,1.43-8.24,2.23s-5.46,1.68-8.17,2.57Z" transform="translate(-88.86 -96.66)"/><polygon class="cls-4" points="225.07 374.83 225.78 388.39 226.38 401.95 227.43 429.07 228.25 456.19 228.57 469.76 228.8 483.33 228.09 469.78 227.49 456.22 226.44 429.1 225.63 401.97 225.3 388.4 225.07 374.83"/><path class="cls-4" d="M310.05,479.66a2.54,2.54,0,1,1-5,1,2.59,2.59,0,0,1,.46-2.06,2.62,2.62,0,0,1,1.77-1A2.56,2.56,0,0,1,310.05,479.66Zm0,0a2,2,0,0,0-2.65-1.55,2.07,2.07,0,0,0,.81,4,2.15,2.15,0,0,0,1.45-.78A2.1,2.1,0,0,0,310.05,479.66Z" transform="translate(-88.86 -96.66)"/><path class="cls-4" d="M311,495.91a2.56,2.56,0,0,1-1.75,2.95,2.53,2.53,0,0,1-3.24-1.94,2.55,2.55,0,1,1,5-1Zm0,0a2.18,2.18,0,0,0-1-1.4,2.1,2.1,0,0,0-1.64-.15,2.06,2.06,0,1,0,2.26,3.24A2.11,2.11,0,0,0,311,495.91Z" transform="translate(-88.86 -96.66)"/><path class="cls-4" d="M311.58,513.17a2.55,2.55,0,0,1-1.75,2.94,2.53,2.53,0,0,1-3.24-1.94,2.55,2.55,0,0,1,2.23-3A2.57,2.57,0,0,1,311.58,513.17Zm0,0a2.14,2.14,0,0,0-1-1.41,2.1,2.1,0,0,0-1.64-.15,2.06,2.06,0,1,0,2.26,3.24A2.09,2.09,0,0,0,311.58,513.17Z" transform="translate(-88.86 -96.66)"/><path class="cls-4" d="M312.17,530.42a2.55,2.55,0,0,1-1.75,2.94,2.59,2.59,0,0,1-2-.22,2.58,2.58,0,0,1-.76-3.78,2.59,2.59,0,0,1,1.77-1A2.55,2.55,0,0,1,312.17,530.42Zm0,0a2.11,2.11,0,0,0-1-1.41,2.14,2.14,0,0,0-1.64-.15,2.07,2.07,0,1,0,2.27,3.24A2.13,2.13,0,0,0,312.17,530.42Z" transform="translate(-88.86 -96.66)"/><path class="cls-4" d="M312.76,547.67a2.54,2.54,0,1,1-5,1,2.52,2.52,0,0,1,2.23-3A2.55,2.55,0,0,1,312.76,547.67Zm0,0a2,2,0,1,0-.39,1.68A2.07,2.07,0,0,0,312.76,547.67Z" transform="translate(-88.86 -96.66)"/><path class="cls-4" d="M313.35,564.92a2.54,2.54,0,0,1-1.74,2.94,2.59,2.59,0,0,1-2-.22,2.58,2.58,0,0,1-.77-3.77,2.58,2.58,0,0,1,1.77-1A2.54,2.54,0,0,1,313.35,564.92Zm0,0a2,2,0,1,0-.39,1.69A2.12,2.12,0,0,0,313.35,564.92Z" transform="translate(-88.86 -96.66)"/><rect class="cls-3" x="256.73" y="600.48" width="64.46" height="7.53" transform="translate(-251.7 13.12) rotate(-16.86)"/><rect class="cls-8" x="256.73" y="600.48" width="64.46" height="7.53" transform="translate(-251.7 13.12) rotate(-16.86)"/><rect class="cls-3" x="283.49" y="598.65" width="7.53" height="11.19" transform="translate(-258.49 18.83) rotate(-17.64)"/><polygon class="cls-3" points="169.84 531.1 153.92 462.17 105.87 473.56 129.53 540.74 169.84 531.1"/><polygon class="cls-3" points="180.5 527.59 169.84 531.1 153.92 462.17 169.25 465.82 180.5 527.59"/><polygon class="cls-6" points="180.5 527.59 169.84 531.1 153.92 462.17 169.25 465.82 180.5 527.59"/><circle class="cls-3" cx="230.94" cy="498.24" r="8.18"/><rect class="cls-3" x="429.92" y="571.89" width="7.53" height="64.46" transform="translate(-359.61 745.83) rotate(-73.02)"/><rect class="cls-8" x="429.92" y="571.89" width="7.53" height="64.46" transform="translate(-359.61 745.83) rotate(-73.02)"/><rect class="cls-3" x="429.79" y="600.36" width="11.19" height="7.53" transform="translate(-361.66 737.68) rotate(-72.23)"/><polygon class="cls-3" points="375.04 531.04 391.1 462.14 439.13 473.63 415.33 540.76 375.04 531.04"/><polygon class="cls-3" points="364.39 527.51 375.04 531.04 391.1 462.14 375.76 465.76 364.39 527.51"/><polygon class="cls-6" points="364.39 527.51 375.04 531.04 391.1 462.14 375.76 465.76 364.39 527.51"/><path class="cls-3" d="M394.69,594.69a8.18,8.18,0,1,0,8.19-8.16A8.18,8.18,0,0,0,394.69,594.69Z" transform="translate(-88.86 -96.66)"/><path class="cls-3" d="M456.41,509.67c.19-.18,20-18.56,43.31-12.27,23.84,6.43,43.52,42.33,43.71,42.69l6.63-3.58c-.86-1.59-21.39-39.12-48.38-46.38-27.45-7.41-49.54,13.2-50.46,14.08Z" transform="translate(-88.86 -96.66)"/><path class="cls-8" d="M456.41,509.67c.19-.18,20-18.56,43.31-12.27,23.84,6.43,43.52,42.33,43.71,42.69l6.63-3.58c-.86-1.59-21.39-39.12-48.38-46.38-27.45-7.41-49.54,13.2-50.46,14.08Z" transform="translate(-88.86 -96.66)"/><path class="cls-3" d="M534.65,576.23l14.27-7.53a30.08,30.08,0,0,1-3.3-11.08c-.32-5.22,1.75-7,4-8.26,5-2.64,8-1.59,10-.39,2.86,1.69,5.77,5.14,8.19,9.73l14.27-7.54c-3.91-7.4-8.7-12.81-14.26-16.09s-14.51-5.92-25.76,0c-8.77,4.63-13.25,13-12.61,23.51A46.52,46.52,0,0,0,534.65,576.23Z" transform="translate(-88.86 -96.66)"/><path class="cls-2" d="M459.41,484.52c3.1-2.14,6.27-4.15,9.44-6.14s6.4-3.93,9.62-5.85,6.48-3.78,9.77-5.58l4.94-2.7c1.67-.85,3.32-1.75,5-2.57-1.54,1.08-3.12,2.08-4.68,3.13l-4.75,3c-3.18,2-6.4,3.93-9.62,5.85s-6.48,3.77-9.78,5.57S462.78,482.85,459.41,484.52Z" transform="translate(-88.86 -96.66)"/><path class="cls-2" d="M451.22,515.32c4.43,2.52,8.63,5.37,12.77,8.3s8.18,6,12,9.37c-4.44-2.52-8.63-5.37-12.77-8.3S455.05,518.68,451.22,515.32Z" transform="translate(-88.86 -96.66)"/><path class="cls-2" d="M458.49,511.53c3.42,1,6.79,2.21,10.15,3.41s6.69,2.45,10,3.73,6.63,2.61,9.91,4l4.91,2.11c1.62.75,3.26,1.46,4.87,2.24-1.72-.51-3.4-1.09-5.1-1.64l-5.05-1.76c-3.36-1.18-6.69-2.46-10-3.74s-6.63-2.61-9.91-4S461.72,513.07,458.49,511.53Z" transform="translate(-88.86 -96.66)"/><path class="cls-2" d="M468.21,487.41c3.27-.85,6.57-1.56,9.88-2.25s6.62-1.3,9.94-1.9,6.66-1.14,10-1.61l5-.69c1.68-.19,3.35-.41,5-.56-1.64.44-3.29.79-4.93,1.19l-5,1.06c-3.31.7-6.63,1.3-9.95,1.9s-6.65,1.14-10,1.6S471.58,487.09,468.21,487.41Z" transform="translate(-88.86 -96.66)"/><path class="cls-2" d="M389.24,507.9a35.12,35.12,0,0,1,2.64-7.71,30.84,30.84,0,0,1,4.37-6.92,16.79,16.79,0,0,1,6.59-4.9c.67-.19,1.34-.41,2-.54l1.05-.11a4,4,0,0,1,1-.05,14.5,14.5,0,0,1,2.09.2,7.4,7.4,0,0,1,1,.26,6.8,6.8,0,0,1,1,.34,11,11,0,0,1,5.85,5.83,12.94,12.94,0,0,1,1.1,4.06,9.05,9.05,0,0,1-.48,4.23,3.85,3.85,0,0,1-1.4,1.79,2.76,2.76,0,0,1-1.14.42,2.91,2.91,0,0,1-.59,0,2.45,2.45,0,0,1-.64-.14,3.51,3.51,0,0,1-1.62-1.66,9.47,9.47,0,0,1-.76-2,26.49,26.49,0,0,1-.67-8.26,33.94,33.94,0,0,1,4.76-15.67,20.51,20.51,0,0,1,5.67-6,18.32,18.32,0,0,1,7.69-3,23,23,0,0,1,8.23,0,24.47,24.47,0,0,1,7.68,2.9,34.38,34.38,0,0,1,11.56,11.38,35,35,0,0,0-11.8-10.95,23.87,23.87,0,0,0-7.55-2.7,22.12,22.12,0,0,0-8,.08,18.28,18.28,0,0,0-7.33,3,19.62,19.62,0,0,0-5.38,5.8,33.08,33.08,0,0,0-4.55,15.25,26,26,0,0,0,.59,7.94,8.9,8.9,0,0,0,.68,1.81,2.76,2.76,0,0,0,1.13,1.24c.12,0,.21.07.35.08a1.94,1.94,0,0,0,.42,0,1.64,1.64,0,0,0,.76-.28,2.89,2.89,0,0,0,1.06-1.37,8,8,0,0,0,.44-3.79,12.5,12.5,0,0,0-1-3.79,10.42,10.42,0,0,0-5.36-5.47,7.22,7.22,0,0,0-.92-.34,7.81,7.81,0,0,0-1-.25,14.34,14.34,0,0,0-2-.22,4,4,0,0,0-1,0l-1,.08c-.64.12-1.28.31-1.92.48a16.48,16.48,0,0,0-6.44,4.63,31.14,31.14,0,0,0-4.5,6.71A38.08,38.08,0,0,0,389.24,507.9Z" transform="translate(-88.86 -96.66)"/><path class="cls-2" d="M267.63,542a18.75,18.75,0,0,1,5.35-6.07,19.82,19.82,0,0,1,7.36-3.48,15.77,15.77,0,0,1,8.18.18,16.31,16.31,0,0,1,7,4.36,20.61,20.61,0,0,1,4.36,7,19,19,0,0,1,1.35,8.14,6.7,6.7,0,0,1-1.49,4,3,3,0,0,1-2.12,1,4.57,4.57,0,0,1-2.19-.5,3.56,3.56,0,0,1-1.57-1.66,5.72,5.72,0,0,1-.47-2.16,11.82,11.82,0,0,1,.69-4.15,24.55,24.55,0,0,1,4-7.2,29.07,29.07,0,0,1,5.92-5.7,24.24,24.24,0,0,1,7.39-3.63,20.44,20.44,0,0,1,8.19-.68,21.14,21.14,0,0,1,7.81,2.52,21.43,21.43,0,0,1,6.2,5.32,28.72,28.72,0,0,1,4.08,7,32.77,32.77,0,0,1,2.19,7.81,35,35,0,0,0-2.44-7.7,29.06,29.06,0,0,0-4.22-6.83A20.48,20.48,0,0,0,327,534.5a20.62,20.62,0,0,0-15.44-1.58,23.43,23.43,0,0,0-7.09,3.53,28.24,28.24,0,0,0-5.69,5.55,24.89,24.89,0,0,0-3.84,6.92,11.2,11.2,0,0,0-.66,3.81,3.33,3.33,0,0,0,1.52,3,3.62,3.62,0,0,0,1.72.39,2.08,2.08,0,0,0,1.49-.66,5.84,5.84,0,0,0,1.25-3.46,18.15,18.15,0,0,0-1.26-7.75,20.37,20.37,0,0,0-4.14-6.72,15.67,15.67,0,0,0-6.58-4.25,15.08,15.08,0,0,0-7.86-.33A20.22,20.22,0,0,0,267.63,542Z" transform="translate(-88.86 -96.66)"/><path class="cls-2" d="M206.75,224.2a37.75,37.75,0,0,0-1-8.07,30.79,30.79,0,0,0-2.76-7.59,16.44,16.44,0,0,0-5.15-6c-.58-.32-1.15-.66-1.75-.93l-.93-.31a4.09,4.09,0,0,0-.95-.27,16.41,16.41,0,0,0-2-.25,6.42,6.42,0,0,0-1,0,8.16,8.16,0,0,0-1,.11,10.35,10.35,0,0,0-6.5,4,12,12,0,0,0-1.88,3.43,8,8,0,0,0-.48,3.79,2.94,2.94,0,0,0,.7,1.59,1.8,1.8,0,0,0,.67.45,2.62,2.62,0,0,0,.4.11c.14,0,.24,0,.36,0a2.77,2.77,0,0,0,1.4-.93,9,9,0,0,0,1.09-1.6,25.87,25.87,0,0,0,2.47-7.57,33.12,33.12,0,0,0-.78-15.89,19.45,19.45,0,0,0-3.84-6.92,18.3,18.3,0,0,0-6.41-4.65,22.11,22.11,0,0,0-7.74-2,23.94,23.94,0,0,0-8,.82,35.08,35.08,0,0,0-14.07,7.82,34.59,34.59,0,0,1,13.94-8.3,24.38,24.38,0,0,1,8.15-1,22.86,22.86,0,0,1,8,1.91,18.29,18.29,0,0,1,6.74,4.77,20.48,20.48,0,0,1,4.07,7.21,34.1,34.1,0,0,1,.89,16.36,27.06,27.06,0,0,1-2.62,7.86,9.74,9.74,0,0,1-1.22,1.76,3.62,3.62,0,0,1-2,1.22,3.5,3.5,0,0,1-.65,0,4.23,4.23,0,0,1-.58-.17,2.87,2.87,0,0,1-1-.68,3.78,3.78,0,0,1-.93-2.08,9,9,0,0,1,.54-4.22,13,13,0,0,1,2-3.67,11,11,0,0,1,7.08-4.27,7.19,7.19,0,0,1,1.05-.1,9.19,9.19,0,0,1,1,0,16,16,0,0,1,2.08.3,4.67,4.67,0,0,1,1,.3l1,.36a20.45,20.45,0,0,1,1.84,1,16.87,16.87,0,0,1,5.23,6.33,30.94,30.94,0,0,1,2.59,7.76A35.74,35.74,0,0,1,206.75,224.2Z" transform="translate(-88.86 -96.66)"/><path class="cls-2" d="M497.34,292.84a38.48,38.48,0,0,0-8.07-.92,31,31,0,0,0-8,.92,16.27,16.27,0,0,0-7.06,3.6c-.45.48-.91,1-1.31,1.48l-.53.84a3.76,3.76,0,0,0-.47.86,13.15,13.15,0,0,0-.7,1.84,6.09,6.09,0,0,0-.22,1,8,8,0,0,0-.12,1,10.34,10.34,0,0,0,2.41,7.27,12.29,12.29,0,0,0,2.9,2.63,8.06,8.06,0,0,0,3.58,1.35,2.92,2.92,0,0,0,1.7-.31,1.86,1.86,0,0,0,.6-.55,2.53,2.53,0,0,0,.2-.36,3,3,0,0,0,.09-.35,2.75,2.75,0,0,0-.58-1.58,8.66,8.66,0,0,0-1.3-1.42,25.42,25.42,0,0,0-6.78-4.17,33,33,0,0,0-15.64-3,19.64,19.64,0,0,0-7.63,2.12,18.34,18.34,0,0,0-6,5.15,22.48,22.48,0,0,0-3.73,7.06,24,24,0,0,0-1.07,8,35.2,35.2,0,0,0,4.32,15.51,34.6,34.6,0,0,1-4.81-15.49,24.78,24.78,0,0,1,.95-8.16,23.15,23.15,0,0,1,3.73-7.34A18.51,18.51,0,0,1,450,304.3a20.59,20.59,0,0,1,8-2.27,33.92,33.92,0,0,1,16.11,3,26.89,26.89,0,0,1,7,4.38,10.46,10.46,0,0,1,1.43,1.6,3.63,3.63,0,0,1,.73,2.2,3.06,3.06,0,0,1-.17.63,3.35,3.35,0,0,1-.3.52,2.47,2.47,0,0,1-.89.81,3.81,3.81,0,0,1-2.24.43,9.14,9.14,0,0,1-4-1.51,13.29,13.29,0,0,1-3.1-2.84,11,11,0,0,1-2.49-7.87,7.24,7.24,0,0,1,.15-1,6.15,6.15,0,0,1,.24-1,15.54,15.54,0,0,1,.78-1.95,4.56,4.56,0,0,1,.52-.91l.58-.88c.43-.54.93-1,1.41-1.55a16.84,16.84,0,0,1,7.38-3.6,31,31,0,0,1,8.15-.72A35.92,35.92,0,0,1,497.34,292.84Z" transform="translate(-88.86 -96.66)"/><path class="cls-2" d="M415.87,207.7a23,23,0,0,1-.46-9.66,23.66,23.66,0,0,1,3.39-9.13,18.84,18.84,0,0,1,7.15-6.66,19.61,19.61,0,0,1,9.58-2.08,24.82,24.82,0,0,1,9.54,2.32,22.76,22.76,0,0,1,7.93,5.82,7.87,7.87,0,0,1,2.07,4.64,3.53,3.53,0,0,1-1,2.52,5.54,5.54,0,0,1-2.25,1.39,4.23,4.23,0,0,1-2.68-.12,6.6,6.6,0,0,1-2.18-1.43,14.14,14.14,0,0,1-2.86-4.11,29.14,29.14,0,0,1-2.6-9.49,34.69,34.69,0,0,1,.3-9.81,28.9,28.9,0,0,1,3.27-9.27,24.61,24.61,0,0,1,6.43-7.42,25.13,25.13,0,0,1,8.76-4.37,22.12,22.12,0,0,1,4.85-.79,25.88,25.88,0,0,1,4.9.14,34.24,34.24,0,0,1,9.38,2.6,41.35,41.35,0,0,1,8.43,4.82,41.4,41.4,0,0,0-8.52-4.58A34.47,34.47,0,0,0,470,150.7a24.84,24.84,0,0,0-4.8-.07,22.05,22.05,0,0,0-4.71.84,24.76,24.76,0,0,0-14.61,11.6,28.2,28.2,0,0,0-3.13,9,33.88,33.88,0,0,0-.23,9.54,29.53,29.53,0,0,0,2.51,9.17,13.45,13.45,0,0,0,2.64,3.85,4.09,4.09,0,0,0,3.94,1.33,4.51,4.51,0,0,0,1.84-1.12,2.61,2.61,0,0,0,.74-1.88,7,7,0,0,0-1.84-4.07,21.88,21.88,0,0,0-7.6-5.6,24.56,24.56,0,0,0-9.21-2.3,18.86,18.86,0,0,0-9.23,1.9,18.17,18.17,0,0,0-7,6.32,24.29,24.29,0,0,0-3.56,8.88A22.78,22.78,0,0,0,415.87,207.7Z" transform="translate(-88.86 -96.66)"/><path class="cls-10" d="M263.23,542.29a5.6,5.6,0,1,0,3.65,7A5.6,5.6,0,0,0,263.23,542.29Zm3,6.82A4.91,4.91,0,1,1,263,543,4.9,4.9,0,0,1,266.23,549.11Zm-3-6.82a5.6,5.6,0,1,0,3.65,7A5.6,5.6,0,0,0,263.23,542.29Zm3,6.82A4.91,4.91,0,1,1,263,543,4.9,4.9,0,0,1,266.23,549.11Zm-3-6.82a5.6,5.6,0,1,0,3.65,7A5.6,5.6,0,0,0,263.23,542.29Zm3,6.82A4.91,4.91,0,1,1,263,543,4.9,4.9,0,0,1,266.23,549.11Zm-1.13-12.73a11.8,11.8,0,1,0,7.7,14.79A11.8,11.8,0,0,0,265.1,536.38Zm2.61,13.19a6.46,6.46,0,1,1-4.22-8.1A6.46,6.46,0,0,1,267.71,549.57Zm-.83-.26a5.59,5.59,0,1,0-7,3.66A5.59,5.59,0,0,0,266.88,549.31Zm-.65-.2A4.91,4.91,0,1,1,263,543,4.9,4.9,0,0,1,266.23,549.11Zm-3-6.82a5.6,5.6,0,1,0,3.65,7A5.6,5.6,0,0,0,263.23,542.29Zm3,6.82A4.91,4.91,0,1,1,263,543,4.9,4.9,0,0,1,266.23,549.11Zm-3-6.82a5.6,5.6,0,1,0,3.65,7A5.6,5.6,0,0,0,263.23,542.29Zm3,6.82A4.91,4.91,0,1,1,263,543,4.9,4.9,0,0,1,266.23,549.11Z" transform="translate(-88.86 -96.66)"/><polygon class="cls-10" points="171.45 462.44 167.13 461.07 166.4 464.21 170.25 465.42 171.45 462.44"/><polygon class="cls-10" points="163.68 458.38 161.59 454.36 158.85 456.07 160.72 459.64 163.68 458.38"/><polygon class="cls-10" points="161.05 450.02 162.41 445.7 159.27 444.97 158.06 448.82 161.05 450.02"/><polygon class="cls-10" points="165.1 442.25 169.12 440.15 167.42 437.42 163.84 439.29 165.1 442.25"/><polygon class="cls-10" points="173.46 439.62 177.79 440.98 178.51 437.84 174.66 436.63 173.46 439.62"/><polygon class="cls-10" points="181.23 443.67 183.33 447.69 186.06 445.99 184.2 442.41 181.23 443.67"/><polygon class="cls-10" points="183.87 452.03 182.5 456.36 185.64 457.08 186.85 453.23 183.87 452.03"/><polygon class="cls-10" points="179.81 459.8 175.79 461.9 177.5 464.63 181.07 462.77 179.81 459.8"/><path class="cls-2" d="M481.42,504.69a18,18,0,1,0-25.22,3.74A18,18,0,0,0,481.42,504.69ZM473.71,499A8.42,8.42,0,1,1,472,487.19,8.43,8.43,0,0,1,473.71,499Z" transform="translate(-88.86 -96.66)"/><polygon class="cls-2" points="370.57 413.23 365.01 409.1 362.39 413.27 367.34 416.94 370.57 413.23"/><polygon class="cls-2" points="361.37 403.49 360.35 396.64 355.56 397.73 356.46 403.83 361.37 403.49"/><polygon class="cls-2" points="361.75 390.1 365.88 384.53 361.71 381.92 358.04 386.87 361.75 390.1"/><polygon class="cls-2" points="371.49 380.9 378.34 379.88 377.25 375.08 371.15 375.99 371.49 380.9"/><polygon class="cls-2" points="384.88 381.27 390.45 385.4 393.06 381.24 388.11 377.56 384.88 381.27"/><polygon class="cls-2" points="394.08 391.01 395.1 397.87 399.9 396.77 399 390.67 394.08 391.01"/><polygon class="cls-2" points="393.71 404.41 389.57 409.97 393.74 412.59 397.42 407.64 393.71 404.41"/><polygon class="cls-2" points="383.97 413.61 377.11 414.63 378.21 419.42 384.31 418.52 383.97 413.61"/><path class="cls-2" d="M460.49,494.81l3.83,4.83,6.1-.9,2.26-5.73-3.82-4.83-6.1.9Zm7.26-2.47a2,2,0,1,1-2.73.41A2,2,0,0,1,467.75,492.34Z" transform="translate(-88.86 -96.66)"/><path class="cls-2" d="M494.94,153.65a4.9,4.9,0,1,0,3.19,6.14A4.9,4.9,0,0,0,494.94,153.65Zm2.63,6a4.3,4.3,0,1,1-2.81-5.39A4.3,4.3,0,0,1,497.57,159.61Zm-2.63-6a4.9,4.9,0,1,0,3.19,6.14A4.9,4.9,0,0,0,494.94,153.65Zm2.63,6a4.3,4.3,0,1,1-2.81-5.39A4.3,4.3,0,0,1,497.57,159.61Zm-2.63-6a4.9,4.9,0,1,0,3.19,6.14A4.9,4.9,0,0,0,494.94,153.65Zm2.63,6a4.3,4.3,0,1,1-2.81-5.39A4.3,4.3,0,0,1,497.57,159.61Zm-1-11.13a10.32,10.32,0,1,0,6.74,12.94A10.33,10.33,0,0,0,496.57,148.48ZM498.86,160a5.66,5.66,0,1,1-3.69-7.09A5.66,5.66,0,0,1,498.86,160Zm-.73-.23A4.89,4.89,0,1,0,492,163,4.88,4.88,0,0,0,498.13,159.79Zm-.56-.18a4.3,4.3,0,1,1-2.81-5.39A4.3,4.3,0,0,1,497.57,159.61Zm-2.63-6a4.9,4.9,0,1,0,3.19,6.14A4.9,4.9,0,0,0,494.94,153.65Zm2.63,6a4.3,4.3,0,1,1-2.81-5.39A4.3,4.3,0,0,1,497.57,159.61Zm-2.63-6a4.9,4.9,0,1,0,3.19,6.14A4.9,4.9,0,0,0,494.94,153.65Zm2.63,6a4.3,4.3,0,1,1-2.81-5.39A4.3,4.3,0,0,1,497.57,159.61Z" transform="translate(-88.86 -96.66)"/><polygon class="cls-2" points="403.53 71.69 399.74 70.5 399.11 73.25 402.47 74.31 403.53 71.69"/><polygon class="cls-2" points="396.72 68.15 394.89 64.63 392.5 66.12 394.13 69.25 396.72 68.15"/><polygon class="cls-2" points="394.42 60.83 395.61 57.05 392.87 56.41 391.81 59.78 394.42 60.83"/><polygon class="cls-2" points="397.96 54.03 401.49 52.2 399.99 49.8 396.86 51.44 397.96 54.03"/><polygon class="cls-2" points="405.28 51.73 409.07 52.92 409.7 50.17 406.34 49.11 405.28 51.73"/><polygon class="cls-2" points="412.08 55.27 413.92 58.79 416.31 57.3 414.68 54.17 412.08 55.27"/><polygon class="cls-2" points="414.39 62.59 413.19 66.37 415.94 67.01 417 63.64 414.39 62.59"/><polygon class="cls-2" points="410.84 69.39 407.32 71.22 408.81 73.61 411.94 71.98 410.84 69.39"/><path class="cls-2" d="M444.65,341.66a4.9,4.9,0,1,0,3.19,6.14A4.91,4.91,0,0,0,444.65,341.66Zm2.62,6a4.3,4.3,0,1,1-2.8-5.39A4.28,4.28,0,0,1,447.27,347.62Zm-2.62-6a4.9,4.9,0,1,0,3.19,6.14A4.91,4.91,0,0,0,444.65,341.66Zm2.62,6a4.3,4.3,0,1,1-2.8-5.39A4.28,4.28,0,0,1,447.27,347.62Zm-2.62-6a4.9,4.9,0,1,0,3.19,6.14A4.91,4.91,0,0,0,444.65,341.66Zm2.62,6a4.3,4.3,0,1,1-2.8-5.39A4.28,4.28,0,0,1,447.27,347.62Zm-1-11.13A10.32,10.32,0,1,0,453,349.43,10.32,10.32,0,0,0,446.28,336.49ZM448.57,348a5.66,5.66,0,1,1-3.69-7.09A5.66,5.66,0,0,1,448.57,348Zm-.73-.23a4.9,4.9,0,1,0-6.14,3.2A4.88,4.88,0,0,0,447.84,347.8Zm-.57-.18a4.3,4.3,0,1,1-2.8-5.39A4.28,4.28,0,0,1,447.27,347.62Zm-2.62-6a4.9,4.9,0,1,0,3.19,6.14A4.91,4.91,0,0,0,444.65,341.66Zm2.62,6a4.3,4.3,0,1,1-2.8-5.39A4.28,4.28,0,0,1,447.27,347.62Zm-2.62-6a4.9,4.9,0,1,0,3.19,6.14A4.91,4.91,0,0,0,444.65,341.66Zm2.62,6a4.3,4.3,0,1,1-2.8-5.39A4.28,4.28,0,0,1,447.27,347.62Z" transform="translate(-88.86 -96.66)"/><polygon class="cls-2" points="353.23 259.7 349.45 258.51 348.81 261.26 352.18 262.32 353.23 259.7"/><polygon class="cls-2" points="346.43 256.16 344.6 252.64 342.21 254.13 343.84 257.26 346.43 256.16"/><polygon class="cls-2" points="344.13 248.84 345.32 245.06 342.57 244.42 341.51 247.79 344.13 248.84"/><polygon class="cls-2" points="347.67 242.04 351.19 240.21 349.7 237.82 346.57 239.45 347.67 242.04"/><polygon class="cls-2" points="354.99 239.74 358.77 240.93 359.41 238.18 356.04 237.12 354.99 239.74"/><polygon class="cls-2" points="361.79 243.28 363.63 246.8 366.01 245.31 364.38 242.18 361.79 243.28"/><polygon class="cls-2" points="364.1 250.6 362.9 254.38 365.65 255.02 366.71 251.65 364.1 250.6"/><polygon class="cls-2" points="360.55 257.4 357.03 259.23 358.52 261.62 361.65 259.99 360.55 257.4"/><path class="cls-2" d="M156.83,193.65a15.53,15.53,0,1,0-18.76,11.41A15.53,15.53,0,0,0,156.83,193.65Zm-8-2a7.25,7.25,0,1,1-5.33-8.76A7.26,7.26,0,0,1,148.79,191.69Z" transform="translate(-88.86 -96.66)"/><polygon class="cls-2" points="52.26 108.48 46.46 107.06 45.78 111.25 50.94 112.5 52.26 108.48"/><polygon class="cls-2" points="41.7 103.83 38.6 98.73 35.16 101.21 37.92 105.75 41.7 103.83"/><polygon class="cls-2" points="37.52 93.08 38.93 87.28 34.75 86.6 33.49 91.76 37.52 93.08"/><polygon class="cls-2" points="42.16 82.52 47.26 79.42 44.78 75.98 40.25 78.74 42.16 82.52"/><polygon class="cls-2" points="52.91 78.33 58.71 79.75 59.39 75.56 54.23 74.31 52.91 78.33"/><polygon class="cls-2" points="63.47 82.98 66.58 88.08 70.02 85.6 67.26 81.06 63.47 82.98"/><polygon class="cls-2" points="67.66 93.73 66.25 99.53 70.43 100.21 71.69 95.05 67.66 93.73"/><polygon class="cls-2" points="63.02 104.29 57.92 107.39 60.39 110.83 64.93 108.07 63.02 104.29"/><path class="cls-2" d="M136.91,192.82l4.66,2.55,4.53-2.76-.12-5.3-4.65-2.55-4.54,2.76Zm4.94-4.39a1.68,1.68,0,1,1-2,1.24A1.68,1.68,0,0,1,141.85,188.43Z" transform="translate(-88.86 -96.66)"/><path class="cls-7" d="M507.63,354.13a32.36,32.36,0,0,1-5.53-17.87c0-22.63,24.85-41,55.49-41s55.46,18.34,55.46,41-24.83,41-55.46,41c-14.86,0-28.32-4.3-38.27-11.34l-19.11,4.86Z" transform="translate(-88.86 -96.66)"/><path class="cls-2" d="M507.63,354.13a32.74,32.74,0,0,1-5.62-16.9,32.13,32.13,0,0,1,4.43-17.29,43.22,43.22,0,0,1,12.21-13.19,59.14,59.14,0,0,1,16.08-8.15A74.21,74.21,0,0,1,570.45,296a67,67,0,0,1,17.24,5.37,53.36,53.36,0,0,1,14.87,10.25A37.65,37.65,0,0,1,612.12,327a31.16,31.16,0,0,1,.15,18,37.25,37.25,0,0,1-9.3,15.46,52.59,52.59,0,0,1-14.74,10.42,73.39,73.39,0,0,1-52.91,3.24,59.28,59.28,0,0,1-16.13-8l.18,0-19.14,4.74-.22.05.1-.2Zm0,0-7.32,16.68-.13-.15,19.08-5,.1,0,.09.06a60.39,60.39,0,0,0,16,7.84,72.71,72.71,0,0,0,52.39-3.41,52.05,52.05,0,0,0,14.47-10.32,36.36,36.36,0,0,0,9-15.12,30.36,30.36,0,0,0-.21-17.46,36.65,36.65,0,0,0-9.26-15,52.08,52.08,0,0,0-14.59-10.13,65.38,65.38,0,0,0-17-5.38,73.52,73.52,0,0,0-35.4,2.42,58.79,58.79,0,0,0-15.95,8,44,44,0,0,0-12.16,13,31.85,31.85,0,0,0-4.58,17.08A32.57,32.57,0,0,0,507.63,354.13Z" transform="translate(-88.86 -96.66)"/><path class="cls-2" d="M529.05,343v3H516.63V328.14h12.19v3.05h-8.71v4.3h7.53v2.82h-7.53V343Z" transform="translate(-88.86 -96.66)"/><path class="cls-2" d="M531.77,346V328.14h7.91a5,5,0,0,1,2.28.52,5.86,5.86,0,0,1,1.8,1.36,6.57,6.57,0,0,1,1.18,1.91,5.85,5.85,0,0,1,.43,2.15,5.91,5.91,0,0,1-.87,3.16,5,5,0,0,1-2.36,2.06l4.08,6.72h-3.9l-3.65-6h-3.43v6Zm3.47-9h4.36a1.82,1.82,0,0,0,.89-.23,2.21,2.21,0,0,0,.72-.61,3.21,3.21,0,0,0,.48-.92,3.54,3.54,0,0,0,.18-1.14,3.36,3.36,0,0,0-.2-1.16,3.07,3.07,0,0,0-.55-.91,2.3,2.3,0,0,0-.78-.61,2,2,0,0,0-.89-.21h-4.21Z" transform="translate(-88.86 -96.66)"/><path class="cls-2" d="M548.51,346V328.14h7.91a5,5,0,0,1,2.28.52,5.64,5.64,0,0,1,1.8,1.36,6.39,6.39,0,0,1,1.19,1.91,5.83,5.83,0,0,1,.42,2.15,5.91,5.91,0,0,1-.86,3.16,5,5,0,0,1-2.36,2.06L563,346h-3.9l-3.65-6H552v6Zm3.48-9h4.36a1.84,1.84,0,0,0,.89-.23,2.21,2.21,0,0,0,.72-.61,3.21,3.21,0,0,0,.48-.92,3.53,3.53,0,0,0,.17-1.14,3.14,3.14,0,0,0-.2-1.16,2.85,2.85,0,0,0-.54-.91,2.51,2.51,0,0,0-.78-.61,2,2,0,0,0-.89-.21H552Z" transform="translate(-88.86 -96.66)"/><path class="cls-2" d="M572.89,346.15a8.15,8.15,0,0,1-3.56-.77,8.58,8.58,0,0,1-2.74-2,9.44,9.44,0,0,1-2.41-6.26,8.87,8.87,0,0,1,.67-3.42,9.3,9.3,0,0,1,1.84-2.9,8.6,8.6,0,0,1,2.78-2A8.17,8.17,0,0,1,573,328a7.87,7.87,0,0,1,3.54.8,8.8,8.8,0,0,1,2.73,2.08,9.41,9.41,0,0,1,1.76,2.92,9.2,9.2,0,0,1-1.83,9.6,8.64,8.64,0,0,1-2.77,2A8.25,8.25,0,0,1,572.89,346.15Zm-5.18-9.07a7,7,0,0,0,.35,2.24,5.9,5.9,0,0,0,1,1.92,5,5,0,0,0,1.64,1.33,4.63,4.63,0,0,0,2.2.5,4.73,4.73,0,0,0,2.23-.51,5.29,5.29,0,0,0,1.64-1.37,6.11,6.11,0,0,0,1-1.93,7.15,7.15,0,0,0,0-4.42,6.55,6.55,0,0,0-1-1.92,5.14,5.14,0,0,0-1.64-1.32,4.85,4.85,0,0,0-2.18-.49,4.66,4.66,0,0,0-2.24.52A4.94,4.94,0,0,0,569,333a5.88,5.88,0,0,0-1,1.91A7.09,7.09,0,0,0,567.71,337.08Z" transform="translate(-88.86 -96.66)"/><path class="cls-2" d="M584.3,346V328.14h7.91a5,5,0,0,1,2.28.52,5.64,5.64,0,0,1,1.8,1.36,6.37,6.37,0,0,1,1.18,1.91,5.65,5.65,0,0,1,.43,2.15,5.91,5.91,0,0,1-.87,3.16,5,5,0,0,1-2.35,2.06l4.08,6.72h-3.9l-3.66-6h-3.42v6Zm3.48-9h4.36a1.87,1.87,0,0,0,.89-.23,2.21,2.21,0,0,0,.72-.61,3.21,3.21,0,0,0,.48-.92,3.83,3.83,0,0,0,.17-1.14,3.36,3.36,0,0,0-.2-1.16,2.85,2.85,0,0,0-.54-.91,2.51,2.51,0,0,0-.78-.61,2.08,2.08,0,0,0-.9-.21h-4.2Z" transform="translate(-88.86 -96.66)"/></svg>