<svg id="Слой_1" data-name="Слой 1" xmlns="http://www.w3.org/2000/svg" viewBox="0 0 595.24 433.28"><defs><style>.cls-1{fill:#ececec;}.cls-2{fill:#dcdcdc;}.cls-3{fill:#a8a8a8;}.cls-4{fill:#fff;}.cls-5{fill:#ffc800;}.cls-6{fill:#1a2e35;}.cls-7{fill:#ed776a;}.cls-8{fill:#375a64;}.cls-9{fill:#2b454e;}</style></defs><path class="cls-1" d="M616.4,403.82l-23.5.5-11.93.2c-4,.08-8,.06-12,.1h-.8v-.8l-.1-20v-.9h.9l23.71.11c7.9,0,15.8.2,23.7.29h.5v.48c0,3.4-.15,6.78-.23,10.13Zm0,0-.25-10.13c-.08-3.33-.2-6.63-.23-9.91l.48.49c-7.9.09-15.8.28-23.7.29l-23.71.12.89-.9-.09,20-.8-.8c3.9,0,7.8,0,11.72.1l11.78.2Z" transform="translate(-48.11 -180.05)"/><path class="cls-1" d="M590,429.08l-23.5.5-11.93.2c-4,.09-8,.07-12,.1h-.8v-.81l-.1-20v-.9h.9l23.7.11c7.91,0,15.81.21,23.71.3h.5v.49c0,3.4-.15,6.78-.23,10.12Zm0,0L589.7,419c-.08-3.34-.2-6.63-.24-9.91l.49.49c-7.9.09-15.8.28-23.71.29l-23.7.11.89-.89-.1,20-.79-.79c3.9,0,7.8,0,11.72.09l11.78.2Z" transform="translate(-48.11 -180.05)"/><path class="cls-1" d="M642.85,429.08l-23.5.5-11.92.2c-4,.09-8,.07-12,.1h-.8v-.81l-.1-20v-.9h.9l23.71.11c7.9,0,15.8.21,23.7.3h.5v.49c0,3.4-.15,6.78-.23,10.12Zm0,0L642.6,419c-.08-3.34-.2-6.63-.23-9.91l.48.49c-7.9.09-15.8.28-23.7.29l-23.71.11.89-.89-.09,20-.8-.79c3.9,0,7.8,0,11.72.09l11.78.2Z" transform="translate(-48.11 -180.05)"/><path class="cls-1" d="M477.1,236.53a6.08,6.08,0,0,1-4.24,10.41,6.41,6.41,0,0,1-4.43-1.74l-27.09-27.46c-.29-.1-.38-.29-.48-.58a1.48,1.48,0,0,0-.29-.2,2.59,2.59,0,0,1-.29-.77.52.52,0,0,1-.29-.38c-.09-.19-.09-.48-.19-.58,0-.29-.19-.39-.19-.48v-.68c0-.19-.1-.29-.1-.58,0-.09.1-.38.1-.48v-.67c0-.19.19-.29.19-.39.1-.29.1-.48.19-.77,0-.09.1-.09.1-.19a7.55,7.55,0,0,1,.48-.87.19.19,0,0,1,.19-.19,1.93,1.93,0,0,1,.58-.68l27.09-27.46a6.29,6.29,0,0,1,8.67,0,6.1,6.1,0,0,1,0,8.67l-22.84,23Z" transform="translate(-48.11 -180.05)"/><path class="cls-1" d="M501.67,239.61l23.61-56.18a5.36,5.36,0,0,1,7-2.8,5.2,5.2,0,0,1,2.7,6.84l-23.61,56.29a5.35,5.35,0,0,1-4.92,3.18,4.52,4.52,0,0,1-1.92-.39A5.21,5.21,0,0,1,501.67,239.61Z" transform="translate(-48.11 -180.05)"/><path class="cls-1" d="M581.66,217s0,.1-.09.1a5.44,5.44,0,0,1-.68.68L553.81,245.2a6.27,6.27,0,0,1-8.67,0,6.1,6.1,0,0,1,0-8.67l22.84-23-22.84-23a6.1,6.1,0,0,1,0-8.67,6.29,6.29,0,0,1,8.67,0l27.08,27.46a5.44,5.44,0,0,1,.68.68c.09,0,.09.19.09.19a8.65,8.65,0,0,1,.49.87c0,.1.09.1.09.19a5.17,5.17,0,0,0,.29.87c0,.1.1.1.1.29V213c0,.1.09.39.09.48s-.09.39-.09.49v.77c0,.09-.1.09-.1.19-.19.39-.19.68-.29.87s-.09.09-.09.29S581.86,216.58,581.66,217Z" transform="translate(-48.11 -180.05)"/><path class="cls-1" d="M554.64,412.47l14.85-23.94L562.12,384a6.7,6.7,0,0,1-3.07-6.3,40.32,40.32,0,0,0,.14-4.11,6.77,6.77,0,0,1,3.49-6.16l7.6-4.07L557,338.49l-7.6,4.08a6.57,6.57,0,0,1-6.88-.38,39.64,39.64,0,0,0-3.82-2.36,6.58,6.58,0,0,1-3.41-6l.28-8.62-28.16-.87-.26,8.65a6.63,6.63,0,0,1-3.82,5.78c-.66.3-1.31.63-2,1s-1.28.71-1.9,1.08a6.57,6.57,0,0,1-6.9,0l-7.38-4.58L470.3,360.18l7.39,4.59a6.65,6.65,0,0,1,3.05,6.29,40,40,0,0,0-.13,4.1,6.77,6.77,0,0,1-3.5,6.15l-7.6,4.08,13.32,24.83,7.6-4.07a6.77,6.77,0,0,1,7.06.49,36.72,36.72,0,0,0,3.49,2.15,6.67,6.67,0,0,1,3.55,6l-.27,8.71,28.16.87.27-8.64a6.7,6.7,0,0,1,3.91-5.81c.63-.3,1.25-.61,1.87-.94s1.22-.67,1.81-1a6.7,6.7,0,0,1,7-.05ZM533.36,393.1a23.08,23.08,0,1,1,8.14-26.9A23.07,23.07,0,0,1,533.36,393.1Z" transform="translate(-48.11 -180.05)"/><path class="cls-1" d="M399.14,469.39l17.09-9.86-3-5.23a4.69,4.69,0,0,1,.17-4.92,27,27,0,0,0,1.48-2.56,4.69,4.69,0,0,1,4.17-2.59h6V424.49h-6a4.68,4.68,0,0,1-4.17-2.6,26.86,26.86,0,0,0-1.48-2.55,4.69,4.69,0,0,1-.17-4.92l3-5.23-17.09-9.87-3,5.26a4.66,4.66,0,0,1-4.35,2.29c-.48,0-1,0-1.45,0s-1,0-1.45,0a4.67,4.67,0,0,1-4.34-2.28l-3-5.27-17.1,9.87,3,5.24a4.69,4.69,0,0,1-.18,4.92,29.11,29.11,0,0,0-1.47,2.55,4.7,4.7,0,0,1-4.17,2.59h-6v19.74h6a4.68,4.68,0,0,1,4.17,2.59,27.54,27.54,0,0,0,1.47,2.54,4.71,4.71,0,0,1,.18,4.93l-3,5.24,17.1,9.86,3-5.24a4.68,4.68,0,0,1,4.34-2.29l1.47,0c.48,0,1,0,1.45,0a4.7,4.7,0,0,1,4.36,2.29Zm-8.83-18.87a16.17,16.17,0,1,1,16.17-16.15A16.15,16.15,0,0,1,390.31,450.52Z" transform="translate(-48.11 -180.05)"/><polygon class="cls-2" points="13.03 428.85 213.5 428.85 173.53 196.34 23.62 196.34 13.03 428.85"/><polygon class="cls-3" points="13.03 428.85 30.61 428.85 40.47 196.34 23.62 196.34 13.03 428.85"/><rect class="cls-4" x="279.57" y="64.77" width="184.61" height="117.76"/><path class="cls-1" d="M513.45,363.75H326.51V243.66H513.45Zm-184.61-2.33H511.12V246H328.84Z" transform="translate(-48.11 -180.05)"/><rect class="cls-5" x="279.57" y="64.77" width="184.61" height="22.27"/><path class="cls-1" d="M513.45,268.26H326.51v-24.6H513.45Zm-184.61-2.33H511.12V246H328.84Z" transform="translate(-48.11 -180.05)"/><path class="cls-3" d="M348.58,256.12a5.61,5.61,0,1,1-5.6-5.6A5.61,5.61,0,0,1,348.58,256.12Z" transform="translate(-48.11 -180.05)"/><path class="cls-1" d="M371.47,256.12a5.61,5.61,0,1,1-5.6-5.6A5.61,5.61,0,0,1,371.47,256.12Z" transform="translate(-48.11 -180.05)"/><path class="cls-4" d="M394.36,256.12a5.61,5.61,0,1,1-5.61-5.6A5.61,5.61,0,0,1,394.36,256.12Z" transform="translate(-48.11 -180.05)"/><path class="cls-1" d="M359.54,311.13c.06-12.28,10.36-22.27,22.76-22.33a23.21,23.21,0,0,1,14.33,4.84,3.56,3.56,0,0,1-4.34,5.64,15.48,15.48,0,0,0-10-3.41,16.43,16.43,0,0,0-11.16,4.46,15.33,15.33,0,0,0-4.53,10.8,15.08,15.08,0,0,0,4.53,10.79,16.4,16.4,0,0,0,11.16,4.47,15.55,15.55,0,0,0,10-3.42,3.76,3.76,0,0,1,5,.69,3.65,3.65,0,0,1-.62,5,23.21,23.21,0,0,1-14.33,4.84A22.69,22.69,0,0,1,359.54,311.13Z" transform="translate(-48.11 -180.05)"/><path class="cls-1" d="M407.92,322.66a3.24,3.24,0,0,1,4.53-.43c2.72,2.23,7.44,4.84,11.84,4.78a13.37,13.37,0,0,0,7.76-2.3,5.56,5.56,0,0,0,2.66-4.46,3.49,3.49,0,0,0-.56-2,5.89,5.89,0,0,0-1.85-1.86,25.06,25.06,0,0,0-8.5-2.92h-.13a33.58,33.58,0,0,1-8-2.41,13.39,13.39,0,0,1-5.77-4.84,9.54,9.54,0,0,1-1.42-5.09,11.42,11.42,0,0,1,5-9.05,18.32,18.32,0,0,1,10.73-3.29c5.95,0,10.36,2.91,13.52,5a3.19,3.19,0,0,1,.87,4.4,3.14,3.14,0,0,1-4.41.94c-3.16-2.11-6.2-4-10-4a11.88,11.88,0,0,0-6.95,2.1,5,5,0,0,0-2.36,3.91,3,3,0,0,0,.44,1.74,6.14,6.14,0,0,0,1.67,1.61,21.39,21.39,0,0,0,7.76,2.73h.12a36.78,36.78,0,0,1,8.56,2.6,14.57,14.57,0,0,1,6.2,5.15,10.07,10.07,0,0,1,1.49,5.28,12,12,0,0,1-5.33,9.61,19.42,19.42,0,0,1-11.48,3.54c-6.7-.07-12.34-3.42-15.88-6.21A3.3,3.3,0,0,1,407.92,322.66Z" transform="translate(-48.11 -180.05)"/><path class="cls-1" d="M448.67,322.66a3.24,3.24,0,0,1,4.53-.43c2.72,2.23,7.44,4.84,11.84,4.78a13.37,13.37,0,0,0,7.76-2.3,5.56,5.56,0,0,0,2.66-4.46,3.49,3.49,0,0,0-.56-2A5.83,5.83,0,0,0,473,316.4a24.91,24.91,0,0,0-8.49-2.92h-.13a33.58,33.58,0,0,1-8-2.41,13.39,13.39,0,0,1-5.77-4.84,9.54,9.54,0,0,1-1.42-5.09,11.42,11.42,0,0,1,5-9.05,18.32,18.32,0,0,1,10.73-3.29c5.95,0,10.36,2.91,13.52,5a3.19,3.19,0,0,1,.87,4.4,3.14,3.14,0,0,1-4.41.94c-3.16-2.11-6.2-4-10-4a11.88,11.88,0,0,0-6.95,2.1,5,5,0,0,0-2.36,3.91,3,3,0,0,0,.44,1.74,6.14,6.14,0,0,0,1.67,1.61,21.39,21.39,0,0,0,7.76,2.73h.12a36.78,36.78,0,0,1,8.56,2.6,14.57,14.57,0,0,1,6.2,5.15,10.07,10.07,0,0,1,1.49,5.28,12,12,0,0,1-5.33,9.61A19.42,19.42,0,0,1,465,333.4c-6.7-.07-12.34-3.42-15.88-6.21A3.3,3.3,0,0,1,448.67,322.66Z" transform="translate(-48.11 -180.05)"/><polygon class="cls-6" points="408 202.5 415.86 221.49 408.01 224.74 400.1 205.62 387.12 215.69 387.12 162.2 424.57 200.03 408 202.5"/><path class="cls-6" d="M435.23,336.42a7.93,7.93,0,0,1,0-5.38,7.78,7.78,0,0,1,0,5.38Z" transform="translate(-48.11 -180.05)"/><path class="cls-6" d="M430.6,338.34a7.06,7.06,0,0,1-2.24-1.57,6.88,6.88,0,0,1-1.56-2.23A7,7,0,0,1,429,336.1,7.2,7.2,0,0,1,430.6,338.34Z" transform="translate(-48.11 -180.05)"/><path class="cls-6" d="M428.68,343a7.78,7.78,0,0,1-5.38,0,6.92,6.92,0,0,1,2.69-.47A7,7,0,0,1,428.68,343Z" transform="translate(-48.11 -180.05)"/><path class="cls-6" d="M430.6,347.6a7.82,7.82,0,0,1-3.8,3.81,6.93,6.93,0,0,1,1.56-2.24A7.23,7.23,0,0,1,430.6,347.6Z" transform="translate(-48.11 -180.05)"/><path class="cls-6" d="M441.78,343a7.11,7.11,0,0,1,2.69-.47,6.85,6.85,0,0,1,2.69.47,7.78,7.78,0,0,1-5.38,0Z" transform="translate(-48.11 -180.05)"/><path class="cls-6" d="M439.87,338.34a7,7,0,0,1,1.56-2.24,6.93,6.93,0,0,1,2.24-1.56,6.91,6.91,0,0,1-1.57,2.23A7,7,0,0,1,439.87,338.34Z" transform="translate(-48.11 -180.05)"/><path class="cls-6" d="M172.27,268.87c-24.66,21.14-17.79,52-28.09,68.68-6.3,10.22-26.8,21-30.88,32.8-6.7,19.36,9.71,26.31,6,36.83-5.2,14.9-25.15,13.74-28.75,38.13s23.24,50.32,86.91,57.34,98.65-16.28,100.94-37-18.9-27.57-20.35-43c-.92-9.88,12.16-16.75,12.82-34.92s-17-24.08-19.58-39.5,5.64-52.93-17-72.07S184.43,258.45,172.27,268.87Z" transform="translate(-48.11 -180.05)"/><path class="cls-6" d="M175.12,269.43a52.44,52.44,0,0,0-16.36,18.88c-4.15,7.88-6.89,16.43-9.1,25-1.31,5.08-2.51,10.3-4.95,15a38.19,38.19,0,0,1-8.55,10.55c-6.88,6.23-15.11,11-21.29,18-5.86,6.63-10.42,15.5-8.08,24.53,1.27,4.92,4.51,8.93,6.53,13.51,1.9,4.35,2.67,9.75-1.06,13.36-3.18,3.08-7.8,4.49-11.41,7a40.14,40.14,0,0,0-9.29,9,31.11,31.11,0,0,0-5.86,24.49c3.74,19.81,22.33,31.07,39.48,38.16q3.6,1.49,7.2,2.91c.37.15.69-.38.31-.55-17.22-7.71-37.2-16.75-43.81-36a29,29,0,0,1,3-25.56,36.79,36.79,0,0,1,9.09-9.57c3.47-2.56,7.46-4.13,11-6.56a11.71,11.71,0,0,0,5.41-10.46c-.22-4.65-2.49-8.71-4.74-12.66-2.38-4.18-4.4-8.4-4.06-13.34.31-4.62,2.46-9,5.09-12.72,5.36-7.59,13.3-12.57,20.41-18.32s12.88-12.45,15.49-21.43c1.32-4.54,2.14-9.21,3.28-13.8a122.42,122.42,0,0,1,3.8-12.59c3-8.14,7.25-16,13.46-22.19a34.48,34.48,0,0,1,5.26-4.31C175.55,269.62,175.33,269.28,175.12,269.43Z" transform="translate(-48.11 -180.05)"/><path class="cls-6" d="M281.27,450.5a23.89,23.89,0,0,0-4.41-9.26c-2.22-2.81-4.89-5.18-7.35-7.77s-4.52-5.2-5.2-8.59c-.82-4.08.89-8,2.8-11.48,2-3.67,4.23-7.15,5.7-11.09a39.78,39.78,0,0,0-4-35.55c-2.17-3.56-4.62-6.94-6.81-10.48a51.18,51.18,0,0,1-5.65-12.36c-2.87-9.59-3.48-19.71-5.83-29.42a152,152,0,0,0-10.34-28.88c-.11-.23-.45,0-.34.21a132.77,132.77,0,0,1,9,26.09c2,8.52,2.8,17.2,4.3,25.81a65.66,65.66,0,0,0,3.23,12.41A66.7,66.7,0,0,0,262,360.78c4.3,7,8.75,13.94,9.93,22.26a38.9,38.9,0,0,1-4.1,23.83c-3.35,6.33-8,13.31-5.11,20.72,2.48,6.28,8.46,10,12.43,15.24A25.14,25.14,0,0,1,279.43,463c-3.43,17.83-21.29,26.68-38,27.56a.41.41,0,0,0,0,.81c14.54-.17,30.36-6.56,37.18-20.18A30.87,30.87,0,0,0,281.27,450.5Z" transform="translate(-48.11 -180.05)"/><path class="cls-7" d="M194.3,429.7c16.13,64.05,32.06,113.05,50.32,125.05C259.35,564.43,280,571.22,301.3,576c25,5.55,50.82,8.34,68.94,9.85,7.14.6,13.08,1,17.29,1.26,10.44.67,27.51-68.2,20.13-76.61-1.71-1.91-8.58-3.4-18.22-4.62-32.46-4.08-96.38-5-100.19-8.66-3.95-3.8-36.54-49.43-64.49-85.29C205.48,387.14,185.35,394.18,194.3,429.7Z" transform="translate(-48.11 -180.05)"/><path class="cls-7" d="M366.62,580.14c1.29.6,19.7,8.6,31,11.43,8.44,2.11,32.88,7.54,36.13-1.52C436,583.88,422,579,412.16,575.32c-5.18-1.94-11.65-7-10.27-10.37,2.41-5.82,15.74-.56,24.56,4.14,17,9.08,39.9,25.71,49.78,16.87,3.73-3.34-1-9-7.71-14.48,10.87,6.27,22.39,11.31,26.68,7.77,2.47-2,2.49-4.68,1-7.65,3.31.95,6.2.63,8.14-1.58,3.32-3.74,1.44-9-2.53-14.33a4.13,4.13,0,0,0,3.06-2.18c6.89-11.41-30.87-42.06-43.63-44.59-37.55-7.47-77-2.78-77-2.78C370,518.36,366.58,580.12,366.62,580.14Z" transform="translate(-48.11 -180.05)"/><path class="cls-6" d="M420.07,543.42a60.75,60.75,0,0,1,25.18,8.65c8.91,5.64,16.11,13.53,24.38,20a.22.22,0,0,1-.28.34c-3.9-3.35-8.17-6.31-12.2-9.51s-7.82-6.38-12-9.21A60.08,60.08,0,0,0,420,543.58.08.08,0,0,1,420.07,543.42Z" transform="translate(-48.11 -180.05)"/><path class="cls-6" d="M426.42,527.37c9.88,2.32,20,4.65,29.26,9,10.12,4.69,18.2,12.66,26.14,20.32q7.15,6.92,14,14.12c.2.2-.07.54-.28.34q-12.09-11.88-24.88-23a79.67,79.67,0,0,0-27-15.63c-5.68-1.93-11.49-3.42-17.3-4.9C426.28,527.52,426.31,527.35,426.42,527.37Z" transform="translate(-48.11 -180.05)"/><path class="cls-6" d="M436.37,513.18c9.57,1.6,17.93,3,26.53,7.74,11.39,6.34,22.57,17.3,26.49,21.19,4.33,4.29,8.52,8.73,12.64,13.23.16.18-.15.48-.32.3A315.83,315.83,0,0,0,471.65,528a63,63,0,0,0-16.6-9.94c-6-2.33-12.4-3.54-18.7-4.81C436.31,513.23,436.32,513.17,436.37,513.18Z" transform="translate(-48.11 -180.05)"/><path class="cls-5" d="M206.12,494.26l57.55-33.94s-24.56-39.68-45.56-58.42-29.45-4-26.27,23.19S206.12,494.26,206.12,494.26Z" transform="translate(-48.11 -180.05)"/><path class="cls-6" d="M254.61,451.7C245.38,456.41,220.76,470,206,481c-.09.06.13.45.23.4,13.73-7.19,40-23.56,48.74-29.09C255.1,452.17,254.78,451.61,254.61,451.7Z" transform="translate(-48.11 -180.05)"/><path class="cls-6" d="M258.94,463.13l-52.81,31.13S195,452.32,191.84,425.09c-2-17.58.74-29.93,8.64-31.43Z" transform="translate(-48.11 -180.05)"/><path class="cls-5" d="M261.72,608.7H71.43S112.76,449.08,151,404.15c.86-1,1.74-2,2.63-2.93a5.5,5.5,0,0,1,.52-.55,40.64,40.64,0,0,1,10.22-7.9c.67-.37,1.34-.7,2-1,14.73-6.77,30.29-1.16,41.52,8.45,3.57,3.05,43.9,55.52,47.47,75.54,3.08,17.66-8.85,36.63-8.85,36.63Z" transform="translate(-48.11 -180.05)"/><path class="cls-6" d="M218,505.55a164.31,164.31,0,0,0-24,4.17c-3.92,1-7.75,2.25-11.58,3.55-1.91.65-3.83,1.23-5.77,1.8a25.63,25.63,0,0,1-6.19,1.22.15.15,0,0,0,0,.29,44.06,44.06,0,0,0,6-.16,43.54,43.54,0,0,0,5.68-1.12c4-1,7.91-2.22,11.88-3.28,8-2.13,16-4.26,24.14-5.81C218.48,506.14,218.38,505.5,218,505.55Z" transform="translate(-48.11 -180.05)"/><path class="cls-6" d="M238.1,512.55a177.65,177.65,0,0,0-20.11-.79c-3.37.07-6.7.34-10,.69-1.6.17-3.19.37-4.78.58-1.75.24-3.47.71-5.22.93-.18,0-.18.3,0,.29,1.66-.15,3.35,0,5-.08l5-.18c3.35-.11,6.69-.19,10-.33,6.7-.29,13.38-.5,20.09-.56C238.48,513.1,238.45,512.59,238.1,512.55Z" transform="translate(-48.11 -180.05)"/><path class="cls-7" d="M140.15,413.4c-35.82,50.42-82.29,137.84-58.39,153.92,39.3,26.44,147.43,33.56,172.14,34.18,10.67.26,25.23-70.66,17.35-78.91s-121.08-3.84-122.52-10.68c-.82-3.87,13-39.6,20.05-82.47C176.89,380,150.25,399.19,140.15,413.4Z" transform="translate(-48.11 -180.05)"/><path class="cls-7" d="M252.26,518.66s32.29-3.31,53.5-4.49c11.84-.65,32.23,0,41.15,3.53,13.34,5.22,65.77,35.61,58.68,48.48C399.17,577.83,357.43,546,357.43,546s45,28.39,34.65,41-52.69-29.62-52.69-29.62,45.54,30.2,32.85,41.53c-9.59,8.55-50.13-27.53-50.13-27.53s39,26.23,29.48,35.45c-10.48,10.19-50-20.76-50-20.76-28.05,19.38-49.33,17.14-64.29,13.74C233.69,599,252.26,518.66,252.26,518.66Z" transform="translate(-48.11 -180.05)"/><path class="cls-6" d="M342.51,535.19c5.41,3.15,10.89,6.29,16,9.91s10.08,7.4,14.83,11.48c11.63,10,17.36,18.06,17,17.6-9.65-10.89-27.72-24.1-32.82-27.72s-10-7.47-15.1-11.08C342.24,535.29,342.39,535.12,342.51,535.19Z" transform="translate(-48.11 -180.05)"/><path class="cls-6" d="M329.13,553.38c6.73,4.32,13.56,8.35,20.09,13s15.4,11.33,21.57,16.35c.48.39.12,1.24-.37.87-6.37-4.78-15.76-11.23-22.18-15.93S335.58,558,329,553.54C328.92,553.47,329,553.32,329.13,553.38Z" transform="translate(-48.11 -180.05)"/><path class="cls-6" d="M314.84,566.93C325.45,573,334.93,581,344.05,589.1c.45.4,0,.51-.53.13-9.57-7.55-17-13.55-28.89-21.93C314.44,567.17,314.62,566.8,314.84,566.93Z" transform="translate(-48.11 -180.05)"/><path class="cls-6" d="M247.62,518.08c14.73-1.5,58-5.73,72.83-6,13.05-.23,24.1,1.55,35.71,7.74,24.89,13.26,41.72,30,46,35.07,2.58,3.07,6.39,8,3.72,11.9-3.26,4.79-17.26,1.75-32.83-9.85-.56-.42-.26-.74.31-.36,21.67,14.39,29.51,11.74,31.34,8.75,1.19-1.93-.42-4.93-1.87-7.2a46,46,0,0,0-8-8.8,200.13,200.13,0,0,0-33-23.8,78.47,78.47,0,0,0-42.18-11.41c-15.17.2-56.82,4.55-72,4.53C247.29,518.65,247.3,518.12,247.62,518.08Z" transform="translate(-48.11 -180.05)"/><path class="cls-6" d="M393.86,580.31c-1.22-3.95-4.47-7.34-7.08-10.45a74.59,74.59,0,0,0-10.64-10.68c-.18-.14-.42.08-.26.25a116.27,116.27,0,0,1,9.5,10.35,64.6,64.6,0,0,1,4.37,6.28c1.28,2.09,2.76,4.52,2.45,7.07-.59,4.89-6.68,5.36-10.4,4.41a40.92,40.92,0,0,1-7-2.63,67,67,0,0,1-8.81-5.42c-.25-.18-.81,0-.56.15,5.85,4.6,17,14.27,24.95,9.58A7.55,7.55,0,0,0,393.86,580.31Z" transform="translate(-48.11 -180.05)"/><path class="cls-5" d="M95.49,465.92l62.86,22.65s14.87-44.25,15.9-72.37-15.7-25.25-34.62-5.42S95.49,465.92,95.49,465.92Z" transform="translate(-48.11 -180.05)"/><path class="cls-6" d="M159.2,476.08c-9.51-4.09-35.66-14.4-53.57-18.77-.11,0-.26.39-.16.43,14.3,6,43.65,15.75,53.5,19C159.16,476.76,159.38,476.16,159.2,476.08Z" transform="translate(-48.11 -180.05)"/><path class="cls-6" d="M171.35,452.27a.08.08,0,0,0-.15-.06c-1.14,2.17-2.14,4.37-3.1,6.62q1.65-7.38,2.94-14.79a.14.14,0,0,0-.27-.06c-4.22,14.5-8.79,28.92-12.7,43.5-1.61-.08-3.22-.18-4.81-.4a.22.22,0,0,0-.09.42c1.74.42,3.46,1,5.14,1.55a.83.83,0,0,0,1.09-.36,215.79,215.79,0,0,0,7.66-25.35c.66-1.31,1.3-2.63,1.87-4A52.43,52.43,0,0,0,171.35,452.27Z" transform="translate(-48.11 -180.05)"/><path class="cls-4" d="M182.78,385.89c-14.27,2.64-14.41,18.4-10.32,29.88S185.52,441,193,441.36s10.7-18.19,10.7-18.19,9.46,12.65,15.41,9.16S216,406.4,208.76,399C198.22,388.23,190.36,384.49,182.78,385.89Z" transform="translate(-48.11 -180.05)"/><path class="cls-7" d="M174.29,394c.3,3.4,13,27,28.1,28.48,4.93.46,8.67-26.36,8.67-26.36l.73-1.92L222,367.34l-29.58-25.56-4.31-3.45s-2.3,7.53-5.07,16.93c-.13.44-.26.87-.39,1.34s-.34,1-.48,1.52c-.43,1.4-.86,2.83-1.27,4.27-.31,1.09-.62,2.15-.9,3.3s-.6,2.28-.92,3.43C176.18,380.56,174.19,392.54,174.29,394Z" transform="translate(-48.11 -180.05)"/><path class="cls-6" d="M183,355.26a57.57,57.57,0,0,0,28.78,38.92L222,367.34l-29.58-25.56-4.31-3.45S185.78,345.86,183,355.26Z" transform="translate(-48.11 -180.05)"/><path class="cls-7" d="M266.07,328.44c-2.6,50.31-33,54.44-43.87,53.87-9.85-.52-43.31-3.54-45.93-53.85s21.6-65,44.18-65S268.67,278.14,266.07,328.44Z" transform="translate(-48.11 -180.05)"/><path class="cls-6" d="M259.42,319.39a31.88,31.88,0,0,1-3.34-1c-1.28-.39-2.34-.56-3.22-1.64a1.79,1.79,0,0,1,.16-2.18c1.21-1.2,2.89-1.11,4.45-.71a6.48,6.48,0,0,1,3.91,2.6A1.91,1.91,0,0,1,259.42,319.39Z" transform="translate(-48.11 -180.05)"/><path class="cls-6" d="M227.24,317.25a33.26,33.26,0,0,0,3.45-.47c1.32-.19,2.39-.21,3.42-1.14a1.79,1.79,0,0,0,.16-2.19c-1-1.36-2.69-1.52-4.29-1.35a6.5,6.5,0,0,0-4.26,2A1.91,1.91,0,0,0,227.24,317.25Z" transform="translate(-48.11 -180.05)"/><path class="cls-6" d="M232.35,329.69c0-.13-.27.15-.28.29-.06,3.43-.71,7.35-3.87,8.33-.09,0-.09.21,0,.2C232,338.16,232.84,333,232.35,329.69Z" transform="translate(-48.11 -180.05)"/><path class="cls-6" d="M229.47,326c-5.48-.69-6.47,10.33-1.39,11S234.08,326.54,229.47,326Z" transform="translate(-48.11 -180.05)"/><path class="cls-6" d="M227.26,326.35c-1,.54-2.06,1.56-3.24,1.57-1.35,0-2.26-1.24-3-2.43-.08-.12-.19,0-.2.11-.22,2.11.4,4.36,2.63,4.87,2,.48,3.7-1.26,4.41-3.34C228,326.75,227.67,326.13,227.26,326.35Z" transform="translate(-48.11 -180.05)"/><path class="cls-6" d="M251.09,330.64c0-.13.25.19.23.33-.44,3.4-.37,7.37,2.61,8.81.09,0,.06.21-.05.19C250.16,339.07,250.12,333.8,251.09,330.64Z" transform="translate(-48.11 -180.05)"/><path class="cls-6" d="M254.48,327.37c5.53.12,4.89,11.17-.23,11.07S249.84,327.27,254.48,327.37Z" transform="translate(-48.11 -180.05)"/><path class="cls-6" d="M256.74,328.23c.84.64,1.65,1.76,2.69,1.88,1.2.15,2.16-1,3-2.09.09-.11.17,0,.17.13-.07,2.12-.89,4.28-3,4.56-1.87.27-3.12-1.63-3.51-3.76C256.07,328.55,256.41,328,256.74,328.23Z" transform="translate(-48.11 -180.05)"/><path class="cls-6" d="M229.81,356c.71.91,1.37,2.11,2.59,2.38a9,9,0,0,0,3.77-.36.12.12,0,0,1,.12.2,4.62,4.62,0,0,1-4.56,1.26c-1.5-.48-2.09-1.91-2.27-3.37C229.44,355.93,229.71,355.89,229.81,356Z" transform="translate(-48.11 -180.05)"/><path class="cls-6" d="M244.39,346.42s.3,5.16.12,7.57c0,.23-8.94,1.35-12.32-4.87a.25.25,0,0,1,.39-.31c3,2.58,6.45,3.45,10.22,3.81.22-.65-.82-8.82-.44-8.82,1.33,0,3.85,1.08,5.38,1.66-.34-10.77-2.39-21.4-2.56-32.13a.33.33,0,0,1,.64-.11c2.94,11,3.6,23.38,4.23,34.49C250.14,349.1,245.32,346.9,244.39,346.42Z" transform="translate(-48.11 -180.05)"/><path class="cls-6" d="M179.89,330.51c12.31,1.19,20.85-36,21.84-40.58-.47,2.91-2.95,18.36-1.85,19.14.29.18,1.69.08,4-.22h0a37,37,0,0,1,1.17-5.49c.22-.85.08,1.91.11,5.32.72-.1,1.5-.23,2.34-.33a44.92,44.92,0,0,1,2.73-11.63c.55-1.42.07,5.22.71,11.16,8.76-1.16,21.36-2.54,32.83-1.41,3.07.29,5.7.67,8,1.09.62-4.57.74-9.52.94-8.43a44.73,44.73,0,0,1,.79,8.76c1.25.24,2.41.48,3.44.73,1.17-6.43-.54-17.15.29-15.44a46.11,46.11,0,0,1,4.14,16.75c4.3,1.44,5.4,2.46,5.67,1.33.49-2,.35-20.46-12-35.59-13.41-16.44-43.49-24.1-63.64-4.16,0,0-15.41,7.38-19.61,22S172.78,329.82,179.89,330.51Z" transform="translate(-48.11 -180.05)"/><path class="cls-7" d="M184.44,329s-8.73-17.09-16.33-14.19-2.56,26.62,5.31,30.86a8.51,8.51,0,0,0,11.93-3Z" transform="translate(-48.11 -180.05)"/><path class="cls-6" d="M169.72,321.56c-.13,0-.18.16-.07.22,5.49,3.17,7.8,9,9.17,14.88-1.43-2.4-3.62-3.9-6.79-2.25-.17.09-.06.35.11.34,2.45-.18,4.12.47,5.46,2.6a25.52,25.52,0,0,1,2.09,5c.2.56,1.18.41,1.07-.21l0-.15C181.91,334.6,177.58,323.42,169.72,321.56Z" transform="translate(-48.11 -180.05)"/><polyline class="cls-6" points="0 427.95 285.76 428.25 428.64 428.41 571.52 428.85 428.64 429.29 285.76 429.44 0 429.74"/><rect class="cls-8" x="240.65" y="424.35" width="199.11" height="8.93"/><rect class="cls-6" x="240.65" y="424.35" width="100.21" height="8.93"/><polygon class="cls-9" points="338.54 433.27 532.58 433.27 560 301.48 365.95 301.48 338.54 433.27"/><path class="cls-4" d="M482.34,550.37a11.43,11.43,0,0,0,11.57,12.94,14.72,14.72,0,0,0,14.29-12.94,11.43,11.43,0,0,0-11.57-12.93A14.72,14.72,0,0,0,482.34,550.37Z" transform="translate(-48.11 -180.05)"/></svg>